G04 #@! TF.GenerationSoftware,KiCad,Pcbnew,6.0.8*
G04 #@! TF.CreationDate,2022-10-19T16:45:40+03:00*
G04 #@! TF.ProjectId,keypad,6b657970-6164-42e6-9b69-6361645f7063,B*
G04 #@! TF.SameCoordinates,Original*
G04 #@! TF.FileFunction,Soldermask,Top*
G04 #@! TF.FilePolarity,Negative*
%FSLAX46Y46*%
G04 Gerber Fmt 4.6, Leading zero omitted, Abs format (unit mm)*
G04 Created by KiCad (PCBNEW 6.0.8) date 2022-10-19 16:45:40*
%MOMM*%
%LPD*%
G01*
G04 APERTURE LIST*
%ADD10C,0.150000*%
%ADD11R,1.550000X1.300000*%
%ADD12R,2.000000X1.500000*%
G04 APERTURE END LIST*
D10*
X191622100Y-51397200D02*
X218774700Y-51397200D01*
X218774700Y-51397200D02*
X218774700Y-58814000D01*
X218774700Y-58814000D02*
X191622100Y-58814000D01*
X191622100Y-58814000D02*
X191622100Y-51397200D01*
G36*
X191622100Y-51397200D02*
G01*
X218774700Y-51397200D01*
X218774700Y-58814000D01*
X191622100Y-58814000D01*
X191622100Y-51397200D01*
G37*
G36*
X161018461Y-113835736D02*
G01*
X161037728Y-113851256D01*
X161073062Y-113879621D01*
X161122365Y-113919152D01*
X161183539Y-113968168D01*
X161254485Y-114024988D01*
X161333106Y-114087931D01*
X161417303Y-114155316D01*
X161482174Y-114207219D01*
X161896459Y-114538651D01*
X161454398Y-114892539D01*
X161365860Y-114963374D01*
X161282358Y-115030098D01*
X161205746Y-115091234D01*
X161137881Y-115145305D01*
X161080620Y-115190833D01*
X161035817Y-115226342D01*
X161005329Y-115250353D01*
X160991013Y-115261389D01*
X160990685Y-115261624D01*
X160986317Y-115264067D01*
X160982579Y-115263702D01*
X160979422Y-115258884D01*
X160976798Y-115247968D01*
X160974657Y-115229310D01*
X160972950Y-115201265D01*
X160971629Y-115162188D01*
X160970643Y-115110434D01*
X160969944Y-115044358D01*
X160969483Y-114962317D01*
X160969211Y-114862664D01*
X160969078Y-114743756D01*
X160969036Y-114603947D01*
X160969033Y-114536253D01*
X160969033Y-113795685D01*
X161018461Y-113835736D01*
G37*
G36*
X164699480Y-113986754D02*
G01*
X164700082Y-114126607D01*
X164700487Y-114282842D01*
X164700695Y-114448969D01*
X164700706Y-114618496D01*
X164700519Y-114784935D01*
X164700135Y-114941792D01*
X164699554Y-115082579D01*
X164699480Y-115096483D01*
X164696460Y-115648392D01*
X163961551Y-115098508D01*
X163846356Y-115012164D01*
X163736774Y-114929729D01*
X163634205Y-114852276D01*
X163540047Y-114780875D01*
X163455702Y-114716598D01*
X163382570Y-114660516D01*
X163322050Y-114613699D01*
X163275544Y-114577220D01*
X163244450Y-114552149D01*
X163230169Y-114539558D01*
X163229378Y-114538344D01*
X163238893Y-114529910D01*
X163265620Y-114508618D01*
X163308147Y-114475547D01*
X163365059Y-114431771D01*
X163434943Y-114378368D01*
X163516388Y-114316415D01*
X163607978Y-114246986D01*
X163708302Y-114171160D01*
X163815946Y-114090013D01*
X163929498Y-114004621D01*
X163964287Y-113978499D01*
X164696460Y-113428934D01*
X164699480Y-113986754D01*
G37*
G36*
X158764514Y-115464471D02*
G01*
X158710872Y-115151393D01*
X158679186Y-114833722D01*
X158669775Y-114512430D01*
X158682959Y-114188484D01*
X158707934Y-113943863D01*
X158759879Y-113630428D01*
X158834287Y-113321229D01*
X158930518Y-113017763D01*
X159047936Y-112721527D01*
X159185905Y-112434020D01*
X159343786Y-112156738D01*
X159520943Y-111891181D01*
X159657817Y-111710896D01*
X159871892Y-111461618D01*
X160100450Y-111230325D01*
X160342726Y-111017440D01*
X160597953Y-110823383D01*
X160865364Y-110648576D01*
X161144194Y-110493442D01*
X161433676Y-110358401D01*
X161733044Y-110243876D01*
X162041531Y-110150288D01*
X162358372Y-110078059D01*
X162682800Y-110027611D01*
X162725169Y-110022711D01*
X162830831Y-110013493D01*
X162953433Y-110007005D01*
X163087033Y-110003247D01*
X163225688Y-110002221D01*
X163363458Y-110003927D01*
X163494402Y-110008365D01*
X163612577Y-110015537D01*
X163688192Y-110022591D01*
X164014957Y-110070479D01*
X164333611Y-110139975D01*
X164643577Y-110230806D01*
X164944278Y-110342701D01*
X165235139Y-110475388D01*
X165515583Y-110628596D01*
X165785032Y-110802053D01*
X166042910Y-110995486D01*
X166288641Y-111208626D01*
X166369691Y-111285895D01*
X166594188Y-111519925D01*
X166798032Y-111763758D01*
X166982276Y-112018845D01*
X167147978Y-112286641D01*
X167285687Y-112546988D01*
X167416804Y-112841321D01*
X167526235Y-113143361D01*
X167613760Y-113451857D01*
X167679157Y-113765555D01*
X167722207Y-114083203D01*
X167742687Y-114403549D01*
X167740379Y-114725341D01*
X167719395Y-115008011D01*
X167673837Y-115329820D01*
X167606307Y-115644940D01*
X167517367Y-115952450D01*
X167407577Y-116251427D01*
X167277501Y-116540949D01*
X167127699Y-116820095D01*
X166958734Y-117087942D01*
X166771167Y-117343569D01*
X166565559Y-117586053D01*
X166342474Y-117814473D01*
X166102471Y-118027906D01*
X165846113Y-118225431D01*
X165696643Y-118328078D01*
X165418513Y-118497561D01*
X165131924Y-118645379D01*
X164836929Y-118771512D01*
X164533579Y-118875942D01*
X164221927Y-118958651D01*
X163902026Y-119019618D01*
X163684647Y-119048128D01*
X163581419Y-119057350D01*
X163464405Y-119064553D01*
X163340182Y-119069572D01*
X163215325Y-119072242D01*
X163096412Y-119072398D01*
X162990017Y-119069874D01*
X162934509Y-119066977D01*
X162606157Y-119033796D01*
X162284560Y-118978603D01*
X161970452Y-118901735D01*
X161664565Y-118803532D01*
X161367633Y-118684331D01*
X161080389Y-118544470D01*
X160803567Y-118384290D01*
X160537899Y-118204126D01*
X160284119Y-118004319D01*
X160042959Y-117785207D01*
X159945550Y-117687440D01*
X159727810Y-117446001D01*
X159529461Y-117192214D01*
X159350822Y-116927049D01*
X159192215Y-116651473D01*
X159053960Y-116366459D01*
X158936378Y-116072973D01*
X158865205Y-115851189D01*
X160399725Y-115851189D01*
X160966183Y-116227313D01*
X161709017Y-115669997D01*
X161825065Y-115583049D01*
X161935869Y-115500260D01*
X162040004Y-115422680D01*
X162136048Y-115351358D01*
X162222577Y-115287344D01*
X162298168Y-115231688D01*
X162361398Y-115185438D01*
X162410845Y-115149646D01*
X162445083Y-115125360D01*
X162462692Y-115113629D01*
X162464706Y-115112681D01*
X162476890Y-115120675D01*
X162501830Y-115142684D01*
X162536381Y-115175746D01*
X162577396Y-115216901D01*
X162597539Y-115237704D01*
X162621304Y-115262197D01*
X162660278Y-115302019D01*
X162713291Y-115355984D01*
X162779172Y-115422908D01*
X162856751Y-115501605D01*
X162944857Y-115590888D01*
X163042320Y-115689574D01*
X163147969Y-115796477D01*
X163260633Y-115910410D01*
X163379143Y-116030189D01*
X163502327Y-116154628D01*
X163629015Y-116282542D01*
X163700177Y-116354365D01*
X163850330Y-116505825D01*
X163984999Y-116641513D01*
X164105012Y-116762236D01*
X164211195Y-116868805D01*
X164304376Y-116962026D01*
X164385384Y-117042710D01*
X164455045Y-117111664D01*
X164514187Y-117169698D01*
X164563639Y-117217620D01*
X164604227Y-117256239D01*
X164636779Y-117286364D01*
X164662122Y-117308804D01*
X164681085Y-117324366D01*
X164694495Y-117333861D01*
X164703180Y-117338096D01*
X164707094Y-117338307D01*
X164724957Y-117331534D01*
X164760527Y-117317166D01*
X164810111Y-117296729D01*
X164870016Y-117271743D01*
X164936551Y-117243735D01*
X164946506Y-117239523D01*
X165008084Y-117213480D01*
X165086990Y-117180151D01*
X165179114Y-117141269D01*
X165280343Y-117098570D01*
X165386567Y-117053786D01*
X165493674Y-117008653D01*
X165586158Y-116969702D01*
X166010654Y-116790969D01*
X166010654Y-112273160D01*
X165876909Y-112217134D01*
X165796008Y-112183202D01*
X165712131Y-112147931D01*
X165622376Y-112110096D01*
X165523844Y-112068471D01*
X165413636Y-112021830D01*
X165288851Y-111968949D01*
X165146589Y-111908601D01*
X165091881Y-111885382D01*
X165007207Y-111849557D01*
X164929160Y-111816759D01*
X164860372Y-111788076D01*
X164803477Y-111764598D01*
X164761105Y-111747413D01*
X164735891Y-111737610D01*
X164730064Y-111735721D01*
X164720406Y-111743575D01*
X164695216Y-111766894D01*
X164655454Y-111804737D01*
X164602078Y-111856165D01*
X164536048Y-111920239D01*
X164458323Y-111996019D01*
X164369863Y-112082566D01*
X164271627Y-112178942D01*
X164164574Y-112284205D01*
X164049663Y-112397418D01*
X163927854Y-112517640D01*
X163800107Y-112643932D01*
X163667379Y-112775356D01*
X163591442Y-112850639D01*
X163456408Y-112984480D01*
X163325864Y-113113701D01*
X163200767Y-113237363D01*
X163082071Y-113354530D01*
X162970733Y-113464263D01*
X162867708Y-113565625D01*
X162773951Y-113657678D01*
X162690419Y-113739484D01*
X162618067Y-113810107D01*
X162557851Y-113868607D01*
X162510726Y-113914048D01*
X162477649Y-113945491D01*
X162459574Y-113962000D01*
X162456359Y-113964371D01*
X162445799Y-113957115D01*
X162418081Y-113936938D01*
X162374631Y-113904904D01*
X162316878Y-113862078D01*
X162246249Y-113809524D01*
X162164172Y-113748306D01*
X162072074Y-113679487D01*
X161971384Y-113604132D01*
X161863529Y-113523306D01*
X161749937Y-113438071D01*
X161716730Y-113413134D01*
X161601562Y-113326740D01*
X161491545Y-113244421D01*
X161388126Y-113167244D01*
X161292752Y-113096283D01*
X161206870Y-113032605D01*
X161131929Y-112977282D01*
X161069374Y-112931384D01*
X161020654Y-112895981D01*
X160987215Y-112872143D01*
X160970505Y-112860941D01*
X160969033Y-112860217D01*
X160953562Y-112862560D01*
X160919302Y-112871491D01*
X160869463Y-112886048D01*
X160807258Y-112905271D01*
X160735897Y-112928199D01*
X160678282Y-112947253D01*
X160404976Y-113038720D01*
X160402351Y-114444954D01*
X160399725Y-115851189D01*
X158865205Y-115851189D01*
X158839789Y-115771988D01*
X158764514Y-115464471D01*
G37*
G36*
X162752615Y-88805538D02*
G01*
X162669577Y-88801844D01*
X162600216Y-88798368D01*
X162516901Y-88793670D01*
X162475250Y-88791131D01*
X162363962Y-88784113D01*
X162016096Y-88101720D01*
X161668230Y-87419326D01*
X161657948Y-88747148D01*
X161516551Y-88735632D01*
X161443544Y-88728961D01*
X161384588Y-88722249D01*
X161351730Y-88716881D01*
X161350730Y-88716595D01*
X161344855Y-88706751D01*
X161339933Y-88679352D01*
X161335894Y-88631701D01*
X161332669Y-88561105D01*
X161330188Y-88464867D01*
X161328381Y-88340294D01*
X161327178Y-88184689D01*
X161326511Y-87995358D01*
X161326307Y-87773334D01*
X161326307Y-86837597D01*
X161428884Y-86825276D01*
X161509548Y-86817755D01*
X161591890Y-86813324D01*
X161619384Y-86812835D01*
X161707307Y-86812715D01*
X162049230Y-87456067D01*
X162391154Y-88099419D01*
X162396291Y-87426709D01*
X162401429Y-86754000D01*
X162752615Y-86754000D01*
X162752615Y-88805538D01*
G37*
G36*
X165175384Y-86107951D02*
G01*
X165395192Y-86113475D01*
X165615000Y-86119000D01*
X165620265Y-86543961D01*
X165625531Y-86968923D01*
X165175655Y-86968923D01*
X165165615Y-89635923D01*
X164418269Y-89641040D01*
X163670923Y-89646156D01*
X163670923Y-89313538D01*
X164921384Y-89313538D01*
X164921384Y-89137692D01*
X163670923Y-89137692D01*
X163670923Y-88727384D01*
X164921384Y-88727384D01*
X164921384Y-88551538D01*
X163670923Y-88551538D01*
X163670923Y-88160769D01*
X164921384Y-88160769D01*
X164921384Y-87984923D01*
X163670923Y-87984923D01*
X163670923Y-87574615D01*
X164921384Y-87574615D01*
X164921384Y-87398769D01*
X163670923Y-87398769D01*
X163670923Y-87008000D01*
X164921384Y-87008000D01*
X164921384Y-86832154D01*
X163670923Y-86832154D01*
X163670923Y-86421846D01*
X164921384Y-86421846D01*
X164921384Y-86246000D01*
X163670923Y-86246000D01*
X163670923Y-85913846D01*
X165175384Y-85913846D01*
X165175384Y-86107951D01*
G37*
G36*
X158848801Y-87254847D02*
G01*
X158880850Y-87019399D01*
X158929056Y-86785969D01*
X158995273Y-86542692D01*
X159042123Y-86394048D01*
X159187543Y-86012403D01*
X159365834Y-85650132D01*
X159575085Y-85308792D01*
X159813388Y-84989943D01*
X160078832Y-84695142D01*
X160369508Y-84425950D01*
X160683506Y-84183924D01*
X161018917Y-83970623D01*
X161373830Y-83787606D01*
X161746336Y-83636432D01*
X162134526Y-83518659D01*
X162536490Y-83435846D01*
X162693487Y-83413740D01*
X162795269Y-83404769D01*
X162925800Y-83398508D01*
X163074846Y-83394958D01*
X163232174Y-83394120D01*
X163387550Y-83395993D01*
X163530739Y-83400577D01*
X163651509Y-83407872D01*
X163710512Y-83413740D01*
X164117240Y-83482769D01*
X164510924Y-83587353D01*
X164889655Y-83725935D01*
X165251523Y-83896956D01*
X165594619Y-84098857D01*
X165917034Y-84330079D01*
X166216856Y-84589064D01*
X166492177Y-84874253D01*
X166741087Y-85184087D01*
X166961677Y-85517008D01*
X167152036Y-85871457D01*
X167310255Y-86245875D01*
X167361877Y-86394048D01*
X167439266Y-86648332D01*
X167497582Y-86885962D01*
X167538675Y-87118801D01*
X167564401Y-87358715D01*
X167576612Y-87617568D01*
X167578234Y-87779256D01*
X167560933Y-88191679D01*
X167509365Y-88586934D01*
X167422654Y-88968146D01*
X167299929Y-89338439D01*
X167140316Y-89700939D01*
X166942941Y-90058769D01*
X166939636Y-90064204D01*
X166737659Y-90362871D01*
X166503134Y-90651798D01*
X166242444Y-90924600D01*
X165961973Y-91174893D01*
X165668104Y-91396295D01*
X165496204Y-91507636D01*
X165132522Y-91706673D01*
X164754573Y-91870077D01*
X164364855Y-91997230D01*
X163965867Y-92087516D01*
X163560106Y-92140320D01*
X163150071Y-92155024D01*
X162908923Y-92145698D01*
X162497937Y-92099140D01*
X162096509Y-92014738D01*
X161705250Y-91892687D01*
X161324775Y-91733184D01*
X160955698Y-91536423D01*
X160907795Y-91507636D01*
X160609128Y-91305659D01*
X160320202Y-91071134D01*
X160047400Y-90810444D01*
X159797106Y-90529973D01*
X159575704Y-90236104D01*
X159464364Y-90064204D01*
X159266406Y-89706421D01*
X159106224Y-89344015D01*
X158982943Y-88973864D01*
X158895690Y-88592842D01*
X158843593Y-88197824D01*
X158825777Y-87785687D01*
X158825766Y-87779256D01*
X158826107Y-87761547D01*
X160622923Y-87761547D01*
X160622967Y-88044397D01*
X160623097Y-88316055D01*
X160623306Y-88573995D01*
X160623588Y-88815691D01*
X160623937Y-89038620D01*
X160624348Y-89240254D01*
X160624815Y-89418070D01*
X160625332Y-89569543D01*
X160625892Y-89692146D01*
X160626491Y-89783355D01*
X160627122Y-89840644D01*
X160627779Y-89861489D01*
X160627807Y-89861529D01*
X160647276Y-89865375D01*
X160702130Y-89876227D01*
X160789422Y-89893500D01*
X160906203Y-89916613D01*
X161049526Y-89944980D01*
X161216444Y-89978020D01*
X161404009Y-90015148D01*
X161609272Y-90055780D01*
X161829287Y-90099334D01*
X162061105Y-90145227D01*
X162098077Y-90152546D01*
X162332917Y-90198927D01*
X162557510Y-90243070D01*
X162768775Y-90284384D01*
X162963636Y-90322276D01*
X163139012Y-90356155D01*
X163291825Y-90385427D01*
X163418996Y-90409501D01*
X163517448Y-90427785D01*
X163584100Y-90439687D01*
X163615875Y-90444614D01*
X163617192Y-90444708D01*
X163670923Y-90446769D01*
X163670923Y-89803285D01*
X164450430Y-89797758D01*
X164646254Y-89796272D01*
X164806746Y-89794731D01*
X164935653Y-89792947D01*
X165036718Y-89790726D01*
X165113687Y-89787879D01*
X165170305Y-89784216D01*
X165210318Y-89779544D01*
X165237470Y-89773673D01*
X165255507Y-89766413D01*
X165268173Y-89757573D01*
X165269938Y-89756012D01*
X165304375Y-89709205D01*
X165322368Y-89663204D01*
X165333942Y-89627726D01*
X165356125Y-89611307D01*
X165401347Y-89606747D01*
X165420060Y-89606615D01*
X165461323Y-89605685D01*
X165493979Y-89600166D01*
X165519035Y-89585969D01*
X165537498Y-89559000D01*
X165550373Y-89515170D01*
X165558667Y-89450387D01*
X165563386Y-89360559D01*
X165565538Y-89241595D01*
X165566129Y-89089404D01*
X165566154Y-89012768D01*
X165565986Y-88847477D01*
X165564768Y-88717117D01*
X165561428Y-88617541D01*
X165554893Y-88544603D01*
X165544092Y-88494157D01*
X165527953Y-88462055D01*
X165505403Y-88444153D01*
X165475370Y-88436303D01*
X165436783Y-88434360D01*
X165416587Y-88434307D01*
X165359740Y-88430201D01*
X165334532Y-88416333D01*
X165331692Y-88405000D01*
X165344597Y-88384621D01*
X165387377Y-88376224D01*
X165409846Y-88375692D01*
X165488971Y-88361876D01*
X165527077Y-88336615D01*
X165538884Y-88322967D01*
X165548042Y-88305348D01*
X165554887Y-88279015D01*
X165559754Y-88239228D01*
X165562977Y-88181246D01*
X165564892Y-88100325D01*
X165565833Y-87991726D01*
X165566136Y-87850706D01*
X165566154Y-87783503D01*
X165565678Y-87617182D01*
X165564136Y-87486172D01*
X165561352Y-87386717D01*
X165557150Y-87315061D01*
X165551356Y-87267449D01*
X165543794Y-87240124D01*
X165540542Y-87234443D01*
X165501005Y-87207627D01*
X165434088Y-87190460D01*
X165423311Y-87189091D01*
X165360208Y-87176446D01*
X165332713Y-87157241D01*
X165331692Y-87151997D01*
X165340125Y-87139521D01*
X165369227Y-87131407D01*
X165424703Y-87126908D01*
X165512258Y-87125278D01*
X165536158Y-87125230D01*
X165628952Y-87124506D01*
X165690293Y-87121479D01*
X165727794Y-87114870D01*
X165749066Y-87103398D01*
X165760851Y-87087438D01*
X165767305Y-87055429D01*
X165772662Y-86987566D01*
X165776803Y-86887063D01*
X165779611Y-86757130D01*
X165780967Y-86600980D01*
X165781077Y-86537015D01*
X165780828Y-86379710D01*
X165779900Y-86256861D01*
X165778021Y-86163849D01*
X165774918Y-86096054D01*
X165770320Y-86048858D01*
X165763952Y-86017640D01*
X165755544Y-85997783D01*
X165748741Y-85988654D01*
X165727264Y-85971613D01*
X165694651Y-85960891D01*
X165642579Y-85955147D01*
X165562723Y-85953046D01*
X165526491Y-85952923D01*
X165336577Y-85952923D01*
X165325152Y-85895802D01*
X165301844Y-85839292D01*
X165270180Y-85798110D01*
X165258220Y-85787952D01*
X165243751Y-85779647D01*
X165222993Y-85773011D01*
X165192166Y-85767855D01*
X165147490Y-85763993D01*
X165085183Y-85761238D01*
X165001467Y-85759404D01*
X164892560Y-85758304D01*
X164754684Y-85757751D01*
X164584056Y-85757558D01*
X164448777Y-85757538D01*
X163670923Y-85757538D01*
X163670923Y-85425384D01*
X163670574Y-85303480D01*
X163669183Y-85215321D01*
X163666228Y-85155577D01*
X163661189Y-85118919D01*
X163653547Y-85100019D01*
X163642780Y-85093547D01*
X163638501Y-85093230D01*
X163615092Y-85096760D01*
X163556912Y-85106898D01*
X163467578Y-85122964D01*
X163350711Y-85144280D01*
X163209929Y-85170166D01*
X163048853Y-85199945D01*
X162871100Y-85232937D01*
X162680291Y-85268464D01*
X162480044Y-85305846D01*
X162273979Y-85344405D01*
X162065716Y-85383462D01*
X161858873Y-85422338D01*
X161657070Y-85460354D01*
X161463926Y-85496831D01*
X161283061Y-85531091D01*
X161118093Y-85562455D01*
X160972643Y-85590244D01*
X160850329Y-85613779D01*
X160754770Y-85632381D01*
X160689586Y-85645372D01*
X160658396Y-85652072D01*
X160657115Y-85652420D01*
X160651703Y-85655597D01*
X160646892Y-85663210D01*
X160642648Y-85677435D01*
X160638934Y-85700447D01*
X160635717Y-85734423D01*
X160632959Y-85781537D01*
X160630627Y-85843967D01*
X160628684Y-85923886D01*
X160627096Y-86023472D01*
X160625827Y-86144900D01*
X160624842Y-86290345D01*
X160624106Y-86461983D01*
X160623584Y-86661991D01*
X160623239Y-86892543D01*
X160623038Y-87155815D01*
X160622944Y-87453983D01*
X160622923Y-87761547D01*
X158826107Y-87761547D01*
X158831058Y-87504178D01*
X158848801Y-87254847D01*
G37*
G36*
X125665610Y-115298215D02*
G01*
X125668819Y-115273772D01*
X125671696Y-115244980D01*
X125674211Y-115208023D01*
X125676333Y-115164730D01*
X125678031Y-115116925D01*
X125679275Y-115066436D01*
X125680033Y-115015088D01*
X125680275Y-114964709D01*
X125679970Y-114917125D01*
X125679086Y-114874162D01*
X125677594Y-114837646D01*
X125676476Y-114820628D01*
X125659515Y-114663175D01*
X125633634Y-114509778D01*
X125598884Y-114360603D01*
X125555322Y-114215812D01*
X125502999Y-114075569D01*
X125441971Y-113940038D01*
X125372291Y-113809384D01*
X125309970Y-113707890D01*
X125297938Y-113689732D01*
X125287271Y-113674718D01*
X125276582Y-113661401D01*
X125264480Y-113648338D01*
X125249575Y-113634081D01*
X125230479Y-113617187D01*
X125205802Y-113596211D01*
X125189253Y-113582331D01*
X125078967Y-113486347D01*
X124966160Y-113380865D01*
X124863631Y-113278996D01*
X124767974Y-113177520D01*
X124680877Y-113076693D01*
X124601476Y-112975154D01*
X124528908Y-112871540D01*
X124462308Y-112764489D01*
X124400812Y-112652638D01*
X124343556Y-112534627D01*
X124289675Y-112409091D01*
X124254650Y-112319074D01*
X124213508Y-112199693D01*
X124180237Y-112081549D01*
X124154241Y-111962039D01*
X124134923Y-111838562D01*
X124125923Y-111757656D01*
X124123614Y-111725775D01*
X124121874Y-111686086D01*
X124120705Y-111640763D01*
X124120104Y-111591977D01*
X124120071Y-111541901D01*
X124120607Y-111492707D01*
X124121710Y-111446568D01*
X124123380Y-111405656D01*
X124125617Y-111372144D01*
X124126009Y-111367809D01*
X124146616Y-111201986D01*
X124177017Y-111037348D01*
X124217241Y-110873806D01*
X124267318Y-110711268D01*
X124327277Y-110549643D01*
X124397146Y-110388840D01*
X124476954Y-110228767D01*
X124503787Y-110179152D01*
X124563528Y-110074257D01*
X124626420Y-109970521D01*
X124691374Y-109869576D01*
X124757299Y-109773058D01*
X124823105Y-109682601D01*
X124887703Y-109599839D01*
X124900979Y-109583630D01*
X124940049Y-109536357D01*
X124945821Y-109581364D01*
X124952475Y-109620963D01*
X124962529Y-109660074D01*
X124976743Y-109700986D01*
X124995877Y-109745987D01*
X125011273Y-109778435D01*
X125041502Y-109835892D01*
X125077374Y-109896261D01*
X125119180Y-109959921D01*
X125167209Y-110027250D01*
X125221752Y-110098625D01*
X125283099Y-110174424D01*
X125351540Y-110255026D01*
X125427365Y-110340808D01*
X125510864Y-110432148D01*
X125522940Y-110445141D01*
X125543114Y-110466510D01*
X125567871Y-110492250D01*
X125596562Y-110521720D01*
X125628538Y-110554277D01*
X125663150Y-110589279D01*
X125699748Y-110626086D01*
X125737683Y-110664056D01*
X125776307Y-110702546D01*
X125814970Y-110740915D01*
X125853022Y-110778521D01*
X125889816Y-110814723D01*
X125924700Y-110848878D01*
X125957027Y-110880346D01*
X125986148Y-110908484D01*
X126011412Y-110932651D01*
X126032171Y-110952205D01*
X126047775Y-110966504D01*
X126057576Y-110974906D01*
X126060889Y-110976907D01*
X126063418Y-110970728D01*
X126067691Y-110956959D01*
X126073086Y-110937720D01*
X126078254Y-110917986D01*
X126101166Y-110838544D01*
X126128748Y-110761398D01*
X126160245Y-110688211D01*
X126194904Y-110620646D01*
X126231972Y-110560366D01*
X126254517Y-110529084D01*
X126265556Y-110515340D01*
X126274183Y-110505743D01*
X126278753Y-110502103D01*
X126278987Y-110502182D01*
X126280836Y-110507867D01*
X126283530Y-110520558D01*
X126286157Y-110535540D01*
X126296745Y-110582187D01*
X126314501Y-110635381D01*
X126339312Y-110694819D01*
X126357397Y-110733059D01*
X126371799Y-110761922D01*
X126386647Y-110790734D01*
X126402337Y-110820148D01*
X126419263Y-110850816D01*
X126437820Y-110883390D01*
X126458403Y-110918523D01*
X126481406Y-110956868D01*
X126507225Y-110999076D01*
X126536255Y-111045801D01*
X126568889Y-111097694D01*
X126605524Y-111155409D01*
X126646554Y-111219597D01*
X126692374Y-111290911D01*
X126735412Y-111357665D01*
X126805283Y-111466175D01*
X126869904Y-111567137D01*
X126929686Y-111661241D01*
X126985037Y-111749181D01*
X127036367Y-111831646D01*
X127084085Y-111909329D01*
X127128601Y-111982921D01*
X127170325Y-112053113D01*
X127209666Y-112120598D01*
X127247033Y-112186066D01*
X127282836Y-112250209D01*
X127317484Y-112313719D01*
X127351387Y-112377287D01*
X127384954Y-112441605D01*
X127418595Y-112507364D01*
X127432478Y-112534850D01*
X127491690Y-112654651D01*
X127545808Y-112768903D01*
X127595840Y-112879976D01*
X127642796Y-112990239D01*
X127687683Y-113102061D01*
X127731510Y-113217811D01*
X127775286Y-113339858D01*
X127776046Y-113342032D01*
X127837904Y-113533906D01*
X127889932Y-113727569D01*
X127932122Y-113922980D01*
X127964467Y-114120101D01*
X127986959Y-114318893D01*
X127995584Y-114436601D01*
X127997130Y-114471421D01*
X127998223Y-114514066D01*
X127998882Y-114562786D01*
X127999123Y-114615831D01*
X127998966Y-114671450D01*
X127998427Y-114727894D01*
X127997524Y-114783411D01*
X127996275Y-114836251D01*
X127994698Y-114884664D01*
X127992811Y-114926900D01*
X127990631Y-114961208D01*
X127990210Y-114966393D01*
X127982722Y-115045924D01*
X127973516Y-115128833D01*
X127962883Y-115213127D01*
X127951114Y-115296813D01*
X127938499Y-115377896D01*
X127925329Y-115454383D01*
X127911895Y-115524281D01*
X127902391Y-115568655D01*
X127901169Y-115576760D01*
X127902947Y-115576427D01*
X127907339Y-115568627D01*
X127913963Y-115554328D01*
X127922433Y-115534501D01*
X127932366Y-115510114D01*
X127943378Y-115482136D01*
X127955085Y-115451538D01*
X127967102Y-115419287D01*
X127979046Y-115386355D01*
X127990532Y-115353709D01*
X128001177Y-115322319D01*
X128006701Y-115305421D01*
X128045892Y-115172480D01*
X128079856Y-115034174D01*
X128107761Y-114894116D01*
X128122316Y-114803439D01*
X128129592Y-114751954D01*
X128135604Y-114706200D01*
X128140471Y-114664386D01*
X128144310Y-114624721D01*
X128147238Y-114585412D01*
X128149374Y-114544670D01*
X128150836Y-114500702D01*
X128151740Y-114451718D01*
X128152205Y-114395925D01*
X128152338Y-114346637D01*
X128152297Y-114301764D01*
X128152093Y-114259556D01*
X128151743Y-114221161D01*
X128151265Y-114187729D01*
X128150676Y-114160408D01*
X128149994Y-114140350D01*
X128149238Y-114128702D01*
X128148935Y-114126723D01*
X128147171Y-114118056D01*
X128148386Y-114118566D01*
X128149943Y-114121725D01*
X128152423Y-114130822D01*
X128155702Y-114148448D01*
X128159589Y-114173188D01*
X128163895Y-114203623D01*
X128168427Y-114238338D01*
X128172996Y-114275916D01*
X128177411Y-114314939D01*
X128181480Y-114353990D01*
X128182232Y-114361631D01*
X128187873Y-114423760D01*
X128192301Y-114482562D01*
X128195591Y-114540142D01*
X128197816Y-114598606D01*
X128199051Y-114660058D01*
X128199369Y-114726604D01*
X128198843Y-114800349D01*
X128198515Y-114825442D01*
X128196878Y-114908521D01*
X128194353Y-114983835D01*
X128190752Y-115053586D01*
X128185887Y-115119980D01*
X128179570Y-115185223D01*
X128171611Y-115251519D01*
X128161825Y-115321073D01*
X128150021Y-115396089D01*
X128149588Y-115398722D01*
X128113209Y-115589442D01*
X128066987Y-115779335D01*
X128011067Y-115968013D01*
X127945593Y-116155087D01*
X127870709Y-116340167D01*
X127786560Y-116522866D01*
X127693290Y-116702794D01*
X127615971Y-116838156D01*
X127601205Y-116863163D01*
X127587920Y-116885992D01*
X127577110Y-116904910D01*
X127569771Y-116918181D01*
X127567258Y-116923122D01*
X127562282Y-116932036D01*
X127552389Y-116947974D01*
X127538371Y-116969754D01*
X127521023Y-116996198D01*
X127501139Y-117026126D01*
X127479514Y-117058358D01*
X127456942Y-117091714D01*
X127434217Y-117125015D01*
X127412134Y-117157081D01*
X127391487Y-117186733D01*
X127373070Y-117212790D01*
X127360295Y-117230501D01*
X127253803Y-117370771D01*
X127138303Y-117512472D01*
X127014515Y-117654756D01*
X126883165Y-117796772D01*
X126842573Y-117839012D01*
X126819779Y-117862627D01*
X126799664Y-117883662D01*
X126783158Y-117901128D01*
X126771192Y-117914033D01*
X126764699Y-117921389D01*
X126763829Y-117922729D01*
X126769813Y-117920471D01*
X126783083Y-117914217D01*
X126802145Y-117904748D01*
X126825507Y-117892843D01*
X126851672Y-117879283D01*
X126879147Y-117864847D01*
X126906437Y-117850316D01*
X126932048Y-117836470D01*
X126954486Y-117824089D01*
X126972256Y-117813953D01*
X126972727Y-117813677D01*
X127069080Y-117753534D01*
X127158385Y-117690524D01*
X127240289Y-117625027D01*
X127314442Y-117557422D01*
X127380492Y-117488089D01*
X127438089Y-117417405D01*
X127486881Y-117345751D01*
X127526517Y-117273505D01*
X127556647Y-117201047D01*
X127565519Y-117173573D01*
X127570635Y-117156521D01*
X127573343Y-117148541D01*
X127574078Y-117149124D01*
X127573274Y-117157757D01*
X127572360Y-117165527D01*
X127569156Y-117184658D01*
X127563378Y-117211405D01*
X127555528Y-117243870D01*
X127546110Y-117280158D01*
X127535625Y-117318374D01*
X127524578Y-117356622D01*
X127513471Y-117393005D01*
X127505404Y-117417927D01*
X127464696Y-117527721D01*
X127416915Y-117633885D01*
X127361777Y-117736757D01*
X127298999Y-117836670D01*
X127228298Y-117933960D01*
X127149388Y-118028961D01*
X127061988Y-118122008D01*
X126965814Y-118213436D01*
X126860581Y-118303580D01*
X126746007Y-118392774D01*
X126621807Y-118481354D01*
X126582272Y-118508096D01*
X126421350Y-118609694D01*
X126254845Y-118703149D01*
X126083440Y-118788108D01*
X125907815Y-118864221D01*
X125846436Y-118888338D01*
X125712338Y-118939440D01*
X125586868Y-118986798D01*
X125469471Y-119030610D01*
X125359590Y-119071074D01*
X125256667Y-119108388D01*
X125160146Y-119142749D01*
X125069469Y-119174357D01*
X124984081Y-119203409D01*
X124903424Y-119230102D01*
X124826941Y-119254636D01*
X124754075Y-119277207D01*
X124745193Y-119279901D01*
X124709280Y-119291006D01*
X124679641Y-119300666D01*
X124657052Y-119308604D01*
X124642290Y-119314543D01*
X124636132Y-119318204D01*
X124636125Y-119318868D01*
X124642497Y-119320242D01*
X124657596Y-119321200D01*
X124680163Y-119321771D01*
X124708937Y-119321980D01*
X124742658Y-119321854D01*
X124780068Y-119321418D01*
X124819907Y-119320701D01*
X124860915Y-119319727D01*
X124901832Y-119318524D01*
X124941399Y-119317117D01*
X124978356Y-119315534D01*
X125011443Y-119313800D01*
X125039402Y-119311942D01*
X125060972Y-119309987D01*
X125061268Y-119309954D01*
X125145319Y-119299200D01*
X125228227Y-119286005D01*
X125307830Y-119270786D01*
X125381968Y-119253959D01*
X125448478Y-119235941D01*
X125453602Y-119234400D01*
X125521607Y-119211691D01*
X125586582Y-119185899D01*
X125647181Y-119157711D01*
X125702055Y-119127813D01*
X125749856Y-119096892D01*
X125789234Y-119065636D01*
X125794654Y-119060658D01*
X125804845Y-119052027D01*
X125811840Y-119047834D01*
X125813232Y-119047879D01*
X125810960Y-119052344D01*
X125802355Y-119062638D01*
X125788407Y-119077789D01*
X125770109Y-119096826D01*
X125748451Y-119118775D01*
X125724425Y-119142666D01*
X125699022Y-119167524D01*
X125673234Y-119192380D01*
X125648053Y-119216260D01*
X125624469Y-119238191D01*
X125603475Y-119257203D01*
X125586061Y-119272323D01*
X125576065Y-119280433D01*
X125470781Y-119355914D01*
X125357042Y-119426414D01*
X125235106Y-119491857D01*
X125105230Y-119552163D01*
X124967670Y-119607255D01*
X124822685Y-119657054D01*
X124670532Y-119701484D01*
X124511466Y-119740465D01*
X124345746Y-119773920D01*
X124173628Y-119801771D01*
X123995370Y-119823940D01*
X123811228Y-119840349D01*
X123708579Y-119846834D01*
X123666755Y-119848761D01*
X123617912Y-119850436D01*
X123563849Y-119851842D01*
X123506361Y-119852961D01*
X123447247Y-119853775D01*
X123388302Y-119854267D01*
X123331325Y-119854419D01*
X123278113Y-119854214D01*
X123230461Y-119853633D01*
X123190169Y-119852660D01*
X123174511Y-119852072D01*
X122947856Y-119837577D01*
X122724843Y-119813850D01*
X122505175Y-119780845D01*
X122288553Y-119738516D01*
X122074680Y-119686819D01*
X122053119Y-119681048D01*
X122023092Y-119673065D01*
X121995475Y-119665959D01*
X121972068Y-119660175D01*
X121954669Y-119656156D01*
X121945076Y-119654348D01*
X121944995Y-119654339D01*
X121936480Y-119652295D01*
X121919767Y-119647272D01*
X121896060Y-119639685D01*
X121866564Y-119629948D01*
X121832483Y-119618477D01*
X121795022Y-119605685D01*
X121755385Y-119591989D01*
X121714776Y-119577801D01*
X121674401Y-119563537D01*
X121635462Y-119549612D01*
X121599165Y-119536440D01*
X121566714Y-119524436D01*
X121556277Y-119520508D01*
X121458757Y-119481961D01*
X121356144Y-119438323D01*
X121251121Y-119390783D01*
X121146376Y-119340527D01*
X121122818Y-119328816D01*
X121044190Y-119288765D01*
X120972823Y-119250855D01*
X120906569Y-119213860D01*
X120843278Y-119176552D01*
X120780800Y-119137707D01*
X120730473Y-119105039D01*
X120699054Y-119084353D01*
X120665209Y-119062165D01*
X120631775Y-119040329D01*
X120601589Y-119020699D01*
X120581873Y-119007949D01*
X120433669Y-118909036D01*
X120292540Y-118807619D01*
X120156717Y-118702266D01*
X120024430Y-118591545D01*
X119893908Y-118474024D01*
X119763382Y-118348271D01*
X119750499Y-118335426D01*
X119650071Y-118232727D01*
X119557137Y-118132776D01*
X119470257Y-118033831D01*
X119387994Y-117934151D01*
X119308910Y-117831995D01*
X119231566Y-117725621D01*
X119156149Y-117615719D01*
X119041779Y-117436410D01*
X118935322Y-117252742D01*
X118837000Y-117065285D01*
X118747037Y-116874606D01*
X118665653Y-116681274D01*
X118593072Y-116485857D01*
X118529516Y-116288924D01*
X118475207Y-116091043D01*
X118430368Y-115892782D01*
X118395220Y-115694711D01*
X118389440Y-115655635D01*
X118378779Y-115577925D01*
X118369921Y-115505768D01*
X118362727Y-115437110D01*
X118357057Y-115369893D01*
X118352771Y-115302064D01*
X118349730Y-115231565D01*
X118347794Y-115156342D01*
X118346823Y-115074339D01*
X118346650Y-115025538D01*
X118346581Y-114980223D01*
X118346482Y-114938180D01*
X118346357Y-114900421D01*
X118346211Y-114867959D01*
X118346049Y-114841809D01*
X118345876Y-114822982D01*
X118345698Y-114812493D01*
X118345584Y-114810623D01*
X118343938Y-114815425D01*
X118339812Y-114828365D01*
X118333650Y-114848023D01*
X118325898Y-114872979D01*
X118316999Y-114901813D01*
X118314286Y-114910637D01*
X118275072Y-115044063D01*
X118238844Y-115178891D01*
X118221441Y-115248781D01*
X118203922Y-115321253D01*
X118206672Y-115256278D01*
X118217923Y-115054078D01*
X118234261Y-114857948D01*
X118255625Y-114668221D01*
X118281954Y-114485229D01*
X118313184Y-114309302D01*
X118349254Y-114140772D01*
X118390103Y-113979972D01*
X118435668Y-113827232D01*
X118485888Y-113682886D01*
X118513548Y-113611926D01*
X118520990Y-113593162D01*
X118525450Y-113580656D01*
X118526596Y-113574733D01*
X118524098Y-113575718D01*
X118517624Y-113583938D01*
X118506845Y-113599717D01*
X118491429Y-113623382D01*
X118473609Y-113651232D01*
X118409380Y-113756246D01*
X118346413Y-113867417D01*
X118292763Y-113969285D01*
X118278598Y-113996977D01*
X118266252Y-114020722D01*
X118256321Y-114039410D01*
X118249399Y-114051931D01*
X118246079Y-114057173D01*
X118245948Y-114056751D01*
X118250290Y-114041280D01*
X118257097Y-114017921D01*
X118265866Y-113988331D01*
X118276095Y-113954170D01*
X118287282Y-113917094D01*
X118298926Y-113878761D01*
X118310524Y-113840830D01*
X118321576Y-113804958D01*
X118331577Y-113772804D01*
X118339758Y-113746873D01*
X118380876Y-113622294D01*
X118424143Y-113499652D01*
X118469099Y-113380056D01*
X118515282Y-113264614D01*
X118562231Y-113154435D01*
X118609487Y-113050629D01*
X118656588Y-112954304D01*
X118703074Y-112866570D01*
X118712497Y-112849726D01*
X118752669Y-112779696D01*
X118789910Y-112717195D01*
X118825301Y-112660596D01*
X118859923Y-112608271D01*
X118894858Y-112558595D01*
X118931187Y-112509939D01*
X118969991Y-112460677D01*
X118976005Y-112453242D01*
X118996103Y-112428459D01*
X119015177Y-112404914D01*
X119031880Y-112384271D01*
X119044867Y-112368192D01*
X119052383Y-112358851D01*
X119061388Y-112348342D01*
X119067287Y-112342865D01*
X119068627Y-112342915D01*
X119071943Y-112341060D01*
X119081117Y-112333157D01*
X119094988Y-112320278D01*
X119112396Y-112303491D01*
X119126104Y-112289946D01*
X119145534Y-112270039D01*
X119162157Y-112251992D01*
X119174765Y-112237198D01*
X119182152Y-112227048D01*
X119183582Y-112223628D01*
X119182030Y-112217533D01*
X119175676Y-112218888D01*
X119173914Y-112219798D01*
X119163733Y-112224399D01*
X119160414Y-112222998D01*
X119161782Y-112217475D01*
X119161513Y-112211059D01*
X119159019Y-112209978D01*
X119154988Y-112211601D01*
X119150781Y-112217742D01*
X119145325Y-112230305D01*
X119140732Y-112242465D01*
X119137694Y-112249233D01*
X119135767Y-112246809D01*
X119134921Y-112243507D01*
X119130088Y-112237046D01*
X119123199Y-112237596D01*
X119115265Y-112237765D01*
X119113609Y-112234722D01*
X119109672Y-112230928D01*
X119103613Y-112231418D01*
X119095260Y-112230993D01*
X119093617Y-112226666D01*
X119090502Y-112221610D01*
X119083621Y-112222473D01*
X119075902Y-112222932D01*
X119073871Y-112217475D01*
X119128603Y-112217475D01*
X119131102Y-112219974D01*
X119133602Y-112217475D01*
X119131102Y-112214976D01*
X119128603Y-112217475D01*
X119073871Y-112217475D01*
X119073302Y-112215947D01*
X119073199Y-112214063D01*
X119073257Y-112186745D01*
X119074994Y-112151278D01*
X119078249Y-112109337D01*
X119082860Y-112062598D01*
X119088669Y-112012736D01*
X119095512Y-111961427D01*
X119100919Y-111924994D01*
X119115328Y-111841820D01*
X119133101Y-111755413D01*
X119153602Y-111668271D01*
X119176197Y-111582889D01*
X119200251Y-111501765D01*
X119225130Y-111427396D01*
X119232622Y-111406877D01*
X119243976Y-111377205D01*
X119256610Y-111345465D01*
X119269943Y-111312983D01*
X119283396Y-111281086D01*
X119296390Y-111251100D01*
X119308345Y-111224354D01*
X119318681Y-111202173D01*
X119326818Y-111185885D01*
X119332177Y-111176816D01*
X119333753Y-111175385D01*
X119335575Y-111179794D01*
X119335670Y-111190894D01*
X119335163Y-111196627D01*
X119334291Y-111206090D01*
X119334895Y-111209491D01*
X119337642Y-111206042D01*
X119343203Y-111194959D01*
X119351130Y-111177884D01*
X119361054Y-111155876D01*
X119370705Y-111133780D01*
X119378281Y-111115737D01*
X119379416Y-111112910D01*
X119387436Y-111094490D01*
X119396283Y-111076734D01*
X119399844Y-111070426D01*
X119407637Y-111058482D01*
X119418539Y-111043064D01*
X119431158Y-111025985D01*
X119444096Y-111009056D01*
X119455961Y-110994092D01*
X119465357Y-110982903D01*
X119470889Y-110977304D01*
X119471708Y-110977036D01*
X119471858Y-110982527D01*
X119470324Y-110994736D01*
X119468470Y-111005452D01*
X119466089Y-111020645D01*
X119465338Y-111031388D01*
X119465906Y-111034542D01*
X119468917Y-111031472D01*
X119474861Y-111021155D01*
X119482677Y-111005508D01*
X119486404Y-110997498D01*
X119509967Y-110946806D01*
X119530932Y-110903981D01*
X119550101Y-110867486D01*
X119568277Y-110835788D01*
X119584220Y-110810439D01*
X119600085Y-110788246D01*
X119619769Y-110763659D01*
X119641745Y-110738298D01*
X119664486Y-110713788D01*
X119686464Y-110691751D01*
X119706153Y-110673811D01*
X119722025Y-110661589D01*
X119727118Y-110658585D01*
X119743361Y-110650335D01*
X119743413Y-110691697D01*
X119745715Y-110758245D01*
X119752155Y-110830076D01*
X119762275Y-110904522D01*
X119775614Y-110978914D01*
X119791713Y-111050585D01*
X119810110Y-111116865D01*
X119823749Y-111157636D01*
X119839988Y-111202362D01*
X119847560Y-111186375D01*
X119853292Y-111175801D01*
X119857549Y-111170569D01*
X119857973Y-111170446D01*
X119861240Y-111174632D01*
X119868127Y-111186025D01*
X119877665Y-111202952D01*
X119888890Y-111223739D01*
X119890442Y-111226674D01*
X119926767Y-111292544D01*
X119965073Y-111356455D01*
X120004574Y-111417329D01*
X120044483Y-111474087D01*
X120084012Y-111525652D01*
X120122375Y-111570945D01*
X120158786Y-111608888D01*
X120188842Y-111635547D01*
X120206991Y-111650098D01*
X120278807Y-111638062D01*
X120326597Y-111630369D01*
X120368968Y-111624362D01*
X120408358Y-111619854D01*
X120447207Y-111616655D01*
X120487953Y-111614578D01*
X120533037Y-111613434D01*
X120584896Y-111613036D01*
X120603023Y-111613034D01*
X120664490Y-111613560D01*
X120718699Y-111615118D01*
X120768355Y-111617941D01*
X120816163Y-111622258D01*
X120864828Y-111628300D01*
X120917056Y-111636298D01*
X120957883Y-111643309D01*
X121015193Y-111654577D01*
X121078275Y-111668874D01*
X121143696Y-111685334D01*
X121208022Y-111703089D01*
X121267822Y-111721272D01*
X121272246Y-111722699D01*
X121344203Y-111746022D01*
X121397196Y-111693931D01*
X121428091Y-111664026D01*
X121454105Y-111639815D01*
X121474782Y-111621693D01*
X121489666Y-111610059D01*
X121498300Y-111605310D01*
X121499074Y-111605216D01*
X121501469Y-111609653D01*
X121502222Y-111620874D01*
X121501905Y-111627475D01*
X121501410Y-111639912D01*
X121502165Y-111646183D01*
X121502969Y-111646217D01*
X121542842Y-111600281D01*
X121584509Y-111559812D01*
X121630759Y-111522315D01*
X121677942Y-111489479D01*
X121705920Y-111471688D01*
X121733425Y-111455155D01*
X121758596Y-111440927D01*
X121779572Y-111430048D01*
X121794492Y-111423564D01*
X121796422Y-111422935D01*
X121803498Y-111421495D01*
X121806129Y-111424475D01*
X121805419Y-111434163D01*
X121804549Y-111439789D01*
X121801311Y-111460039D01*
X121873153Y-111423580D01*
X121947123Y-111387853D01*
X122020556Y-111355880D01*
X122091795Y-111328291D01*
X122159184Y-111305716D01*
X122221066Y-111288785D01*
X122237410Y-111285093D01*
X122265720Y-111279430D01*
X122284551Y-111276695D01*
X122294018Y-111277015D01*
X122294238Y-111280515D01*
X122285327Y-111287323D01*
X122267401Y-111297565D01*
X122254873Y-111304126D01*
X122235345Y-111314317D01*
X122219964Y-111322640D01*
X122210366Y-111328191D01*
X122208046Y-111330069D01*
X122213971Y-111328555D01*
X122226555Y-111324335D01*
X122243133Y-111318304D01*
X122243982Y-111317985D01*
X122286256Y-111304722D01*
X122335174Y-111293738D01*
X122387577Y-111285440D01*
X122440303Y-111280241D01*
X122490191Y-111278549D01*
X122532300Y-111280587D01*
X122564773Y-111284874D01*
X122597085Y-111290851D01*
X122627718Y-111298055D01*
X122655155Y-111306025D01*
X122677878Y-111314301D01*
X122694370Y-111322421D01*
X122703113Y-111329922D01*
X122704111Y-111332823D01*
X122699786Y-111336287D01*
X122687696Y-111342647D01*
X122669394Y-111351172D01*
X122646428Y-111361127D01*
X122629536Y-111368098D01*
X122603153Y-111378911D01*
X122579215Y-111388964D01*
X122559636Y-111397434D01*
X122546329Y-111403502D01*
X122542260Y-111405584D01*
X122535680Y-111409734D01*
X122535156Y-111412173D01*
X122541997Y-111413751D01*
X122557187Y-111415291D01*
X122584610Y-111417790D01*
X122529698Y-111457429D01*
X122426114Y-111537756D01*
X122331047Y-111623132D01*
X122244181Y-111713925D01*
X122165201Y-111810503D01*
X122093793Y-111913233D01*
X122029640Y-112022483D01*
X122005659Y-112068651D01*
X121991929Y-112096599D01*
X121978079Y-112125733D01*
X121965601Y-112152853D01*
X121955989Y-112174761D01*
X121954901Y-112177367D01*
X121937256Y-112219991D01*
X121949867Y-112257557D01*
X121958023Y-112279435D01*
X121968997Y-112305665D01*
X121980889Y-112331785D01*
X121985508Y-112341265D01*
X122024770Y-112411477D01*
X122068035Y-112472675D01*
X122115530Y-112525101D01*
X122167482Y-112568997D01*
X122224117Y-112604604D01*
X122239879Y-112612652D01*
X122266615Y-112624839D01*
X122292962Y-112634828D01*
X122320755Y-112643047D01*
X122351831Y-112649923D01*
X122388027Y-112655884D01*
X122431180Y-112661360D01*
X122464016Y-112664879D01*
X122567823Y-112675790D01*
X122662065Y-112686473D01*
X122747168Y-112697015D01*
X122823558Y-112707506D01*
X122891662Y-112718036D01*
X122951905Y-112728693D01*
X123004714Y-112739566D01*
X123050514Y-112750745D01*
X123089731Y-112762318D01*
X123122793Y-112774375D01*
X123150124Y-112787004D01*
X123172150Y-112800295D01*
X123189299Y-112814337D01*
X123192004Y-112817058D01*
X123200447Y-112826350D01*
X123205726Y-112834620D01*
X123208714Y-112844685D01*
X123210283Y-112859360D01*
X123211211Y-112879119D01*
X123210062Y-112923508D01*
X123203781Y-112972451D01*
X123192919Y-113022274D01*
X123186481Y-113044649D01*
X123165270Y-113098895D01*
X123135601Y-113152350D01*
X123097054Y-113205640D01*
X123049203Y-113259391D01*
X123026031Y-113282446D01*
X122987630Y-113317598D01*
X122951381Y-113346407D01*
X122914134Y-113371003D01*
X122872743Y-113393518D01*
X122837143Y-113410294D01*
X122814536Y-113420425D01*
X122784979Y-113433651D01*
X122750654Y-113448997D01*
X122713740Y-113465489D01*
X122676419Y-113482152D01*
X122654715Y-113491836D01*
X122606206Y-113513790D01*
X122554967Y-113537548D01*
X122502333Y-113562450D01*
X122449639Y-113587836D01*
X122398219Y-113613047D01*
X122349409Y-113637423D01*
X122304541Y-113660305D01*
X122264952Y-113681033D01*
X122231975Y-113698948D01*
X122209274Y-113711988D01*
X122170388Y-113736189D01*
X122136380Y-113759248D01*
X122108286Y-113780383D01*
X122087145Y-113798813D01*
X122073995Y-113813758D01*
X122073924Y-113813862D01*
X122067575Y-113823930D01*
X122065466Y-113831647D01*
X122067404Y-113841105D01*
X122072053Y-113853479D01*
X122078416Y-113871320D01*
X122083601Y-113888575D01*
X122084895Y-113893881D01*
X122088591Y-113910941D01*
X122074846Y-113900129D01*
X122059781Y-113890645D01*
X122049846Y-113889519D01*
X122045332Y-113896362D01*
X122046531Y-113910786D01*
X122052670Y-113929769D01*
X122059158Y-113952267D01*
X122064408Y-113982548D01*
X122068328Y-114018465D01*
X122070824Y-114057871D01*
X122071800Y-114098619D01*
X122071164Y-114138561D01*
X122068821Y-114175551D01*
X122064812Y-114206665D01*
X122060061Y-114230048D01*
X122053696Y-114255926D01*
X122046261Y-114282644D01*
X122038301Y-114308544D01*
X122030359Y-114331969D01*
X122022979Y-114351261D01*
X122016706Y-114364764D01*
X122012083Y-114370820D01*
X122010919Y-114370853D01*
X122004183Y-114366601D01*
X121991505Y-114358367D01*
X121975267Y-114347703D01*
X121969985Y-114344213D01*
X121949647Y-114331049D01*
X121928701Y-114317959D01*
X121911375Y-114307582D01*
X121910008Y-114306797D01*
X121885018Y-114292529D01*
X121922945Y-114332426D01*
X121947741Y-114361093D01*
X121967491Y-114389204D01*
X121981651Y-114415567D01*
X121989676Y-114438990D01*
X121991020Y-114458282D01*
X121986262Y-114470871D01*
X121982533Y-114474745D01*
X121978214Y-114475098D01*
X121971718Y-114470955D01*
X121961457Y-114461339D01*
X121947561Y-114447060D01*
X121929431Y-114429460D01*
X121909169Y-114412523D01*
X121885577Y-114395480D01*
X121857459Y-114377568D01*
X121823617Y-114358018D01*
X121782854Y-114336066D01*
X121738353Y-114313160D01*
X121701341Y-114294659D01*
X121672353Y-114280782D01*
X121650699Y-114271254D01*
X121635688Y-114265803D01*
X121626631Y-114264155D01*
X121622837Y-114266036D01*
X121622622Y-114267302D01*
X121624883Y-114272822D01*
X121630915Y-114284834D01*
X121639586Y-114301118D01*
X121643246Y-114307799D01*
X121663871Y-114345162D01*
X121609510Y-114316425D01*
X121555148Y-114287689D01*
X121530558Y-114299370D01*
X121493169Y-114321733D01*
X121456413Y-114352243D01*
X121421721Y-114389083D01*
X121390524Y-114430434D01*
X121364252Y-114474481D01*
X121344338Y-114519405D01*
X121335900Y-114546558D01*
X121329080Y-114579236D01*
X121323650Y-114617263D01*
X121319735Y-114658197D01*
X121317458Y-114699595D01*
X121316946Y-114739017D01*
X121318324Y-114774019D01*
X121321716Y-114802159D01*
X121322583Y-114806456D01*
X121341912Y-114872594D01*
X121370824Y-114938078D01*
X121409390Y-115003006D01*
X121457683Y-115067479D01*
X121515776Y-115131595D01*
X121583739Y-115195454D01*
X121638771Y-115241284D01*
X121659892Y-115258186D01*
X121677865Y-115272778D01*
X121691405Y-115284000D01*
X121699226Y-115290791D01*
X121700632Y-115292331D01*
X121695724Y-115291632D01*
X121684263Y-115288679D01*
X121675293Y-115286074D01*
X121661111Y-115282237D01*
X121651451Y-115280433D01*
X121649111Y-115280602D01*
X121652033Y-115284190D01*
X121662520Y-115292020D01*
X121679441Y-115303406D01*
X121701666Y-115317663D01*
X121728062Y-115334105D01*
X121757498Y-115352045D01*
X121788843Y-115370799D01*
X121820965Y-115389681D01*
X121852734Y-115408004D01*
X121883017Y-115425083D01*
X121910684Y-115440233D01*
X121925003Y-115447822D01*
X121935642Y-115454331D01*
X121937153Y-115457806D01*
X121929947Y-115458194D01*
X121914436Y-115455443D01*
X121897746Y-115451326D01*
X121882642Y-115447657D01*
X121872028Y-115445737D01*
X121868781Y-115445780D01*
X121871721Y-115449147D01*
X121882092Y-115456119D01*
X121898377Y-115465848D01*
X121919055Y-115477489D01*
X121942610Y-115490195D01*
X121967521Y-115503120D01*
X121992270Y-115515418D01*
X122002572Y-115520343D01*
X122064062Y-115547409D01*
X122121417Y-115568214D01*
X122177543Y-115583450D01*
X122235346Y-115593810D01*
X122297733Y-115599987D01*
X122345911Y-115602199D01*
X122388990Y-115602778D01*
X122430137Y-115601835D01*
X122470597Y-115599143D01*
X122511618Y-115594472D01*
X122554444Y-115587595D01*
X122600324Y-115578284D01*
X122650501Y-115566309D01*
X122706224Y-115551443D01*
X122768738Y-115533456D01*
X122839289Y-115512121D01*
X122842141Y-115511242D01*
X122924700Y-115486683D01*
X122999561Y-115466430D01*
X123067975Y-115450337D01*
X123131194Y-115438259D01*
X123190470Y-115430049D01*
X123247053Y-115425559D01*
X123302194Y-115424645D01*
X123357147Y-115427159D01*
X123413161Y-115432956D01*
X123456602Y-115439366D01*
X123553236Y-115460055D01*
X123645332Y-115489590D01*
X123732707Y-115527875D01*
X123815177Y-115574816D01*
X123892559Y-115630316D01*
X123964669Y-115694282D01*
X123982065Y-115711805D01*
X124019149Y-115752010D01*
X124048381Y-115788218D01*
X124070442Y-115821635D01*
X124086016Y-115853468D01*
X124095786Y-115884924D01*
X124100433Y-115917207D01*
X124100692Y-115921454D01*
X124098664Y-115964006D01*
X124088397Y-116001693D01*
X124070669Y-116033963D01*
X124046261Y-116060261D01*
X124015952Y-116080034D01*
X123980521Y-116092728D01*
X123940748Y-116097790D01*
X123897411Y-116094667D01*
X123866638Y-116087682D01*
X123814033Y-116077697D01*
X123757649Y-116076932D01*
X123697553Y-116085382D01*
X123633812Y-116103040D01*
X123610584Y-116111421D01*
X123590091Y-116119438D01*
X123569643Y-116127904D01*
X123548445Y-116137229D01*
X123525704Y-116147825D01*
X123500623Y-116160103D01*
X123472410Y-116174474D01*
X123440269Y-116191350D01*
X123403405Y-116211142D01*
X123361025Y-116234260D01*
X123312333Y-116261116D01*
X123256536Y-116292122D01*
X123194343Y-116326847D01*
X123134524Y-116359811D01*
X123081477Y-116387877D01*
X123033664Y-116411708D01*
X122989552Y-116431967D01*
X122947604Y-116449315D01*
X122906286Y-116464416D01*
X122864060Y-116477932D01*
X122819393Y-116490525D01*
X122808291Y-116493445D01*
X122727055Y-116512687D01*
X122647230Y-116527613D01*
X122566468Y-116538501D01*
X122482418Y-116545627D01*
X122392728Y-116549270D01*
X122329843Y-116549900D01*
X122262627Y-116549277D01*
X122202411Y-116547318D01*
X122146260Y-116543783D01*
X122091237Y-116538436D01*
X122034407Y-116531038D01*
X121972834Y-116521352D01*
X121968486Y-116520618D01*
X121925618Y-116512661D01*
X121878119Y-116502641D01*
X121828073Y-116491092D01*
X121777563Y-116478550D01*
X121728673Y-116465549D01*
X121683487Y-116452623D01*
X121644087Y-116440308D01*
X121613802Y-116429617D01*
X121610914Y-116431174D01*
X121614147Y-116440429D01*
X121623520Y-116457415D01*
X121639054Y-116482166D01*
X121660765Y-116514715D01*
X121666615Y-116523280D01*
X121692037Y-116559300D01*
X121717081Y-116592339D01*
X121743516Y-116624508D01*
X121773110Y-116657915D01*
X121807633Y-116694669D01*
X121827343Y-116715011D01*
X121920391Y-116803946D01*
X122018097Y-116884819D01*
X122121245Y-116958162D01*
X122230617Y-117024505D01*
X122346997Y-117084378D01*
X122422307Y-117118182D01*
X122520210Y-117156463D01*
X122625940Y-117191477D01*
X122737746Y-117222813D01*
X122853876Y-117250061D01*
X122972578Y-117272812D01*
X123092101Y-117290656D01*
X123210693Y-117303183D01*
X123214495Y-117303495D01*
X123248254Y-117305469D01*
X123289875Y-117306683D01*
X123337256Y-117307175D01*
X123388293Y-117306985D01*
X123440884Y-117306151D01*
X123492927Y-117304713D01*
X123542319Y-117302709D01*
X123586958Y-117300179D01*
X123624741Y-117297162D01*
X123639328Y-117295610D01*
X123792209Y-117272719D01*
X123941530Y-117240558D01*
X124087074Y-117199233D01*
X124228623Y-117148849D01*
X124365958Y-117089511D01*
X124498862Y-117021325D01*
X124627117Y-116944395D01*
X124750505Y-116858828D01*
X124868808Y-116764727D01*
X124981809Y-116662199D01*
X125011287Y-116633179D01*
X125115491Y-116521903D01*
X125211283Y-116405268D01*
X125298586Y-116283432D01*
X125377324Y-116156553D01*
X125447420Y-116024789D01*
X125508799Y-115888297D01*
X125561384Y-115747236D01*
X125605098Y-115601763D01*
X125607563Y-115591147D01*
X127895152Y-115591147D01*
X127897651Y-115593646D01*
X127900150Y-115591147D01*
X127897651Y-115588648D01*
X127895152Y-115591147D01*
X125607563Y-115591147D01*
X125639866Y-115452037D01*
X125665610Y-115298215D01*
G37*
G36*
X127580276Y-117125543D02*
G01*
X127577777Y-117128042D01*
X127575278Y-117125543D01*
X127577777Y-117123043D01*
X127580276Y-117125543D01*
G37*
G36*
X139289791Y-89524533D02*
G01*
X139252232Y-89452581D01*
X139215194Y-89380138D01*
X139180472Y-89310739D01*
X139149861Y-89247920D01*
X139125157Y-89195216D01*
X139108155Y-89156162D01*
X139102068Y-89139721D01*
X139093528Y-89115067D01*
X139079403Y-89076927D01*
X139062355Y-89032449D01*
X139057486Y-89020000D01*
X138963702Y-88752466D01*
X138887829Y-88474090D01*
X138830112Y-88187513D01*
X138790796Y-87895375D01*
X138770126Y-87600315D01*
X138769322Y-87466777D01*
X139917283Y-87466777D01*
X139917361Y-87646686D01*
X139917561Y-87824955D01*
X139917884Y-88000183D01*
X139918329Y-88170964D01*
X139918896Y-88335895D01*
X139919587Y-88493574D01*
X139920399Y-88642596D01*
X139921335Y-88781558D01*
X139922393Y-88909056D01*
X139923574Y-89023687D01*
X139924877Y-89124047D01*
X139926303Y-89208733D01*
X139927852Y-89276340D01*
X139929524Y-89325466D01*
X139931318Y-89354708D01*
X139932579Y-89362454D01*
X139946493Y-89393797D01*
X139977024Y-89369836D01*
X139994618Y-89354547D01*
X140024924Y-89326647D01*
X140064801Y-89289094D01*
X140111105Y-89244847D01*
X140157877Y-89199604D01*
X140194192Y-89164367D01*
X140242037Y-89118091D01*
X140298973Y-89063121D01*
X140362563Y-89001803D01*
X140430368Y-88936483D01*
X140499951Y-88869505D01*
X140568873Y-88803217D01*
X140634697Y-88739963D01*
X140694984Y-88682088D01*
X140747297Y-88631939D01*
X140789197Y-88591861D01*
X140818246Y-88564199D01*
X140823860Y-88558889D01*
X140841344Y-88542252D01*
X140872965Y-88512010D01*
X140916847Y-88469966D01*
X140971114Y-88417921D01*
X141033889Y-88357680D01*
X141103295Y-88291043D01*
X141177457Y-88219813D01*
X141254498Y-88145794D01*
X141332542Y-88070786D01*
X141409712Y-87996594D01*
X141484131Y-87925019D01*
X141553924Y-87857863D01*
X141617214Y-87796929D01*
X141663111Y-87752709D01*
X141731686Y-87686654D01*
X141799349Y-87621557D01*
X141863338Y-87560068D01*
X141920892Y-87504839D01*
X141969250Y-87458521D01*
X142005650Y-87423764D01*
X142017619Y-87412387D01*
X142105460Y-87329099D01*
X141834871Y-87096772D01*
X141726929Y-87004101D01*
X141634268Y-86924570D01*
X141555315Y-86856831D01*
X141488499Y-86799539D01*
X141432246Y-86751349D01*
X141384985Y-86710912D01*
X141345143Y-86676885D01*
X141311149Y-86647921D01*
X141281429Y-86622674D01*
X141254413Y-86599797D01*
X141251457Y-86597298D01*
X141222291Y-86572547D01*
X141180341Y-86536803D01*
X141127881Y-86492016D01*
X141067189Y-86440136D01*
X141000538Y-86383113D01*
X140930203Y-86322896D01*
X140858461Y-86261436D01*
X140787586Y-86200682D01*
X140719854Y-86142583D01*
X140657540Y-86089090D01*
X140602919Y-86042153D01*
X140558266Y-86003721D01*
X140525856Y-85975744D01*
X140507966Y-85960171D01*
X140507555Y-85959808D01*
X140484092Y-85939334D01*
X140447376Y-85907653D01*
X140401107Y-85867925D01*
X140348986Y-85823310D01*
X140294712Y-85776970D01*
X140241985Y-85732063D01*
X140194506Y-85691751D01*
X140155975Y-85659193D01*
X140135723Y-85642222D01*
X140099709Y-85611851D01*
X140056354Y-85574736D01*
X140014967Y-85538848D01*
X140014498Y-85538438D01*
X139946659Y-85479098D01*
X139932663Y-85510660D01*
X139930786Y-85525907D01*
X139929031Y-85561971D01*
X139927398Y-85617450D01*
X139925887Y-85690940D01*
X139924498Y-85781038D01*
X139923231Y-85886339D01*
X139922087Y-86005440D01*
X139921064Y-86136938D01*
X139920163Y-86279429D01*
X139919385Y-86431510D01*
X139918729Y-86591777D01*
X139918195Y-86758826D01*
X139917784Y-86931255D01*
X139917494Y-87107658D01*
X139917327Y-87286634D01*
X139917283Y-87466777D01*
X138769322Y-87466777D01*
X138768348Y-87304974D01*
X138785706Y-87011992D01*
X138822446Y-86724008D01*
X138836684Y-86642222D01*
X138877633Y-86445702D01*
X138927349Y-86249386D01*
X138983915Y-86060123D01*
X139045411Y-85884762D01*
X139057592Y-85853333D01*
X139074419Y-85809857D01*
X139088449Y-85772178D01*
X139097314Y-85746700D01*
X139098659Y-85742222D01*
X139107673Y-85718223D01*
X139125549Y-85678054D01*
X139150578Y-85625092D01*
X139181052Y-85562713D01*
X139215263Y-85494295D01*
X139251502Y-85423214D01*
X139288061Y-85352848D01*
X139323231Y-85286574D01*
X139350852Y-85235934D01*
X140202067Y-85235934D01*
X140202321Y-85239922D01*
X140211889Y-85248114D01*
X140235929Y-85268710D01*
X140272040Y-85299650D01*
X140317819Y-85338877D01*
X140370867Y-85384333D01*
X140407555Y-85415772D01*
X140472359Y-85471235D01*
X140539231Y-85528344D01*
X140603768Y-85583348D01*
X140661563Y-85632493D01*
X140708212Y-85672025D01*
X140719265Y-85681357D01*
X140754729Y-85711387D01*
X140804140Y-85753407D01*
X140864586Y-85804934D01*
X140933156Y-85863481D01*
X141006938Y-85926562D01*
X141083019Y-85991691D01*
X141135932Y-86037038D01*
X141218572Y-86107863D01*
X141313572Y-86189224D01*
X141416388Y-86277232D01*
X141522474Y-86367998D01*
X141627288Y-86457635D01*
X141726283Y-86542253D01*
X141790888Y-86597445D01*
X141871145Y-86666011D01*
X141950301Y-86733676D01*
X142025815Y-86798265D01*
X142095149Y-86857606D01*
X142155762Y-86909524D01*
X142205117Y-86951846D01*
X142240672Y-86982399D01*
X142246444Y-86987371D01*
X142276511Y-87012872D01*
X142321619Y-87050554D01*
X142379557Y-87098596D01*
X142448113Y-87155175D01*
X142525073Y-87218469D01*
X142608225Y-87286654D01*
X142695359Y-87357910D01*
X142783029Y-87429410D01*
X143214059Y-87780445D01*
X143334803Y-87683556D01*
X143386095Y-87642294D01*
X143448399Y-87592016D01*
X143515501Y-87537745D01*
X143581187Y-87484505D01*
X143614884Y-87457136D01*
X143678765Y-87405210D01*
X143749098Y-87348048D01*
X143777935Y-87324614D01*
X144337792Y-87324614D01*
X144344774Y-87334030D01*
X144366015Y-87356933D01*
X144399683Y-87391482D01*
X144443947Y-87435837D01*
X144496974Y-87488158D01*
X144556933Y-87546605D01*
X144604459Y-87592497D01*
X144677088Y-87662363D01*
X144752009Y-87734444D01*
X144825786Y-87805435D01*
X144894982Y-87872027D01*
X144956160Y-87930915D01*
X145005885Y-87978791D01*
X145019125Y-87991541D01*
X145201461Y-88167125D01*
X145369184Y-88328548D01*
X145523646Y-88477110D01*
X145666198Y-88614110D01*
X145798190Y-88740846D01*
X145920974Y-88858618D01*
X145985333Y-88920293D01*
X146056326Y-88988350D01*
X146127208Y-89056386D01*
X146195099Y-89121632D01*
X146257122Y-89181319D01*
X146310396Y-89232677D01*
X146352044Y-89272936D01*
X146368666Y-89289067D01*
X146408485Y-89326826D01*
X146443085Y-89357823D01*
X146469207Y-89379267D01*
X146483587Y-89388368D01*
X146484822Y-89388445D01*
X146494694Y-89376433D01*
X146504039Y-89351877D01*
X146504392Y-89350543D01*
X146505628Y-89334759D01*
X146506737Y-89298370D01*
X146507723Y-89242760D01*
X146508587Y-89169314D01*
X146509334Y-89079416D01*
X146509966Y-88974451D01*
X146510486Y-88855803D01*
X146510897Y-88724858D01*
X146511202Y-88583000D01*
X146511405Y-88431613D01*
X146511507Y-88272083D01*
X146511513Y-88105793D01*
X146511425Y-87934128D01*
X146511246Y-87758474D01*
X146510980Y-87580214D01*
X146510628Y-87400733D01*
X146510195Y-87221416D01*
X146509683Y-87043647D01*
X146509095Y-86868812D01*
X146508434Y-86698294D01*
X146507704Y-86533479D01*
X146506907Y-86375751D01*
X146506046Y-86226494D01*
X146505124Y-86087093D01*
X146504145Y-85958933D01*
X146503111Y-85843399D01*
X146502025Y-85741875D01*
X146500891Y-85655745D01*
X146499710Y-85586395D01*
X146498487Y-85535209D01*
X146497225Y-85503571D01*
X146496016Y-85492904D01*
X146493060Y-85491566D01*
X146487952Y-85492530D01*
X146479693Y-85496626D01*
X146467281Y-85504684D01*
X146449719Y-85517534D01*
X146426006Y-85536004D01*
X146395142Y-85560926D01*
X146356128Y-85593128D01*
X146307965Y-85633441D01*
X146249652Y-85682694D01*
X146180190Y-85741717D01*
X146098580Y-85811339D01*
X146003821Y-85892390D01*
X145894914Y-85985701D01*
X145770860Y-86092100D01*
X145675032Y-86174333D01*
X145603481Y-86235734D01*
X145535465Y-86294089D01*
X145473280Y-86347430D01*
X145419221Y-86393788D01*
X145375585Y-86431192D01*
X145344667Y-86457675D01*
X145330587Y-86469715D01*
X145228372Y-86556934D01*
X145141368Y-86631226D01*
X145069918Y-86692298D01*
X145014364Y-86739859D01*
X144975048Y-86773615D01*
X144952311Y-86793275D01*
X144952000Y-86793546D01*
X144935721Y-86807606D01*
X144904785Y-86834173D01*
X144861437Y-86871325D01*
X144807919Y-86917141D01*
X144746476Y-86969700D01*
X144679352Y-87027081D01*
X144629777Y-87069437D01*
X144561583Y-87127852D01*
X144498947Y-87181818D01*
X144443838Y-87229616D01*
X144398225Y-87269524D01*
X144364075Y-87299823D01*
X144343359Y-87318793D01*
X144337792Y-87324614D01*
X143777935Y-87324614D01*
X143819116Y-87291149D01*
X143882054Y-87240011D01*
X143908843Y-87218247D01*
X143962938Y-87173941D01*
X144026130Y-87121599D01*
X144094450Y-87064563D01*
X144163931Y-87006173D01*
X144230606Y-86949770D01*
X144290506Y-86898696D01*
X144339664Y-86856290D01*
X144363111Y-86835727D01*
X144379473Y-86821500D01*
X144410473Y-86794806D01*
X144453835Y-86757591D01*
X144507285Y-86711806D01*
X144568549Y-86659398D01*
X144635352Y-86602317D01*
X144679777Y-86564391D01*
X144750518Y-86504013D01*
X144818584Y-86445900D01*
X144881418Y-86392239D01*
X144936463Y-86345215D01*
X144981160Y-86307012D01*
X145012952Y-86279815D01*
X145024222Y-86270157D01*
X145155981Y-86157108D01*
X145271962Y-86057612D01*
X145373245Y-85970743D01*
X145460910Y-85895576D01*
X145536038Y-85831186D01*
X145599708Y-85776648D01*
X145653002Y-85731036D01*
X145697000Y-85693426D01*
X145732781Y-85662892D01*
X145761427Y-85638510D01*
X145784018Y-85619353D01*
X145795753Y-85609445D01*
X145831519Y-85579134D01*
X145879169Y-85538497D01*
X145933782Y-85491745D01*
X145990434Y-85443088D01*
X146023047Y-85415000D01*
X146073500Y-85371547D01*
X146119962Y-85331630D01*
X146159045Y-85298152D01*
X146187360Y-85274017D01*
X146199839Y-85263505D01*
X146217403Y-85243556D01*
X146220012Y-85227754D01*
X146219803Y-85227394D01*
X146208120Y-85226198D01*
X146175322Y-85225054D01*
X146122514Y-85223964D01*
X146050804Y-85222927D01*
X145961297Y-85221945D01*
X145855100Y-85221017D01*
X145733320Y-85220145D01*
X145597063Y-85219328D01*
X145447434Y-85218567D01*
X145285542Y-85217862D01*
X145112492Y-85217214D01*
X144929390Y-85216623D01*
X144737344Y-85216089D01*
X144537458Y-85215614D01*
X144330841Y-85215197D01*
X144118598Y-85214839D01*
X143901836Y-85214540D01*
X143681662Y-85214300D01*
X143459180Y-85214121D01*
X143235499Y-85214003D01*
X143011725Y-85213945D01*
X142788963Y-85213948D01*
X142568321Y-85214014D01*
X142350905Y-85214141D01*
X142137821Y-85214331D01*
X141930175Y-85214585D01*
X141729075Y-85214901D01*
X141535626Y-85215282D01*
X141350935Y-85215726D01*
X141176109Y-85216236D01*
X141012254Y-85216810D01*
X140860475Y-85217450D01*
X140721881Y-85218156D01*
X140597577Y-85218929D01*
X140488669Y-85219768D01*
X140396265Y-85220674D01*
X140321469Y-85221648D01*
X140265390Y-85222690D01*
X140229133Y-85223801D01*
X140213805Y-85224980D01*
X140213432Y-85225121D01*
X140202067Y-85235934D01*
X139350852Y-85235934D01*
X139355305Y-85227769D01*
X139382573Y-85179809D01*
X139386782Y-85172685D01*
X139555124Y-84911412D01*
X139741543Y-84662385D01*
X139944889Y-84426753D01*
X140164012Y-84205667D01*
X140397763Y-84000277D01*
X140644992Y-83811732D01*
X140904550Y-83641184D01*
X140937053Y-83621635D01*
X140981820Y-83595935D01*
X141038229Y-83565018D01*
X141102904Y-83530589D01*
X141172469Y-83494354D01*
X141243547Y-83458021D01*
X141312763Y-83423295D01*
X141376740Y-83391882D01*
X141432102Y-83365488D01*
X141475473Y-83345820D01*
X141503476Y-83334584D01*
X141507555Y-83333326D01*
X141527871Y-83326599D01*
X141562415Y-83313994D01*
X141604777Y-83297871D01*
X141618666Y-83292459D01*
X141701408Y-83261833D01*
X141804203Y-83226886D01*
X141925423Y-83188165D01*
X141985333Y-83169720D01*
X142153291Y-83124322D01*
X142337330Y-83084901D01*
X142531956Y-83052107D01*
X142731674Y-83026596D01*
X142930991Y-83009020D01*
X143124410Y-83000034D01*
X143306439Y-83000289D01*
X143382555Y-83003558D01*
X143662869Y-83026068D01*
X143927216Y-83060722D01*
X144178633Y-83108145D01*
X144420157Y-83168962D01*
X144654826Y-83243799D01*
X144785333Y-83292440D01*
X144828826Y-83309200D01*
X144866514Y-83323197D01*
X144891987Y-83332064D01*
X144896444Y-83333414D01*
X144919949Y-83342287D01*
X144959601Y-83359888D01*
X145011938Y-83384481D01*
X145073502Y-83414335D01*
X145140832Y-83447716D01*
X145210468Y-83482890D01*
X145278950Y-83518125D01*
X145342818Y-83551685D01*
X145398612Y-83581839D01*
X145442871Y-83606853D01*
X145446444Y-83608954D01*
X145709545Y-83777154D01*
X145960142Y-83963182D01*
X146197148Y-84165955D01*
X146419473Y-84384390D01*
X146626030Y-84617405D01*
X146815731Y-84863916D01*
X146987487Y-85122841D01*
X147017031Y-85171720D01*
X147042731Y-85216487D01*
X147073648Y-85272896D01*
X147108077Y-85337571D01*
X147144312Y-85407136D01*
X147180645Y-85478214D01*
X147215371Y-85547430D01*
X147246784Y-85611407D01*
X147273178Y-85666769D01*
X147292846Y-85710140D01*
X147304082Y-85738143D01*
X147305340Y-85742222D01*
X147312067Y-85762538D01*
X147324672Y-85797082D01*
X147340795Y-85839444D01*
X147346207Y-85853333D01*
X147376833Y-85936075D01*
X147411780Y-86038870D01*
X147450501Y-86160089D01*
X147468946Y-86220000D01*
X147515379Y-86391913D01*
X147555577Y-86581019D01*
X147588849Y-86782990D01*
X147614507Y-86993502D01*
X147631863Y-87208226D01*
X147634797Y-87261505D01*
X147638606Y-87448761D01*
X147632546Y-87647599D01*
X147617255Y-87852655D01*
X147593373Y-88058570D01*
X147561538Y-88259980D01*
X147522389Y-88451526D01*
X147476564Y-88627846D01*
X147468946Y-88653333D01*
X147429114Y-88781021D01*
X147392634Y-88891738D01*
X147360144Y-88983585D01*
X147346312Y-89020000D01*
X147329013Y-89064986D01*
X147313881Y-89105604D01*
X147303569Y-89134695D01*
X147301931Y-89139721D01*
X147290924Y-89167959D01*
X147271043Y-89212154D01*
X147244084Y-89268772D01*
X147211841Y-89334278D01*
X147176111Y-89405135D01*
X147138689Y-89477808D01*
X147101369Y-89548762D01*
X147065948Y-89614461D01*
X147034221Y-89671370D01*
X147016361Y-89702085D01*
X146875516Y-89923558D01*
X146722830Y-90133707D01*
X146555050Y-90336681D01*
X146368922Y-90536629D01*
X146335586Y-90570253D01*
X146141599Y-90754776D01*
X145946331Y-90920823D01*
X145745471Y-91071465D01*
X145534704Y-91209777D01*
X145309719Y-91338828D01*
X145121537Y-91435061D01*
X145058610Y-91465513D01*
X145001390Y-91492771D01*
X144953281Y-91515248D01*
X144917689Y-91531357D01*
X144898017Y-91539510D01*
X144896444Y-91540007D01*
X144876129Y-91546736D01*
X144841587Y-91559346D01*
X144799228Y-91575476D01*
X144785333Y-91580893D01*
X144506229Y-91678456D01*
X144217274Y-91756135D01*
X143918602Y-91813897D01*
X143663111Y-91846722D01*
X143481404Y-91862538D01*
X143316694Y-91871683D01*
X143164823Y-91874300D01*
X143021637Y-91870533D01*
X143002000Y-91869502D01*
X142725185Y-91847131D01*
X142460945Y-91811036D01*
X142204499Y-91760118D01*
X141951070Y-91693275D01*
X141695879Y-91609409D01*
X141440888Y-91510233D01*
X141410374Y-91496547D01*
X141364738Y-91474868D01*
X141308558Y-91447488D01*
X141246413Y-91416702D01*
X141182879Y-91384800D01*
X141122534Y-91354077D01*
X141069955Y-91326824D01*
X141029721Y-91305334D01*
X141013111Y-91295984D01*
X140932033Y-91248145D01*
X140865245Y-91207812D01*
X140807593Y-91171723D01*
X140753926Y-91136620D01*
X140699092Y-91099242D01*
X140669024Y-91078258D01*
X140415772Y-90887170D01*
X140177933Y-90680508D01*
X139956144Y-90458958D01*
X139751042Y-90223203D01*
X139563264Y-89973928D01*
X139393447Y-89711818D01*
X139387638Y-89702085D01*
X139359289Y-89652820D01*
X139355624Y-89646159D01*
X140217666Y-89646159D01*
X140229424Y-89647471D01*
X140262296Y-89648717D01*
X140315177Y-89649898D01*
X140386958Y-89651013D01*
X140476532Y-89652062D01*
X140582794Y-89653045D01*
X140704634Y-89653962D01*
X140840946Y-89654813D01*
X140990624Y-89655598D01*
X141152559Y-89656316D01*
X141325645Y-89656969D01*
X141508775Y-89657555D01*
X141700840Y-89658074D01*
X141900736Y-89658527D01*
X142107353Y-89658914D01*
X142319585Y-89659234D01*
X142536325Y-89659487D01*
X142756466Y-89659673D01*
X142978900Y-89659793D01*
X143202521Y-89659846D01*
X143426221Y-89659831D01*
X143648893Y-89659750D01*
X143869430Y-89659601D01*
X144086725Y-89659386D01*
X144299671Y-89659102D01*
X144507160Y-89658752D01*
X144708086Y-89658334D01*
X144901341Y-89657849D01*
X145085818Y-89657296D01*
X145260410Y-89656676D01*
X145424010Y-89655987D01*
X145575510Y-89655232D01*
X145713804Y-89654408D01*
X145837785Y-89653516D01*
X145946344Y-89652556D01*
X146038376Y-89651529D01*
X146112773Y-89650433D01*
X146168428Y-89649269D01*
X146204233Y-89648036D01*
X146219082Y-89646736D01*
X146219429Y-89646544D01*
X146216230Y-89632685D01*
X146199360Y-89610805D01*
X146184512Y-89596347D01*
X146161617Y-89575319D01*
X146126780Y-89542509D01*
X146083950Y-89501673D01*
X146037075Y-89456565D01*
X146013468Y-89433692D01*
X145972499Y-89393991D01*
X145918766Y-89342059D01*
X145855539Y-89281048D01*
X145786091Y-89214114D01*
X145713692Y-89144409D01*
X145641613Y-89075088D01*
X145618485Y-89052863D01*
X145493933Y-88933205D01*
X145376145Y-88820056D01*
X145266028Y-88714286D01*
X145164487Y-88616764D01*
X145072427Y-88528359D01*
X144990753Y-88449941D01*
X144920371Y-88382379D01*
X144862187Y-88326543D01*
X144817105Y-88283301D01*
X144786032Y-88253522D01*
X144769872Y-88238077D01*
X144768384Y-88236666D01*
X144756157Y-88224976D01*
X144730060Y-88199916D01*
X144692227Y-88163539D01*
X144644789Y-88117896D01*
X144589879Y-88065038D01*
X144529629Y-88007017D01*
X144506914Y-87985137D01*
X144409999Y-87891867D01*
X144327787Y-87812978D01*
X144259061Y-87747348D01*
X144202604Y-87693854D01*
X144157200Y-87651374D01*
X144121630Y-87618786D01*
X144094678Y-87594966D01*
X144075127Y-87578792D01*
X144061759Y-87569143D01*
X144053357Y-87564894D01*
X144050734Y-87564444D01*
X144044615Y-87566762D01*
X144032579Y-87574278D01*
X144013567Y-87587833D01*
X143986523Y-87608271D01*
X143950389Y-87636434D01*
X143904108Y-87673165D01*
X143846622Y-87719306D01*
X143776875Y-87775699D01*
X143693809Y-87843188D01*
X143596367Y-87922614D01*
X143483491Y-88014820D01*
X143405834Y-88078333D01*
X143351765Y-88122259D01*
X143303398Y-88160961D01*
X143263392Y-88192360D01*
X143234404Y-88214377D01*
X143219093Y-88224934D01*
X143217568Y-88225555D01*
X143205955Y-88218912D01*
X143181451Y-88201034D01*
X143148164Y-88174999D01*
X143125066Y-88156235D01*
X143086005Y-88124231D01*
X143035135Y-88082791D01*
X142977972Y-88036394D01*
X142920031Y-87989521D01*
X142895988Y-87970123D01*
X142790321Y-87884926D01*
X142700713Y-87812601D01*
X142625893Y-87752108D01*
X142564591Y-87702407D01*
X142515538Y-87662458D01*
X142477462Y-87631221D01*
X142449095Y-87607656D01*
X142429165Y-87590723D01*
X142416403Y-87579382D01*
X142409539Y-87572593D01*
X142407746Y-87570309D01*
X142401674Y-87563035D01*
X142393590Y-87560300D01*
X142381825Y-87563441D01*
X142364708Y-87573793D01*
X142340569Y-87592692D01*
X142307738Y-87621473D01*
X142264543Y-87661471D01*
X142209316Y-87714024D01*
X142140386Y-87780465D01*
X142118772Y-87801381D01*
X142083404Y-87835542D01*
X142034870Y-87882295D01*
X141976061Y-87938863D01*
X141909862Y-88002471D01*
X141839164Y-88070344D01*
X141766853Y-88139706D01*
X141724222Y-88180569D01*
X141652330Y-88249491D01*
X141580336Y-88318569D01*
X141511128Y-88385028D01*
X141447592Y-88446095D01*
X141392615Y-88498996D01*
X141349083Y-88540956D01*
X141329777Y-88559612D01*
X141283089Y-88604735D01*
X141236334Y-88649808D01*
X141194711Y-88689827D01*
X141163420Y-88719787D01*
X141161493Y-88721624D01*
X141130689Y-88751017D01*
X141086462Y-88793283D01*
X141031430Y-88845913D01*
X140968210Y-88906403D01*
X140899421Y-88972245D01*
X140827681Y-89040933D01*
X140755607Y-89109959D01*
X140685818Y-89176819D01*
X140620932Y-89239004D01*
X140563567Y-89294008D01*
X140518769Y-89336993D01*
X140465344Y-89388277D01*
X140409268Y-89442095D01*
X140356066Y-89493145D01*
X140311265Y-89536125D01*
X140297566Y-89549263D01*
X140259071Y-89587962D01*
X140231977Y-89618938D01*
X140218393Y-89639634D01*
X140217666Y-89646159D01*
X139355624Y-89646159D01*
X139326075Y-89592458D01*
X139289791Y-89524533D01*
G37*
G36*
X118258935Y-87409272D02*
G01*
X118282757Y-87085177D01*
X118327791Y-86790748D01*
X118398396Y-86496775D01*
X118489202Y-86203060D01*
X118731622Y-85613304D01*
X119050527Y-85058083D01*
X119437862Y-84546058D01*
X119885570Y-84085892D01*
X120385594Y-83686244D01*
X120929878Y-83355775D01*
X121296760Y-83184979D01*
X121922120Y-82973213D01*
X122558664Y-82846335D01*
X123198658Y-82802739D01*
X123834369Y-82840820D01*
X124458065Y-82958972D01*
X125062014Y-83155591D01*
X125638481Y-83429070D01*
X126179735Y-83777806D01*
X126678044Y-84200193D01*
X126806169Y-84328681D01*
X127222479Y-84811343D01*
X127561241Y-85317124D01*
X127829930Y-85860060D01*
X128036025Y-86454190D01*
X128124446Y-86803586D01*
X128161879Y-87039364D01*
X128186205Y-87336917D01*
X128197425Y-87670027D01*
X128195538Y-88012472D01*
X128180545Y-88338032D01*
X128152445Y-88620488D01*
X128124446Y-88780898D01*
X127956869Y-89389528D01*
X127737390Y-89936603D01*
X127457064Y-90438472D01*
X127106949Y-90911489D01*
X126741444Y-91309444D01*
X126259611Y-91742810D01*
X125758983Y-92094259D01*
X125227066Y-92370615D01*
X124651368Y-92578704D01*
X124221306Y-92686213D01*
X123967442Y-92726514D01*
X123658525Y-92755786D01*
X123326566Y-92772687D01*
X123003571Y-92775878D01*
X122721550Y-92764015D01*
X122616923Y-92753457D01*
X121974964Y-92628276D01*
X121359762Y-92422258D01*
X120778784Y-92140747D01*
X120239494Y-91789091D01*
X119749358Y-91372635D01*
X119315841Y-90896725D01*
X118946410Y-90366707D01*
X118732618Y-89971927D01*
X118537937Y-89525640D01*
X118398567Y-89098116D01*
X118308562Y-88662404D01*
X118261981Y-88191554D01*
X118261685Y-88179770D01*
X120088165Y-88179770D01*
X120088314Y-88651272D01*
X120089378Y-89041874D01*
X120092279Y-89359642D01*
X120097940Y-89612644D01*
X120107285Y-89808946D01*
X120121238Y-89956614D01*
X120140720Y-90063716D01*
X120166656Y-90138317D01*
X120199968Y-90188486D01*
X120241581Y-90222287D01*
X120292416Y-90247789D01*
X120326462Y-90261944D01*
X120386592Y-90268582D01*
X120527928Y-90274595D01*
X120742715Y-90279902D01*
X121023192Y-90284425D01*
X121361603Y-90288085D01*
X121750189Y-90290802D01*
X122181193Y-90292497D01*
X122646857Y-90293092D01*
X123139423Y-90292506D01*
X123283714Y-90292112D01*
X126145637Y-90283310D01*
X126254151Y-90157137D01*
X126362665Y-90030963D01*
X126338077Y-85503765D01*
X126236838Y-85402469D01*
X126202330Y-85370718D01*
X126162635Y-85346230D01*
X126106286Y-85327888D01*
X126021815Y-85314570D01*
X125897755Y-85305159D01*
X125722638Y-85298534D01*
X125484996Y-85293576D01*
X125173363Y-85289166D01*
X125061664Y-85287756D01*
X124670006Y-85284673D01*
X124361250Y-85286424D01*
X124129452Y-85293207D01*
X123968668Y-85305216D01*
X123872955Y-85322649D01*
X123859668Y-85327384D01*
X123732818Y-85420957D01*
X123638446Y-85564305D01*
X123602350Y-85715557D01*
X123575818Y-85808932D01*
X123511827Y-85915802D01*
X123510155Y-85917942D01*
X123417960Y-86035149D01*
X121928787Y-86035149D01*
X121496829Y-86035699D01*
X121144875Y-86038081D01*
X120863964Y-86043393D01*
X120645135Y-86052733D01*
X120479427Y-86067199D01*
X120357881Y-86087890D01*
X120271535Y-86115903D01*
X120211430Y-86152336D01*
X120168604Y-86198288D01*
X120134098Y-86254857D01*
X120133967Y-86255102D01*
X120121483Y-86324039D01*
X120110858Y-86478610D01*
X120102171Y-86715504D01*
X120095502Y-87031405D01*
X120090928Y-87423001D01*
X120088529Y-87886977D01*
X120088165Y-88179770D01*
X118261685Y-88179770D01*
X118251963Y-87792242D01*
X118258935Y-87409272D01*
G37*
G36*
X142571291Y-113494751D02*
G01*
X142600573Y-113509110D01*
X142638210Y-113529646D01*
X142649677Y-113536234D01*
X142692595Y-113561172D01*
X142732286Y-113584234D01*
X142761179Y-113601020D01*
X142764461Y-113602927D01*
X142784930Y-113614798D01*
X142822956Y-113636835D01*
X142876426Y-113667811D01*
X142943228Y-113706505D01*
X143021248Y-113751692D01*
X143108372Y-113802149D01*
X143202488Y-113856652D01*
X143301482Y-113913976D01*
X143403241Y-113972900D01*
X143505653Y-114032198D01*
X143606603Y-114090647D01*
X143703979Y-114147023D01*
X143795667Y-114200103D01*
X143879555Y-114248663D01*
X143906608Y-114264323D01*
X143984359Y-114309763D01*
X144055408Y-114352128D01*
X144117447Y-114389974D01*
X144168165Y-114421858D01*
X144205252Y-114446337D01*
X144226398Y-114461966D01*
X144230501Y-114466707D01*
X144221010Y-114475811D01*
X144194090Y-114494690D01*
X144152071Y-114521886D01*
X144097286Y-114555939D01*
X144032063Y-114595392D01*
X143958734Y-114638785D01*
X143912291Y-114665831D01*
X143824931Y-114716408D01*
X143722901Y-114775483D01*
X143611198Y-114840162D01*
X143494822Y-114907552D01*
X143378769Y-114974758D01*
X143268038Y-115038887D01*
X143196318Y-115080425D01*
X143108396Y-115131348D01*
X143025525Y-115179346D01*
X142950017Y-115223079D01*
X142884187Y-115261206D01*
X142830348Y-115292389D01*
X142790814Y-115315286D01*
X142767897Y-115328559D01*
X142764461Y-115330549D01*
X142738148Y-115345806D01*
X142699756Y-115368091D01*
X142656854Y-115393010D01*
X142649677Y-115397180D01*
X142610678Y-115418966D01*
X142578452Y-115435367D01*
X142558555Y-115443602D01*
X142555919Y-115444067D01*
X142553472Y-115438030D01*
X142551317Y-115419269D01*
X142549439Y-115386810D01*
X142547826Y-115339676D01*
X142546465Y-115276895D01*
X142545343Y-115197490D01*
X142544446Y-115100487D01*
X142543762Y-114984911D01*
X142543278Y-114849787D01*
X142542980Y-114694141D01*
X142542856Y-114516997D01*
X142542850Y-114466707D01*
X142542931Y-114283746D01*
X142543182Y-114122540D01*
X142543616Y-113982112D01*
X142544246Y-113861489D01*
X142545085Y-113759695D01*
X142546147Y-113675755D01*
X142547444Y-113608695D01*
X142548990Y-113557540D01*
X142550796Y-113521315D01*
X142552878Y-113499046D01*
X142555246Y-113489756D01*
X142555919Y-113489347D01*
X142571291Y-113494751D01*
G37*
G36*
X138656779Y-114325301D02*
G01*
X138658322Y-114228063D01*
X138660890Y-114140937D01*
X138664505Y-114068027D01*
X138667525Y-114029168D01*
X138686561Y-113867899D01*
X138713444Y-113696518D01*
X138746556Y-113523613D01*
X138784278Y-113357776D01*
X138817357Y-113233642D01*
X138833664Y-113179252D01*
X138854625Y-113112636D01*
X138878349Y-113039481D01*
X138902948Y-112965473D01*
X138926531Y-112896301D01*
X138947209Y-112837650D01*
X138962738Y-112796103D01*
X138976257Y-112763257D01*
X138995540Y-112718246D01*
X139018706Y-112665263D01*
X139043874Y-112608504D01*
X139069163Y-112552163D01*
X139092692Y-112500434D01*
X139112578Y-112457511D01*
X139126942Y-112427589D01*
X139133489Y-112415387D01*
X139141924Y-112401018D01*
X139158280Y-112371406D01*
X139179889Y-112331421D01*
X139195719Y-112301740D01*
X139227584Y-112243420D01*
X139264327Y-112178770D01*
X139299320Y-112119396D01*
X139308213Y-112104790D01*
X139336177Y-112059279D01*
X139362144Y-112016949D01*
X139382110Y-111984332D01*
X139388354Y-111974097D01*
X139402580Y-111952255D01*
X139426346Y-111917278D01*
X139455929Y-111874492D01*
X139487606Y-111829220D01*
X139517653Y-111786787D01*
X139542350Y-111752518D01*
X139556569Y-111733508D01*
X139598694Y-111679974D01*
X139641996Y-111625465D01*
X139683066Y-111574227D01*
X139718491Y-111530506D01*
X139744861Y-111498549D01*
X139752828Y-111489180D01*
X139793282Y-111444017D01*
X139844090Y-111389650D01*
X139901906Y-111329434D01*
X139963387Y-111266726D01*
X140025189Y-111204881D01*
X140083966Y-111147255D01*
X140136375Y-111097204D01*
X140179071Y-111058085D01*
X140201731Y-111038723D01*
X140227040Y-111017626D01*
X140244117Y-111002252D01*
X140247190Y-110998949D01*
X140258305Y-110988957D01*
X140285267Y-110966748D01*
X140325953Y-110934024D01*
X140378242Y-110892486D01*
X140440011Y-110843836D01*
X140468801Y-110821276D01*
X140538727Y-110769320D01*
X140623595Y-110710664D01*
X140718006Y-110648750D01*
X140816557Y-110587018D01*
X140913850Y-110528908D01*
X141004485Y-110477861D01*
X141025669Y-110466501D01*
X141072207Y-110441670D01*
X141111673Y-110420299D01*
X141139509Y-110404875D01*
X141150680Y-110398259D01*
X141165794Y-110390251D01*
X141197571Y-110375079D01*
X141241822Y-110354622D01*
X141294356Y-110330761D01*
X141350985Y-110305374D01*
X141407519Y-110280342D01*
X141459768Y-110257544D01*
X141503542Y-110238860D01*
X141531396Y-110227445D01*
X141563512Y-110215513D01*
X141612058Y-110198384D01*
X141671828Y-110177812D01*
X141737613Y-110155557D01*
X141804205Y-110133373D01*
X141866396Y-110113019D01*
X141918979Y-110096251D01*
X141934841Y-110091343D01*
X142021051Y-110066796D01*
X142118387Y-110042641D01*
X142229432Y-110018327D01*
X142356766Y-109993302D01*
X142502971Y-109967018D01*
X142576944Y-109954407D01*
X142652238Y-109944434D01*
X142746222Y-109936240D01*
X142854929Y-109929849D01*
X142974387Y-109925282D01*
X143100628Y-109922562D01*
X143229680Y-109921712D01*
X143357575Y-109922755D01*
X143480342Y-109925712D01*
X143594012Y-109930606D01*
X143694614Y-109937460D01*
X143778180Y-109946296D01*
X143787280Y-109947549D01*
X144036568Y-109989361D01*
X144282441Y-110043130D01*
X144519537Y-110107490D01*
X144742499Y-110181078D01*
X144821463Y-110210810D01*
X144877464Y-110232617D01*
X144929762Y-110252870D01*
X144972583Y-110269341D01*
X145000152Y-110279800D01*
X145000569Y-110279955D01*
X145047903Y-110299673D01*
X145110026Y-110328701D01*
X145183300Y-110365058D01*
X145264086Y-110406762D01*
X145348746Y-110451831D01*
X145433644Y-110498282D01*
X145515141Y-110544133D01*
X145589599Y-110587403D01*
X145653381Y-110626110D01*
X145702849Y-110658270D01*
X145726735Y-110675609D01*
X145750128Y-110693059D01*
X145785745Y-110718579D01*
X145827003Y-110747468D01*
X145839580Y-110756148D01*
X146006052Y-110878837D01*
X146175317Y-111019063D01*
X146343256Y-111172710D01*
X146505755Y-111335662D01*
X146658696Y-111503802D01*
X146797962Y-111673014D01*
X146912559Y-111829127D01*
X146941543Y-111870795D01*
X146968576Y-111908809D01*
X146988958Y-111936588D01*
X146993098Y-111941972D01*
X147015357Y-111973481D01*
X147045878Y-112021164D01*
X147082363Y-112081068D01*
X147122516Y-112149242D01*
X147164038Y-112221731D01*
X147204631Y-112294584D01*
X147241999Y-112363847D01*
X147271635Y-112421163D01*
X147403684Y-112708667D01*
X147515594Y-113005967D01*
X147607503Y-113313507D01*
X147679546Y-113631733D01*
X147721158Y-113881427D01*
X147730245Y-113962570D01*
X147737347Y-114061249D01*
X147742487Y-114173495D01*
X147745686Y-114295336D01*
X147746968Y-114422805D01*
X147746355Y-114551930D01*
X147743869Y-114678742D01*
X147739533Y-114799271D01*
X147733370Y-114909547D01*
X147725401Y-115005601D01*
X147715650Y-115083462D01*
X147714300Y-115091763D01*
X147687254Y-115247474D01*
X147661721Y-115383131D01*
X147637149Y-115501316D01*
X147612989Y-115604610D01*
X147588691Y-115695596D01*
X147577364Y-115733866D01*
X147562354Y-115781614D01*
X147543112Y-115840882D01*
X147521396Y-115906464D01*
X147498963Y-115973150D01*
X147477569Y-116035733D01*
X147458972Y-116089005D01*
X147444928Y-116127758D01*
X147441262Y-116137311D01*
X147427743Y-116170157D01*
X147408460Y-116215168D01*
X147385294Y-116268151D01*
X147360125Y-116324910D01*
X147334837Y-116381251D01*
X147311308Y-116432980D01*
X147291421Y-116475903D01*
X147277058Y-116505824D01*
X147270511Y-116518027D01*
X147262075Y-116532396D01*
X147245720Y-116562008D01*
X147224111Y-116601993D01*
X147208280Y-116631673D01*
X147176416Y-116689994D01*
X147139673Y-116754644D01*
X147104680Y-116814018D01*
X147095787Y-116828623D01*
X147067823Y-116874135D01*
X147041856Y-116916465D01*
X147021890Y-116949082D01*
X147015646Y-116959317D01*
X147001420Y-116981159D01*
X146977654Y-117016135D01*
X146948071Y-117058922D01*
X146916394Y-117104194D01*
X146886346Y-117146627D01*
X146861650Y-117180896D01*
X146847431Y-117199906D01*
X146805306Y-117253439D01*
X146762004Y-117307949D01*
X146720934Y-117359187D01*
X146685509Y-117402908D01*
X146659139Y-117434865D01*
X146651172Y-117444234D01*
X146610718Y-117489397D01*
X146559910Y-117543764D01*
X146502093Y-117603980D01*
X146440612Y-117666688D01*
X146378811Y-117728533D01*
X146320034Y-117786159D01*
X146267625Y-117836209D01*
X146224929Y-117875329D01*
X146202268Y-117894691D01*
X146176960Y-117915788D01*
X146159882Y-117931162D01*
X146156810Y-117934465D01*
X146145695Y-117944457D01*
X146118733Y-117966666D01*
X146078046Y-117999390D01*
X146025758Y-118040928D01*
X145963989Y-118089578D01*
X145935199Y-118112138D01*
X145865273Y-118164094D01*
X145780404Y-118222750D01*
X145685994Y-118284664D01*
X145587442Y-118346396D01*
X145490149Y-118404506D01*
X145399515Y-118455553D01*
X145378331Y-118466913D01*
X145331793Y-118491744D01*
X145292327Y-118513115D01*
X145264491Y-118528538D01*
X145253320Y-118535155D01*
X145238206Y-118543163D01*
X145206429Y-118558335D01*
X145162178Y-118578792D01*
X145109644Y-118602653D01*
X145053015Y-118628040D01*
X144996481Y-118653072D01*
X144944232Y-118675870D01*
X144900458Y-118694554D01*
X144872604Y-118705969D01*
X144663249Y-118781424D01*
X144438971Y-118849168D01*
X144206758Y-118907527D01*
X143973600Y-118954829D01*
X143746485Y-118989398D01*
X143639539Y-119001182D01*
X143586696Y-119004819D01*
X143516492Y-119007597D01*
X143432746Y-119009536D01*
X143339273Y-119010662D01*
X143239890Y-119010997D01*
X143138412Y-119010565D01*
X143038656Y-119009388D01*
X142944440Y-119007492D01*
X142859578Y-119004898D01*
X142787888Y-119001630D01*
X142733185Y-118997712D01*
X142713320Y-118995506D01*
X142649495Y-118987018D01*
X142578500Y-118977648D01*
X142513857Y-118969180D01*
X142503074Y-118967776D01*
X142446661Y-118959605D01*
X142389115Y-118949898D01*
X142341086Y-118940482D01*
X142332604Y-118938572D01*
X142292847Y-118929364D01*
X142238835Y-118916948D01*
X142178477Y-118903138D01*
X142133723Y-118892940D01*
X141983422Y-118854877D01*
X141824669Y-118807698D01*
X141668063Y-118754682D01*
X141582537Y-118722604D01*
X141526295Y-118700710D01*
X141473520Y-118680290D01*
X141430076Y-118663605D01*
X141401830Y-118652915D01*
X141401519Y-118652800D01*
X141340011Y-118627259D01*
X141263337Y-118591078D01*
X141175183Y-118546317D01*
X141079234Y-118495034D01*
X140979174Y-118439291D01*
X140878688Y-118381145D01*
X140781462Y-118322658D01*
X140691180Y-118265888D01*
X140611527Y-118212895D01*
X140599494Y-118204540D01*
X140405556Y-118060214D01*
X140214688Y-117901300D01*
X140030402Y-117731287D01*
X139856209Y-117553659D01*
X139695619Y-117371904D01*
X139552145Y-117189508D01*
X139491441Y-117104287D01*
X139462456Y-117062619D01*
X139435424Y-117024605D01*
X139415041Y-116996826D01*
X139410902Y-116991442D01*
X139384357Y-116953910D01*
X139349898Y-116899571D01*
X139309516Y-116832075D01*
X139265201Y-116755072D01*
X139218945Y-116672212D01*
X139172739Y-116587145D01*
X139128574Y-116503521D01*
X139088442Y-116424990D01*
X139054333Y-116355202D01*
X139028239Y-116297806D01*
X139016093Y-116267729D01*
X139005446Y-116239562D01*
X138988772Y-116196125D01*
X138968343Y-116143310D01*
X138946430Y-116087007D01*
X138946103Y-116086170D01*
X138919999Y-116016575D01*
X138891635Y-115936522D01*
X138864981Y-115857413D01*
X138849168Y-115807736D01*
X138834639Y-115759693D01*
X138821415Y-115713847D01*
X138808555Y-115666460D01*
X138795121Y-115613796D01*
X138780173Y-115552119D01*
X138762773Y-115477692D01*
X138741982Y-115386779D01*
X138729219Y-115330421D01*
X138719159Y-115280435D01*
X138708936Y-115220882D01*
X138700896Y-115165633D01*
X138694383Y-115114654D01*
X138686244Y-115050835D01*
X138677717Y-114983885D01*
X138672701Y-114944454D01*
X138667725Y-114891319D01*
X138663611Y-114819572D01*
X138660382Y-114733319D01*
X138658061Y-114636662D01*
X138656671Y-114533704D01*
X138656563Y-114507646D01*
X139956026Y-114507646D01*
X139958679Y-114705959D01*
X139964937Y-114902804D01*
X139974616Y-115095525D01*
X139987533Y-115281465D01*
X140003503Y-115457968D01*
X140022344Y-115622378D01*
X140043872Y-115772038D01*
X140067903Y-115904291D01*
X140093310Y-116012984D01*
X140139310Y-116146072D01*
X140201791Y-116263524D01*
X140280920Y-116365531D01*
X140376865Y-116452284D01*
X140489791Y-116523972D01*
X140576583Y-116564299D01*
X140637730Y-116585121D01*
X140715366Y-116604472D01*
X140810057Y-116622399D01*
X140922369Y-116638951D01*
X141052869Y-116654174D01*
X141202121Y-116668116D01*
X141370693Y-116680825D01*
X141559151Y-116692349D01*
X141768059Y-116702734D01*
X141997985Y-116712029D01*
X142249495Y-116720280D01*
X142520121Y-116727464D01*
X142694999Y-116731383D01*
X142852071Y-116734307D01*
X142996236Y-116736239D01*
X143132394Y-116737183D01*
X143265446Y-116737142D01*
X143400291Y-116736119D01*
X143541831Y-116734118D01*
X143694966Y-116731142D01*
X143815691Y-116728386D01*
X144091810Y-116721120D01*
X144345779Y-116713062D01*
X144578167Y-116704170D01*
X144789542Y-116694398D01*
X144980471Y-116683704D01*
X145151522Y-116672045D01*
X145303264Y-116659377D01*
X145436264Y-116645657D01*
X145551090Y-116630841D01*
X145648310Y-116614887D01*
X145728491Y-116597750D01*
X145792202Y-116579387D01*
X145799424Y-116576865D01*
X145922917Y-116521041D01*
X146033215Y-116447275D01*
X146128938Y-116357043D01*
X146208708Y-116251818D01*
X146271146Y-116133077D01*
X146306063Y-116035029D01*
X146334787Y-115919855D01*
X146360495Y-115783760D01*
X146383045Y-115628369D01*
X146402294Y-115455308D01*
X146418099Y-115266202D01*
X146430315Y-115062676D01*
X146438800Y-114846358D01*
X146443411Y-114618871D01*
X146444263Y-114466707D01*
X146441802Y-114199839D01*
X146434467Y-113950089D01*
X146422327Y-113718256D01*
X146405449Y-113505137D01*
X146383904Y-113311532D01*
X146357759Y-113138239D01*
X146327085Y-112986056D01*
X146310690Y-112920430D01*
X146264583Y-112786798D01*
X146202243Y-112669070D01*
X146123713Y-112567284D01*
X146029036Y-112481479D01*
X145918256Y-112411694D01*
X145791416Y-112357967D01*
X145648560Y-112320336D01*
X145635480Y-112317844D01*
X145539638Y-112302502D01*
X145422979Y-112287915D01*
X145287405Y-112274154D01*
X145134818Y-112261294D01*
X144967121Y-112249406D01*
X144786215Y-112238562D01*
X144594003Y-112228836D01*
X144392387Y-112220299D01*
X144183269Y-112213025D01*
X143968551Y-112207085D01*
X143750135Y-112202552D01*
X143529923Y-112199499D01*
X143309818Y-112197997D01*
X143091721Y-112198121D01*
X142877535Y-112199941D01*
X142669162Y-112203531D01*
X142647973Y-112204007D01*
X142371944Y-112210940D01*
X142117969Y-112218564D01*
X141885383Y-112226929D01*
X141673519Y-112236084D01*
X141481713Y-112246080D01*
X141309298Y-112256966D01*
X141155608Y-112268791D01*
X141019978Y-112281606D01*
X140901741Y-112295459D01*
X140800232Y-112310402D01*
X140714786Y-112326483D01*
X140644735Y-112343752D01*
X140604576Y-112356549D01*
X140484654Y-112410899D01*
X140375390Y-112483409D01*
X140279465Y-112571689D01*
X140199558Y-112673354D01*
X140149307Y-112762009D01*
X140116058Y-112845574D01*
X140085638Y-112951242D01*
X140058111Y-113078555D01*
X140033540Y-113227054D01*
X140011988Y-113396283D01*
X139993518Y-113585782D01*
X139978194Y-113795095D01*
X139966079Y-114023764D01*
X139962269Y-114117244D01*
X139957161Y-114310522D01*
X139956026Y-114507646D01*
X138656563Y-114507646D01*
X138656236Y-114428550D01*
X138656779Y-114325301D01*
G37*
G36*
X179484522Y-90636225D02*
G01*
X179308146Y-90391623D01*
X179147989Y-90136790D01*
X179004578Y-89872742D01*
X178878440Y-89600489D01*
X178770102Y-89321046D01*
X178680091Y-89035426D01*
X178608935Y-88744640D01*
X178577532Y-88580000D01*
X178562369Y-88489452D01*
X178549928Y-88409198D01*
X178539949Y-88335725D01*
X178532173Y-88265525D01*
X178526339Y-88195086D01*
X178522187Y-88120899D01*
X178519457Y-88039453D01*
X178517889Y-87947237D01*
X178517223Y-87840741D01*
X178517149Y-87765000D01*
X178517442Y-87649783D01*
X178518400Y-87551061D01*
X178520285Y-87465334D01*
X178523363Y-87389100D01*
X178527896Y-87318858D01*
X178534149Y-87251108D01*
X178542385Y-87182348D01*
X178552869Y-87109079D01*
X178565863Y-87027798D01*
X178578184Y-86955000D01*
X178638561Y-86662493D01*
X178718103Y-86374422D01*
X178816266Y-86091838D01*
X178932502Y-85815792D01*
X179066267Y-85547334D01*
X179217014Y-85287514D01*
X179384198Y-85037384D01*
X179567273Y-84797993D01*
X179765694Y-84570392D01*
X179877000Y-84454795D01*
X180098308Y-84245783D01*
X180328218Y-84054453D01*
X180568042Y-83879862D01*
X180819093Y-83721068D01*
X181082684Y-83577128D01*
X181137000Y-83550051D01*
X181395706Y-83432185D01*
X181657268Y-83331517D01*
X181924176Y-83247318D01*
X182198920Y-83178858D01*
X182483988Y-83125410D01*
X182682000Y-83097635D01*
X182734565Y-83091540D01*
X182784075Y-83086687D01*
X182833792Y-83082943D01*
X182886977Y-83080175D01*
X182946894Y-83078249D01*
X183016804Y-83077033D01*
X183099969Y-83076392D01*
X183199651Y-83076195D01*
X183207000Y-83076194D01*
X183336585Y-83076819D01*
X183450277Y-83078915D01*
X183552150Y-83082815D01*
X183646277Y-83088850D01*
X183736733Y-83097352D01*
X183827593Y-83108654D01*
X183922929Y-83123087D01*
X184026817Y-83140983D01*
X184047000Y-83144645D01*
X184346428Y-83209343D01*
X184638897Y-83292557D01*
X184923729Y-83393816D01*
X185200248Y-83512648D01*
X185467776Y-83648582D01*
X185725637Y-83801146D01*
X185973154Y-83969870D01*
X186209650Y-84154281D01*
X186434448Y-84353909D01*
X186646872Y-84568282D01*
X186846245Y-84796928D01*
X187031890Y-85039377D01*
X187203130Y-85295156D01*
X187253759Y-85378045D01*
X187331027Y-85514611D01*
X187408374Y-85664804D01*
X187483431Y-85823313D01*
X187553828Y-85984823D01*
X187617194Y-86144021D01*
X187671160Y-86295593D01*
X187691778Y-86360000D01*
X187743340Y-86541468D01*
X187789715Y-86732162D01*
X187829519Y-86925411D01*
X187861368Y-87114547D01*
X187882543Y-87280000D01*
X187892725Y-87401526D01*
X187899485Y-87537401D01*
X187902850Y-87682344D01*
X187902846Y-87831073D01*
X187899501Y-87978307D01*
X187892842Y-88118764D01*
X187882896Y-88247163D01*
X187877309Y-88300000D01*
X187832221Y-88602912D01*
X187768501Y-88899482D01*
X187686694Y-89189043D01*
X187587345Y-89470930D01*
X187470999Y-89744479D01*
X187338201Y-90009023D01*
X187189497Y-90263897D01*
X187025432Y-90508435D01*
X186846550Y-90741973D01*
X186653397Y-90963845D01*
X186446518Y-91173385D01*
X186226459Y-91369928D01*
X185993763Y-91552808D01*
X185748977Y-91721360D01*
X185492646Y-91874920D01*
X185225314Y-92012820D01*
X184947527Y-92134396D01*
X184659829Y-92238983D01*
X184647000Y-92243168D01*
X184374050Y-92321917D01*
X184092204Y-92384203D01*
X183804431Y-92429662D01*
X183513703Y-92457929D01*
X183222992Y-92468638D01*
X182935270Y-92461426D01*
X182892000Y-92458738D01*
X182589296Y-92428494D01*
X182290464Y-92378873D01*
X181996378Y-92310273D01*
X181707911Y-92223092D01*
X181425940Y-92117727D01*
X181151337Y-91994577D01*
X180884978Y-91854038D01*
X180627737Y-91696509D01*
X180380487Y-91522386D01*
X180144105Y-91332069D01*
X179919463Y-91125954D01*
X179883822Y-91090690D01*
X179701516Y-90896180D01*
X181492000Y-90896180D01*
X181501766Y-90896737D01*
X181530132Y-90897270D01*
X181575697Y-90897773D01*
X181637059Y-90898239D01*
X181712819Y-90898663D01*
X181801576Y-90899040D01*
X181901929Y-90899362D01*
X182012477Y-90899625D01*
X182131821Y-90899823D01*
X182258558Y-90899950D01*
X182391289Y-90899999D01*
X182405650Y-90900000D01*
X183319300Y-90900000D01*
X184317317Y-89343177D01*
X184420309Y-89182457D01*
X184520368Y-89026195D01*
X184616960Y-88875228D01*
X184709555Y-88730393D01*
X184797619Y-88592525D01*
X184880621Y-88462461D01*
X184958027Y-88341037D01*
X185029307Y-88229090D01*
X185093927Y-88127456D01*
X185151356Y-88036971D01*
X185201060Y-87958472D01*
X185242509Y-87892796D01*
X185275169Y-87840778D01*
X185298508Y-87803254D01*
X185311995Y-87781063D01*
X185315333Y-87774919D01*
X185310018Y-87765449D01*
X185294429Y-87739987D01*
X185269098Y-87699368D01*
X185234556Y-87644429D01*
X185191337Y-87576007D01*
X185139973Y-87494938D01*
X185080996Y-87402058D01*
X185014938Y-87298203D01*
X184942331Y-87184210D01*
X184863709Y-87060916D01*
X184779602Y-86929156D01*
X184690544Y-86789768D01*
X184597066Y-86643586D01*
X184499701Y-86491449D01*
X184398982Y-86334191D01*
X184317297Y-86206742D01*
X183319262Y-84650000D01*
X182405631Y-84650000D01*
X182272348Y-84650040D01*
X182144911Y-84650159D01*
X182024719Y-84650349D01*
X181913173Y-84650606D01*
X181811675Y-84650923D01*
X181721625Y-84651294D01*
X181644423Y-84651713D01*
X181581469Y-84652175D01*
X181534166Y-84652674D01*
X181503913Y-84653204D01*
X181492111Y-84653759D01*
X181492000Y-84653819D01*
X181497311Y-84662496D01*
X181512893Y-84687173D01*
X181538211Y-84727018D01*
X181572733Y-84781200D01*
X181615927Y-84848886D01*
X181667262Y-84929245D01*
X181726204Y-85021443D01*
X181792221Y-85124650D01*
X181864781Y-85238034D01*
X181943352Y-85360761D01*
X182027401Y-85492001D01*
X182116396Y-85630920D01*
X182209805Y-85776688D01*
X182307095Y-85928472D01*
X182407735Y-86085441D01*
X182488459Y-86211319D01*
X182591379Y-86371845D01*
X182691365Y-86527899D01*
X182787883Y-86678644D01*
X182880400Y-86823245D01*
X182968385Y-86960864D01*
X183051304Y-87090667D01*
X183128624Y-87211816D01*
X183199813Y-87323476D01*
X183264337Y-87424811D01*
X183321664Y-87514985D01*
X183371261Y-87593161D01*
X183412596Y-87658503D01*
X183445135Y-87710176D01*
X183468345Y-87747342D01*
X183481695Y-87769167D01*
X183484919Y-87775000D01*
X183479604Y-87784320D01*
X183464013Y-87809632D01*
X183438680Y-87850101D01*
X183404137Y-87904889D01*
X183360917Y-87973160D01*
X183309553Y-88054079D01*
X183250577Y-88146810D01*
X183184523Y-88250515D01*
X183111924Y-88364360D01*
X183033311Y-88487508D01*
X182949218Y-88619123D01*
X182860179Y-88758369D01*
X182766724Y-88904410D01*
X182669388Y-89056409D01*
X182568703Y-89213531D01*
X182488459Y-89338680D01*
X182385571Y-89499124D01*
X182285615Y-89655035D01*
X182189125Y-89805580D01*
X182096631Y-89949928D01*
X182008667Y-90087247D01*
X181925765Y-90216705D01*
X181848457Y-90337469D01*
X181777276Y-90448708D01*
X181712754Y-90549590D01*
X181655422Y-90639282D01*
X181605814Y-90716953D01*
X181564462Y-90781771D01*
X181531898Y-90832903D01*
X181508654Y-90869518D01*
X181495263Y-90890783D01*
X181492000Y-90896180D01*
X179701516Y-90896180D01*
X179676590Y-90869585D01*
X179484522Y-90636225D01*
G37*
G36*
X178678905Y-116827769D02*
G01*
X178569299Y-116578335D01*
X178533519Y-116483173D01*
X180865919Y-116483173D01*
X182834790Y-116483173D01*
X183608275Y-116483173D01*
X185538081Y-116483173D01*
X185538081Y-115858134D01*
X183608275Y-115858134D01*
X183608275Y-116483173D01*
X182834790Y-116483173D01*
X182834790Y-115858134D01*
X180865919Y-115858134D01*
X180865919Y-116483173D01*
X178533519Y-116483173D01*
X178473715Y-116324118D01*
X178392643Y-116066169D01*
X178326575Y-115805536D01*
X178319905Y-115775178D01*
X178314937Y-115748752D01*
X180865919Y-115748752D01*
X182834790Y-115748752D01*
X183608275Y-115748752D01*
X185538081Y-115748752D01*
X185538081Y-115123714D01*
X183608275Y-115123714D01*
X183608275Y-115748752D01*
X182834790Y-115748752D01*
X182834790Y-115123714D01*
X180865919Y-115123714D01*
X180865919Y-115748752D01*
X178314937Y-115748752D01*
X178267705Y-115497515D01*
X178230941Y-115219319D01*
X178215191Y-115014332D01*
X180865919Y-115014332D01*
X185538081Y-115014332D01*
X185538081Y-114389294D01*
X180865919Y-114389294D01*
X180865919Y-115014332D01*
X178215191Y-115014332D01*
X178209564Y-114941088D01*
X178203526Y-114663318D01*
X178212777Y-114386509D01*
X178222245Y-114280059D01*
X181194064Y-114280059D01*
X181578853Y-114278033D01*
X181963643Y-114276006D01*
X181968115Y-113889263D01*
X181969560Y-113782130D01*
X181971249Y-113689296D01*
X181973174Y-113610993D01*
X181975328Y-113547456D01*
X181977703Y-113498917D01*
X181980291Y-113465610D01*
X181982178Y-113451736D01*
X182016100Y-113311802D01*
X182063485Y-113179278D01*
X182124047Y-113054676D01*
X182197499Y-112938503D01*
X182283556Y-112831270D01*
X182381933Y-112733485D01*
X182389027Y-112727223D01*
X182496689Y-112642899D01*
X182610892Y-112572183D01*
X182730496Y-112515071D01*
X182854362Y-112471564D01*
X182981350Y-112441660D01*
X183110319Y-112425357D01*
X183240130Y-112422656D01*
X183369642Y-112433554D01*
X183497716Y-112458051D01*
X183623213Y-112496145D01*
X183744990Y-112547835D01*
X183861910Y-112613121D01*
X183972832Y-112692000D01*
X184016978Y-112728852D01*
X184115268Y-112825046D01*
X184201662Y-112931168D01*
X184275809Y-113046617D01*
X184337357Y-113170790D01*
X184385952Y-113303082D01*
X184414024Y-113408765D01*
X184417999Y-113427124D01*
X184421341Y-113444778D01*
X184424118Y-113463273D01*
X184426396Y-113484153D01*
X184428243Y-113508962D01*
X184429726Y-113539247D01*
X184430911Y-113576552D01*
X184431864Y-113622421D01*
X184432654Y-113678400D01*
X184433347Y-113746033D01*
X184434010Y-113826866D01*
X184434400Y-113879497D01*
X184437251Y-114272099D01*
X185209936Y-114272099D01*
X185209936Y-113906246D01*
X185209798Y-113805611D01*
X185209310Y-113718781D01*
X185208362Y-113643936D01*
X185206842Y-113579256D01*
X185204641Y-113522924D01*
X185201647Y-113473118D01*
X185197750Y-113428020D01*
X185192839Y-113385811D01*
X185186804Y-113344670D01*
X185179533Y-113302779D01*
X185170917Y-113258317D01*
X185170363Y-113255571D01*
X185128236Y-113085595D01*
X185072021Y-112921584D01*
X185002341Y-112764240D01*
X184919820Y-112614260D01*
X184825081Y-112472346D01*
X184718749Y-112339198D01*
X184601446Y-112215514D01*
X184473797Y-112101994D01*
X184336425Y-111999340D01*
X184189954Y-111908249D01*
X184035008Y-111829424D01*
X183872209Y-111763562D01*
X183827039Y-111748109D01*
X183713264Y-111713693D01*
X183604628Y-111687536D01*
X183496705Y-111668951D01*
X183385068Y-111657252D01*
X183265291Y-111651752D01*
X183202000Y-111651112D01*
X183076591Y-111653813D01*
X182961501Y-111662375D01*
X182852303Y-111677485D01*
X182744571Y-111699829D01*
X182633879Y-111730095D01*
X182576962Y-111748109D01*
X182411828Y-111810465D01*
X182254604Y-111885892D01*
X182105869Y-111973684D01*
X181966197Y-112073136D01*
X181836165Y-112183543D01*
X181716350Y-112304198D01*
X181607329Y-112434396D01*
X181509678Y-112573433D01*
X181423974Y-112720602D01*
X181350792Y-112875197D01*
X181290711Y-113036514D01*
X181244305Y-113203846D01*
X181212153Y-113376489D01*
X181205738Y-113426063D01*
X181202717Y-113456372D01*
X181200214Y-113491989D01*
X181198193Y-113534380D01*
X181196618Y-113585012D01*
X181195454Y-113645350D01*
X181194664Y-113716862D01*
X181194213Y-113801014D01*
X181194064Y-113899273D01*
X181194064Y-114280059D01*
X178222245Y-114280059D01*
X178237268Y-114111158D01*
X178276949Y-113837761D01*
X178331772Y-113566818D01*
X178401687Y-113298826D01*
X178486645Y-113034283D01*
X178586597Y-112773686D01*
X178625702Y-112682158D01*
X178742284Y-112434819D01*
X178870977Y-112196656D01*
X179012213Y-111967040D01*
X179166423Y-111745343D01*
X179334040Y-111530937D01*
X179515495Y-111323195D01*
X179670144Y-111162144D01*
X179872972Y-110969414D01*
X180081990Y-110790860D01*
X180297909Y-110626021D01*
X180521440Y-110474440D01*
X180753292Y-110335657D01*
X180994177Y-110209214D01*
X181244804Y-110094652D01*
X181451892Y-110011590D01*
X181705253Y-109924160D01*
X181966158Y-109850408D01*
X182234586Y-109790337D01*
X182510517Y-109743953D01*
X182793931Y-109711261D01*
X182830884Y-109708053D01*
X182880651Y-109704837D01*
X182943106Y-109702285D01*
X183015326Y-109700397D01*
X183094385Y-109699175D01*
X183177362Y-109698617D01*
X183261331Y-109698723D01*
X183343369Y-109699495D01*
X183420552Y-109700931D01*
X183489956Y-109703031D01*
X183548658Y-109705796D01*
X183580930Y-109708053D01*
X183866286Y-109739142D01*
X184144699Y-109784162D01*
X184416487Y-109843209D01*
X184681968Y-109916376D01*
X184941462Y-110003761D01*
X185195288Y-110105457D01*
X185443764Y-110221561D01*
X185631837Y-110320945D01*
X185865447Y-110458804D01*
X186087569Y-110606555D01*
X186299608Y-110765259D01*
X186502967Y-110935975D01*
X186699048Y-111119765D01*
X186729561Y-111150175D01*
X186921770Y-111353043D01*
X187099553Y-111561053D01*
X187263526Y-111775115D01*
X187414305Y-111996141D01*
X187552505Y-112225043D01*
X187678744Y-112462733D01*
X187793637Y-112710122D01*
X187810424Y-112749285D01*
X187909237Y-113002236D01*
X187993768Y-113260835D01*
X188063936Y-113524213D01*
X188119660Y-113791503D01*
X188160861Y-114061836D01*
X188187458Y-114334342D01*
X188199371Y-114608153D01*
X188196518Y-114882400D01*
X188178820Y-115156215D01*
X188146196Y-115428729D01*
X188098566Y-115699074D01*
X188088109Y-115748752D01*
X188021413Y-116021419D01*
X187940459Y-116287697D01*
X187845261Y-116547557D01*
X187735835Y-116800965D01*
X187612197Y-117047892D01*
X187474363Y-117288304D01*
X187322349Y-117522171D01*
X187156170Y-117749461D01*
X186988061Y-117955920D01*
X186940341Y-118009903D01*
X186883353Y-118071494D01*
X186819675Y-118138112D01*
X186751890Y-118207177D01*
X186682574Y-118276108D01*
X186614310Y-118342327D01*
X186549677Y-118403251D01*
X186491253Y-118456302D01*
X186463920Y-118480146D01*
X186243476Y-118659009D01*
X186015808Y-118824046D01*
X185781171Y-118975151D01*
X185539822Y-119112217D01*
X185292016Y-119235138D01*
X185038008Y-119343807D01*
X184778054Y-119438119D01*
X184512409Y-119517966D01*
X184241330Y-119583242D01*
X183965071Y-119633841D01*
X183683889Y-119669657D01*
X183584836Y-119678641D01*
X183548929Y-119680969D01*
X183501246Y-119683183D01*
X183444497Y-119685233D01*
X183381395Y-119687070D01*
X183314650Y-119688643D01*
X183246975Y-119689903D01*
X183181081Y-119690800D01*
X183119680Y-119691285D01*
X183065482Y-119691306D01*
X183021200Y-119690815D01*
X182989545Y-119689762D01*
X182987143Y-119689622D01*
X182849547Y-119680287D01*
X182724523Y-119669929D01*
X182609032Y-119658155D01*
X182500032Y-119644573D01*
X182394485Y-119628790D01*
X182289349Y-119610412D01*
X182181584Y-119589048D01*
X182139435Y-119580091D01*
X181867146Y-119513354D01*
X181600413Y-119432061D01*
X181339587Y-119336376D01*
X181085022Y-119226461D01*
X180837067Y-119102479D01*
X180596076Y-118964594D01*
X180362401Y-118812969D01*
X180149339Y-118657758D01*
X179969616Y-118511888D01*
X179792361Y-118353057D01*
X179620238Y-118183925D01*
X179455910Y-118007156D01*
X179302043Y-117825411D01*
X179247716Y-117756689D01*
X179086938Y-117536880D01*
X178938216Y-117308090D01*
X178886157Y-117217593D01*
X180865919Y-117217593D01*
X185538081Y-117217593D01*
X185538081Y-116600367D01*
X180865919Y-116600367D01*
X180865919Y-117217593D01*
X178886157Y-117217593D01*
X178802041Y-117071370D01*
X178678905Y-116827769D01*
G37*
D11*
X85161200Y-102030000D03*
X93121200Y-102030000D03*
X93121200Y-106530000D03*
X85161200Y-106530000D03*
D12*
X156202000Y-103986000D03*
X170202000Y-103986000D03*
X170202000Y-98986000D03*
X156202000Y-98986000D03*
D11*
X85161200Y-82030000D03*
X93121200Y-82030000D03*
X85161200Y-86530000D03*
X93121200Y-86530000D03*
D12*
X116202000Y-103986000D03*
X130202000Y-103986000D03*
X116202000Y-98986000D03*
X130202000Y-98986000D03*
X190202000Y-103986000D03*
X176202000Y-103986000D03*
X190202000Y-98986000D03*
X176202000Y-98986000D03*
D11*
X93121200Y-92030000D03*
X85161200Y-92030000D03*
X93121200Y-96530000D03*
X85161200Y-96530000D03*
D12*
X190202000Y-125910000D03*
X176202000Y-125910000D03*
X176202000Y-130910000D03*
X190202000Y-130910000D03*
X156202000Y-125910000D03*
X170202000Y-125910000D03*
X170202000Y-130910000D03*
X156202000Y-130910000D03*
D11*
X93121200Y-112030000D03*
X85161200Y-112030000D03*
X85161200Y-116530000D03*
X93121200Y-116530000D03*
D12*
X150202000Y-103986000D03*
X136202000Y-103986000D03*
X150202000Y-98986000D03*
X136202000Y-98986000D03*
X116202000Y-125910000D03*
X130202000Y-125910000D03*
X116202000Y-130910000D03*
X130202000Y-130910000D03*
X150202000Y-125910000D03*
X136202000Y-125910000D03*
X150202000Y-130910000D03*
X136202000Y-130910000D03*
D11*
X93121200Y-122030000D03*
X85161200Y-122030000D03*
X85161200Y-126530000D03*
X93121200Y-126530000D03*
X85161200Y-132030000D03*
X93121200Y-132030000D03*
X93121200Y-136530000D03*
X85161200Y-136530000D03*
M02*
