%TF.GenerationSoftware,KiCad,Pcbnew,6.0.8*%
%TF.CreationDate,2022-10-19T16:48:47+03:00*%
%TF.ProjectId,keypad,6b657970-6164-42e6-9b69-6361645f7063,B*%
%TF.SameCoordinates,Original*%
%TF.FileFunction,Drillmap*%
%TF.FilePolarity,Positive*%
%FSLAX45Y45*%
G04 Gerber Fmt 4.5, Leading zero omitted, Abs format (unit mm)*
G04 Created by KiCad (PCBNEW 6.0.8) date 2022-10-19 16:48:47*
%MOMM*%
%LPD*%
G01*
G04 APERTURE LIST*
%ADD10C,0.100000*%
%ADD11C,0.200000*%
G04 APERTURE END LIST*
D10*
X16734000Y-4640400D02*
G75*
G03*
X16734000Y-4640400I-150000J0D01*
G01*
X8538800Y-4640400D02*
G75*
G03*
X8538800Y-4640400I-150000J0D01*
G01*
X8084000Y-4390400D02*
X22584000Y-4390400D01*
X22584000Y-4390400D02*
X22584000Y-14390400D01*
X22584000Y-14390400D02*
X8084000Y-14390400D01*
X8084000Y-14390400D02*
X8084000Y-4390400D01*
X22381800Y-14140400D02*
G75*
G03*
X22381800Y-14140400I-150000J0D01*
G01*
X16734000Y-14140400D02*
G75*
G03*
X16734000Y-14140400I-150000J0D01*
G01*
X8538800Y-14140400D02*
G75*
G03*
X8538800Y-14140400I-150000J0D01*
G01*
X12234000Y-4640400D02*
G75*
G03*
X12234000Y-4640400I-150000J0D01*
G01*
X22381800Y-4640400D02*
G75*
G03*
X22381800Y-4640400I-150000J0D01*
G01*
X12234000Y-14140400D02*
G75*
G03*
X12234000Y-14140400I-150000J0D01*
G01*
D11*
X8336619Y-14705876D02*
X8336619Y-14505876D01*
X8384238Y-14505876D01*
X8412810Y-14515400D01*
X8431857Y-14534448D01*
X8441381Y-14553495D01*
X8450905Y-14591590D01*
X8450905Y-14620162D01*
X8441381Y-14658257D01*
X8431857Y-14677305D01*
X8412810Y-14696352D01*
X8384238Y-14705876D01*
X8336619Y-14705876D01*
X8536619Y-14705876D02*
X8536619Y-14572543D01*
X8536619Y-14610638D02*
X8546143Y-14591590D01*
X8555667Y-14582067D01*
X8574714Y-14572543D01*
X8593762Y-14572543D01*
X8660429Y-14705876D02*
X8660429Y-14572543D01*
X8660429Y-14505876D02*
X8650905Y-14515400D01*
X8660429Y-14524924D01*
X8669952Y-14515400D01*
X8660429Y-14505876D01*
X8660429Y-14524924D01*
X8784238Y-14705876D02*
X8765190Y-14696352D01*
X8755667Y-14677305D01*
X8755667Y-14505876D01*
X8889000Y-14705876D02*
X8869952Y-14696352D01*
X8860429Y-14677305D01*
X8860429Y-14505876D01*
X9117571Y-14705876D02*
X9117571Y-14505876D01*
X9184238Y-14648733D01*
X9250905Y-14505876D01*
X9250905Y-14705876D01*
X9431857Y-14705876D02*
X9431857Y-14601114D01*
X9422333Y-14582067D01*
X9403286Y-14572543D01*
X9365190Y-14572543D01*
X9346143Y-14582067D01*
X9431857Y-14696352D02*
X9412810Y-14705876D01*
X9365190Y-14705876D01*
X9346143Y-14696352D01*
X9336619Y-14677305D01*
X9336619Y-14658257D01*
X9346143Y-14639209D01*
X9365190Y-14629686D01*
X9412810Y-14629686D01*
X9431857Y-14620162D01*
X9527095Y-14572543D02*
X9527095Y-14772543D01*
X9527095Y-14582067D02*
X9546143Y-14572543D01*
X9584238Y-14572543D01*
X9603286Y-14582067D01*
X9612810Y-14591590D01*
X9622333Y-14610638D01*
X9622333Y-14667781D01*
X9612810Y-14686828D01*
X9603286Y-14696352D01*
X9584238Y-14705876D01*
X9546143Y-14705876D01*
X9527095Y-14696352D01*
X9708048Y-14686828D02*
X9717571Y-14696352D01*
X9708048Y-14705876D01*
X9698524Y-14696352D01*
X9708048Y-14686828D01*
X9708048Y-14705876D01*
X9708048Y-14582067D02*
X9717571Y-14591590D01*
X9708048Y-14601114D01*
X9698524Y-14591590D01*
X9708048Y-14582067D01*
X9708048Y-14601114D01*
M02*
