G04 #@! TF.GenerationSoftware,KiCad,Pcbnew,6.0.8*
G04 #@! TF.CreationDate,2022-10-19T16:45:40+03:00*
G04 #@! TF.ProjectId,keypad,6b657970-6164-42e6-9b69-6361645f7063,B*
G04 #@! TF.SameCoordinates,Original*
G04 #@! TF.FileFunction,Paste,Bot*
G04 #@! TF.FilePolarity,Positive*
%FSLAX46Y46*%
G04 Gerber Fmt 4.6, Leading zero omitted, Abs format (unit mm)*
G04 Created by KiCad (PCBNEW 6.0.8) date 2022-10-19 16:45:40*
%MOMM*%
%LPD*%
G01*
G04 APERTURE LIST*
G04 Aperture macros list*
%AMRoundRect*
0 Rectangle with rounded corners*
0 $1 Rounding radius*
0 $2 $3 $4 $5 $6 $7 $8 $9 X,Y pos of 4 corners*
0 Add a 4 corners polygon primitive as box body*
4,1,4,$2,$3,$4,$5,$6,$7,$8,$9,$2,$3,0*
0 Add four circle primitives for the rounded corners*
1,1,$1+$1,$2,$3*
1,1,$1+$1,$4,$5*
1,1,$1+$1,$6,$7*
1,1,$1+$1,$8,$9*
0 Add four rect primitives between the rounded corners*
20,1,$1+$1,$2,$3,$4,$5,0*
20,1,$1+$1,$4,$5,$6,$7,0*
20,1,$1+$1,$6,$7,$8,$9,0*
20,1,$1+$1,$8,$9,$2,$3,0*%
G04 Aperture macros list end*
%ADD10R,3.000000X3.000000*%
%ADD11R,4.000000X2.000000*%
%ADD12RoundRect,0.250000X-0.262500X-0.450000X0.262500X-0.450000X0.262500X0.450000X-0.262500X0.450000X0*%
%ADD13RoundRect,0.250000X0.262500X0.450000X-0.262500X0.450000X-0.262500X-0.450000X0.262500X-0.450000X0*%
%ADD14RoundRect,0.250000X-0.250000X-0.475000X0.250000X-0.475000X0.250000X0.475000X-0.250000X0.475000X0*%
%ADD15R,2.800000X2.200000*%
%ADD16R,2.200000X2.800000*%
%ADD17R,1.600000X3.200000*%
%ADD18RoundRect,0.250000X0.450000X-0.262500X0.450000X0.262500X-0.450000X0.262500X-0.450000X-0.262500X0*%
%ADD19RoundRect,0.250000X-0.450000X0.262500X-0.450000X-0.262500X0.450000X-0.262500X0.450000X0.262500X0*%
%ADD20RoundRect,0.250000X-0.475000X0.250000X-0.475000X-0.250000X0.475000X-0.250000X0.475000X0.250000X0*%
G04 APERTURE END LIST*
D10*
X215510800Y-120408000D03*
X215510800Y-104408000D03*
X215460000Y-96913000D03*
X215460000Y-80913000D03*
D11*
X83512000Y-50726000D03*
X83512000Y-55726000D03*
X83512000Y-53226000D03*
X100012000Y-55726000D03*
X100012000Y-50726000D03*
D12*
X111677500Y-46622000D03*
X113502500Y-46622000D03*
D13*
X102326500Y-81928000D03*
X100501500Y-81928000D03*
X124170500Y-128410000D03*
X122345500Y-128410000D03*
D14*
X111640000Y-49670000D03*
X113540000Y-49670000D03*
D13*
X102326500Y-101994000D03*
X100501500Y-101994000D03*
D15*
X95960000Y-105296000D03*
D16*
X94060000Y-101596000D03*
X94060000Y-108996000D03*
X85860000Y-108996000D03*
X85860000Y-101596000D03*
D17*
X84650000Y-116345000D03*
X87190000Y-116345000D03*
X89730000Y-116345000D03*
X92270000Y-116345000D03*
X94810000Y-116345000D03*
X97350000Y-116345000D03*
X99890000Y-116345000D03*
X102430000Y-116345000D03*
X104970000Y-116345000D03*
X107510000Y-116345000D03*
X110050000Y-116345000D03*
X112590000Y-116345000D03*
X112590000Y-133363000D03*
X110050000Y-133363000D03*
X107510000Y-133363000D03*
X104970000Y-133363000D03*
X102430000Y-133363000D03*
X99890000Y-133363000D03*
X97350000Y-133363000D03*
X94810000Y-133363000D03*
X92270000Y-133363000D03*
X89730000Y-133363000D03*
X87190000Y-133363000D03*
X84650000Y-133363000D03*
D18*
X83380000Y-67854500D03*
X83380000Y-66029500D03*
D13*
X144236500Y-128410000D03*
X142411500Y-128410000D03*
D15*
X95960000Y-91580000D03*
D16*
X94060000Y-87880000D03*
X94060000Y-95280000D03*
X85860000Y-87880000D03*
X85860000Y-95280000D03*
D13*
X164048500Y-101486000D03*
X162223500Y-101486000D03*
X102326500Y-91834000D03*
X100501500Y-91834000D03*
X184114500Y-128410000D03*
X182289500Y-128410000D03*
D19*
X100398000Y-110098500D03*
X100398000Y-111923500D03*
D18*
X102430000Y-140244500D03*
X102430000Y-138419500D03*
D13*
X144236500Y-101486000D03*
X142411500Y-101486000D03*
X184114500Y-101486000D03*
X182289500Y-101486000D03*
D18*
X107510000Y-140244500D03*
X107510000Y-138419500D03*
D13*
X113502500Y-53226000D03*
X111677500Y-53226000D03*
X124170500Y-101486000D03*
X122345500Y-101486000D03*
D20*
X86682000Y-65992000D03*
X86682000Y-67892000D03*
D13*
X164048500Y-128410000D03*
X162223500Y-128410000D03*
M02*
