G04 #@! TF.GenerationSoftware,KiCad,Pcbnew,6.0.8*
G04 #@! TF.CreationDate,2022-10-19T16:45:40+03:00*
G04 #@! TF.ProjectId,keypad,6b657970-6164-42e6-9b69-6361645f7063,B*
G04 #@! TF.SameCoordinates,Original*
G04 #@! TF.FileFunction,Copper,L1,Top*
G04 #@! TF.FilePolarity,Positive*
%FSLAX46Y46*%
G04 Gerber Fmt 4.6, Leading zero omitted, Abs format (unit mm)*
G04 Created by KiCad (PCBNEW 6.0.8) date 2022-10-19 16:45:40*
%MOMM*%
%LPD*%
G01*
G04 APERTURE LIST*
%ADD10C,0.500000*%
G04 #@! TA.AperFunction,NonConductor*
%ADD11C,0.500000*%
G04 #@! TD*
G04 #@! TA.AperFunction,SMDPad,CuDef*
%ADD12R,1.550000X1.300000*%
G04 #@! TD*
G04 #@! TA.AperFunction,SMDPad,CuDef*
%ADD13R,2.000000X1.500000*%
G04 #@! TD*
G04 #@! TA.AperFunction,ViaPad*
%ADD14C,0.800000*%
G04 #@! TD*
G04 #@! TA.AperFunction,Conductor*
%ADD15C,0.200000*%
G04 #@! TD*
G04 APERTURE END LIST*
D10*
D11*
X195987342Y-54716742D02*
X197130200Y-54716742D01*
X196415914Y-56716742D02*
X196415914Y-54145314D01*
X196558771Y-53859600D01*
X196844485Y-53716742D01*
X197130200Y-53716742D01*
X199558771Y-53716742D02*
X198130200Y-53716742D01*
X197987342Y-55145314D01*
X198130200Y-55002457D01*
X198415914Y-54859600D01*
X199130200Y-54859600D01*
X199415914Y-55002457D01*
X199558771Y-55145314D01*
X199701628Y-55431028D01*
X199701628Y-56145314D01*
X199558771Y-56431028D01*
X199415914Y-56573885D01*
X199130200Y-56716742D01*
X198415914Y-56716742D01*
X198130200Y-56573885D01*
X197987342Y-56431028D01*
X200844485Y-55859600D02*
X202273057Y-55859600D01*
X200558771Y-56716742D02*
X201558771Y-53716742D01*
X202558771Y-56716742D01*
X204558771Y-55145314D02*
X203558771Y-55145314D01*
X203558771Y-56716742D02*
X203558771Y-53716742D01*
X204987342Y-53716742D01*
X205701628Y-54716742D02*
X206844485Y-54716742D01*
X206130200Y-56716742D02*
X206130200Y-54145314D01*
X206273057Y-53859600D01*
X206558771Y-53716742D01*
X206844485Y-53716742D01*
X207844485Y-56716742D02*
X207844485Y-53716742D01*
X208844485Y-55859600D01*
X209844485Y-53716742D01*
X209844485Y-56716742D01*
X211273057Y-56716742D02*
X211273057Y-53716742D01*
X212558771Y-56716742D02*
X212558771Y-55145314D01*
X212415914Y-54859600D01*
X212130200Y-54716742D01*
X211701628Y-54716742D01*
X211415914Y-54859600D01*
X211273057Y-55002457D01*
X213701628Y-54716742D02*
X214415914Y-56716742D01*
X215130200Y-54716742D01*
D12*
X85161200Y-102030000D03*
X93121200Y-102030000D03*
X93121200Y-106530000D03*
X85161200Y-106530000D03*
D13*
X156202000Y-103986000D03*
X170202000Y-103986000D03*
X170202000Y-98986000D03*
X156202000Y-98986000D03*
D12*
X85161200Y-82030000D03*
X93121200Y-82030000D03*
X85161200Y-86530000D03*
X93121200Y-86530000D03*
D13*
X116202000Y-103986000D03*
X130202000Y-103986000D03*
X116202000Y-98986000D03*
X130202000Y-98986000D03*
X190202000Y-103986000D03*
X176202000Y-103986000D03*
X190202000Y-98986000D03*
X176202000Y-98986000D03*
D12*
X93121200Y-92030000D03*
X85161200Y-92030000D03*
X93121200Y-96530000D03*
X85161200Y-96530000D03*
D13*
X190202000Y-125910000D03*
X176202000Y-125910000D03*
X176202000Y-130910000D03*
X190202000Y-130910000D03*
X156202000Y-125910000D03*
X170202000Y-125910000D03*
X170202000Y-130910000D03*
X156202000Y-130910000D03*
D12*
X93121200Y-112030000D03*
X85161200Y-112030000D03*
X85161200Y-116530000D03*
X93121200Y-116530000D03*
D13*
X150202000Y-103986000D03*
X136202000Y-103986000D03*
X150202000Y-98986000D03*
X136202000Y-98986000D03*
X116202000Y-125910000D03*
X130202000Y-125910000D03*
X116202000Y-130910000D03*
X130202000Y-130910000D03*
X150202000Y-125910000D03*
X136202000Y-125910000D03*
X150202000Y-130910000D03*
X136202000Y-130910000D03*
D12*
X93121200Y-122030000D03*
X85161200Y-122030000D03*
X85161200Y-126530000D03*
X93121200Y-126530000D03*
X85161200Y-132030000D03*
X93121200Y-132030000D03*
X93121200Y-136530000D03*
X85161200Y-136530000D03*
D14*
X86682000Y-125362000D03*
X88841000Y-122060000D03*
X88206000Y-46241000D03*
X86617500Y-53226000D03*
X82812500Y-57925000D03*
X91000000Y-135776000D03*
X103319000Y-55766000D03*
X105097000Y-48654000D03*
X85412000Y-62751000D03*
X81856000Y-96533000D03*
X89476000Y-94120000D03*
X89603000Y-112916000D03*
X89476000Y-84214000D03*
X82745000Y-86500000D03*
X91719538Y-136539218D03*
X91762000Y-123457000D03*
X82960500Y-106566000D03*
X89476000Y-104534000D03*
X123258000Y-99073000D03*
X163771000Y-99073000D03*
X123258000Y-130823000D03*
X163136000Y-130823000D03*
X143705000Y-99073000D03*
X183329000Y-99073000D03*
X143324000Y-130950000D03*
X183202000Y-130823000D03*
D15*
X86682000Y-124219000D02*
X86682000Y-125362000D01*
X88841000Y-122060000D02*
X86682000Y-124219000D01*
X91710320Y-136530000D02*
X85161200Y-136530000D01*
X91719538Y-136539218D02*
X91728756Y-136530000D01*
X91719538Y-136539218D02*
X91710320Y-136530000D01*
X91728756Y-136530000D02*
X93121200Y-136530000D01*
X82812500Y-57925000D02*
X82812500Y-57095500D01*
X82812500Y-57095500D02*
X86617500Y-53290500D01*
X86617500Y-53290500D02*
X86617500Y-53226000D01*
X86617500Y-47829500D02*
X88206000Y-46241000D01*
X86617500Y-53226000D02*
X86617500Y-47829500D01*
X85161200Y-96530000D02*
X89600000Y-96530000D01*
X81856000Y-96533000D02*
X81859000Y-96530000D01*
X89600000Y-96530000D02*
X93121200Y-96530000D01*
X89476000Y-94120000D02*
X89476000Y-96406000D01*
X81859000Y-96530000D02*
X85161200Y-96530000D01*
X89788000Y-116530000D02*
X93121200Y-116530000D01*
X89603000Y-112916000D02*
X89603000Y-116472000D01*
X85161200Y-116530000D02*
X89788000Y-116530000D01*
X89661000Y-116530000D02*
X89788000Y-116530000D01*
X89603000Y-116472000D02*
X89661000Y-116530000D01*
X85161200Y-86530000D02*
X89252000Y-86530000D01*
X89476000Y-84468000D02*
X89476000Y-86530000D01*
X82745000Y-86500000D02*
X82775000Y-86530000D01*
X82775000Y-86530000D02*
X85161200Y-86530000D01*
X89252000Y-86530000D02*
X93121200Y-86530000D01*
X89247000Y-125591000D02*
X89247000Y-126530000D01*
X91381000Y-123457000D02*
X89247000Y-125591000D01*
X89247000Y-126530000D02*
X93121200Y-126530000D01*
X85161200Y-126530000D02*
X89247000Y-126530000D01*
X91762000Y-123457000D02*
X91381000Y-123457000D01*
X82996500Y-106530000D02*
X85161200Y-106530000D01*
X85161200Y-106530000D02*
X89512000Y-106530000D01*
X89512000Y-106530000D02*
X93121200Y-106530000D01*
X82960500Y-106566000D02*
X82996500Y-106530000D01*
X89476000Y-104534000D02*
X89476000Y-106439000D01*
X123258000Y-99073000D02*
X123171000Y-98986000D01*
X123258000Y-99073000D02*
X123345000Y-98986000D01*
X123345000Y-98986000D02*
X130202000Y-98986000D01*
X123171000Y-98986000D02*
X116202000Y-98986000D01*
X156202000Y-98986000D02*
X163684000Y-98986000D01*
X163684000Y-98986000D02*
X163771000Y-99073000D01*
X163858000Y-98986000D02*
X170202000Y-98986000D01*
X163771000Y-99073000D02*
X163858000Y-98986000D01*
X123258000Y-130823000D02*
X123345000Y-130910000D01*
X123345000Y-130910000D02*
X130202000Y-130910000D01*
X123171000Y-130910000D02*
X123258000Y-130823000D01*
X116202000Y-130910000D02*
X123171000Y-130910000D01*
X163136000Y-130823000D02*
X163223000Y-130910000D01*
X163049000Y-130910000D02*
X163136000Y-130823000D01*
X156202000Y-130910000D02*
X163049000Y-130910000D01*
X163223000Y-130910000D02*
X170202000Y-130910000D01*
X143705000Y-99073000D02*
X143792000Y-98986000D01*
X143618000Y-98986000D02*
X136202000Y-98986000D01*
X143792000Y-98986000D02*
X150202000Y-98986000D01*
X143705000Y-99073000D02*
X143618000Y-98986000D01*
X183329000Y-99073000D02*
X183416000Y-98986000D01*
X176202000Y-98986000D02*
X183242000Y-98986000D01*
X183242000Y-98986000D02*
X183329000Y-99073000D01*
X183416000Y-98986000D02*
X190202000Y-98986000D01*
X143364000Y-130910000D02*
X150202000Y-130910000D01*
X143324000Y-130950000D02*
X143364000Y-130910000D01*
X143284000Y-130910000D02*
X143324000Y-130950000D01*
X136202000Y-130910000D02*
X143284000Y-130910000D01*
X176202000Y-130910000D02*
X183115000Y-130910000D01*
X183115000Y-130910000D02*
X183202000Y-130823000D01*
X183202000Y-130823000D02*
X183289000Y-130910000D01*
X183289000Y-130910000D02*
X190202000Y-130910000D01*
G04 #@! TA.AperFunction,Conductor*
G36*
X82916651Y-44432502D02*
G01*
X82963144Y-44486158D01*
X82973248Y-44556432D01*
X82943754Y-44621012D01*
X82913236Y-44646616D01*
X82742725Y-44748664D01*
X82742721Y-44748667D01*
X82739043Y-44750868D01*
X82525318Y-44922094D01*
X82336808Y-45120742D01*
X82177002Y-45343136D01*
X82048857Y-45585161D01*
X82047385Y-45589184D01*
X82047383Y-45589188D01*
X81956214Y-45838317D01*
X81954743Y-45842337D01*
X81896404Y-46109907D01*
X81874917Y-46382918D01*
X81875334Y-46390156D01*
X81890682Y-46656320D01*
X81943405Y-46925053D01*
X81944792Y-46929103D01*
X81944793Y-46929108D01*
X82021236Y-47152379D01*
X82032112Y-47184144D01*
X82061238Y-47242054D01*
X82130837Y-47380437D01*
X82155160Y-47428799D01*
X82157586Y-47432328D01*
X82157589Y-47432334D01*
X82219644Y-47522624D01*
X82310274Y-47654490D01*
X82313161Y-47657663D01*
X82313162Y-47657664D01*
X82469520Y-47829500D01*
X82494582Y-47857043D01*
X82704675Y-48032707D01*
X82708316Y-48034991D01*
X82933024Y-48175951D01*
X82933028Y-48175953D01*
X82936664Y-48178234D01*
X83004544Y-48208883D01*
X83182345Y-48289164D01*
X83182349Y-48289166D01*
X83186257Y-48290930D01*
X83190377Y-48292150D01*
X83190376Y-48292150D01*
X83444723Y-48367491D01*
X83444727Y-48367492D01*
X83448836Y-48368709D01*
X83453070Y-48369357D01*
X83453075Y-48369358D01*
X83715298Y-48409483D01*
X83715300Y-48409483D01*
X83719540Y-48410132D01*
X83858912Y-48412322D01*
X83989071Y-48414367D01*
X83989077Y-48414367D01*
X83993362Y-48414434D01*
X84265235Y-48381534D01*
X84530127Y-48312041D01*
X84534087Y-48310401D01*
X84534092Y-48310399D01*
X84656631Y-48259641D01*
X84783136Y-48207241D01*
X84901359Y-48138157D01*
X85015879Y-48071237D01*
X85015880Y-48071236D01*
X85019582Y-48069073D01*
X85235089Y-47900094D01*
X85256853Y-47877636D01*
X85422686Y-47706509D01*
X85425669Y-47703431D01*
X85428202Y-47699983D01*
X85428206Y-47699978D01*
X85585257Y-47486178D01*
X85587795Y-47482723D01*
X85615154Y-47432334D01*
X85716418Y-47245830D01*
X85716419Y-47245828D01*
X85718468Y-47242054D01*
X85774884Y-47092754D01*
X85813751Y-46989895D01*
X85813752Y-46989891D01*
X85815269Y-46985877D01*
X85862892Y-46777944D01*
X85875449Y-46723117D01*
X85875450Y-46723113D01*
X85876407Y-46718933D01*
X85884910Y-46623665D01*
X85900531Y-46448627D01*
X85900531Y-46448625D01*
X85900751Y-46446161D01*
X85901193Y-46404000D01*
X85890081Y-46241000D01*
X85882859Y-46135055D01*
X85882858Y-46135049D01*
X85882567Y-46130778D01*
X85827032Y-45862612D01*
X85735617Y-45604465D01*
X85610013Y-45361112D01*
X85600040Y-45346921D01*
X85455008Y-45140562D01*
X85452545Y-45137057D01*
X85266125Y-44936445D01*
X85262810Y-44933731D01*
X85262806Y-44933728D01*
X85057523Y-44765706D01*
X85054205Y-44762990D01*
X84981411Y-44718382D01*
X84863185Y-44645933D01*
X84815554Y-44593285D01*
X84803947Y-44523244D01*
X84832050Y-44458046D01*
X84890940Y-44418392D01*
X84929020Y-44412500D01*
X119800530Y-44412500D01*
X119868651Y-44432502D01*
X119915144Y-44486158D01*
X119925248Y-44556432D01*
X119895754Y-44621012D01*
X119865236Y-44646616D01*
X119694725Y-44748664D01*
X119694721Y-44748667D01*
X119691043Y-44750868D01*
X119477318Y-44922094D01*
X119288808Y-45120742D01*
X119129002Y-45343136D01*
X119000857Y-45585161D01*
X118999385Y-45589184D01*
X118999383Y-45589188D01*
X118908214Y-45838317D01*
X118906743Y-45842337D01*
X118848404Y-46109907D01*
X118826917Y-46382918D01*
X118827334Y-46390156D01*
X118842682Y-46656320D01*
X118895405Y-46925053D01*
X118896792Y-46929103D01*
X118896793Y-46929108D01*
X118973236Y-47152379D01*
X118984112Y-47184144D01*
X119013238Y-47242054D01*
X119082837Y-47380437D01*
X119107160Y-47428799D01*
X119109586Y-47432328D01*
X119109589Y-47432334D01*
X119171644Y-47522624D01*
X119262274Y-47654490D01*
X119265161Y-47657663D01*
X119265162Y-47657664D01*
X119421520Y-47829500D01*
X119446582Y-47857043D01*
X119656675Y-48032707D01*
X119660316Y-48034991D01*
X119885024Y-48175951D01*
X119885028Y-48175953D01*
X119888664Y-48178234D01*
X119956544Y-48208883D01*
X120134345Y-48289164D01*
X120134349Y-48289166D01*
X120138257Y-48290930D01*
X120142377Y-48292150D01*
X120142376Y-48292150D01*
X120396723Y-48367491D01*
X120396727Y-48367492D01*
X120400836Y-48368709D01*
X120405070Y-48369357D01*
X120405075Y-48369358D01*
X120667298Y-48409483D01*
X120667300Y-48409483D01*
X120671540Y-48410132D01*
X120810912Y-48412322D01*
X120941071Y-48414367D01*
X120941077Y-48414367D01*
X120945362Y-48414434D01*
X121217235Y-48381534D01*
X121482127Y-48312041D01*
X121486087Y-48310401D01*
X121486092Y-48310399D01*
X121608631Y-48259641D01*
X121735136Y-48207241D01*
X121853359Y-48138157D01*
X121967879Y-48071237D01*
X121967880Y-48071236D01*
X121971582Y-48069073D01*
X122187089Y-47900094D01*
X122208853Y-47877636D01*
X122374686Y-47706509D01*
X122377669Y-47703431D01*
X122380202Y-47699983D01*
X122380206Y-47699978D01*
X122537257Y-47486178D01*
X122539795Y-47482723D01*
X122567154Y-47432334D01*
X122668418Y-47245830D01*
X122668419Y-47245828D01*
X122670468Y-47242054D01*
X122726884Y-47092754D01*
X122765751Y-46989895D01*
X122765752Y-46989891D01*
X122767269Y-46985877D01*
X122814892Y-46777944D01*
X122827449Y-46723117D01*
X122827450Y-46723113D01*
X122828407Y-46718933D01*
X122836910Y-46623665D01*
X122852531Y-46448627D01*
X122852531Y-46448625D01*
X122852751Y-46446161D01*
X122853193Y-46404000D01*
X122842081Y-46241000D01*
X122834859Y-46135055D01*
X122834858Y-46135049D01*
X122834567Y-46130778D01*
X122779032Y-45862612D01*
X122687617Y-45604465D01*
X122562013Y-45361112D01*
X122552040Y-45346921D01*
X122407008Y-45140562D01*
X122404545Y-45137057D01*
X122218125Y-44936445D01*
X122214810Y-44933731D01*
X122214806Y-44933728D01*
X122009523Y-44765706D01*
X122006205Y-44762990D01*
X121933411Y-44718382D01*
X121815185Y-44645933D01*
X121767554Y-44593285D01*
X121755947Y-44523244D01*
X121784050Y-44458046D01*
X121842940Y-44418392D01*
X121881020Y-44412500D01*
X164800530Y-44412500D01*
X164868651Y-44432502D01*
X164915144Y-44486158D01*
X164925248Y-44556432D01*
X164895754Y-44621012D01*
X164865236Y-44646616D01*
X164694725Y-44748664D01*
X164694721Y-44748667D01*
X164691043Y-44750868D01*
X164477318Y-44922094D01*
X164288808Y-45120742D01*
X164129002Y-45343136D01*
X164000857Y-45585161D01*
X163999385Y-45589184D01*
X163999383Y-45589188D01*
X163908214Y-45838317D01*
X163906743Y-45842337D01*
X163848404Y-46109907D01*
X163826917Y-46382918D01*
X163827334Y-46390156D01*
X163842682Y-46656320D01*
X163895405Y-46925053D01*
X163896792Y-46929103D01*
X163896793Y-46929108D01*
X163973236Y-47152379D01*
X163984112Y-47184144D01*
X164013238Y-47242054D01*
X164082837Y-47380437D01*
X164107160Y-47428799D01*
X164109586Y-47432328D01*
X164109589Y-47432334D01*
X164171644Y-47522624D01*
X164262274Y-47654490D01*
X164265161Y-47657663D01*
X164265162Y-47657664D01*
X164421520Y-47829500D01*
X164446582Y-47857043D01*
X164656675Y-48032707D01*
X164660316Y-48034991D01*
X164885024Y-48175951D01*
X164885028Y-48175953D01*
X164888664Y-48178234D01*
X164956544Y-48208883D01*
X165134345Y-48289164D01*
X165134349Y-48289166D01*
X165138257Y-48290930D01*
X165142377Y-48292150D01*
X165142376Y-48292150D01*
X165396723Y-48367491D01*
X165396727Y-48367492D01*
X165400836Y-48368709D01*
X165405070Y-48369357D01*
X165405075Y-48369358D01*
X165667298Y-48409483D01*
X165667300Y-48409483D01*
X165671540Y-48410132D01*
X165810912Y-48412322D01*
X165941071Y-48414367D01*
X165941077Y-48414367D01*
X165945362Y-48414434D01*
X166217235Y-48381534D01*
X166482127Y-48312041D01*
X166486087Y-48310401D01*
X166486092Y-48310399D01*
X166608631Y-48259641D01*
X166735136Y-48207241D01*
X166853359Y-48138157D01*
X166967879Y-48071237D01*
X166967880Y-48071236D01*
X166971582Y-48069073D01*
X167187089Y-47900094D01*
X167208853Y-47877636D01*
X167374686Y-47706509D01*
X167377669Y-47703431D01*
X167380202Y-47699983D01*
X167380206Y-47699978D01*
X167537257Y-47486178D01*
X167539795Y-47482723D01*
X167567154Y-47432334D01*
X167668418Y-47245830D01*
X167668419Y-47245828D01*
X167670468Y-47242054D01*
X167726884Y-47092754D01*
X167765751Y-46989895D01*
X167765752Y-46989891D01*
X167767269Y-46985877D01*
X167814892Y-46777944D01*
X167827449Y-46723117D01*
X167827450Y-46723113D01*
X167828407Y-46718933D01*
X167836910Y-46623665D01*
X167852531Y-46448627D01*
X167852531Y-46448625D01*
X167852751Y-46446161D01*
X167853193Y-46404000D01*
X167842081Y-46241000D01*
X167834859Y-46135055D01*
X167834858Y-46135049D01*
X167834567Y-46130778D01*
X167779032Y-45862612D01*
X167687617Y-45604465D01*
X167562013Y-45361112D01*
X167552040Y-45346921D01*
X167407008Y-45140562D01*
X167404545Y-45137057D01*
X167218125Y-44936445D01*
X167214810Y-44933731D01*
X167214806Y-44933728D01*
X167009523Y-44765706D01*
X167006205Y-44762990D01*
X166933411Y-44718382D01*
X166815185Y-44645933D01*
X166767554Y-44593285D01*
X166755947Y-44523244D01*
X166784050Y-44458046D01*
X166842940Y-44418392D01*
X166881020Y-44412500D01*
X221278530Y-44412500D01*
X221346651Y-44432502D01*
X221393144Y-44486158D01*
X221403248Y-44556432D01*
X221373754Y-44621012D01*
X221343236Y-44646616D01*
X221172725Y-44748664D01*
X221172721Y-44748667D01*
X221169043Y-44750868D01*
X220955318Y-44922094D01*
X220766808Y-45120742D01*
X220607002Y-45343136D01*
X220478857Y-45585161D01*
X220477385Y-45589184D01*
X220477383Y-45589188D01*
X220386214Y-45838317D01*
X220384743Y-45842337D01*
X220326404Y-46109907D01*
X220304917Y-46382918D01*
X220305334Y-46390156D01*
X220320682Y-46656320D01*
X220373405Y-46925053D01*
X220374792Y-46929103D01*
X220374793Y-46929108D01*
X220451236Y-47152379D01*
X220462112Y-47184144D01*
X220491238Y-47242054D01*
X220560837Y-47380437D01*
X220585160Y-47428799D01*
X220587586Y-47432328D01*
X220587589Y-47432334D01*
X220649644Y-47522624D01*
X220740274Y-47654490D01*
X220743161Y-47657663D01*
X220743162Y-47657664D01*
X220899520Y-47829500D01*
X220924582Y-47857043D01*
X221134675Y-48032707D01*
X221138316Y-48034991D01*
X221363024Y-48175951D01*
X221363028Y-48175953D01*
X221366664Y-48178234D01*
X221434544Y-48208883D01*
X221612345Y-48289164D01*
X221612349Y-48289166D01*
X221616257Y-48290930D01*
X221620377Y-48292150D01*
X221620376Y-48292150D01*
X221874723Y-48367491D01*
X221874727Y-48367492D01*
X221878836Y-48368709D01*
X221883070Y-48369357D01*
X221883075Y-48369358D01*
X222145298Y-48409483D01*
X222145300Y-48409483D01*
X222149540Y-48410132D01*
X222288912Y-48412322D01*
X222419071Y-48414367D01*
X222419077Y-48414367D01*
X222423362Y-48414434D01*
X222695235Y-48381534D01*
X222960127Y-48312041D01*
X222964087Y-48310401D01*
X222964092Y-48310399D01*
X223086631Y-48259641D01*
X223213136Y-48207241D01*
X223331359Y-48138157D01*
X223445879Y-48071237D01*
X223445880Y-48071236D01*
X223449582Y-48069073D01*
X223665089Y-47900094D01*
X223686853Y-47877636D01*
X223852686Y-47706509D01*
X223855669Y-47703431D01*
X223858202Y-47699983D01*
X223858206Y-47699978D01*
X224015257Y-47486178D01*
X224017795Y-47482723D01*
X224045154Y-47432334D01*
X224146418Y-47245830D01*
X224146419Y-47245828D01*
X224148468Y-47242054D01*
X224204884Y-47092754D01*
X224243751Y-46989895D01*
X224243752Y-46989891D01*
X224245269Y-46985877D01*
X224292892Y-46777944D01*
X224305449Y-46723117D01*
X224305450Y-46723113D01*
X224306407Y-46718933D01*
X224314910Y-46623665D01*
X224330531Y-46448627D01*
X224330531Y-46448625D01*
X224330751Y-46446161D01*
X224331193Y-46404000D01*
X224320081Y-46241000D01*
X224312859Y-46135055D01*
X224312858Y-46135049D01*
X224312567Y-46130778D01*
X224257032Y-45862612D01*
X224165617Y-45604465D01*
X224040013Y-45361112D01*
X224030040Y-45346921D01*
X223885008Y-45140562D01*
X223882545Y-45137057D01*
X223696125Y-44936445D01*
X223692810Y-44933731D01*
X223692806Y-44933728D01*
X223487523Y-44765706D01*
X223484205Y-44762990D01*
X223411411Y-44718382D01*
X223293185Y-44645933D01*
X223245554Y-44593285D01*
X223233947Y-44523244D01*
X223262050Y-44458046D01*
X223320940Y-44418392D01*
X223359020Y-44412500D01*
X225205500Y-44412500D01*
X225273621Y-44432502D01*
X225320114Y-44486158D01*
X225331500Y-44538500D01*
X225331500Y-143269500D01*
X225311498Y-143337621D01*
X225257842Y-143384114D01*
X225205500Y-143395500D01*
X223356332Y-143395500D01*
X223288211Y-143375498D01*
X223241718Y-143321842D01*
X223231614Y-143251568D01*
X223261108Y-143186988D01*
X223292761Y-143160712D01*
X223445879Y-143071237D01*
X223445880Y-143071236D01*
X223449582Y-143069073D01*
X223665089Y-142900094D01*
X223706809Y-142857043D01*
X223852686Y-142706509D01*
X223855669Y-142703431D01*
X223858202Y-142699983D01*
X223858206Y-142699978D01*
X224015257Y-142486178D01*
X224017795Y-142482723D01*
X224045154Y-142432334D01*
X224146418Y-142245830D01*
X224146419Y-142245828D01*
X224148468Y-142242054D01*
X224245269Y-141985877D01*
X224286173Y-141807279D01*
X224305449Y-141723117D01*
X224305450Y-141723113D01*
X224306407Y-141718933D01*
X224314910Y-141623665D01*
X224330531Y-141448627D01*
X224330531Y-141448625D01*
X224330751Y-141446161D01*
X224331193Y-141404000D01*
X224329465Y-141378648D01*
X224312859Y-141135055D01*
X224312858Y-141135049D01*
X224312567Y-141130778D01*
X224257032Y-140862612D01*
X224165617Y-140604465D01*
X224040013Y-140361112D01*
X224030040Y-140346921D01*
X223885008Y-140140562D01*
X223882545Y-140137057D01*
X223696125Y-139936445D01*
X223692810Y-139933731D01*
X223692806Y-139933728D01*
X223487523Y-139765706D01*
X223484205Y-139762990D01*
X223250704Y-139619901D01*
X223246768Y-139618173D01*
X223003873Y-139511549D01*
X223003869Y-139511548D01*
X222999945Y-139509825D01*
X222736566Y-139434800D01*
X222732324Y-139434196D01*
X222732318Y-139434195D01*
X222531834Y-139405662D01*
X222465443Y-139396213D01*
X222321589Y-139395460D01*
X222195877Y-139394802D01*
X222195871Y-139394802D01*
X222191591Y-139394780D01*
X222187347Y-139395339D01*
X222187343Y-139395339D01*
X222068302Y-139411011D01*
X221920078Y-139430525D01*
X221915938Y-139431658D01*
X221915936Y-139431658D01*
X221843008Y-139451609D01*
X221655928Y-139502788D01*
X221651980Y-139504472D01*
X221407982Y-139608546D01*
X221407978Y-139608548D01*
X221404030Y-139610232D01*
X221384125Y-139622145D01*
X221172725Y-139748664D01*
X221172721Y-139748667D01*
X221169043Y-139750868D01*
X220955318Y-139922094D01*
X220766808Y-140120742D01*
X220607002Y-140343136D01*
X220478857Y-140585161D01*
X220477385Y-140589184D01*
X220477383Y-140589188D01*
X220434872Y-140705355D01*
X220384743Y-140842337D01*
X220326404Y-141109907D01*
X220304917Y-141382918D01*
X220305334Y-141390156D01*
X220320682Y-141656320D01*
X220373405Y-141925053D01*
X220374792Y-141929103D01*
X220374793Y-141929108D01*
X220460723Y-142180088D01*
X220462112Y-142184144D01*
X220491238Y-142242054D01*
X220560837Y-142380437D01*
X220585160Y-142428799D01*
X220587586Y-142432328D01*
X220587589Y-142432334D01*
X220737843Y-142650953D01*
X220740274Y-142654490D01*
X220924582Y-142857043D01*
X221134675Y-143032707D01*
X221138316Y-143034991D01*
X221342001Y-143162763D01*
X221389079Y-143215906D01*
X221399951Y-143286065D01*
X221371167Y-143350965D01*
X221311864Y-143390000D01*
X221275045Y-143395500D01*
X166878332Y-143395500D01*
X166810211Y-143375498D01*
X166763718Y-143321842D01*
X166753614Y-143251568D01*
X166783108Y-143186988D01*
X166814761Y-143160712D01*
X166967879Y-143071237D01*
X166967880Y-143071236D01*
X166971582Y-143069073D01*
X167187089Y-142900094D01*
X167228809Y-142857043D01*
X167374686Y-142706509D01*
X167377669Y-142703431D01*
X167380202Y-142699983D01*
X167380206Y-142699978D01*
X167537257Y-142486178D01*
X167539795Y-142482723D01*
X167567154Y-142432334D01*
X167668418Y-142245830D01*
X167668419Y-142245828D01*
X167670468Y-142242054D01*
X167767269Y-141985877D01*
X167808173Y-141807279D01*
X167827449Y-141723117D01*
X167827450Y-141723113D01*
X167828407Y-141718933D01*
X167836910Y-141623665D01*
X167852531Y-141448627D01*
X167852531Y-141448625D01*
X167852751Y-141446161D01*
X167853193Y-141404000D01*
X167851465Y-141378648D01*
X167834859Y-141135055D01*
X167834858Y-141135049D01*
X167834567Y-141130778D01*
X167779032Y-140862612D01*
X167687617Y-140604465D01*
X167562013Y-140361112D01*
X167552040Y-140346921D01*
X167407008Y-140140562D01*
X167404545Y-140137057D01*
X167218125Y-139936445D01*
X167214810Y-139933731D01*
X167214806Y-139933728D01*
X167009523Y-139765706D01*
X167006205Y-139762990D01*
X166772704Y-139619901D01*
X166768768Y-139618173D01*
X166525873Y-139511549D01*
X166525869Y-139511548D01*
X166521945Y-139509825D01*
X166258566Y-139434800D01*
X166254324Y-139434196D01*
X166254318Y-139434195D01*
X166053834Y-139405662D01*
X165987443Y-139396213D01*
X165843589Y-139395460D01*
X165717877Y-139394802D01*
X165717871Y-139394802D01*
X165713591Y-139394780D01*
X165709347Y-139395339D01*
X165709343Y-139395339D01*
X165590302Y-139411011D01*
X165442078Y-139430525D01*
X165437938Y-139431658D01*
X165437936Y-139431658D01*
X165365008Y-139451609D01*
X165177928Y-139502788D01*
X165173980Y-139504472D01*
X164929982Y-139608546D01*
X164929978Y-139608548D01*
X164926030Y-139610232D01*
X164906125Y-139622145D01*
X164694725Y-139748664D01*
X164694721Y-139748667D01*
X164691043Y-139750868D01*
X164477318Y-139922094D01*
X164288808Y-140120742D01*
X164129002Y-140343136D01*
X164000857Y-140585161D01*
X163999385Y-140589184D01*
X163999383Y-140589188D01*
X163956872Y-140705355D01*
X163906743Y-140842337D01*
X163848404Y-141109907D01*
X163826917Y-141382918D01*
X163827334Y-141390156D01*
X163842682Y-141656320D01*
X163895405Y-141925053D01*
X163896792Y-141929103D01*
X163896793Y-141929108D01*
X163982723Y-142180088D01*
X163984112Y-142184144D01*
X164013238Y-142242054D01*
X164082837Y-142380437D01*
X164107160Y-142428799D01*
X164109586Y-142432328D01*
X164109589Y-142432334D01*
X164259843Y-142650953D01*
X164262274Y-142654490D01*
X164446582Y-142857043D01*
X164656675Y-143032707D01*
X164660316Y-143034991D01*
X164864001Y-143162763D01*
X164911079Y-143215906D01*
X164921951Y-143286065D01*
X164893167Y-143350965D01*
X164833864Y-143390000D01*
X164797045Y-143395500D01*
X121878332Y-143395500D01*
X121810211Y-143375498D01*
X121763718Y-143321842D01*
X121753614Y-143251568D01*
X121783108Y-143186988D01*
X121814761Y-143160712D01*
X121967879Y-143071237D01*
X121967880Y-143071236D01*
X121971582Y-143069073D01*
X122187089Y-142900094D01*
X122228809Y-142857043D01*
X122374686Y-142706509D01*
X122377669Y-142703431D01*
X122380202Y-142699983D01*
X122380206Y-142699978D01*
X122537257Y-142486178D01*
X122539795Y-142482723D01*
X122567154Y-142432334D01*
X122668418Y-142245830D01*
X122668419Y-142245828D01*
X122670468Y-142242054D01*
X122767269Y-141985877D01*
X122808173Y-141807279D01*
X122827449Y-141723117D01*
X122827450Y-141723113D01*
X122828407Y-141718933D01*
X122836910Y-141623665D01*
X122852531Y-141448627D01*
X122852531Y-141448625D01*
X122852751Y-141446161D01*
X122853193Y-141404000D01*
X122851465Y-141378648D01*
X122834859Y-141135055D01*
X122834858Y-141135049D01*
X122834567Y-141130778D01*
X122779032Y-140862612D01*
X122687617Y-140604465D01*
X122562013Y-140361112D01*
X122552040Y-140346921D01*
X122407008Y-140140562D01*
X122404545Y-140137057D01*
X122218125Y-139936445D01*
X122214810Y-139933731D01*
X122214806Y-139933728D01*
X122009523Y-139765706D01*
X122006205Y-139762990D01*
X121772704Y-139619901D01*
X121768768Y-139618173D01*
X121525873Y-139511549D01*
X121525869Y-139511548D01*
X121521945Y-139509825D01*
X121258566Y-139434800D01*
X121254324Y-139434196D01*
X121254318Y-139434195D01*
X121053834Y-139405662D01*
X120987443Y-139396213D01*
X120843589Y-139395460D01*
X120717877Y-139394802D01*
X120717871Y-139394802D01*
X120713591Y-139394780D01*
X120709347Y-139395339D01*
X120709343Y-139395339D01*
X120590302Y-139411011D01*
X120442078Y-139430525D01*
X120437938Y-139431658D01*
X120437936Y-139431658D01*
X120365008Y-139451609D01*
X120177928Y-139502788D01*
X120173980Y-139504472D01*
X119929982Y-139608546D01*
X119929978Y-139608548D01*
X119926030Y-139610232D01*
X119906125Y-139622145D01*
X119694725Y-139748664D01*
X119694721Y-139748667D01*
X119691043Y-139750868D01*
X119477318Y-139922094D01*
X119288808Y-140120742D01*
X119129002Y-140343136D01*
X119000857Y-140585161D01*
X118999385Y-140589184D01*
X118999383Y-140589188D01*
X118956872Y-140705355D01*
X118906743Y-140842337D01*
X118848404Y-141109907D01*
X118826917Y-141382918D01*
X118827334Y-141390156D01*
X118842682Y-141656320D01*
X118895405Y-141925053D01*
X118896792Y-141929103D01*
X118896793Y-141929108D01*
X118982723Y-142180088D01*
X118984112Y-142184144D01*
X119013238Y-142242054D01*
X119082837Y-142380437D01*
X119107160Y-142428799D01*
X119109586Y-142432328D01*
X119109589Y-142432334D01*
X119259843Y-142650953D01*
X119262274Y-142654490D01*
X119446582Y-142857043D01*
X119656675Y-143032707D01*
X119660316Y-143034991D01*
X119864001Y-143162763D01*
X119911079Y-143215906D01*
X119921951Y-143286065D01*
X119893167Y-143350965D01*
X119833864Y-143390000D01*
X119797045Y-143395500D01*
X84926332Y-143395500D01*
X84858211Y-143375498D01*
X84811718Y-143321842D01*
X84801614Y-143251568D01*
X84831108Y-143186988D01*
X84862761Y-143160712D01*
X85015879Y-143071237D01*
X85015880Y-143071236D01*
X85019582Y-143069073D01*
X85235089Y-142900094D01*
X85276809Y-142857043D01*
X85422686Y-142706509D01*
X85425669Y-142703431D01*
X85428202Y-142699983D01*
X85428206Y-142699978D01*
X85585257Y-142486178D01*
X85587795Y-142482723D01*
X85615154Y-142432334D01*
X85716418Y-142245830D01*
X85716419Y-142245828D01*
X85718468Y-142242054D01*
X85815269Y-141985877D01*
X85856173Y-141807279D01*
X85875449Y-141723117D01*
X85875450Y-141723113D01*
X85876407Y-141718933D01*
X85884910Y-141623665D01*
X85900531Y-141448627D01*
X85900531Y-141448625D01*
X85900751Y-141446161D01*
X85901193Y-141404000D01*
X85899465Y-141378648D01*
X85882859Y-141135055D01*
X85882858Y-141135049D01*
X85882567Y-141130778D01*
X85827032Y-140862612D01*
X85735617Y-140604465D01*
X85610013Y-140361112D01*
X85600040Y-140346921D01*
X85455008Y-140140562D01*
X85452545Y-140137057D01*
X85266125Y-139936445D01*
X85262810Y-139933731D01*
X85262806Y-139933728D01*
X85057523Y-139765706D01*
X85054205Y-139762990D01*
X84820704Y-139619901D01*
X84816768Y-139618173D01*
X84573873Y-139511549D01*
X84573869Y-139511548D01*
X84569945Y-139509825D01*
X84306566Y-139434800D01*
X84302324Y-139434196D01*
X84302318Y-139434195D01*
X84101834Y-139405662D01*
X84035443Y-139396213D01*
X83891589Y-139395460D01*
X83765877Y-139394802D01*
X83765871Y-139394802D01*
X83761591Y-139394780D01*
X83757347Y-139395339D01*
X83757343Y-139395339D01*
X83638302Y-139411011D01*
X83490078Y-139430525D01*
X83485938Y-139431658D01*
X83485936Y-139431658D01*
X83413008Y-139451609D01*
X83225928Y-139502788D01*
X83221980Y-139504472D01*
X82977982Y-139608546D01*
X82977978Y-139608548D01*
X82974030Y-139610232D01*
X82954125Y-139622145D01*
X82742725Y-139748664D01*
X82742721Y-139748667D01*
X82739043Y-139750868D01*
X82525318Y-139922094D01*
X82336808Y-140120742D01*
X82177002Y-140343136D01*
X82048857Y-140585161D01*
X82047385Y-140589184D01*
X82047383Y-140589188D01*
X82004872Y-140705355D01*
X81954743Y-140842337D01*
X81896404Y-141109907D01*
X81874917Y-141382918D01*
X81875334Y-141390156D01*
X81890682Y-141656320D01*
X81943405Y-141925053D01*
X81944792Y-141929103D01*
X81944793Y-141929108D01*
X82030723Y-142180088D01*
X82032112Y-142184144D01*
X82061238Y-142242054D01*
X82130837Y-142380437D01*
X82155160Y-142428799D01*
X82157586Y-142432328D01*
X82157589Y-142432334D01*
X82307843Y-142650953D01*
X82310274Y-142654490D01*
X82494582Y-142857043D01*
X82704675Y-143032707D01*
X82708316Y-143034991D01*
X82912001Y-143162763D01*
X82959079Y-143215906D01*
X82969951Y-143286065D01*
X82941167Y-143350965D01*
X82881864Y-143390000D01*
X82845045Y-143395500D01*
X81474500Y-143395500D01*
X81406379Y-143375498D01*
X81359886Y-143321842D01*
X81348500Y-143269500D01*
X81348500Y-137228134D01*
X83877700Y-137228134D01*
X83884455Y-137290316D01*
X83935585Y-137426705D01*
X84022939Y-137543261D01*
X84139495Y-137630615D01*
X84275884Y-137681745D01*
X84338066Y-137688500D01*
X85984334Y-137688500D01*
X86046516Y-137681745D01*
X86182905Y-137630615D01*
X86299461Y-137543261D01*
X86386815Y-137426705D01*
X86437945Y-137290316D01*
X86442228Y-137250892D01*
X86469470Y-137185330D01*
X86527834Y-137144904D01*
X86567491Y-137138500D01*
X90980528Y-137138500D01*
X91048649Y-137158502D01*
X91074164Y-137180189D01*
X91108285Y-137218084D01*
X91113624Y-137221963D01*
X91196891Y-137282460D01*
X91262786Y-137330336D01*
X91268814Y-137333020D01*
X91268816Y-137333021D01*
X91431219Y-137405327D01*
X91437250Y-137408012D01*
X91525193Y-137426705D01*
X91617594Y-137446346D01*
X91617599Y-137446346D01*
X91624051Y-137447718D01*
X91815025Y-137447718D01*
X91821482Y-137446346D01*
X91828053Y-137445655D01*
X91828245Y-137447478D01*
X91890136Y-137452195D01*
X91946378Y-137494478D01*
X91982939Y-137543261D01*
X92099495Y-137630615D01*
X92235884Y-137681745D01*
X92298066Y-137688500D01*
X93944334Y-137688500D01*
X94006516Y-137681745D01*
X94142905Y-137630615D01*
X94259461Y-137543261D01*
X94346815Y-137426705D01*
X94397945Y-137290316D01*
X94404700Y-137228134D01*
X94404700Y-135831866D01*
X94397945Y-135769684D01*
X94346815Y-135633295D01*
X94259461Y-135516739D01*
X94142905Y-135429385D01*
X94006516Y-135378255D01*
X93944334Y-135371500D01*
X92298066Y-135371500D01*
X92235884Y-135378255D01*
X92099495Y-135429385D01*
X91982939Y-135516739D01*
X91977558Y-135523919D01*
X91977557Y-135523920D01*
X91933894Y-135582179D01*
X91877034Y-135624694D01*
X91820401Y-135631861D01*
X91815025Y-135630718D01*
X91624051Y-135630718D01*
X91617599Y-135632090D01*
X91617594Y-135632090D01*
X91548542Y-135646768D01*
X91437250Y-135670424D01*
X91431220Y-135673109D01*
X91431219Y-135673109D01*
X91268816Y-135745415D01*
X91268814Y-135745416D01*
X91262786Y-135748100D01*
X91108285Y-135860352D01*
X91103872Y-135865254D01*
X91103870Y-135865255D01*
X91090764Y-135879811D01*
X91030318Y-135917050D01*
X90997128Y-135921500D01*
X86567491Y-135921500D01*
X86499370Y-135901498D01*
X86452877Y-135847842D01*
X86442228Y-135809108D01*
X86438798Y-135777540D01*
X86437945Y-135769684D01*
X86386815Y-135633295D01*
X86299461Y-135516739D01*
X86182905Y-135429385D01*
X86046516Y-135378255D01*
X85984334Y-135371500D01*
X84338066Y-135371500D01*
X84275884Y-135378255D01*
X84139495Y-135429385D01*
X84022939Y-135516739D01*
X83935585Y-135633295D01*
X83884455Y-135769684D01*
X83877700Y-135831866D01*
X83877700Y-137228134D01*
X81348500Y-137228134D01*
X81348500Y-132724669D01*
X83878201Y-132724669D01*
X83878571Y-132731490D01*
X83884095Y-132782352D01*
X83887721Y-132797604D01*
X83932876Y-132918054D01*
X83941414Y-132933649D01*
X84017915Y-133035724D01*
X84030476Y-133048285D01*
X84132551Y-133124786D01*
X84148146Y-133133324D01*
X84268594Y-133178478D01*
X84283849Y-133182105D01*
X84334714Y-133187631D01*
X84341528Y-133188000D01*
X84889085Y-133188000D01*
X84904324Y-133183525D01*
X84905529Y-133182135D01*
X84907200Y-133174452D01*
X84907200Y-133169884D01*
X85415200Y-133169884D01*
X85419675Y-133185123D01*
X85421065Y-133186328D01*
X85428748Y-133187999D01*
X85980869Y-133187999D01*
X85987690Y-133187629D01*
X86038552Y-133182105D01*
X86053804Y-133178479D01*
X86174254Y-133133324D01*
X86189849Y-133124786D01*
X86291924Y-133048285D01*
X86304485Y-133035724D01*
X86380986Y-132933649D01*
X86389524Y-132918054D01*
X86434678Y-132797606D01*
X86438305Y-132782351D01*
X86443831Y-132731486D01*
X86444200Y-132724672D01*
X86444200Y-132724669D01*
X91838201Y-132724669D01*
X91838571Y-132731490D01*
X91844095Y-132782352D01*
X91847721Y-132797604D01*
X91892876Y-132918054D01*
X91901414Y-132933649D01*
X91977915Y-133035724D01*
X91990476Y-133048285D01*
X92092551Y-133124786D01*
X92108146Y-133133324D01*
X92228594Y-133178478D01*
X92243849Y-133182105D01*
X92294714Y-133187631D01*
X92301528Y-133188000D01*
X92849085Y-133188000D01*
X92864324Y-133183525D01*
X92865529Y-133182135D01*
X92867200Y-133174452D01*
X92867200Y-133169884D01*
X93375200Y-133169884D01*
X93379675Y-133185123D01*
X93381065Y-133186328D01*
X93388748Y-133187999D01*
X93940869Y-133187999D01*
X93947690Y-133187629D01*
X93998552Y-133182105D01*
X94013804Y-133178479D01*
X94134254Y-133133324D01*
X94149849Y-133124786D01*
X94251924Y-133048285D01*
X94264485Y-133035724D01*
X94340986Y-132933649D01*
X94349524Y-132918054D01*
X94394678Y-132797606D01*
X94398305Y-132782351D01*
X94403831Y-132731486D01*
X94404200Y-132724672D01*
X94404200Y-132302115D01*
X94399725Y-132286876D01*
X94398335Y-132285671D01*
X94390652Y-132284000D01*
X93393315Y-132284000D01*
X93378076Y-132288475D01*
X93376871Y-132289865D01*
X93375200Y-132297548D01*
X93375200Y-133169884D01*
X92867200Y-133169884D01*
X92867200Y-132302115D01*
X92862725Y-132286876D01*
X92861335Y-132285671D01*
X92853652Y-132284000D01*
X91856316Y-132284000D01*
X91841077Y-132288475D01*
X91839872Y-132289865D01*
X91838201Y-132297548D01*
X91838201Y-132724669D01*
X86444200Y-132724669D01*
X86444200Y-132302115D01*
X86439725Y-132286876D01*
X86438335Y-132285671D01*
X86430652Y-132284000D01*
X85433315Y-132284000D01*
X85418076Y-132288475D01*
X85416871Y-132289865D01*
X85415200Y-132297548D01*
X85415200Y-133169884D01*
X84907200Y-133169884D01*
X84907200Y-132302115D01*
X84902725Y-132286876D01*
X84901335Y-132285671D01*
X84893652Y-132284000D01*
X83896316Y-132284000D01*
X83881077Y-132288475D01*
X83879872Y-132289865D01*
X83878201Y-132297548D01*
X83878201Y-132724669D01*
X81348500Y-132724669D01*
X81348500Y-131757885D01*
X83878200Y-131757885D01*
X83882675Y-131773124D01*
X83884065Y-131774329D01*
X83891748Y-131776000D01*
X84889085Y-131776000D01*
X84904324Y-131771525D01*
X84905529Y-131770135D01*
X84907200Y-131762452D01*
X84907200Y-131757885D01*
X85415200Y-131757885D01*
X85419675Y-131773124D01*
X85421065Y-131774329D01*
X85428748Y-131776000D01*
X86426084Y-131776000D01*
X86441323Y-131771525D01*
X86442528Y-131770135D01*
X86444199Y-131762452D01*
X86444199Y-131757885D01*
X91838200Y-131757885D01*
X91842675Y-131773124D01*
X91844065Y-131774329D01*
X91851748Y-131776000D01*
X92849085Y-131776000D01*
X92864324Y-131771525D01*
X92865529Y-131770135D01*
X92867200Y-131762452D01*
X92867200Y-131757885D01*
X93375200Y-131757885D01*
X93379675Y-131773124D01*
X93381065Y-131774329D01*
X93388748Y-131776000D01*
X94386084Y-131776000D01*
X94401323Y-131771525D01*
X94402528Y-131770135D01*
X94404199Y-131762452D01*
X94404199Y-131708134D01*
X114693500Y-131708134D01*
X114700255Y-131770316D01*
X114751385Y-131906705D01*
X114838739Y-132023261D01*
X114955295Y-132110615D01*
X115091684Y-132161745D01*
X115153866Y-132168500D01*
X117250134Y-132168500D01*
X117312316Y-132161745D01*
X117448705Y-132110615D01*
X117565261Y-132023261D01*
X117652615Y-131906705D01*
X117703745Y-131770316D01*
X117710500Y-131708134D01*
X117710500Y-131644500D01*
X117730502Y-131576379D01*
X117784158Y-131529886D01*
X117836500Y-131518500D01*
X122628702Y-131518500D01*
X122696823Y-131538502D01*
X122702764Y-131542564D01*
X122801248Y-131614118D01*
X122807276Y-131616802D01*
X122807278Y-131616803D01*
X122843094Y-131632749D01*
X122975712Y-131691794D01*
X123068567Y-131711531D01*
X123156056Y-131730128D01*
X123156061Y-131730128D01*
X123162513Y-131731500D01*
X123353487Y-131731500D01*
X123359939Y-131730128D01*
X123359944Y-131730128D01*
X123447433Y-131711531D01*
X123540288Y-131691794D01*
X123672906Y-131632749D01*
X123708722Y-131616803D01*
X123708724Y-131616802D01*
X123714752Y-131614118D01*
X123813237Y-131542564D01*
X123880104Y-131518706D01*
X123887298Y-131518500D01*
X128567500Y-131518500D01*
X128635621Y-131538502D01*
X128682114Y-131592158D01*
X128693500Y-131644500D01*
X128693500Y-131708134D01*
X128700255Y-131770316D01*
X128751385Y-131906705D01*
X128838739Y-132023261D01*
X128955295Y-132110615D01*
X129091684Y-132161745D01*
X129153866Y-132168500D01*
X131250134Y-132168500D01*
X131312316Y-132161745D01*
X131448705Y-132110615D01*
X131565261Y-132023261D01*
X131652615Y-131906705D01*
X131703745Y-131770316D01*
X131710500Y-131708134D01*
X134693500Y-131708134D01*
X134700255Y-131770316D01*
X134751385Y-131906705D01*
X134838739Y-132023261D01*
X134955295Y-132110615D01*
X135091684Y-132161745D01*
X135153866Y-132168500D01*
X137250134Y-132168500D01*
X137312316Y-132161745D01*
X137448705Y-132110615D01*
X137565261Y-132023261D01*
X137652615Y-131906705D01*
X137703745Y-131770316D01*
X137710500Y-131708134D01*
X137710500Y-131644500D01*
X137730502Y-131576379D01*
X137784158Y-131529886D01*
X137836500Y-131518500D01*
X142557275Y-131518500D01*
X142625396Y-131538502D01*
X142650910Y-131560189D01*
X142712747Y-131628866D01*
X142795664Y-131689109D01*
X142852122Y-131730128D01*
X142867248Y-131741118D01*
X142873276Y-131743802D01*
X142873278Y-131743803D01*
X143035681Y-131816109D01*
X143041712Y-131818794D01*
X143135112Y-131838647D01*
X143222056Y-131857128D01*
X143222061Y-131857128D01*
X143228513Y-131858500D01*
X143419487Y-131858500D01*
X143425939Y-131857128D01*
X143425944Y-131857128D01*
X143512888Y-131838647D01*
X143606288Y-131818794D01*
X143612319Y-131816109D01*
X143774722Y-131743803D01*
X143774724Y-131743802D01*
X143780752Y-131741118D01*
X143795879Y-131730128D01*
X143852336Y-131689109D01*
X143935253Y-131628866D01*
X143997089Y-131560190D01*
X144057535Y-131522950D01*
X144090725Y-131518500D01*
X148567500Y-131518500D01*
X148635621Y-131538502D01*
X148682114Y-131592158D01*
X148693500Y-131644500D01*
X148693500Y-131708134D01*
X148700255Y-131770316D01*
X148751385Y-131906705D01*
X148838739Y-132023261D01*
X148955295Y-132110615D01*
X149091684Y-132161745D01*
X149153866Y-132168500D01*
X151250134Y-132168500D01*
X151312316Y-132161745D01*
X151448705Y-132110615D01*
X151565261Y-132023261D01*
X151652615Y-131906705D01*
X151703745Y-131770316D01*
X151710500Y-131708134D01*
X154693500Y-131708134D01*
X154700255Y-131770316D01*
X154751385Y-131906705D01*
X154838739Y-132023261D01*
X154955295Y-132110615D01*
X155091684Y-132161745D01*
X155153866Y-132168500D01*
X157250134Y-132168500D01*
X157312316Y-132161745D01*
X157448705Y-132110615D01*
X157565261Y-132023261D01*
X157652615Y-131906705D01*
X157703745Y-131770316D01*
X157710500Y-131708134D01*
X157710500Y-131644500D01*
X157730502Y-131576379D01*
X157784158Y-131529886D01*
X157836500Y-131518500D01*
X162506702Y-131518500D01*
X162574823Y-131538502D01*
X162580764Y-131542564D01*
X162679248Y-131614118D01*
X162685276Y-131616802D01*
X162685278Y-131616803D01*
X162721094Y-131632749D01*
X162853712Y-131691794D01*
X162946567Y-131711531D01*
X163034056Y-131730128D01*
X163034061Y-131730128D01*
X163040513Y-131731500D01*
X163231487Y-131731500D01*
X163237939Y-131730128D01*
X163237944Y-131730128D01*
X163325433Y-131711531D01*
X163418288Y-131691794D01*
X163550906Y-131632749D01*
X163586722Y-131616803D01*
X163586724Y-131616802D01*
X163592752Y-131614118D01*
X163691237Y-131542564D01*
X163758104Y-131518706D01*
X163765298Y-131518500D01*
X168567500Y-131518500D01*
X168635621Y-131538502D01*
X168682114Y-131592158D01*
X168693500Y-131644500D01*
X168693500Y-131708134D01*
X168700255Y-131770316D01*
X168751385Y-131906705D01*
X168838739Y-132023261D01*
X168955295Y-132110615D01*
X169091684Y-132161745D01*
X169153866Y-132168500D01*
X171250134Y-132168500D01*
X171312316Y-132161745D01*
X171448705Y-132110615D01*
X171565261Y-132023261D01*
X171652615Y-131906705D01*
X171703745Y-131770316D01*
X171710500Y-131708134D01*
X174693500Y-131708134D01*
X174700255Y-131770316D01*
X174751385Y-131906705D01*
X174838739Y-132023261D01*
X174955295Y-132110615D01*
X175091684Y-132161745D01*
X175153866Y-132168500D01*
X177250134Y-132168500D01*
X177312316Y-132161745D01*
X177448705Y-132110615D01*
X177565261Y-132023261D01*
X177652615Y-131906705D01*
X177703745Y-131770316D01*
X177710500Y-131708134D01*
X177710500Y-131644500D01*
X177730502Y-131576379D01*
X177784158Y-131529886D01*
X177836500Y-131518500D01*
X182572702Y-131518500D01*
X182640823Y-131538502D01*
X182646764Y-131542564D01*
X182745248Y-131614118D01*
X182751276Y-131616802D01*
X182751278Y-131616803D01*
X182787094Y-131632749D01*
X182919712Y-131691794D01*
X183012567Y-131711531D01*
X183100056Y-131730128D01*
X183100061Y-131730128D01*
X183106513Y-131731500D01*
X183297487Y-131731500D01*
X183303939Y-131730128D01*
X183303944Y-131730128D01*
X183391433Y-131711531D01*
X183484288Y-131691794D01*
X183616906Y-131632749D01*
X183652722Y-131616803D01*
X183652724Y-131616802D01*
X183658752Y-131614118D01*
X183757237Y-131542564D01*
X183824104Y-131518706D01*
X183831298Y-131518500D01*
X188567500Y-131518500D01*
X188635621Y-131538502D01*
X188682114Y-131592158D01*
X188693500Y-131644500D01*
X188693500Y-131708134D01*
X188700255Y-131770316D01*
X188751385Y-131906705D01*
X188838739Y-132023261D01*
X188955295Y-132110615D01*
X189091684Y-132161745D01*
X189153866Y-132168500D01*
X191250134Y-132168500D01*
X191312316Y-132161745D01*
X191448705Y-132110615D01*
X191565261Y-132023261D01*
X191652615Y-131906705D01*
X191703745Y-131770316D01*
X191710500Y-131708134D01*
X191710500Y-130111866D01*
X191703745Y-130049684D01*
X191652615Y-129913295D01*
X191565261Y-129796739D01*
X191448705Y-129709385D01*
X191312316Y-129658255D01*
X191250134Y-129651500D01*
X189153866Y-129651500D01*
X189091684Y-129658255D01*
X188955295Y-129709385D01*
X188838739Y-129796739D01*
X188751385Y-129913295D01*
X188700255Y-130049684D01*
X188693500Y-130111866D01*
X188693500Y-130175500D01*
X188673498Y-130243621D01*
X188619842Y-130290114D01*
X188567500Y-130301500D01*
X184011044Y-130301500D01*
X183942923Y-130281498D01*
X183917408Y-130259810D01*
X183817675Y-130149045D01*
X183817674Y-130149044D01*
X183813253Y-130144134D01*
X183683254Y-130049684D01*
X183664094Y-130035763D01*
X183664093Y-130035762D01*
X183658752Y-130031882D01*
X183652724Y-130029198D01*
X183652722Y-130029197D01*
X183490319Y-129956891D01*
X183490318Y-129956891D01*
X183484288Y-129954206D01*
X183390887Y-129934353D01*
X183303944Y-129915872D01*
X183303939Y-129915872D01*
X183297487Y-129914500D01*
X183106513Y-129914500D01*
X183100061Y-129915872D01*
X183100056Y-129915872D01*
X183013113Y-129934353D01*
X182919712Y-129954206D01*
X182913682Y-129956891D01*
X182913681Y-129956891D01*
X182751278Y-130029197D01*
X182751276Y-130029198D01*
X182745248Y-130031882D01*
X182739907Y-130035762D01*
X182739906Y-130035763D01*
X182720746Y-130049684D01*
X182590747Y-130144134D01*
X182586326Y-130149044D01*
X182586325Y-130149045D01*
X182486592Y-130259810D01*
X182426146Y-130297050D01*
X182392956Y-130301500D01*
X177836500Y-130301500D01*
X177768379Y-130281498D01*
X177721886Y-130227842D01*
X177710500Y-130175500D01*
X177710500Y-130111866D01*
X177703745Y-130049684D01*
X177652615Y-129913295D01*
X177565261Y-129796739D01*
X177448705Y-129709385D01*
X177312316Y-129658255D01*
X177250134Y-129651500D01*
X175153866Y-129651500D01*
X175091684Y-129658255D01*
X174955295Y-129709385D01*
X174838739Y-129796739D01*
X174751385Y-129913295D01*
X174700255Y-130049684D01*
X174693500Y-130111866D01*
X174693500Y-131708134D01*
X171710500Y-131708134D01*
X171710500Y-130111866D01*
X171703745Y-130049684D01*
X171652615Y-129913295D01*
X171565261Y-129796739D01*
X171448705Y-129709385D01*
X171312316Y-129658255D01*
X171250134Y-129651500D01*
X169153866Y-129651500D01*
X169091684Y-129658255D01*
X168955295Y-129709385D01*
X168838739Y-129796739D01*
X168751385Y-129913295D01*
X168700255Y-130049684D01*
X168693500Y-130111866D01*
X168693500Y-130175500D01*
X168673498Y-130243621D01*
X168619842Y-130290114D01*
X168567500Y-130301500D01*
X163945044Y-130301500D01*
X163876923Y-130281498D01*
X163851408Y-130259810D01*
X163751675Y-130149045D01*
X163751674Y-130149044D01*
X163747253Y-130144134D01*
X163617254Y-130049684D01*
X163598094Y-130035763D01*
X163598093Y-130035762D01*
X163592752Y-130031882D01*
X163586724Y-130029198D01*
X163586722Y-130029197D01*
X163424319Y-129956891D01*
X163424318Y-129956891D01*
X163418288Y-129954206D01*
X163324887Y-129934353D01*
X163237944Y-129915872D01*
X163237939Y-129915872D01*
X163231487Y-129914500D01*
X163040513Y-129914500D01*
X163034061Y-129915872D01*
X163034056Y-129915872D01*
X162947113Y-129934353D01*
X162853712Y-129954206D01*
X162847682Y-129956891D01*
X162847681Y-129956891D01*
X162685278Y-130029197D01*
X162685276Y-130029198D01*
X162679248Y-130031882D01*
X162673907Y-130035762D01*
X162673906Y-130035763D01*
X162654746Y-130049684D01*
X162524747Y-130144134D01*
X162520326Y-130149044D01*
X162520325Y-130149045D01*
X162420592Y-130259810D01*
X162360146Y-130297050D01*
X162326956Y-130301500D01*
X157836500Y-130301500D01*
X157768379Y-130281498D01*
X157721886Y-130227842D01*
X157710500Y-130175500D01*
X157710500Y-130111866D01*
X157703745Y-130049684D01*
X157652615Y-129913295D01*
X157565261Y-129796739D01*
X157448705Y-129709385D01*
X157312316Y-129658255D01*
X157250134Y-129651500D01*
X155153866Y-129651500D01*
X155091684Y-129658255D01*
X154955295Y-129709385D01*
X154838739Y-129796739D01*
X154751385Y-129913295D01*
X154700255Y-130049684D01*
X154693500Y-130111866D01*
X154693500Y-131708134D01*
X151710500Y-131708134D01*
X151710500Y-130111866D01*
X151703745Y-130049684D01*
X151652615Y-129913295D01*
X151565261Y-129796739D01*
X151448705Y-129709385D01*
X151312316Y-129658255D01*
X151250134Y-129651500D01*
X149153866Y-129651500D01*
X149091684Y-129658255D01*
X148955295Y-129709385D01*
X148838739Y-129796739D01*
X148751385Y-129913295D01*
X148700255Y-130049684D01*
X148693500Y-130111866D01*
X148693500Y-130175500D01*
X148673498Y-130243621D01*
X148619842Y-130290114D01*
X148567500Y-130301500D01*
X144016313Y-130301500D01*
X143948192Y-130281498D01*
X143936649Y-130272684D01*
X143935253Y-130271134D01*
X143780752Y-130158882D01*
X143774724Y-130156198D01*
X143774722Y-130156197D01*
X143612319Y-130083891D01*
X143612318Y-130083891D01*
X143606288Y-130081206D01*
X143494949Y-130057540D01*
X143425944Y-130042872D01*
X143425939Y-130042872D01*
X143419487Y-130041500D01*
X143228513Y-130041500D01*
X143222061Y-130042872D01*
X143222056Y-130042872D01*
X143153051Y-130057540D01*
X143041712Y-130081206D01*
X143035682Y-130083891D01*
X143035681Y-130083891D01*
X142873278Y-130156197D01*
X142873276Y-130156198D01*
X142867248Y-130158882D01*
X142714524Y-130269843D01*
X142714522Y-130269844D01*
X142712747Y-130271134D01*
X142712511Y-130270809D01*
X142651991Y-130299853D01*
X142631687Y-130301500D01*
X137836500Y-130301500D01*
X137768379Y-130281498D01*
X137721886Y-130227842D01*
X137710500Y-130175500D01*
X137710500Y-130111866D01*
X137703745Y-130049684D01*
X137652615Y-129913295D01*
X137565261Y-129796739D01*
X137448705Y-129709385D01*
X137312316Y-129658255D01*
X137250134Y-129651500D01*
X135153866Y-129651500D01*
X135091684Y-129658255D01*
X134955295Y-129709385D01*
X134838739Y-129796739D01*
X134751385Y-129913295D01*
X134700255Y-130049684D01*
X134693500Y-130111866D01*
X134693500Y-131708134D01*
X131710500Y-131708134D01*
X131710500Y-130111866D01*
X131703745Y-130049684D01*
X131652615Y-129913295D01*
X131565261Y-129796739D01*
X131448705Y-129709385D01*
X131312316Y-129658255D01*
X131250134Y-129651500D01*
X129153866Y-129651500D01*
X129091684Y-129658255D01*
X128955295Y-129709385D01*
X128838739Y-129796739D01*
X128751385Y-129913295D01*
X128700255Y-130049684D01*
X128693500Y-130111866D01*
X128693500Y-130175500D01*
X128673498Y-130243621D01*
X128619842Y-130290114D01*
X128567500Y-130301500D01*
X124067044Y-130301500D01*
X123998923Y-130281498D01*
X123973408Y-130259810D01*
X123873675Y-130149045D01*
X123873674Y-130149044D01*
X123869253Y-130144134D01*
X123739254Y-130049684D01*
X123720094Y-130035763D01*
X123720093Y-130035762D01*
X123714752Y-130031882D01*
X123708724Y-130029198D01*
X123708722Y-130029197D01*
X123546319Y-129956891D01*
X123546318Y-129956891D01*
X123540288Y-129954206D01*
X123446887Y-129934353D01*
X123359944Y-129915872D01*
X123359939Y-129915872D01*
X123353487Y-129914500D01*
X123162513Y-129914500D01*
X123156061Y-129915872D01*
X123156056Y-129915872D01*
X123069113Y-129934353D01*
X122975712Y-129954206D01*
X122969682Y-129956891D01*
X122969681Y-129956891D01*
X122807278Y-130029197D01*
X122807276Y-130029198D01*
X122801248Y-130031882D01*
X122795907Y-130035762D01*
X122795906Y-130035763D01*
X122776746Y-130049684D01*
X122646747Y-130144134D01*
X122642326Y-130149044D01*
X122642325Y-130149045D01*
X122542592Y-130259810D01*
X122482146Y-130297050D01*
X122448956Y-130301500D01*
X117836500Y-130301500D01*
X117768379Y-130281498D01*
X117721886Y-130227842D01*
X117710500Y-130175500D01*
X117710500Y-130111866D01*
X117703745Y-130049684D01*
X117652615Y-129913295D01*
X117565261Y-129796739D01*
X117448705Y-129709385D01*
X117312316Y-129658255D01*
X117250134Y-129651500D01*
X115153866Y-129651500D01*
X115091684Y-129658255D01*
X114955295Y-129709385D01*
X114838739Y-129796739D01*
X114751385Y-129913295D01*
X114700255Y-130049684D01*
X114693500Y-130111866D01*
X114693500Y-131708134D01*
X94404199Y-131708134D01*
X94404199Y-131335331D01*
X94403829Y-131328510D01*
X94398305Y-131277648D01*
X94394679Y-131262396D01*
X94349524Y-131141946D01*
X94340986Y-131126351D01*
X94264485Y-131024276D01*
X94251924Y-131011715D01*
X94149849Y-130935214D01*
X94134254Y-130926676D01*
X94013806Y-130881522D01*
X93998551Y-130877895D01*
X93947686Y-130872369D01*
X93940872Y-130872000D01*
X93393315Y-130872000D01*
X93378076Y-130876475D01*
X93376871Y-130877865D01*
X93375200Y-130885548D01*
X93375200Y-131757885D01*
X92867200Y-131757885D01*
X92867200Y-130890116D01*
X92862725Y-130874877D01*
X92861335Y-130873672D01*
X92853652Y-130872001D01*
X92301531Y-130872001D01*
X92294710Y-130872371D01*
X92243848Y-130877895D01*
X92228596Y-130881521D01*
X92108146Y-130926676D01*
X92092551Y-130935214D01*
X91990476Y-131011715D01*
X91977915Y-131024276D01*
X91901414Y-131126351D01*
X91892876Y-131141946D01*
X91847722Y-131262394D01*
X91844095Y-131277649D01*
X91838569Y-131328514D01*
X91838200Y-131335328D01*
X91838200Y-131757885D01*
X86444199Y-131757885D01*
X86444199Y-131335331D01*
X86443829Y-131328510D01*
X86438305Y-131277648D01*
X86434679Y-131262396D01*
X86389524Y-131141946D01*
X86380986Y-131126351D01*
X86304485Y-131024276D01*
X86291924Y-131011715D01*
X86189849Y-130935214D01*
X86174254Y-130926676D01*
X86053806Y-130881522D01*
X86038551Y-130877895D01*
X85987686Y-130872369D01*
X85980872Y-130872000D01*
X85433315Y-130872000D01*
X85418076Y-130876475D01*
X85416871Y-130877865D01*
X85415200Y-130885548D01*
X85415200Y-131757885D01*
X84907200Y-131757885D01*
X84907200Y-130890116D01*
X84902725Y-130874877D01*
X84901335Y-130873672D01*
X84893652Y-130872001D01*
X84341531Y-130872001D01*
X84334710Y-130872371D01*
X84283848Y-130877895D01*
X84268596Y-130881521D01*
X84148146Y-130926676D01*
X84132551Y-130935214D01*
X84030476Y-131011715D01*
X84017915Y-131024276D01*
X83941414Y-131126351D01*
X83932876Y-131141946D01*
X83887722Y-131262394D01*
X83884095Y-131277649D01*
X83878569Y-131328514D01*
X83878200Y-131335328D01*
X83878200Y-131757885D01*
X81348500Y-131757885D01*
X81348500Y-127228134D01*
X83877700Y-127228134D01*
X83884455Y-127290316D01*
X83935585Y-127426705D01*
X84022939Y-127543261D01*
X84139495Y-127630615D01*
X84275884Y-127681745D01*
X84338066Y-127688500D01*
X85984334Y-127688500D01*
X86046516Y-127681745D01*
X86182905Y-127630615D01*
X86299461Y-127543261D01*
X86386815Y-127426705D01*
X86437945Y-127290316D01*
X86442228Y-127250892D01*
X86469470Y-127185330D01*
X86527834Y-127144904D01*
X86567491Y-127138500D01*
X89198857Y-127138500D01*
X89215303Y-127139578D01*
X89247000Y-127143751D01*
X89255188Y-127142673D01*
X89278697Y-127139578D01*
X89295143Y-127138500D01*
X91714909Y-127138500D01*
X91783030Y-127158502D01*
X91829523Y-127212158D01*
X91840172Y-127250892D01*
X91844455Y-127290316D01*
X91895585Y-127426705D01*
X91982939Y-127543261D01*
X92099495Y-127630615D01*
X92235884Y-127681745D01*
X92298066Y-127688500D01*
X93944334Y-127688500D01*
X94006516Y-127681745D01*
X94142905Y-127630615D01*
X94259461Y-127543261D01*
X94346815Y-127426705D01*
X94397945Y-127290316D01*
X94404700Y-127228134D01*
X94404700Y-126704669D01*
X114694001Y-126704669D01*
X114694371Y-126711490D01*
X114699895Y-126762352D01*
X114703521Y-126777604D01*
X114748676Y-126898054D01*
X114757214Y-126913649D01*
X114833715Y-127015724D01*
X114846276Y-127028285D01*
X114948351Y-127104786D01*
X114963946Y-127113324D01*
X115084394Y-127158478D01*
X115099649Y-127162105D01*
X115150514Y-127167631D01*
X115157328Y-127168000D01*
X115929885Y-127168000D01*
X115945124Y-127163525D01*
X115946329Y-127162135D01*
X115948000Y-127154452D01*
X115948000Y-127149884D01*
X116456000Y-127149884D01*
X116460475Y-127165123D01*
X116461865Y-127166328D01*
X116469548Y-127167999D01*
X117246669Y-127167999D01*
X117253490Y-127167629D01*
X117304352Y-127162105D01*
X117319604Y-127158479D01*
X117440054Y-127113324D01*
X117455649Y-127104786D01*
X117557724Y-127028285D01*
X117570285Y-127015724D01*
X117646786Y-126913649D01*
X117655324Y-126898054D01*
X117700478Y-126777606D01*
X117704105Y-126762351D01*
X117709631Y-126711486D01*
X117710000Y-126704672D01*
X117710000Y-126704669D01*
X128694001Y-126704669D01*
X128694371Y-126711490D01*
X128699895Y-126762352D01*
X128703521Y-126777604D01*
X128748676Y-126898054D01*
X128757214Y-126913649D01*
X128833715Y-127015724D01*
X128846276Y-127028285D01*
X128948351Y-127104786D01*
X128963946Y-127113324D01*
X129084394Y-127158478D01*
X129099649Y-127162105D01*
X129150514Y-127167631D01*
X129157328Y-127168000D01*
X129929885Y-127168000D01*
X129945124Y-127163525D01*
X129946329Y-127162135D01*
X129948000Y-127154452D01*
X129948000Y-127149884D01*
X130456000Y-127149884D01*
X130460475Y-127165123D01*
X130461865Y-127166328D01*
X130469548Y-127167999D01*
X131246669Y-127167999D01*
X131253490Y-127167629D01*
X131304352Y-127162105D01*
X131319604Y-127158479D01*
X131440054Y-127113324D01*
X131455649Y-127104786D01*
X131557724Y-127028285D01*
X131570285Y-127015724D01*
X131646786Y-126913649D01*
X131655324Y-126898054D01*
X131700478Y-126777606D01*
X131704105Y-126762351D01*
X131709631Y-126711486D01*
X131710000Y-126704672D01*
X131710000Y-126704669D01*
X134694001Y-126704669D01*
X134694371Y-126711490D01*
X134699895Y-126762352D01*
X134703521Y-126777604D01*
X134748676Y-126898054D01*
X134757214Y-126913649D01*
X134833715Y-127015724D01*
X134846276Y-127028285D01*
X134948351Y-127104786D01*
X134963946Y-127113324D01*
X135084394Y-127158478D01*
X135099649Y-127162105D01*
X135150514Y-127167631D01*
X135157328Y-127168000D01*
X135929885Y-127168000D01*
X135945124Y-127163525D01*
X135946329Y-127162135D01*
X135948000Y-127154452D01*
X135948000Y-127149884D01*
X136456000Y-127149884D01*
X136460475Y-127165123D01*
X136461865Y-127166328D01*
X136469548Y-127167999D01*
X137246669Y-127167999D01*
X137253490Y-127167629D01*
X137304352Y-127162105D01*
X137319604Y-127158479D01*
X137440054Y-127113324D01*
X137455649Y-127104786D01*
X137557724Y-127028285D01*
X137570285Y-127015724D01*
X137646786Y-126913649D01*
X137655324Y-126898054D01*
X137700478Y-126777606D01*
X137704105Y-126762351D01*
X137709631Y-126711486D01*
X137710000Y-126704672D01*
X137710000Y-126704669D01*
X148694001Y-126704669D01*
X148694371Y-126711490D01*
X148699895Y-126762352D01*
X148703521Y-126777604D01*
X148748676Y-126898054D01*
X148757214Y-126913649D01*
X148833715Y-127015724D01*
X148846276Y-127028285D01*
X148948351Y-127104786D01*
X148963946Y-127113324D01*
X149084394Y-127158478D01*
X149099649Y-127162105D01*
X149150514Y-127167631D01*
X149157328Y-127168000D01*
X149929885Y-127168000D01*
X149945124Y-127163525D01*
X149946329Y-127162135D01*
X149948000Y-127154452D01*
X149948000Y-127149884D01*
X150456000Y-127149884D01*
X150460475Y-127165123D01*
X150461865Y-127166328D01*
X150469548Y-127167999D01*
X151246669Y-127167999D01*
X151253490Y-127167629D01*
X151304352Y-127162105D01*
X151319604Y-127158479D01*
X151440054Y-127113324D01*
X151455649Y-127104786D01*
X151557724Y-127028285D01*
X151570285Y-127015724D01*
X151646786Y-126913649D01*
X151655324Y-126898054D01*
X151700478Y-126777606D01*
X151704105Y-126762351D01*
X151709631Y-126711486D01*
X151710000Y-126704672D01*
X151710000Y-126704669D01*
X154694001Y-126704669D01*
X154694371Y-126711490D01*
X154699895Y-126762352D01*
X154703521Y-126777604D01*
X154748676Y-126898054D01*
X154757214Y-126913649D01*
X154833715Y-127015724D01*
X154846276Y-127028285D01*
X154948351Y-127104786D01*
X154963946Y-127113324D01*
X155084394Y-127158478D01*
X155099649Y-127162105D01*
X155150514Y-127167631D01*
X155157328Y-127168000D01*
X155929885Y-127168000D01*
X155945124Y-127163525D01*
X155946329Y-127162135D01*
X155948000Y-127154452D01*
X155948000Y-127149884D01*
X156456000Y-127149884D01*
X156460475Y-127165123D01*
X156461865Y-127166328D01*
X156469548Y-127167999D01*
X157246669Y-127167999D01*
X157253490Y-127167629D01*
X157304352Y-127162105D01*
X157319604Y-127158479D01*
X157440054Y-127113324D01*
X157455649Y-127104786D01*
X157557724Y-127028285D01*
X157570285Y-127015724D01*
X157646786Y-126913649D01*
X157655324Y-126898054D01*
X157700478Y-126777606D01*
X157704105Y-126762351D01*
X157709631Y-126711486D01*
X157710000Y-126704672D01*
X157710000Y-126704669D01*
X168694001Y-126704669D01*
X168694371Y-126711490D01*
X168699895Y-126762352D01*
X168703521Y-126777604D01*
X168748676Y-126898054D01*
X168757214Y-126913649D01*
X168833715Y-127015724D01*
X168846276Y-127028285D01*
X168948351Y-127104786D01*
X168963946Y-127113324D01*
X169084394Y-127158478D01*
X169099649Y-127162105D01*
X169150514Y-127167631D01*
X169157328Y-127168000D01*
X169929885Y-127168000D01*
X169945124Y-127163525D01*
X169946329Y-127162135D01*
X169948000Y-127154452D01*
X169948000Y-127149884D01*
X170456000Y-127149884D01*
X170460475Y-127165123D01*
X170461865Y-127166328D01*
X170469548Y-127167999D01*
X171246669Y-127167999D01*
X171253490Y-127167629D01*
X171304352Y-127162105D01*
X171319604Y-127158479D01*
X171440054Y-127113324D01*
X171455649Y-127104786D01*
X171557724Y-127028285D01*
X171570285Y-127015724D01*
X171646786Y-126913649D01*
X171655324Y-126898054D01*
X171700478Y-126777606D01*
X171704105Y-126762351D01*
X171709631Y-126711486D01*
X171710000Y-126704672D01*
X171710000Y-126704669D01*
X174694001Y-126704669D01*
X174694371Y-126711490D01*
X174699895Y-126762352D01*
X174703521Y-126777604D01*
X174748676Y-126898054D01*
X174757214Y-126913649D01*
X174833715Y-127015724D01*
X174846276Y-127028285D01*
X174948351Y-127104786D01*
X174963946Y-127113324D01*
X175084394Y-127158478D01*
X175099649Y-127162105D01*
X175150514Y-127167631D01*
X175157328Y-127168000D01*
X175929885Y-127168000D01*
X175945124Y-127163525D01*
X175946329Y-127162135D01*
X175948000Y-127154452D01*
X175948000Y-127149884D01*
X176456000Y-127149884D01*
X176460475Y-127165123D01*
X176461865Y-127166328D01*
X176469548Y-127167999D01*
X177246669Y-127167999D01*
X177253490Y-127167629D01*
X177304352Y-127162105D01*
X177319604Y-127158479D01*
X177440054Y-127113324D01*
X177455649Y-127104786D01*
X177557724Y-127028285D01*
X177570285Y-127015724D01*
X177646786Y-126913649D01*
X177655324Y-126898054D01*
X177700478Y-126777606D01*
X177704105Y-126762351D01*
X177709631Y-126711486D01*
X177710000Y-126704672D01*
X177710000Y-126704669D01*
X188694001Y-126704669D01*
X188694371Y-126711490D01*
X188699895Y-126762352D01*
X188703521Y-126777604D01*
X188748676Y-126898054D01*
X188757214Y-126913649D01*
X188833715Y-127015724D01*
X188846276Y-127028285D01*
X188948351Y-127104786D01*
X188963946Y-127113324D01*
X189084394Y-127158478D01*
X189099649Y-127162105D01*
X189150514Y-127167631D01*
X189157328Y-127168000D01*
X189929885Y-127168000D01*
X189945124Y-127163525D01*
X189946329Y-127162135D01*
X189948000Y-127154452D01*
X189948000Y-127149884D01*
X190456000Y-127149884D01*
X190460475Y-127165123D01*
X190461865Y-127166328D01*
X190469548Y-127167999D01*
X191246669Y-127167999D01*
X191253490Y-127167629D01*
X191304352Y-127162105D01*
X191319604Y-127158479D01*
X191440054Y-127113324D01*
X191455649Y-127104786D01*
X191557724Y-127028285D01*
X191570285Y-127015724D01*
X191646786Y-126913649D01*
X191655324Y-126898054D01*
X191700478Y-126777606D01*
X191704105Y-126762351D01*
X191709631Y-126711486D01*
X191710000Y-126704672D01*
X191710000Y-126182115D01*
X191705525Y-126166876D01*
X191704135Y-126165671D01*
X191696452Y-126164000D01*
X190474115Y-126164000D01*
X190458876Y-126168475D01*
X190457671Y-126169865D01*
X190456000Y-126177548D01*
X190456000Y-127149884D01*
X189948000Y-127149884D01*
X189948000Y-126182115D01*
X189943525Y-126166876D01*
X189942135Y-126165671D01*
X189934452Y-126164000D01*
X188712116Y-126164000D01*
X188696877Y-126168475D01*
X188695672Y-126169865D01*
X188694001Y-126177548D01*
X188694001Y-126704669D01*
X177710000Y-126704669D01*
X177710000Y-126182115D01*
X177705525Y-126166876D01*
X177704135Y-126165671D01*
X177696452Y-126164000D01*
X176474115Y-126164000D01*
X176458876Y-126168475D01*
X176457671Y-126169865D01*
X176456000Y-126177548D01*
X176456000Y-127149884D01*
X175948000Y-127149884D01*
X175948000Y-126182115D01*
X175943525Y-126166876D01*
X175942135Y-126165671D01*
X175934452Y-126164000D01*
X174712116Y-126164000D01*
X174696877Y-126168475D01*
X174695672Y-126169865D01*
X174694001Y-126177548D01*
X174694001Y-126704669D01*
X171710000Y-126704669D01*
X171710000Y-126182115D01*
X171705525Y-126166876D01*
X171704135Y-126165671D01*
X171696452Y-126164000D01*
X170474115Y-126164000D01*
X170458876Y-126168475D01*
X170457671Y-126169865D01*
X170456000Y-126177548D01*
X170456000Y-127149884D01*
X169948000Y-127149884D01*
X169948000Y-126182115D01*
X169943525Y-126166876D01*
X169942135Y-126165671D01*
X169934452Y-126164000D01*
X168712116Y-126164000D01*
X168696877Y-126168475D01*
X168695672Y-126169865D01*
X168694001Y-126177548D01*
X168694001Y-126704669D01*
X157710000Y-126704669D01*
X157710000Y-126182115D01*
X157705525Y-126166876D01*
X157704135Y-126165671D01*
X157696452Y-126164000D01*
X156474115Y-126164000D01*
X156458876Y-126168475D01*
X156457671Y-126169865D01*
X156456000Y-126177548D01*
X156456000Y-127149884D01*
X155948000Y-127149884D01*
X155948000Y-126182115D01*
X155943525Y-126166876D01*
X155942135Y-126165671D01*
X155934452Y-126164000D01*
X154712116Y-126164000D01*
X154696877Y-126168475D01*
X154695672Y-126169865D01*
X154694001Y-126177548D01*
X154694001Y-126704669D01*
X151710000Y-126704669D01*
X151710000Y-126182115D01*
X151705525Y-126166876D01*
X151704135Y-126165671D01*
X151696452Y-126164000D01*
X150474115Y-126164000D01*
X150458876Y-126168475D01*
X150457671Y-126169865D01*
X150456000Y-126177548D01*
X150456000Y-127149884D01*
X149948000Y-127149884D01*
X149948000Y-126182115D01*
X149943525Y-126166876D01*
X149942135Y-126165671D01*
X149934452Y-126164000D01*
X148712116Y-126164000D01*
X148696877Y-126168475D01*
X148695672Y-126169865D01*
X148694001Y-126177548D01*
X148694001Y-126704669D01*
X137710000Y-126704669D01*
X137710000Y-126182115D01*
X137705525Y-126166876D01*
X137704135Y-126165671D01*
X137696452Y-126164000D01*
X136474115Y-126164000D01*
X136458876Y-126168475D01*
X136457671Y-126169865D01*
X136456000Y-126177548D01*
X136456000Y-127149884D01*
X135948000Y-127149884D01*
X135948000Y-126182115D01*
X135943525Y-126166876D01*
X135942135Y-126165671D01*
X135934452Y-126164000D01*
X134712116Y-126164000D01*
X134696877Y-126168475D01*
X134695672Y-126169865D01*
X134694001Y-126177548D01*
X134694001Y-126704669D01*
X131710000Y-126704669D01*
X131710000Y-126182115D01*
X131705525Y-126166876D01*
X131704135Y-126165671D01*
X131696452Y-126164000D01*
X130474115Y-126164000D01*
X130458876Y-126168475D01*
X130457671Y-126169865D01*
X130456000Y-126177548D01*
X130456000Y-127149884D01*
X129948000Y-127149884D01*
X129948000Y-126182115D01*
X129943525Y-126166876D01*
X129942135Y-126165671D01*
X129934452Y-126164000D01*
X128712116Y-126164000D01*
X128696877Y-126168475D01*
X128695672Y-126169865D01*
X128694001Y-126177548D01*
X128694001Y-126704669D01*
X117710000Y-126704669D01*
X117710000Y-126182115D01*
X117705525Y-126166876D01*
X117704135Y-126165671D01*
X117696452Y-126164000D01*
X116474115Y-126164000D01*
X116458876Y-126168475D01*
X116457671Y-126169865D01*
X116456000Y-126177548D01*
X116456000Y-127149884D01*
X115948000Y-127149884D01*
X115948000Y-126182115D01*
X115943525Y-126166876D01*
X115942135Y-126165671D01*
X115934452Y-126164000D01*
X114712116Y-126164000D01*
X114696877Y-126168475D01*
X114695672Y-126169865D01*
X114694001Y-126177548D01*
X114694001Y-126704669D01*
X94404700Y-126704669D01*
X94404700Y-125831866D01*
X94397945Y-125769684D01*
X94348536Y-125637885D01*
X114694000Y-125637885D01*
X114698475Y-125653124D01*
X114699865Y-125654329D01*
X114707548Y-125656000D01*
X115929885Y-125656000D01*
X115945124Y-125651525D01*
X115946329Y-125650135D01*
X115948000Y-125642452D01*
X115948000Y-125637885D01*
X116456000Y-125637885D01*
X116460475Y-125653124D01*
X116461865Y-125654329D01*
X116469548Y-125656000D01*
X117691884Y-125656000D01*
X117707123Y-125651525D01*
X117708328Y-125650135D01*
X117709999Y-125642452D01*
X117709999Y-125637885D01*
X128694000Y-125637885D01*
X128698475Y-125653124D01*
X128699865Y-125654329D01*
X128707548Y-125656000D01*
X129929885Y-125656000D01*
X129945124Y-125651525D01*
X129946329Y-125650135D01*
X129948000Y-125642452D01*
X129948000Y-125637885D01*
X130456000Y-125637885D01*
X130460475Y-125653124D01*
X130461865Y-125654329D01*
X130469548Y-125656000D01*
X131691884Y-125656000D01*
X131707123Y-125651525D01*
X131708328Y-125650135D01*
X131709999Y-125642452D01*
X131709999Y-125637885D01*
X134694000Y-125637885D01*
X134698475Y-125653124D01*
X134699865Y-125654329D01*
X134707548Y-125656000D01*
X135929885Y-125656000D01*
X135945124Y-125651525D01*
X135946329Y-125650135D01*
X135948000Y-125642452D01*
X135948000Y-125637885D01*
X136456000Y-125637885D01*
X136460475Y-125653124D01*
X136461865Y-125654329D01*
X136469548Y-125656000D01*
X137691884Y-125656000D01*
X137707123Y-125651525D01*
X137708328Y-125650135D01*
X137709999Y-125642452D01*
X137709999Y-125637885D01*
X148694000Y-125637885D01*
X148698475Y-125653124D01*
X148699865Y-125654329D01*
X148707548Y-125656000D01*
X149929885Y-125656000D01*
X149945124Y-125651525D01*
X149946329Y-125650135D01*
X149948000Y-125642452D01*
X149948000Y-125637885D01*
X150456000Y-125637885D01*
X150460475Y-125653124D01*
X150461865Y-125654329D01*
X150469548Y-125656000D01*
X151691884Y-125656000D01*
X151707123Y-125651525D01*
X151708328Y-125650135D01*
X151709999Y-125642452D01*
X151709999Y-125637885D01*
X154694000Y-125637885D01*
X154698475Y-125653124D01*
X154699865Y-125654329D01*
X154707548Y-125656000D01*
X155929885Y-125656000D01*
X155945124Y-125651525D01*
X155946329Y-125650135D01*
X155948000Y-125642452D01*
X155948000Y-125637885D01*
X156456000Y-125637885D01*
X156460475Y-125653124D01*
X156461865Y-125654329D01*
X156469548Y-125656000D01*
X157691884Y-125656000D01*
X157707123Y-125651525D01*
X157708328Y-125650135D01*
X157709999Y-125642452D01*
X157709999Y-125637885D01*
X168694000Y-125637885D01*
X168698475Y-125653124D01*
X168699865Y-125654329D01*
X168707548Y-125656000D01*
X169929885Y-125656000D01*
X169945124Y-125651525D01*
X169946329Y-125650135D01*
X169948000Y-125642452D01*
X169948000Y-125637885D01*
X170456000Y-125637885D01*
X170460475Y-125653124D01*
X170461865Y-125654329D01*
X170469548Y-125656000D01*
X171691884Y-125656000D01*
X171707123Y-125651525D01*
X171708328Y-125650135D01*
X171709999Y-125642452D01*
X171709999Y-125637885D01*
X174694000Y-125637885D01*
X174698475Y-125653124D01*
X174699865Y-125654329D01*
X174707548Y-125656000D01*
X175929885Y-125656000D01*
X175945124Y-125651525D01*
X175946329Y-125650135D01*
X175948000Y-125642452D01*
X175948000Y-125637885D01*
X176456000Y-125637885D01*
X176460475Y-125653124D01*
X176461865Y-125654329D01*
X176469548Y-125656000D01*
X177691884Y-125656000D01*
X177707123Y-125651525D01*
X177708328Y-125650135D01*
X177709999Y-125642452D01*
X177709999Y-125637885D01*
X188694000Y-125637885D01*
X188698475Y-125653124D01*
X188699865Y-125654329D01*
X188707548Y-125656000D01*
X189929885Y-125656000D01*
X189945124Y-125651525D01*
X189946329Y-125650135D01*
X189948000Y-125642452D01*
X189948000Y-125637885D01*
X190456000Y-125637885D01*
X190460475Y-125653124D01*
X190461865Y-125654329D01*
X190469548Y-125656000D01*
X191691884Y-125656000D01*
X191707123Y-125651525D01*
X191708328Y-125650135D01*
X191709999Y-125642452D01*
X191709999Y-125115331D01*
X191709629Y-125108510D01*
X191704105Y-125057648D01*
X191700479Y-125042396D01*
X191655324Y-124921946D01*
X191646786Y-124906351D01*
X191570285Y-124804276D01*
X191557724Y-124791715D01*
X191455649Y-124715214D01*
X191440054Y-124706676D01*
X191319606Y-124661522D01*
X191304351Y-124657895D01*
X191253486Y-124652369D01*
X191246672Y-124652000D01*
X190474115Y-124652000D01*
X190458876Y-124656475D01*
X190457671Y-124657865D01*
X190456000Y-124665548D01*
X190456000Y-125637885D01*
X189948000Y-125637885D01*
X189948000Y-124670116D01*
X189943525Y-124654877D01*
X189942135Y-124653672D01*
X189934452Y-124652001D01*
X189157331Y-124652001D01*
X189150510Y-124652371D01*
X189099648Y-124657895D01*
X189084396Y-124661521D01*
X188963946Y-124706676D01*
X188948351Y-124715214D01*
X188846276Y-124791715D01*
X188833715Y-124804276D01*
X188757214Y-124906351D01*
X188748676Y-124921946D01*
X188703522Y-125042394D01*
X188699895Y-125057649D01*
X188694369Y-125108514D01*
X188694000Y-125115328D01*
X188694000Y-125637885D01*
X177709999Y-125637885D01*
X177709999Y-125115331D01*
X177709629Y-125108510D01*
X177704105Y-125057648D01*
X177700479Y-125042396D01*
X177655324Y-124921946D01*
X177646786Y-124906351D01*
X177570285Y-124804276D01*
X177557724Y-124791715D01*
X177455649Y-124715214D01*
X177440054Y-124706676D01*
X177319606Y-124661522D01*
X177304351Y-124657895D01*
X177253486Y-124652369D01*
X177246672Y-124652000D01*
X176474115Y-124652000D01*
X176458876Y-124656475D01*
X176457671Y-124657865D01*
X176456000Y-124665548D01*
X176456000Y-125637885D01*
X175948000Y-125637885D01*
X175948000Y-124670116D01*
X175943525Y-124654877D01*
X175942135Y-124653672D01*
X175934452Y-124652001D01*
X175157331Y-124652001D01*
X175150510Y-124652371D01*
X175099648Y-124657895D01*
X175084396Y-124661521D01*
X174963946Y-124706676D01*
X174948351Y-124715214D01*
X174846276Y-124791715D01*
X174833715Y-124804276D01*
X174757214Y-124906351D01*
X174748676Y-124921946D01*
X174703522Y-125042394D01*
X174699895Y-125057649D01*
X174694369Y-125108514D01*
X174694000Y-125115328D01*
X174694000Y-125637885D01*
X171709999Y-125637885D01*
X171709999Y-125115331D01*
X171709629Y-125108510D01*
X171704105Y-125057648D01*
X171700479Y-125042396D01*
X171655324Y-124921946D01*
X171646786Y-124906351D01*
X171570285Y-124804276D01*
X171557724Y-124791715D01*
X171455649Y-124715214D01*
X171440054Y-124706676D01*
X171319606Y-124661522D01*
X171304351Y-124657895D01*
X171253486Y-124652369D01*
X171246672Y-124652000D01*
X170474115Y-124652000D01*
X170458876Y-124656475D01*
X170457671Y-124657865D01*
X170456000Y-124665548D01*
X170456000Y-125637885D01*
X169948000Y-125637885D01*
X169948000Y-124670116D01*
X169943525Y-124654877D01*
X169942135Y-124653672D01*
X169934452Y-124652001D01*
X169157331Y-124652001D01*
X169150510Y-124652371D01*
X169099648Y-124657895D01*
X169084396Y-124661521D01*
X168963946Y-124706676D01*
X168948351Y-124715214D01*
X168846276Y-124791715D01*
X168833715Y-124804276D01*
X168757214Y-124906351D01*
X168748676Y-124921946D01*
X168703522Y-125042394D01*
X168699895Y-125057649D01*
X168694369Y-125108514D01*
X168694000Y-125115328D01*
X168694000Y-125637885D01*
X157709999Y-125637885D01*
X157709999Y-125115331D01*
X157709629Y-125108510D01*
X157704105Y-125057648D01*
X157700479Y-125042396D01*
X157655324Y-124921946D01*
X157646786Y-124906351D01*
X157570285Y-124804276D01*
X157557724Y-124791715D01*
X157455649Y-124715214D01*
X157440054Y-124706676D01*
X157319606Y-124661522D01*
X157304351Y-124657895D01*
X157253486Y-124652369D01*
X157246672Y-124652000D01*
X156474115Y-124652000D01*
X156458876Y-124656475D01*
X156457671Y-124657865D01*
X156456000Y-124665548D01*
X156456000Y-125637885D01*
X155948000Y-125637885D01*
X155948000Y-124670116D01*
X155943525Y-124654877D01*
X155942135Y-124653672D01*
X155934452Y-124652001D01*
X155157331Y-124652001D01*
X155150510Y-124652371D01*
X155099648Y-124657895D01*
X155084396Y-124661521D01*
X154963946Y-124706676D01*
X154948351Y-124715214D01*
X154846276Y-124791715D01*
X154833715Y-124804276D01*
X154757214Y-124906351D01*
X154748676Y-124921946D01*
X154703522Y-125042394D01*
X154699895Y-125057649D01*
X154694369Y-125108514D01*
X154694000Y-125115328D01*
X154694000Y-125637885D01*
X151709999Y-125637885D01*
X151709999Y-125115331D01*
X151709629Y-125108510D01*
X151704105Y-125057648D01*
X151700479Y-125042396D01*
X151655324Y-124921946D01*
X151646786Y-124906351D01*
X151570285Y-124804276D01*
X151557724Y-124791715D01*
X151455649Y-124715214D01*
X151440054Y-124706676D01*
X151319606Y-124661522D01*
X151304351Y-124657895D01*
X151253486Y-124652369D01*
X151246672Y-124652000D01*
X150474115Y-124652000D01*
X150458876Y-124656475D01*
X150457671Y-124657865D01*
X150456000Y-124665548D01*
X150456000Y-125637885D01*
X149948000Y-125637885D01*
X149948000Y-124670116D01*
X149943525Y-124654877D01*
X149942135Y-124653672D01*
X149934452Y-124652001D01*
X149157331Y-124652001D01*
X149150510Y-124652371D01*
X149099648Y-124657895D01*
X149084396Y-124661521D01*
X148963946Y-124706676D01*
X148948351Y-124715214D01*
X148846276Y-124791715D01*
X148833715Y-124804276D01*
X148757214Y-124906351D01*
X148748676Y-124921946D01*
X148703522Y-125042394D01*
X148699895Y-125057649D01*
X148694369Y-125108514D01*
X148694000Y-125115328D01*
X148694000Y-125637885D01*
X137709999Y-125637885D01*
X137709999Y-125115331D01*
X137709629Y-125108510D01*
X137704105Y-125057648D01*
X137700479Y-125042396D01*
X137655324Y-124921946D01*
X137646786Y-124906351D01*
X137570285Y-124804276D01*
X137557724Y-124791715D01*
X137455649Y-124715214D01*
X137440054Y-124706676D01*
X137319606Y-124661522D01*
X137304351Y-124657895D01*
X137253486Y-124652369D01*
X137246672Y-124652000D01*
X136474115Y-124652000D01*
X136458876Y-124656475D01*
X136457671Y-124657865D01*
X136456000Y-124665548D01*
X136456000Y-125637885D01*
X135948000Y-125637885D01*
X135948000Y-124670116D01*
X135943525Y-124654877D01*
X135942135Y-124653672D01*
X135934452Y-124652001D01*
X135157331Y-124652001D01*
X135150510Y-124652371D01*
X135099648Y-124657895D01*
X135084396Y-124661521D01*
X134963946Y-124706676D01*
X134948351Y-124715214D01*
X134846276Y-124791715D01*
X134833715Y-124804276D01*
X134757214Y-124906351D01*
X134748676Y-124921946D01*
X134703522Y-125042394D01*
X134699895Y-125057649D01*
X134694369Y-125108514D01*
X134694000Y-125115328D01*
X134694000Y-125637885D01*
X131709999Y-125637885D01*
X131709999Y-125115331D01*
X131709629Y-125108510D01*
X131704105Y-125057648D01*
X131700479Y-125042396D01*
X131655324Y-124921946D01*
X131646786Y-124906351D01*
X131570285Y-124804276D01*
X131557724Y-124791715D01*
X131455649Y-124715214D01*
X131440054Y-124706676D01*
X131319606Y-124661522D01*
X131304351Y-124657895D01*
X131253486Y-124652369D01*
X131246672Y-124652000D01*
X130474115Y-124652000D01*
X130458876Y-124656475D01*
X130457671Y-124657865D01*
X130456000Y-124665548D01*
X130456000Y-125637885D01*
X129948000Y-125637885D01*
X129948000Y-124670116D01*
X129943525Y-124654877D01*
X129942135Y-124653672D01*
X129934452Y-124652001D01*
X129157331Y-124652001D01*
X129150510Y-124652371D01*
X129099648Y-124657895D01*
X129084396Y-124661521D01*
X128963946Y-124706676D01*
X128948351Y-124715214D01*
X128846276Y-124791715D01*
X128833715Y-124804276D01*
X128757214Y-124906351D01*
X128748676Y-124921946D01*
X128703522Y-125042394D01*
X128699895Y-125057649D01*
X128694369Y-125108514D01*
X128694000Y-125115328D01*
X128694000Y-125637885D01*
X117709999Y-125637885D01*
X117709999Y-125115331D01*
X117709629Y-125108510D01*
X117704105Y-125057648D01*
X117700479Y-125042396D01*
X117655324Y-124921946D01*
X117646786Y-124906351D01*
X117570285Y-124804276D01*
X117557724Y-124791715D01*
X117455649Y-124715214D01*
X117440054Y-124706676D01*
X117319606Y-124661522D01*
X117304351Y-124657895D01*
X117253486Y-124652369D01*
X117246672Y-124652000D01*
X116474115Y-124652000D01*
X116458876Y-124656475D01*
X116457671Y-124657865D01*
X116456000Y-124665548D01*
X116456000Y-125637885D01*
X115948000Y-125637885D01*
X115948000Y-124670116D01*
X115943525Y-124654877D01*
X115942135Y-124653672D01*
X115934452Y-124652001D01*
X115157331Y-124652001D01*
X115150510Y-124652371D01*
X115099648Y-124657895D01*
X115084396Y-124661521D01*
X114963946Y-124706676D01*
X114948351Y-124715214D01*
X114846276Y-124791715D01*
X114833715Y-124804276D01*
X114757214Y-124906351D01*
X114748676Y-124921946D01*
X114703522Y-125042394D01*
X114699895Y-125057649D01*
X114694369Y-125108514D01*
X114694000Y-125115328D01*
X114694000Y-125637885D01*
X94348536Y-125637885D01*
X94346815Y-125633295D01*
X94259461Y-125516739D01*
X94142905Y-125429385D01*
X94006516Y-125378255D01*
X93944334Y-125371500D01*
X92298066Y-125371500D01*
X92235884Y-125378255D01*
X92099495Y-125429385D01*
X91982939Y-125516739D01*
X91895585Y-125633295D01*
X91844455Y-125769684D01*
X91843602Y-125777540D01*
X91840172Y-125809108D01*
X91812930Y-125874670D01*
X91754566Y-125915096D01*
X91714909Y-125921500D01*
X90081239Y-125921500D01*
X90013118Y-125901498D01*
X89966625Y-125847842D01*
X89956521Y-125777568D01*
X89986015Y-125712988D01*
X89992144Y-125706405D01*
X91344934Y-124353615D01*
X91407246Y-124319589D01*
X91472963Y-124322876D01*
X91473685Y-124323110D01*
X91479712Y-124325794D01*
X91548738Y-124340466D01*
X91660056Y-124364128D01*
X91660061Y-124364128D01*
X91666513Y-124365500D01*
X91857487Y-124365500D01*
X91863939Y-124364128D01*
X91863944Y-124364128D01*
X91950887Y-124345647D01*
X92044288Y-124325794D01*
X92058225Y-124319589D01*
X92212722Y-124250803D01*
X92212724Y-124250802D01*
X92218752Y-124248118D01*
X92373253Y-124135866D01*
X92441428Y-124060150D01*
X92496621Y-123998852D01*
X92496622Y-123998851D01*
X92501040Y-123993944D01*
X92596527Y-123828556D01*
X92655542Y-123646928D01*
X92675504Y-123457000D01*
X92661858Y-123327169D01*
X92674630Y-123257333D01*
X92723132Y-123205486D01*
X92787168Y-123188000D01*
X92849085Y-123188000D01*
X92864324Y-123183525D01*
X92865529Y-123182135D01*
X92867200Y-123174452D01*
X92867200Y-123169884D01*
X93375200Y-123169884D01*
X93379675Y-123185123D01*
X93381065Y-123186328D01*
X93388748Y-123187999D01*
X93940869Y-123187999D01*
X93947690Y-123187629D01*
X93998552Y-123182105D01*
X94013804Y-123178479D01*
X94134254Y-123133324D01*
X94149849Y-123124786D01*
X94251924Y-123048285D01*
X94264485Y-123035724D01*
X94340986Y-122933649D01*
X94349524Y-122918054D01*
X94394678Y-122797606D01*
X94398305Y-122782351D01*
X94403831Y-122731486D01*
X94404200Y-122724672D01*
X94404200Y-122302115D01*
X94399725Y-122286876D01*
X94398335Y-122285671D01*
X94390652Y-122284000D01*
X93393315Y-122284000D01*
X93378076Y-122288475D01*
X93376871Y-122289865D01*
X93375200Y-122297548D01*
X93375200Y-123169884D01*
X92867200Y-123169884D01*
X92867200Y-122302115D01*
X92862725Y-122286876D01*
X92861335Y-122285671D01*
X92853652Y-122284000D01*
X91856316Y-122284000D01*
X91841077Y-122288475D01*
X91839872Y-122289865D01*
X91838201Y-122297548D01*
X91838201Y-122422500D01*
X91818199Y-122490621D01*
X91764543Y-122537114D01*
X91712201Y-122548500D01*
X91666513Y-122548500D01*
X91660061Y-122549872D01*
X91660056Y-122549872D01*
X91573112Y-122568353D01*
X91479712Y-122588206D01*
X91473682Y-122590891D01*
X91473681Y-122590891D01*
X91311278Y-122663197D01*
X91311276Y-122663198D01*
X91305248Y-122665882D01*
X91150747Y-122778134D01*
X91022960Y-122920056D01*
X91019658Y-122925776D01*
X91019656Y-122925778D01*
X90989176Y-122978570D01*
X90956763Y-123015531D01*
X90953561Y-123017988D01*
X90953559Y-123017990D01*
X90947013Y-123023013D01*
X90941990Y-123029559D01*
X90941987Y-123029562D01*
X90927548Y-123048379D01*
X90916681Y-123060770D01*
X88850766Y-125126685D01*
X88838375Y-125137552D01*
X88813013Y-125157013D01*
X88788526Y-125188925D01*
X88788523Y-125188928D01*
X88715476Y-125284124D01*
X88715476Y-125284125D01*
X88654162Y-125432150D01*
X88638500Y-125551115D01*
X88638500Y-125551120D01*
X88633250Y-125591000D01*
X88634328Y-125599188D01*
X88637422Y-125622690D01*
X88638500Y-125639136D01*
X88638500Y-125795500D01*
X88618498Y-125863621D01*
X88564842Y-125910114D01*
X88512500Y-125921500D01*
X87626116Y-125921500D01*
X87557995Y-125901498D01*
X87511502Y-125847842D01*
X87501398Y-125777568D01*
X87511010Y-125744250D01*
X87513225Y-125739275D01*
X87516527Y-125733556D01*
X87575542Y-125551928D01*
X87579241Y-125516739D01*
X87594814Y-125368565D01*
X87595504Y-125362000D01*
X87587230Y-125283281D01*
X87576232Y-125178635D01*
X87576232Y-125178633D01*
X87575542Y-125172072D01*
X87516527Y-124990444D01*
X87421040Y-124825056D01*
X87322864Y-124716020D01*
X87292146Y-124652013D01*
X87290500Y-124631710D01*
X87290500Y-124523239D01*
X87310502Y-124455118D01*
X87327405Y-124434144D01*
X88756144Y-123005405D01*
X88818456Y-122971379D01*
X88845239Y-122968500D01*
X88936487Y-122968500D01*
X88942939Y-122967128D01*
X88942944Y-122967128D01*
X89029887Y-122948647D01*
X89123288Y-122928794D01*
X89153942Y-122915146D01*
X89291722Y-122853803D01*
X89291724Y-122853802D01*
X89297752Y-122851118D01*
X89452253Y-122738866D01*
X89580040Y-122596944D01*
X89675527Y-122431556D01*
X89734542Y-122249928D01*
X89754504Y-122060000D01*
X89734542Y-121870072D01*
X89698090Y-121757885D01*
X91838200Y-121757885D01*
X91842675Y-121773124D01*
X91844065Y-121774329D01*
X91851748Y-121776000D01*
X92849085Y-121776000D01*
X92864324Y-121771525D01*
X92865529Y-121770135D01*
X92867200Y-121762452D01*
X92867200Y-121757885D01*
X93375200Y-121757885D01*
X93379675Y-121773124D01*
X93381065Y-121774329D01*
X93388748Y-121776000D01*
X94386084Y-121776000D01*
X94401323Y-121771525D01*
X94402528Y-121770135D01*
X94404199Y-121762452D01*
X94404199Y-121335331D01*
X94403829Y-121328510D01*
X94398305Y-121277648D01*
X94394679Y-121262396D01*
X94349524Y-121141946D01*
X94340986Y-121126351D01*
X94264485Y-121024276D01*
X94251924Y-121011715D01*
X94149849Y-120935214D01*
X94134254Y-120926676D01*
X94013806Y-120881522D01*
X93998551Y-120877895D01*
X93947686Y-120872369D01*
X93940872Y-120872000D01*
X93393315Y-120872000D01*
X93378076Y-120876475D01*
X93376871Y-120877865D01*
X93375200Y-120885548D01*
X93375200Y-121757885D01*
X92867200Y-121757885D01*
X92867200Y-120890116D01*
X92862725Y-120874877D01*
X92861335Y-120873672D01*
X92853652Y-120872001D01*
X92301531Y-120872001D01*
X92294710Y-120872371D01*
X92243848Y-120877895D01*
X92228596Y-120881521D01*
X92108146Y-120926676D01*
X92092551Y-120935214D01*
X91990476Y-121011715D01*
X91977915Y-121024276D01*
X91901414Y-121126351D01*
X91892876Y-121141946D01*
X91847722Y-121262394D01*
X91844095Y-121277649D01*
X91838569Y-121328514D01*
X91838200Y-121335328D01*
X91838200Y-121757885D01*
X89698090Y-121757885D01*
X89675527Y-121688444D01*
X89580040Y-121523056D01*
X89452253Y-121381134D01*
X89309819Y-121277649D01*
X89303094Y-121272763D01*
X89303093Y-121272762D01*
X89297752Y-121268882D01*
X89291724Y-121266198D01*
X89291722Y-121266197D01*
X89129319Y-121193891D01*
X89129318Y-121193891D01*
X89123288Y-121191206D01*
X89029888Y-121171353D01*
X88942944Y-121152872D01*
X88942939Y-121152872D01*
X88936487Y-121151500D01*
X88745513Y-121151500D01*
X88739061Y-121152872D01*
X88739056Y-121152872D01*
X88652112Y-121171353D01*
X88558712Y-121191206D01*
X88552682Y-121193891D01*
X88552681Y-121193891D01*
X88390278Y-121266197D01*
X88390276Y-121266198D01*
X88384248Y-121268882D01*
X88378907Y-121272762D01*
X88378906Y-121272763D01*
X88372181Y-121277649D01*
X88229747Y-121381134D01*
X88101960Y-121523056D01*
X88006473Y-121688444D01*
X87947458Y-121870072D01*
X87927496Y-122060000D01*
X87927684Y-122061786D01*
X87908184Y-122128196D01*
X87891281Y-122149170D01*
X86285766Y-123754685D01*
X86273375Y-123765552D01*
X86248013Y-123785013D01*
X86223526Y-123816925D01*
X86223523Y-123816928D01*
X86150476Y-123912124D01*
X86097117Y-124040944D01*
X86089162Y-124060150D01*
X86073500Y-124179115D01*
X86073500Y-124179120D01*
X86068250Y-124219000D01*
X86069328Y-124227188D01*
X86072422Y-124250690D01*
X86073500Y-124267136D01*
X86073500Y-124631710D01*
X86053498Y-124699831D01*
X86041136Y-124716020D01*
X85942960Y-124825056D01*
X85847473Y-124990444D01*
X85788458Y-125172072D01*
X85787768Y-125178633D01*
X85787768Y-125178635D01*
X85779356Y-125258671D01*
X85752343Y-125324328D01*
X85694121Y-125364957D01*
X85654046Y-125371500D01*
X84338066Y-125371500D01*
X84275884Y-125378255D01*
X84139495Y-125429385D01*
X84022939Y-125516739D01*
X83935585Y-125633295D01*
X83884455Y-125769684D01*
X83877700Y-125831866D01*
X83877700Y-127228134D01*
X81348500Y-127228134D01*
X81348500Y-122724669D01*
X83878201Y-122724669D01*
X83878571Y-122731490D01*
X83884095Y-122782352D01*
X83887721Y-122797604D01*
X83932876Y-122918054D01*
X83941414Y-122933649D01*
X84017915Y-123035724D01*
X84030476Y-123048285D01*
X84132551Y-123124786D01*
X84148146Y-123133324D01*
X84268594Y-123178478D01*
X84283849Y-123182105D01*
X84334714Y-123187631D01*
X84341528Y-123188000D01*
X84889085Y-123188000D01*
X84904324Y-123183525D01*
X84905529Y-123182135D01*
X84907200Y-123174452D01*
X84907200Y-123169884D01*
X85415200Y-123169884D01*
X85419675Y-123185123D01*
X85421065Y-123186328D01*
X85428748Y-123187999D01*
X85980869Y-123187999D01*
X85987690Y-123187629D01*
X86038552Y-123182105D01*
X86053804Y-123178479D01*
X86174254Y-123133324D01*
X86189849Y-123124786D01*
X86291924Y-123048285D01*
X86304485Y-123035724D01*
X86380986Y-122933649D01*
X86389524Y-122918054D01*
X86434678Y-122797606D01*
X86438305Y-122782351D01*
X86443831Y-122731486D01*
X86444200Y-122724672D01*
X86444200Y-122302115D01*
X86439725Y-122286876D01*
X86438335Y-122285671D01*
X86430652Y-122284000D01*
X85433315Y-122284000D01*
X85418076Y-122288475D01*
X85416871Y-122289865D01*
X85415200Y-122297548D01*
X85415200Y-123169884D01*
X84907200Y-123169884D01*
X84907200Y-122302115D01*
X84902725Y-122286876D01*
X84901335Y-122285671D01*
X84893652Y-122284000D01*
X83896316Y-122284000D01*
X83881077Y-122288475D01*
X83879872Y-122289865D01*
X83878201Y-122297548D01*
X83878201Y-122724669D01*
X81348500Y-122724669D01*
X81348500Y-121757885D01*
X83878200Y-121757885D01*
X83882675Y-121773124D01*
X83884065Y-121774329D01*
X83891748Y-121776000D01*
X84889085Y-121776000D01*
X84904324Y-121771525D01*
X84905529Y-121770135D01*
X84907200Y-121762452D01*
X84907200Y-121757885D01*
X85415200Y-121757885D01*
X85419675Y-121773124D01*
X85421065Y-121774329D01*
X85428748Y-121776000D01*
X86426084Y-121776000D01*
X86441323Y-121771525D01*
X86442528Y-121770135D01*
X86444199Y-121762452D01*
X86444199Y-121335331D01*
X86443829Y-121328510D01*
X86438305Y-121277648D01*
X86434679Y-121262396D01*
X86389524Y-121141946D01*
X86380986Y-121126351D01*
X86304485Y-121024276D01*
X86291924Y-121011715D01*
X86189849Y-120935214D01*
X86174254Y-120926676D01*
X86053806Y-120881522D01*
X86038551Y-120877895D01*
X85987686Y-120872369D01*
X85980872Y-120872000D01*
X85433315Y-120872000D01*
X85418076Y-120876475D01*
X85416871Y-120877865D01*
X85415200Y-120885548D01*
X85415200Y-121757885D01*
X84907200Y-121757885D01*
X84907200Y-120890116D01*
X84902725Y-120874877D01*
X84901335Y-120873672D01*
X84893652Y-120872001D01*
X84341531Y-120872001D01*
X84334710Y-120872371D01*
X84283848Y-120877895D01*
X84268596Y-120881521D01*
X84148146Y-120926676D01*
X84132551Y-120935214D01*
X84030476Y-121011715D01*
X84017915Y-121024276D01*
X83941414Y-121126351D01*
X83932876Y-121141946D01*
X83887722Y-121262394D01*
X83884095Y-121277649D01*
X83878569Y-121328514D01*
X83878200Y-121335328D01*
X83878200Y-121757885D01*
X81348500Y-121757885D01*
X81348500Y-117228134D01*
X83877700Y-117228134D01*
X83884455Y-117290316D01*
X83935585Y-117426705D01*
X84022939Y-117543261D01*
X84139495Y-117630615D01*
X84275884Y-117681745D01*
X84338066Y-117688500D01*
X85984334Y-117688500D01*
X86046516Y-117681745D01*
X86182905Y-117630615D01*
X86299461Y-117543261D01*
X86386815Y-117426705D01*
X86437945Y-117290316D01*
X86442228Y-117250892D01*
X86469470Y-117185330D01*
X86527834Y-117144904D01*
X86567491Y-117138500D01*
X89612864Y-117138500D01*
X89629311Y-117139578D01*
X89661000Y-117143750D01*
X89692693Y-117139578D01*
X89709136Y-117138500D01*
X91714909Y-117138500D01*
X91783030Y-117158502D01*
X91829523Y-117212158D01*
X91840172Y-117250892D01*
X91844455Y-117290316D01*
X91895585Y-117426705D01*
X91982939Y-117543261D01*
X92099495Y-117630615D01*
X92235884Y-117681745D01*
X92298066Y-117688500D01*
X93944334Y-117688500D01*
X94006516Y-117681745D01*
X94142905Y-117630615D01*
X94259461Y-117543261D01*
X94346815Y-117426705D01*
X94397945Y-117290316D01*
X94404700Y-117228134D01*
X94404700Y-115831866D01*
X94397945Y-115769684D01*
X94346815Y-115633295D01*
X94259461Y-115516739D01*
X94142905Y-115429385D01*
X94006516Y-115378255D01*
X93944334Y-115371500D01*
X92298066Y-115371500D01*
X92235884Y-115378255D01*
X92099495Y-115429385D01*
X91982939Y-115516739D01*
X91895585Y-115633295D01*
X91844455Y-115769684D01*
X91843602Y-115777540D01*
X91840172Y-115809108D01*
X91812930Y-115874670D01*
X91754566Y-115915096D01*
X91714909Y-115921500D01*
X90337500Y-115921500D01*
X90269379Y-115901498D01*
X90222886Y-115847842D01*
X90211500Y-115795500D01*
X90211500Y-113646290D01*
X90231502Y-113578169D01*
X90243864Y-113561980D01*
X90337621Y-113457852D01*
X90337622Y-113457851D01*
X90342040Y-113452944D01*
X90437527Y-113287556D01*
X90496542Y-113105928D01*
X90497558Y-113096267D01*
X90515814Y-112922565D01*
X90516504Y-112916000D01*
X90511408Y-112867517D01*
X90497232Y-112732635D01*
X90497232Y-112732633D01*
X90496542Y-112726072D01*
X90496086Y-112724669D01*
X91838201Y-112724669D01*
X91838571Y-112731490D01*
X91844095Y-112782352D01*
X91847721Y-112797604D01*
X91892876Y-112918054D01*
X91901414Y-112933649D01*
X91977915Y-113035724D01*
X91990476Y-113048285D01*
X92092551Y-113124786D01*
X92108146Y-113133324D01*
X92228594Y-113178478D01*
X92243849Y-113182105D01*
X92294714Y-113187631D01*
X92301528Y-113188000D01*
X92849085Y-113188000D01*
X92864324Y-113183525D01*
X92865529Y-113182135D01*
X92867200Y-113174452D01*
X92867200Y-113169884D01*
X93375200Y-113169884D01*
X93379675Y-113185123D01*
X93381065Y-113186328D01*
X93388748Y-113187999D01*
X93940869Y-113187999D01*
X93947690Y-113187629D01*
X93998552Y-113182105D01*
X94013804Y-113178479D01*
X94134254Y-113133324D01*
X94149849Y-113124786D01*
X94251924Y-113048285D01*
X94264485Y-113035724D01*
X94340986Y-112933649D01*
X94349524Y-112918054D01*
X94394678Y-112797606D01*
X94398305Y-112782351D01*
X94403831Y-112731486D01*
X94404200Y-112724672D01*
X94404200Y-112408000D01*
X208997278Y-112408000D01*
X209006313Y-112637960D01*
X209017357Y-112919045D01*
X209017646Y-112921488D01*
X209017647Y-112921499D01*
X209038699Y-113099365D01*
X209077470Y-113426939D01*
X209177247Y-113928552D01*
X209316072Y-114420789D01*
X209493090Y-114900617D01*
X209494120Y-114902852D01*
X209494122Y-114902856D01*
X209706172Y-115362829D01*
X209706179Y-115362842D01*
X209707209Y-115365077D01*
X209957110Y-115811306D01*
X210241250Y-116236552D01*
X210557879Y-116638194D01*
X210559556Y-116640009D01*
X210559561Y-116640014D01*
X210815919Y-116917341D01*
X210905044Y-117013756D01*
X210906843Y-117015419D01*
X211204226Y-117290316D01*
X211280606Y-117360921D01*
X211282549Y-117362453D01*
X211282554Y-117362457D01*
X211373168Y-117433891D01*
X211682248Y-117677550D01*
X211684309Y-117678927D01*
X211684313Y-117678930D01*
X211698636Y-117688500D01*
X212107494Y-117961690D01*
X212553723Y-118211591D01*
X212555958Y-118212621D01*
X212555971Y-118212628D01*
X213015944Y-118424678D01*
X213018183Y-118425710D01*
X213498011Y-118602728D01*
X213831697Y-118696837D01*
X213987868Y-118740882D01*
X213987873Y-118740883D01*
X213990248Y-118741553D01*
X214491861Y-118841330D01*
X214655781Y-118860731D01*
X214997301Y-118901153D01*
X214997312Y-118901154D01*
X214999755Y-118901443D01*
X215510800Y-118921522D01*
X216021845Y-118901443D01*
X216024288Y-118901154D01*
X216024299Y-118901153D01*
X216365820Y-118860731D01*
X216529739Y-118841330D01*
X217031352Y-118741553D01*
X217033727Y-118740883D01*
X217033732Y-118740882D01*
X217189903Y-118696837D01*
X217523589Y-118602728D01*
X218003417Y-118425710D01*
X218005656Y-118424678D01*
X218465629Y-118212628D01*
X218465642Y-118212621D01*
X218467877Y-118211591D01*
X218914106Y-117961690D01*
X219322964Y-117688500D01*
X219337287Y-117678930D01*
X219337291Y-117678927D01*
X219339352Y-117677550D01*
X219648432Y-117433891D01*
X219739046Y-117362457D01*
X219739051Y-117362453D01*
X219740994Y-117360921D01*
X219817375Y-117290316D01*
X220114757Y-117015419D01*
X220116556Y-117013756D01*
X220205681Y-116917341D01*
X220462039Y-116640014D01*
X220462044Y-116640009D01*
X220463721Y-116638194D01*
X220780350Y-116236552D01*
X221064490Y-115811306D01*
X221314391Y-115365077D01*
X221315421Y-115362842D01*
X221315428Y-115362829D01*
X221527478Y-114902856D01*
X221527480Y-114902852D01*
X221528510Y-114900617D01*
X221705528Y-114420789D01*
X221844353Y-113928552D01*
X221944130Y-113426939D01*
X221982901Y-113099365D01*
X222003953Y-112921499D01*
X222003954Y-112921488D01*
X222004243Y-112919045D01*
X222024322Y-112408000D01*
X222004243Y-111896955D01*
X221989730Y-111774329D01*
X221944420Y-111391513D01*
X221944130Y-111389061D01*
X221844353Y-110887448D01*
X221842682Y-110881521D01*
X221799637Y-110728897D01*
X221705528Y-110395211D01*
X221528510Y-109915383D01*
X221366177Y-109563255D01*
X221315428Y-109453171D01*
X221315421Y-109453158D01*
X221314391Y-109450923D01*
X221064490Y-109004694D01*
X220780350Y-108579448D01*
X220463721Y-108177806D01*
X220330656Y-108033856D01*
X220118219Y-107804043D01*
X220116556Y-107802244D01*
X219934298Y-107633767D01*
X219742814Y-107456761D01*
X219742809Y-107456756D01*
X219740994Y-107455079D01*
X219714118Y-107433891D01*
X219481984Y-107250892D01*
X219339352Y-107138450D01*
X219286214Y-107102944D01*
X219152755Y-107013770D01*
X218914106Y-106854310D01*
X218467877Y-106604409D01*
X218465642Y-106603379D01*
X218465629Y-106603372D01*
X218005656Y-106391322D01*
X218005652Y-106391320D01*
X218003417Y-106390290D01*
X217964878Y-106376072D01*
X217936803Y-106365715D01*
X217523589Y-106213272D01*
X217189903Y-106119163D01*
X217033732Y-106075118D01*
X217033727Y-106075117D01*
X217031352Y-106074447D01*
X216529739Y-105974670D01*
X216365819Y-105955269D01*
X216024299Y-105914847D01*
X216024288Y-105914846D01*
X216021845Y-105914557D01*
X215510800Y-105894478D01*
X214999755Y-105914557D01*
X214997312Y-105914846D01*
X214997301Y-105914847D01*
X214655781Y-105955269D01*
X214491861Y-105974670D01*
X213990248Y-106074447D01*
X213987873Y-106075117D01*
X213987868Y-106075118D01*
X213831697Y-106119163D01*
X213498011Y-106213272D01*
X213084797Y-106365715D01*
X213056723Y-106376072D01*
X213018183Y-106390290D01*
X213015948Y-106391320D01*
X213015944Y-106391322D01*
X212555971Y-106603372D01*
X212555958Y-106603379D01*
X212553723Y-106604409D01*
X212107494Y-106854310D01*
X211868845Y-107013770D01*
X211735387Y-107102944D01*
X211682248Y-107138450D01*
X211539616Y-107250892D01*
X211307483Y-107433891D01*
X211280606Y-107455079D01*
X211278791Y-107456756D01*
X211278786Y-107456761D01*
X211087302Y-107633767D01*
X210905044Y-107802244D01*
X210903381Y-107804043D01*
X210690945Y-108033856D01*
X210557879Y-108177806D01*
X210241250Y-108579448D01*
X209957110Y-109004694D01*
X209707209Y-109450923D01*
X209706179Y-109453158D01*
X209706172Y-109453171D01*
X209655423Y-109563255D01*
X209493090Y-109915383D01*
X209316072Y-110395211D01*
X209221963Y-110728897D01*
X209178919Y-110881521D01*
X209177247Y-110887448D01*
X209077470Y-111389061D01*
X209077180Y-111391513D01*
X209031871Y-111774329D01*
X209017357Y-111896955D01*
X208997278Y-112408000D01*
X94404200Y-112408000D01*
X94404200Y-112302115D01*
X94399725Y-112286876D01*
X94398335Y-112285671D01*
X94390652Y-112284000D01*
X93393315Y-112284000D01*
X93378076Y-112288475D01*
X93376871Y-112289865D01*
X93375200Y-112297548D01*
X93375200Y-113169884D01*
X92867200Y-113169884D01*
X92867200Y-112302115D01*
X92862725Y-112286876D01*
X92861335Y-112285671D01*
X92853652Y-112284000D01*
X91856316Y-112284000D01*
X91841077Y-112288475D01*
X91839872Y-112289865D01*
X91838201Y-112297548D01*
X91838201Y-112724669D01*
X90496086Y-112724669D01*
X90437527Y-112544444D01*
X90342040Y-112379056D01*
X90214253Y-112237134D01*
X90059752Y-112124882D01*
X90053724Y-112122198D01*
X90053722Y-112122197D01*
X89891319Y-112049891D01*
X89891318Y-112049891D01*
X89885288Y-112047206D01*
X89791887Y-112027353D01*
X89704944Y-112008872D01*
X89704939Y-112008872D01*
X89698487Y-112007500D01*
X89507513Y-112007500D01*
X89501061Y-112008872D01*
X89501056Y-112008872D01*
X89414113Y-112027353D01*
X89320712Y-112047206D01*
X89314682Y-112049891D01*
X89314681Y-112049891D01*
X89152278Y-112122197D01*
X89152276Y-112122198D01*
X89146248Y-112124882D01*
X88991747Y-112237134D01*
X88863960Y-112379056D01*
X88768473Y-112544444D01*
X88709458Y-112726072D01*
X88708768Y-112732633D01*
X88708768Y-112732635D01*
X88694592Y-112867517D01*
X88689496Y-112916000D01*
X88690186Y-112922565D01*
X88708443Y-113096267D01*
X88709458Y-113105928D01*
X88768473Y-113287556D01*
X88863960Y-113452944D01*
X88868378Y-113457851D01*
X88868379Y-113457852D01*
X88962136Y-113561980D01*
X88992854Y-113625987D01*
X88994500Y-113646290D01*
X88994500Y-115795500D01*
X88974498Y-115863621D01*
X88920842Y-115910114D01*
X88868500Y-115921500D01*
X86567491Y-115921500D01*
X86499370Y-115901498D01*
X86452877Y-115847842D01*
X86442228Y-115809108D01*
X86438798Y-115777540D01*
X86437945Y-115769684D01*
X86386815Y-115633295D01*
X86299461Y-115516739D01*
X86182905Y-115429385D01*
X86046516Y-115378255D01*
X85984334Y-115371500D01*
X84338066Y-115371500D01*
X84275884Y-115378255D01*
X84139495Y-115429385D01*
X84022939Y-115516739D01*
X83935585Y-115633295D01*
X83884455Y-115769684D01*
X83877700Y-115831866D01*
X83877700Y-117228134D01*
X81348500Y-117228134D01*
X81348500Y-112724669D01*
X83878201Y-112724669D01*
X83878571Y-112731490D01*
X83884095Y-112782352D01*
X83887721Y-112797604D01*
X83932876Y-112918054D01*
X83941414Y-112933649D01*
X84017915Y-113035724D01*
X84030476Y-113048285D01*
X84132551Y-113124786D01*
X84148146Y-113133324D01*
X84268594Y-113178478D01*
X84283849Y-113182105D01*
X84334714Y-113187631D01*
X84341528Y-113188000D01*
X84889085Y-113188000D01*
X84904324Y-113183525D01*
X84905529Y-113182135D01*
X84907200Y-113174452D01*
X84907200Y-113169884D01*
X85415200Y-113169884D01*
X85419675Y-113185123D01*
X85421065Y-113186328D01*
X85428748Y-113187999D01*
X85980869Y-113187999D01*
X85987690Y-113187629D01*
X86038552Y-113182105D01*
X86053804Y-113178479D01*
X86174254Y-113133324D01*
X86189849Y-113124786D01*
X86291924Y-113048285D01*
X86304485Y-113035724D01*
X86380986Y-112933649D01*
X86389524Y-112918054D01*
X86434678Y-112797606D01*
X86438305Y-112782351D01*
X86443831Y-112731486D01*
X86444200Y-112724672D01*
X86444200Y-112302115D01*
X86439725Y-112286876D01*
X86438335Y-112285671D01*
X86430652Y-112284000D01*
X85433315Y-112284000D01*
X85418076Y-112288475D01*
X85416871Y-112289865D01*
X85415200Y-112297548D01*
X85415200Y-113169884D01*
X84907200Y-113169884D01*
X84907200Y-112302115D01*
X84902725Y-112286876D01*
X84901335Y-112285671D01*
X84893652Y-112284000D01*
X83896316Y-112284000D01*
X83881077Y-112288475D01*
X83879872Y-112289865D01*
X83878201Y-112297548D01*
X83878201Y-112724669D01*
X81348500Y-112724669D01*
X81348500Y-111757885D01*
X83878200Y-111757885D01*
X83882675Y-111773124D01*
X83884065Y-111774329D01*
X83891748Y-111776000D01*
X84889085Y-111776000D01*
X84904324Y-111771525D01*
X84905529Y-111770135D01*
X84907200Y-111762452D01*
X84907200Y-111757885D01*
X85415200Y-111757885D01*
X85419675Y-111773124D01*
X85421065Y-111774329D01*
X85428748Y-111776000D01*
X86426084Y-111776000D01*
X86441323Y-111771525D01*
X86442528Y-111770135D01*
X86444199Y-111762452D01*
X86444199Y-111757885D01*
X91838200Y-111757885D01*
X91842675Y-111773124D01*
X91844065Y-111774329D01*
X91851748Y-111776000D01*
X92849085Y-111776000D01*
X92864324Y-111771525D01*
X92865529Y-111770135D01*
X92867200Y-111762452D01*
X92867200Y-111757885D01*
X93375200Y-111757885D01*
X93379675Y-111773124D01*
X93381065Y-111774329D01*
X93388748Y-111776000D01*
X94386084Y-111776000D01*
X94401323Y-111771525D01*
X94402528Y-111770135D01*
X94404199Y-111762452D01*
X94404199Y-111335331D01*
X94403829Y-111328510D01*
X94398305Y-111277648D01*
X94394679Y-111262396D01*
X94349524Y-111141946D01*
X94340986Y-111126351D01*
X94264485Y-111024276D01*
X94251924Y-111011715D01*
X94149849Y-110935214D01*
X94134254Y-110926676D01*
X94013806Y-110881522D01*
X93998551Y-110877895D01*
X93947686Y-110872369D01*
X93940872Y-110872000D01*
X93393315Y-110872000D01*
X93378076Y-110876475D01*
X93376871Y-110877865D01*
X93375200Y-110885548D01*
X93375200Y-111757885D01*
X92867200Y-111757885D01*
X92867200Y-110890116D01*
X92862725Y-110874877D01*
X92861335Y-110873672D01*
X92853652Y-110872001D01*
X92301531Y-110872001D01*
X92294710Y-110872371D01*
X92243848Y-110877895D01*
X92228596Y-110881521D01*
X92108146Y-110926676D01*
X92092551Y-110935214D01*
X91990476Y-111011715D01*
X91977915Y-111024276D01*
X91901414Y-111126351D01*
X91892876Y-111141946D01*
X91847722Y-111262394D01*
X91844095Y-111277649D01*
X91838569Y-111328514D01*
X91838200Y-111335328D01*
X91838200Y-111757885D01*
X86444199Y-111757885D01*
X86444199Y-111335331D01*
X86443829Y-111328510D01*
X86438305Y-111277648D01*
X86434679Y-111262396D01*
X86389524Y-111141946D01*
X86380986Y-111126351D01*
X86304485Y-111024276D01*
X86291924Y-111011715D01*
X86189849Y-110935214D01*
X86174254Y-110926676D01*
X86053806Y-110881522D01*
X86038551Y-110877895D01*
X85987686Y-110872369D01*
X85980872Y-110872000D01*
X85433315Y-110872000D01*
X85418076Y-110876475D01*
X85416871Y-110877865D01*
X85415200Y-110885548D01*
X85415200Y-111757885D01*
X84907200Y-111757885D01*
X84907200Y-110890116D01*
X84902725Y-110874877D01*
X84901335Y-110873672D01*
X84893652Y-110872001D01*
X84341531Y-110872001D01*
X84334710Y-110872371D01*
X84283848Y-110877895D01*
X84268596Y-110881521D01*
X84148146Y-110926676D01*
X84132551Y-110935214D01*
X84030476Y-111011715D01*
X84017915Y-111024276D01*
X83941414Y-111126351D01*
X83932876Y-111141946D01*
X83887722Y-111262394D01*
X83884095Y-111277649D01*
X83878569Y-111328514D01*
X83878200Y-111335328D01*
X83878200Y-111757885D01*
X81348500Y-111757885D01*
X81348500Y-106566000D01*
X82046996Y-106566000D01*
X82066958Y-106755928D01*
X82125973Y-106937556D01*
X82221460Y-107102944D01*
X82225878Y-107107851D01*
X82225879Y-107107852D01*
X82331105Y-107224717D01*
X82349247Y-107244866D01*
X82503748Y-107357118D01*
X82509776Y-107359802D01*
X82509778Y-107359803D01*
X82672181Y-107432109D01*
X82678212Y-107434794D01*
X82766419Y-107453543D01*
X82858556Y-107473128D01*
X82858561Y-107473128D01*
X82865013Y-107474500D01*
X83055987Y-107474500D01*
X83062439Y-107473128D01*
X83062444Y-107473128D01*
X83154581Y-107453543D01*
X83242788Y-107434794D01*
X83248819Y-107432109D01*
X83411222Y-107359803D01*
X83411224Y-107359802D01*
X83417252Y-107357118D01*
X83571753Y-107244866D01*
X83629989Y-107180188D01*
X83690432Y-107142950D01*
X83723623Y-107138500D01*
X83754909Y-107138500D01*
X83823030Y-107158502D01*
X83869523Y-107212158D01*
X83880172Y-107250892D01*
X83884455Y-107290316D01*
X83935585Y-107426705D01*
X84022939Y-107543261D01*
X84139495Y-107630615D01*
X84275884Y-107681745D01*
X84338066Y-107688500D01*
X85984334Y-107688500D01*
X86046516Y-107681745D01*
X86182905Y-107630615D01*
X86299461Y-107543261D01*
X86386815Y-107426705D01*
X86437945Y-107290316D01*
X86442228Y-107250892D01*
X86469470Y-107185330D01*
X86527834Y-107144904D01*
X86567491Y-107138500D01*
X91714909Y-107138500D01*
X91783030Y-107158502D01*
X91829523Y-107212158D01*
X91840172Y-107250892D01*
X91844455Y-107290316D01*
X91895585Y-107426705D01*
X91982939Y-107543261D01*
X92099495Y-107630615D01*
X92235884Y-107681745D01*
X92298066Y-107688500D01*
X93944334Y-107688500D01*
X94006516Y-107681745D01*
X94142905Y-107630615D01*
X94259461Y-107543261D01*
X94346815Y-107426705D01*
X94397945Y-107290316D01*
X94404700Y-107228134D01*
X94404700Y-105831866D01*
X94397945Y-105769684D01*
X94346815Y-105633295D01*
X94259461Y-105516739D01*
X94142905Y-105429385D01*
X94006516Y-105378255D01*
X93944334Y-105371500D01*
X92298066Y-105371500D01*
X92235884Y-105378255D01*
X92099495Y-105429385D01*
X91982939Y-105516739D01*
X91895585Y-105633295D01*
X91844455Y-105769684D01*
X91843602Y-105777540D01*
X91840172Y-105809108D01*
X91812930Y-105874670D01*
X91754566Y-105915096D01*
X91714909Y-105921500D01*
X90210500Y-105921500D01*
X90142379Y-105901498D01*
X90095886Y-105847842D01*
X90084500Y-105795500D01*
X90084500Y-105264290D01*
X90104502Y-105196169D01*
X90116864Y-105179980D01*
X90210621Y-105075852D01*
X90210622Y-105075851D01*
X90215040Y-105070944D01*
X90310527Y-104905556D01*
X90351106Y-104780669D01*
X114694001Y-104780669D01*
X114694371Y-104787490D01*
X114699895Y-104838352D01*
X114703521Y-104853604D01*
X114748676Y-104974054D01*
X114757214Y-104989649D01*
X114833715Y-105091724D01*
X114846276Y-105104285D01*
X114948351Y-105180786D01*
X114963946Y-105189324D01*
X115084394Y-105234478D01*
X115099649Y-105238105D01*
X115150514Y-105243631D01*
X115157328Y-105244000D01*
X115929885Y-105244000D01*
X115945124Y-105239525D01*
X115946329Y-105238135D01*
X115948000Y-105230452D01*
X115948000Y-105225884D01*
X116456000Y-105225884D01*
X116460475Y-105241123D01*
X116461865Y-105242328D01*
X116469548Y-105243999D01*
X117246669Y-105243999D01*
X117253490Y-105243629D01*
X117304352Y-105238105D01*
X117319604Y-105234479D01*
X117440054Y-105189324D01*
X117455649Y-105180786D01*
X117557724Y-105104285D01*
X117570285Y-105091724D01*
X117646786Y-104989649D01*
X117655324Y-104974054D01*
X117700478Y-104853606D01*
X117704105Y-104838351D01*
X117709631Y-104787486D01*
X117710000Y-104780672D01*
X117710000Y-104780669D01*
X128694001Y-104780669D01*
X128694371Y-104787490D01*
X128699895Y-104838352D01*
X128703521Y-104853604D01*
X128748676Y-104974054D01*
X128757214Y-104989649D01*
X128833715Y-105091724D01*
X128846276Y-105104285D01*
X128948351Y-105180786D01*
X128963946Y-105189324D01*
X129084394Y-105234478D01*
X129099649Y-105238105D01*
X129150514Y-105243631D01*
X129157328Y-105244000D01*
X129929885Y-105244000D01*
X129945124Y-105239525D01*
X129946329Y-105238135D01*
X129948000Y-105230452D01*
X129948000Y-105225884D01*
X130456000Y-105225884D01*
X130460475Y-105241123D01*
X130461865Y-105242328D01*
X130469548Y-105243999D01*
X131246669Y-105243999D01*
X131253490Y-105243629D01*
X131304352Y-105238105D01*
X131319604Y-105234479D01*
X131440054Y-105189324D01*
X131455649Y-105180786D01*
X131557724Y-105104285D01*
X131570285Y-105091724D01*
X131646786Y-104989649D01*
X131655324Y-104974054D01*
X131700478Y-104853606D01*
X131704105Y-104838351D01*
X131709631Y-104787486D01*
X131710000Y-104780672D01*
X131710000Y-104780669D01*
X134694001Y-104780669D01*
X134694371Y-104787490D01*
X134699895Y-104838352D01*
X134703521Y-104853604D01*
X134748676Y-104974054D01*
X134757214Y-104989649D01*
X134833715Y-105091724D01*
X134846276Y-105104285D01*
X134948351Y-105180786D01*
X134963946Y-105189324D01*
X135084394Y-105234478D01*
X135099649Y-105238105D01*
X135150514Y-105243631D01*
X135157328Y-105244000D01*
X135929885Y-105244000D01*
X135945124Y-105239525D01*
X135946329Y-105238135D01*
X135948000Y-105230452D01*
X135948000Y-105225884D01*
X136456000Y-105225884D01*
X136460475Y-105241123D01*
X136461865Y-105242328D01*
X136469548Y-105243999D01*
X137246669Y-105243999D01*
X137253490Y-105243629D01*
X137304352Y-105238105D01*
X137319604Y-105234479D01*
X137440054Y-105189324D01*
X137455649Y-105180786D01*
X137557724Y-105104285D01*
X137570285Y-105091724D01*
X137646786Y-104989649D01*
X137655324Y-104974054D01*
X137700478Y-104853606D01*
X137704105Y-104838351D01*
X137709631Y-104787486D01*
X137710000Y-104780672D01*
X137710000Y-104780669D01*
X148694001Y-104780669D01*
X148694371Y-104787490D01*
X148699895Y-104838352D01*
X148703521Y-104853604D01*
X148748676Y-104974054D01*
X148757214Y-104989649D01*
X148833715Y-105091724D01*
X148846276Y-105104285D01*
X148948351Y-105180786D01*
X148963946Y-105189324D01*
X149084394Y-105234478D01*
X149099649Y-105238105D01*
X149150514Y-105243631D01*
X149157328Y-105244000D01*
X149929885Y-105244000D01*
X149945124Y-105239525D01*
X149946329Y-105238135D01*
X149948000Y-105230452D01*
X149948000Y-105225884D01*
X150456000Y-105225884D01*
X150460475Y-105241123D01*
X150461865Y-105242328D01*
X150469548Y-105243999D01*
X151246669Y-105243999D01*
X151253490Y-105243629D01*
X151304352Y-105238105D01*
X151319604Y-105234479D01*
X151440054Y-105189324D01*
X151455649Y-105180786D01*
X151557724Y-105104285D01*
X151570285Y-105091724D01*
X151646786Y-104989649D01*
X151655324Y-104974054D01*
X151700478Y-104853606D01*
X151704105Y-104838351D01*
X151709631Y-104787486D01*
X151710000Y-104780672D01*
X151710000Y-104780669D01*
X154694001Y-104780669D01*
X154694371Y-104787490D01*
X154699895Y-104838352D01*
X154703521Y-104853604D01*
X154748676Y-104974054D01*
X154757214Y-104989649D01*
X154833715Y-105091724D01*
X154846276Y-105104285D01*
X154948351Y-105180786D01*
X154963946Y-105189324D01*
X155084394Y-105234478D01*
X155099649Y-105238105D01*
X155150514Y-105243631D01*
X155157328Y-105244000D01*
X155929885Y-105244000D01*
X155945124Y-105239525D01*
X155946329Y-105238135D01*
X155948000Y-105230452D01*
X155948000Y-105225884D01*
X156456000Y-105225884D01*
X156460475Y-105241123D01*
X156461865Y-105242328D01*
X156469548Y-105243999D01*
X157246669Y-105243999D01*
X157253490Y-105243629D01*
X157304352Y-105238105D01*
X157319604Y-105234479D01*
X157440054Y-105189324D01*
X157455649Y-105180786D01*
X157557724Y-105104285D01*
X157570285Y-105091724D01*
X157646786Y-104989649D01*
X157655324Y-104974054D01*
X157700478Y-104853606D01*
X157704105Y-104838351D01*
X157709631Y-104787486D01*
X157710000Y-104780672D01*
X157710000Y-104780669D01*
X168694001Y-104780669D01*
X168694371Y-104787490D01*
X168699895Y-104838352D01*
X168703521Y-104853604D01*
X168748676Y-104974054D01*
X168757214Y-104989649D01*
X168833715Y-105091724D01*
X168846276Y-105104285D01*
X168948351Y-105180786D01*
X168963946Y-105189324D01*
X169084394Y-105234478D01*
X169099649Y-105238105D01*
X169150514Y-105243631D01*
X169157328Y-105244000D01*
X169929885Y-105244000D01*
X169945124Y-105239525D01*
X169946329Y-105238135D01*
X169948000Y-105230452D01*
X169948000Y-105225884D01*
X170456000Y-105225884D01*
X170460475Y-105241123D01*
X170461865Y-105242328D01*
X170469548Y-105243999D01*
X171246669Y-105243999D01*
X171253490Y-105243629D01*
X171304352Y-105238105D01*
X171319604Y-105234479D01*
X171440054Y-105189324D01*
X171455649Y-105180786D01*
X171557724Y-105104285D01*
X171570285Y-105091724D01*
X171646786Y-104989649D01*
X171655324Y-104974054D01*
X171700478Y-104853606D01*
X171704105Y-104838351D01*
X171709631Y-104787486D01*
X171710000Y-104780672D01*
X171710000Y-104780669D01*
X174694001Y-104780669D01*
X174694371Y-104787490D01*
X174699895Y-104838352D01*
X174703521Y-104853604D01*
X174748676Y-104974054D01*
X174757214Y-104989649D01*
X174833715Y-105091724D01*
X174846276Y-105104285D01*
X174948351Y-105180786D01*
X174963946Y-105189324D01*
X175084394Y-105234478D01*
X175099649Y-105238105D01*
X175150514Y-105243631D01*
X175157328Y-105244000D01*
X175929885Y-105244000D01*
X175945124Y-105239525D01*
X175946329Y-105238135D01*
X175948000Y-105230452D01*
X175948000Y-105225884D01*
X176456000Y-105225884D01*
X176460475Y-105241123D01*
X176461865Y-105242328D01*
X176469548Y-105243999D01*
X177246669Y-105243999D01*
X177253490Y-105243629D01*
X177304352Y-105238105D01*
X177319604Y-105234479D01*
X177440054Y-105189324D01*
X177455649Y-105180786D01*
X177557724Y-105104285D01*
X177570285Y-105091724D01*
X177646786Y-104989649D01*
X177655324Y-104974054D01*
X177700478Y-104853606D01*
X177704105Y-104838351D01*
X177709631Y-104787486D01*
X177710000Y-104780672D01*
X177710000Y-104780669D01*
X188694001Y-104780669D01*
X188694371Y-104787490D01*
X188699895Y-104838352D01*
X188703521Y-104853604D01*
X188748676Y-104974054D01*
X188757214Y-104989649D01*
X188833715Y-105091724D01*
X188846276Y-105104285D01*
X188948351Y-105180786D01*
X188963946Y-105189324D01*
X189084394Y-105234478D01*
X189099649Y-105238105D01*
X189150514Y-105243631D01*
X189157328Y-105244000D01*
X189929885Y-105244000D01*
X189945124Y-105239525D01*
X189946329Y-105238135D01*
X189948000Y-105230452D01*
X189948000Y-105225884D01*
X190456000Y-105225884D01*
X190460475Y-105241123D01*
X190461865Y-105242328D01*
X190469548Y-105243999D01*
X191246669Y-105243999D01*
X191253490Y-105243629D01*
X191304352Y-105238105D01*
X191319604Y-105234479D01*
X191440054Y-105189324D01*
X191455649Y-105180786D01*
X191557724Y-105104285D01*
X191570285Y-105091724D01*
X191646786Y-104989649D01*
X191655324Y-104974054D01*
X191700478Y-104853606D01*
X191704105Y-104838351D01*
X191709631Y-104787486D01*
X191710000Y-104780672D01*
X191710000Y-104258115D01*
X191705525Y-104242876D01*
X191704135Y-104241671D01*
X191696452Y-104240000D01*
X190474115Y-104240000D01*
X190458876Y-104244475D01*
X190457671Y-104245865D01*
X190456000Y-104253548D01*
X190456000Y-105225884D01*
X189948000Y-105225884D01*
X189948000Y-104258115D01*
X189943525Y-104242876D01*
X189942135Y-104241671D01*
X189934452Y-104240000D01*
X188712116Y-104240000D01*
X188696877Y-104244475D01*
X188695672Y-104245865D01*
X188694001Y-104253548D01*
X188694001Y-104780669D01*
X177710000Y-104780669D01*
X177710000Y-104258115D01*
X177705525Y-104242876D01*
X177704135Y-104241671D01*
X177696452Y-104240000D01*
X176474115Y-104240000D01*
X176458876Y-104244475D01*
X176457671Y-104245865D01*
X176456000Y-104253548D01*
X176456000Y-105225884D01*
X175948000Y-105225884D01*
X175948000Y-104258115D01*
X175943525Y-104242876D01*
X175942135Y-104241671D01*
X175934452Y-104240000D01*
X174712116Y-104240000D01*
X174696877Y-104244475D01*
X174695672Y-104245865D01*
X174694001Y-104253548D01*
X174694001Y-104780669D01*
X171710000Y-104780669D01*
X171710000Y-104258115D01*
X171705525Y-104242876D01*
X171704135Y-104241671D01*
X171696452Y-104240000D01*
X170474115Y-104240000D01*
X170458876Y-104244475D01*
X170457671Y-104245865D01*
X170456000Y-104253548D01*
X170456000Y-105225884D01*
X169948000Y-105225884D01*
X169948000Y-104258115D01*
X169943525Y-104242876D01*
X169942135Y-104241671D01*
X169934452Y-104240000D01*
X168712116Y-104240000D01*
X168696877Y-104244475D01*
X168695672Y-104245865D01*
X168694001Y-104253548D01*
X168694001Y-104780669D01*
X157710000Y-104780669D01*
X157710000Y-104258115D01*
X157705525Y-104242876D01*
X157704135Y-104241671D01*
X157696452Y-104240000D01*
X156474115Y-104240000D01*
X156458876Y-104244475D01*
X156457671Y-104245865D01*
X156456000Y-104253548D01*
X156456000Y-105225884D01*
X155948000Y-105225884D01*
X155948000Y-104258115D01*
X155943525Y-104242876D01*
X155942135Y-104241671D01*
X155934452Y-104240000D01*
X154712116Y-104240000D01*
X154696877Y-104244475D01*
X154695672Y-104245865D01*
X154694001Y-104253548D01*
X154694001Y-104780669D01*
X151710000Y-104780669D01*
X151710000Y-104258115D01*
X151705525Y-104242876D01*
X151704135Y-104241671D01*
X151696452Y-104240000D01*
X150474115Y-104240000D01*
X150458876Y-104244475D01*
X150457671Y-104245865D01*
X150456000Y-104253548D01*
X150456000Y-105225884D01*
X149948000Y-105225884D01*
X149948000Y-104258115D01*
X149943525Y-104242876D01*
X149942135Y-104241671D01*
X149934452Y-104240000D01*
X148712116Y-104240000D01*
X148696877Y-104244475D01*
X148695672Y-104245865D01*
X148694001Y-104253548D01*
X148694001Y-104780669D01*
X137710000Y-104780669D01*
X137710000Y-104258115D01*
X137705525Y-104242876D01*
X137704135Y-104241671D01*
X137696452Y-104240000D01*
X136474115Y-104240000D01*
X136458876Y-104244475D01*
X136457671Y-104245865D01*
X136456000Y-104253548D01*
X136456000Y-105225884D01*
X135948000Y-105225884D01*
X135948000Y-104258115D01*
X135943525Y-104242876D01*
X135942135Y-104241671D01*
X135934452Y-104240000D01*
X134712116Y-104240000D01*
X134696877Y-104244475D01*
X134695672Y-104245865D01*
X134694001Y-104253548D01*
X134694001Y-104780669D01*
X131710000Y-104780669D01*
X131710000Y-104258115D01*
X131705525Y-104242876D01*
X131704135Y-104241671D01*
X131696452Y-104240000D01*
X130474115Y-104240000D01*
X130458876Y-104244475D01*
X130457671Y-104245865D01*
X130456000Y-104253548D01*
X130456000Y-105225884D01*
X129948000Y-105225884D01*
X129948000Y-104258115D01*
X129943525Y-104242876D01*
X129942135Y-104241671D01*
X129934452Y-104240000D01*
X128712116Y-104240000D01*
X128696877Y-104244475D01*
X128695672Y-104245865D01*
X128694001Y-104253548D01*
X128694001Y-104780669D01*
X117710000Y-104780669D01*
X117710000Y-104258115D01*
X117705525Y-104242876D01*
X117704135Y-104241671D01*
X117696452Y-104240000D01*
X116474115Y-104240000D01*
X116458876Y-104244475D01*
X116457671Y-104245865D01*
X116456000Y-104253548D01*
X116456000Y-105225884D01*
X115948000Y-105225884D01*
X115948000Y-104258115D01*
X115943525Y-104242876D01*
X115942135Y-104241671D01*
X115934452Y-104240000D01*
X114712116Y-104240000D01*
X114696877Y-104244475D01*
X114695672Y-104245865D01*
X114694001Y-104253548D01*
X114694001Y-104780669D01*
X90351106Y-104780669D01*
X90369542Y-104723928D01*
X90389504Y-104534000D01*
X90369542Y-104344072D01*
X90310527Y-104162444D01*
X90215040Y-103997056D01*
X90087253Y-103855134D01*
X89932752Y-103742882D01*
X89926724Y-103740198D01*
X89926722Y-103740197D01*
X89867624Y-103713885D01*
X114694000Y-103713885D01*
X114698475Y-103729124D01*
X114699865Y-103730329D01*
X114707548Y-103732000D01*
X115929885Y-103732000D01*
X115945124Y-103727525D01*
X115946329Y-103726135D01*
X115948000Y-103718452D01*
X115948000Y-103713885D01*
X116456000Y-103713885D01*
X116460475Y-103729124D01*
X116461865Y-103730329D01*
X116469548Y-103732000D01*
X117691884Y-103732000D01*
X117707123Y-103727525D01*
X117708328Y-103726135D01*
X117709999Y-103718452D01*
X117709999Y-103713885D01*
X128694000Y-103713885D01*
X128698475Y-103729124D01*
X128699865Y-103730329D01*
X128707548Y-103732000D01*
X129929885Y-103732000D01*
X129945124Y-103727525D01*
X129946329Y-103726135D01*
X129948000Y-103718452D01*
X129948000Y-103713885D01*
X130456000Y-103713885D01*
X130460475Y-103729124D01*
X130461865Y-103730329D01*
X130469548Y-103732000D01*
X131691884Y-103732000D01*
X131707123Y-103727525D01*
X131708328Y-103726135D01*
X131709999Y-103718452D01*
X131709999Y-103713885D01*
X134694000Y-103713885D01*
X134698475Y-103729124D01*
X134699865Y-103730329D01*
X134707548Y-103732000D01*
X135929885Y-103732000D01*
X135945124Y-103727525D01*
X135946329Y-103726135D01*
X135948000Y-103718452D01*
X135948000Y-103713885D01*
X136456000Y-103713885D01*
X136460475Y-103729124D01*
X136461865Y-103730329D01*
X136469548Y-103732000D01*
X137691884Y-103732000D01*
X137707123Y-103727525D01*
X137708328Y-103726135D01*
X137709999Y-103718452D01*
X137709999Y-103713885D01*
X148694000Y-103713885D01*
X148698475Y-103729124D01*
X148699865Y-103730329D01*
X148707548Y-103732000D01*
X149929885Y-103732000D01*
X149945124Y-103727525D01*
X149946329Y-103726135D01*
X149948000Y-103718452D01*
X149948000Y-103713885D01*
X150456000Y-103713885D01*
X150460475Y-103729124D01*
X150461865Y-103730329D01*
X150469548Y-103732000D01*
X151691884Y-103732000D01*
X151707123Y-103727525D01*
X151708328Y-103726135D01*
X151709999Y-103718452D01*
X151709999Y-103713885D01*
X154694000Y-103713885D01*
X154698475Y-103729124D01*
X154699865Y-103730329D01*
X154707548Y-103732000D01*
X155929885Y-103732000D01*
X155945124Y-103727525D01*
X155946329Y-103726135D01*
X155948000Y-103718452D01*
X155948000Y-103713885D01*
X156456000Y-103713885D01*
X156460475Y-103729124D01*
X156461865Y-103730329D01*
X156469548Y-103732000D01*
X157691884Y-103732000D01*
X157707123Y-103727525D01*
X157708328Y-103726135D01*
X157709999Y-103718452D01*
X157709999Y-103713885D01*
X168694000Y-103713885D01*
X168698475Y-103729124D01*
X168699865Y-103730329D01*
X168707548Y-103732000D01*
X169929885Y-103732000D01*
X169945124Y-103727525D01*
X169946329Y-103726135D01*
X169948000Y-103718452D01*
X169948000Y-103713885D01*
X170456000Y-103713885D01*
X170460475Y-103729124D01*
X170461865Y-103730329D01*
X170469548Y-103732000D01*
X171691884Y-103732000D01*
X171707123Y-103727525D01*
X171708328Y-103726135D01*
X171709999Y-103718452D01*
X171709999Y-103713885D01*
X174694000Y-103713885D01*
X174698475Y-103729124D01*
X174699865Y-103730329D01*
X174707548Y-103732000D01*
X175929885Y-103732000D01*
X175945124Y-103727525D01*
X175946329Y-103726135D01*
X175948000Y-103718452D01*
X175948000Y-103713885D01*
X176456000Y-103713885D01*
X176460475Y-103729124D01*
X176461865Y-103730329D01*
X176469548Y-103732000D01*
X177691884Y-103732000D01*
X177707123Y-103727525D01*
X177708328Y-103726135D01*
X177709999Y-103718452D01*
X177709999Y-103713885D01*
X188694000Y-103713885D01*
X188698475Y-103729124D01*
X188699865Y-103730329D01*
X188707548Y-103732000D01*
X189929885Y-103732000D01*
X189945124Y-103727525D01*
X189946329Y-103726135D01*
X189948000Y-103718452D01*
X189948000Y-103713885D01*
X190456000Y-103713885D01*
X190460475Y-103729124D01*
X190461865Y-103730329D01*
X190469548Y-103732000D01*
X191691884Y-103732000D01*
X191707123Y-103727525D01*
X191708328Y-103726135D01*
X191709999Y-103718452D01*
X191709999Y-103191331D01*
X191709629Y-103184510D01*
X191704105Y-103133648D01*
X191700479Y-103118396D01*
X191655324Y-102997946D01*
X191646786Y-102982351D01*
X191570285Y-102880276D01*
X191557724Y-102867715D01*
X191455649Y-102791214D01*
X191440054Y-102782676D01*
X191319606Y-102737522D01*
X191304351Y-102733895D01*
X191253486Y-102728369D01*
X191246672Y-102728000D01*
X190474115Y-102728000D01*
X190458876Y-102732475D01*
X190457671Y-102733865D01*
X190456000Y-102741548D01*
X190456000Y-103713885D01*
X189948000Y-103713885D01*
X189948000Y-102746116D01*
X189943525Y-102730877D01*
X189942135Y-102729672D01*
X189934452Y-102728001D01*
X189157331Y-102728001D01*
X189150510Y-102728371D01*
X189099648Y-102733895D01*
X189084396Y-102737521D01*
X188963946Y-102782676D01*
X188948351Y-102791214D01*
X188846276Y-102867715D01*
X188833715Y-102880276D01*
X188757214Y-102982351D01*
X188748676Y-102997946D01*
X188703522Y-103118394D01*
X188699895Y-103133649D01*
X188694369Y-103184514D01*
X188694000Y-103191328D01*
X188694000Y-103713885D01*
X177709999Y-103713885D01*
X177709999Y-103191331D01*
X177709629Y-103184510D01*
X177704105Y-103133648D01*
X177700479Y-103118396D01*
X177655324Y-102997946D01*
X177646786Y-102982351D01*
X177570285Y-102880276D01*
X177557724Y-102867715D01*
X177455649Y-102791214D01*
X177440054Y-102782676D01*
X177319606Y-102737522D01*
X177304351Y-102733895D01*
X177253486Y-102728369D01*
X177246672Y-102728000D01*
X176474115Y-102728000D01*
X176458876Y-102732475D01*
X176457671Y-102733865D01*
X176456000Y-102741548D01*
X176456000Y-103713885D01*
X175948000Y-103713885D01*
X175948000Y-102746116D01*
X175943525Y-102730877D01*
X175942135Y-102729672D01*
X175934452Y-102728001D01*
X175157331Y-102728001D01*
X175150510Y-102728371D01*
X175099648Y-102733895D01*
X175084396Y-102737521D01*
X174963946Y-102782676D01*
X174948351Y-102791214D01*
X174846276Y-102867715D01*
X174833715Y-102880276D01*
X174757214Y-102982351D01*
X174748676Y-102997946D01*
X174703522Y-103118394D01*
X174699895Y-103133649D01*
X174694369Y-103184514D01*
X174694000Y-103191328D01*
X174694000Y-103713885D01*
X171709999Y-103713885D01*
X171709999Y-103191331D01*
X171709629Y-103184510D01*
X171704105Y-103133648D01*
X171700479Y-103118396D01*
X171655324Y-102997946D01*
X171646786Y-102982351D01*
X171570285Y-102880276D01*
X171557724Y-102867715D01*
X171455649Y-102791214D01*
X171440054Y-102782676D01*
X171319606Y-102737522D01*
X171304351Y-102733895D01*
X171253486Y-102728369D01*
X171246672Y-102728000D01*
X170474115Y-102728000D01*
X170458876Y-102732475D01*
X170457671Y-102733865D01*
X170456000Y-102741548D01*
X170456000Y-103713885D01*
X169948000Y-103713885D01*
X169948000Y-102746116D01*
X169943525Y-102730877D01*
X169942135Y-102729672D01*
X169934452Y-102728001D01*
X169157331Y-102728001D01*
X169150510Y-102728371D01*
X169099648Y-102733895D01*
X169084396Y-102737521D01*
X168963946Y-102782676D01*
X168948351Y-102791214D01*
X168846276Y-102867715D01*
X168833715Y-102880276D01*
X168757214Y-102982351D01*
X168748676Y-102997946D01*
X168703522Y-103118394D01*
X168699895Y-103133649D01*
X168694369Y-103184514D01*
X168694000Y-103191328D01*
X168694000Y-103713885D01*
X157709999Y-103713885D01*
X157709999Y-103191331D01*
X157709629Y-103184510D01*
X157704105Y-103133648D01*
X157700479Y-103118396D01*
X157655324Y-102997946D01*
X157646786Y-102982351D01*
X157570285Y-102880276D01*
X157557724Y-102867715D01*
X157455649Y-102791214D01*
X157440054Y-102782676D01*
X157319606Y-102737522D01*
X157304351Y-102733895D01*
X157253486Y-102728369D01*
X157246672Y-102728000D01*
X156474115Y-102728000D01*
X156458876Y-102732475D01*
X156457671Y-102733865D01*
X156456000Y-102741548D01*
X156456000Y-103713885D01*
X155948000Y-103713885D01*
X155948000Y-102746116D01*
X155943525Y-102730877D01*
X155942135Y-102729672D01*
X155934452Y-102728001D01*
X155157331Y-102728001D01*
X155150510Y-102728371D01*
X155099648Y-102733895D01*
X155084396Y-102737521D01*
X154963946Y-102782676D01*
X154948351Y-102791214D01*
X154846276Y-102867715D01*
X154833715Y-102880276D01*
X154757214Y-102982351D01*
X154748676Y-102997946D01*
X154703522Y-103118394D01*
X154699895Y-103133649D01*
X154694369Y-103184514D01*
X154694000Y-103191328D01*
X154694000Y-103713885D01*
X151709999Y-103713885D01*
X151709999Y-103191331D01*
X151709629Y-103184510D01*
X151704105Y-103133648D01*
X151700479Y-103118396D01*
X151655324Y-102997946D01*
X151646786Y-102982351D01*
X151570285Y-102880276D01*
X151557724Y-102867715D01*
X151455649Y-102791214D01*
X151440054Y-102782676D01*
X151319606Y-102737522D01*
X151304351Y-102733895D01*
X151253486Y-102728369D01*
X151246672Y-102728000D01*
X150474115Y-102728000D01*
X150458876Y-102732475D01*
X150457671Y-102733865D01*
X150456000Y-102741548D01*
X150456000Y-103713885D01*
X149948000Y-103713885D01*
X149948000Y-102746116D01*
X149943525Y-102730877D01*
X149942135Y-102729672D01*
X149934452Y-102728001D01*
X149157331Y-102728001D01*
X149150510Y-102728371D01*
X149099648Y-102733895D01*
X149084396Y-102737521D01*
X148963946Y-102782676D01*
X148948351Y-102791214D01*
X148846276Y-102867715D01*
X148833715Y-102880276D01*
X148757214Y-102982351D01*
X148748676Y-102997946D01*
X148703522Y-103118394D01*
X148699895Y-103133649D01*
X148694369Y-103184514D01*
X148694000Y-103191328D01*
X148694000Y-103713885D01*
X137709999Y-103713885D01*
X137709999Y-103191331D01*
X137709629Y-103184510D01*
X137704105Y-103133648D01*
X137700479Y-103118396D01*
X137655324Y-102997946D01*
X137646786Y-102982351D01*
X137570285Y-102880276D01*
X137557724Y-102867715D01*
X137455649Y-102791214D01*
X137440054Y-102782676D01*
X137319606Y-102737522D01*
X137304351Y-102733895D01*
X137253486Y-102728369D01*
X137246672Y-102728000D01*
X136474115Y-102728000D01*
X136458876Y-102732475D01*
X136457671Y-102733865D01*
X136456000Y-102741548D01*
X136456000Y-103713885D01*
X135948000Y-103713885D01*
X135948000Y-102746116D01*
X135943525Y-102730877D01*
X135942135Y-102729672D01*
X135934452Y-102728001D01*
X135157331Y-102728001D01*
X135150510Y-102728371D01*
X135099648Y-102733895D01*
X135084396Y-102737521D01*
X134963946Y-102782676D01*
X134948351Y-102791214D01*
X134846276Y-102867715D01*
X134833715Y-102880276D01*
X134757214Y-102982351D01*
X134748676Y-102997946D01*
X134703522Y-103118394D01*
X134699895Y-103133649D01*
X134694369Y-103184514D01*
X134694000Y-103191328D01*
X134694000Y-103713885D01*
X131709999Y-103713885D01*
X131709999Y-103191331D01*
X131709629Y-103184510D01*
X131704105Y-103133648D01*
X131700479Y-103118396D01*
X131655324Y-102997946D01*
X131646786Y-102982351D01*
X131570285Y-102880276D01*
X131557724Y-102867715D01*
X131455649Y-102791214D01*
X131440054Y-102782676D01*
X131319606Y-102737522D01*
X131304351Y-102733895D01*
X131253486Y-102728369D01*
X131246672Y-102728000D01*
X130474115Y-102728000D01*
X130458876Y-102732475D01*
X130457671Y-102733865D01*
X130456000Y-102741548D01*
X130456000Y-103713885D01*
X129948000Y-103713885D01*
X129948000Y-102746116D01*
X129943525Y-102730877D01*
X129942135Y-102729672D01*
X129934452Y-102728001D01*
X129157331Y-102728001D01*
X129150510Y-102728371D01*
X129099648Y-102733895D01*
X129084396Y-102737521D01*
X128963946Y-102782676D01*
X128948351Y-102791214D01*
X128846276Y-102867715D01*
X128833715Y-102880276D01*
X128757214Y-102982351D01*
X128748676Y-102997946D01*
X128703522Y-103118394D01*
X128699895Y-103133649D01*
X128694369Y-103184514D01*
X128694000Y-103191328D01*
X128694000Y-103713885D01*
X117709999Y-103713885D01*
X117709999Y-103191331D01*
X117709629Y-103184510D01*
X117704105Y-103133648D01*
X117700479Y-103118396D01*
X117655324Y-102997946D01*
X117646786Y-102982351D01*
X117570285Y-102880276D01*
X117557724Y-102867715D01*
X117455649Y-102791214D01*
X117440054Y-102782676D01*
X117319606Y-102737522D01*
X117304351Y-102733895D01*
X117253486Y-102728369D01*
X117246672Y-102728000D01*
X116474115Y-102728000D01*
X116458876Y-102732475D01*
X116457671Y-102733865D01*
X116456000Y-102741548D01*
X116456000Y-103713885D01*
X115948000Y-103713885D01*
X115948000Y-102746116D01*
X115943525Y-102730877D01*
X115942135Y-102729672D01*
X115934452Y-102728001D01*
X115157331Y-102728001D01*
X115150510Y-102728371D01*
X115099648Y-102733895D01*
X115084396Y-102737521D01*
X114963946Y-102782676D01*
X114948351Y-102791214D01*
X114846276Y-102867715D01*
X114833715Y-102880276D01*
X114757214Y-102982351D01*
X114748676Y-102997946D01*
X114703522Y-103118394D01*
X114699895Y-103133649D01*
X114694369Y-103184514D01*
X114694000Y-103191328D01*
X114694000Y-103713885D01*
X89867624Y-103713885D01*
X89764319Y-103667891D01*
X89764318Y-103667891D01*
X89758288Y-103665206D01*
X89664888Y-103645353D01*
X89577944Y-103626872D01*
X89577939Y-103626872D01*
X89571487Y-103625500D01*
X89380513Y-103625500D01*
X89374061Y-103626872D01*
X89374056Y-103626872D01*
X89287112Y-103645353D01*
X89193712Y-103665206D01*
X89187682Y-103667891D01*
X89187681Y-103667891D01*
X89025278Y-103740197D01*
X89025276Y-103740198D01*
X89019248Y-103742882D01*
X88864747Y-103855134D01*
X88736960Y-103997056D01*
X88641473Y-104162444D01*
X88582458Y-104344072D01*
X88562496Y-104534000D01*
X88582458Y-104723928D01*
X88641473Y-104905556D01*
X88736960Y-105070944D01*
X88741378Y-105075851D01*
X88741379Y-105075852D01*
X88835136Y-105179980D01*
X88865854Y-105243987D01*
X88867500Y-105264290D01*
X88867500Y-105795500D01*
X88847498Y-105863621D01*
X88793842Y-105910114D01*
X88741500Y-105921500D01*
X86567491Y-105921500D01*
X86499370Y-105901498D01*
X86452877Y-105847842D01*
X86442228Y-105809108D01*
X86438798Y-105777540D01*
X86437945Y-105769684D01*
X86386815Y-105633295D01*
X86299461Y-105516739D01*
X86182905Y-105429385D01*
X86046516Y-105378255D01*
X85984334Y-105371500D01*
X84338066Y-105371500D01*
X84275884Y-105378255D01*
X84139495Y-105429385D01*
X84022939Y-105516739D01*
X83935585Y-105633295D01*
X83884455Y-105769684D01*
X83883602Y-105777540D01*
X83880172Y-105809108D01*
X83852930Y-105874670D01*
X83794566Y-105915096D01*
X83754909Y-105921500D01*
X83657256Y-105921500D01*
X83589135Y-105901498D01*
X83574900Y-105890629D01*
X83571753Y-105887134D01*
X83539391Y-105863621D01*
X83422594Y-105778763D01*
X83422593Y-105778762D01*
X83417252Y-105774882D01*
X83411224Y-105772198D01*
X83411222Y-105772197D01*
X83248819Y-105699891D01*
X83248818Y-105699891D01*
X83242788Y-105697206D01*
X83149388Y-105677353D01*
X83062444Y-105658872D01*
X83062439Y-105658872D01*
X83055987Y-105657500D01*
X82865013Y-105657500D01*
X82858561Y-105658872D01*
X82858556Y-105658872D01*
X82771612Y-105677353D01*
X82678212Y-105697206D01*
X82672182Y-105699891D01*
X82672181Y-105699891D01*
X82509778Y-105772197D01*
X82509776Y-105772198D01*
X82503748Y-105774882D01*
X82349247Y-105887134D01*
X82344826Y-105892044D01*
X82344825Y-105892045D01*
X82324643Y-105914460D01*
X82221460Y-106029056D01*
X82125973Y-106194444D01*
X82066958Y-106376072D01*
X82066268Y-106382633D01*
X82066268Y-106382635D01*
X82065355Y-106391322D01*
X82046996Y-106566000D01*
X81348500Y-106566000D01*
X81348500Y-102724669D01*
X83878201Y-102724669D01*
X83878571Y-102731490D01*
X83884095Y-102782352D01*
X83887721Y-102797604D01*
X83932876Y-102918054D01*
X83941414Y-102933649D01*
X84017915Y-103035724D01*
X84030476Y-103048285D01*
X84132551Y-103124786D01*
X84148146Y-103133324D01*
X84268594Y-103178478D01*
X84283849Y-103182105D01*
X84334714Y-103187631D01*
X84341528Y-103188000D01*
X84889085Y-103188000D01*
X84904324Y-103183525D01*
X84905529Y-103182135D01*
X84907200Y-103174452D01*
X84907200Y-103169884D01*
X85415200Y-103169884D01*
X85419675Y-103185123D01*
X85421065Y-103186328D01*
X85428748Y-103187999D01*
X85980869Y-103187999D01*
X85987690Y-103187629D01*
X86038552Y-103182105D01*
X86053804Y-103178479D01*
X86174254Y-103133324D01*
X86189849Y-103124786D01*
X86291924Y-103048285D01*
X86304485Y-103035724D01*
X86380986Y-102933649D01*
X86389524Y-102918054D01*
X86434678Y-102797606D01*
X86438305Y-102782351D01*
X86443831Y-102731486D01*
X86444200Y-102724672D01*
X86444200Y-102724669D01*
X91838201Y-102724669D01*
X91838571Y-102731490D01*
X91844095Y-102782352D01*
X91847721Y-102797604D01*
X91892876Y-102918054D01*
X91901414Y-102933649D01*
X91977915Y-103035724D01*
X91990476Y-103048285D01*
X92092551Y-103124786D01*
X92108146Y-103133324D01*
X92228594Y-103178478D01*
X92243849Y-103182105D01*
X92294714Y-103187631D01*
X92301528Y-103188000D01*
X92849085Y-103188000D01*
X92864324Y-103183525D01*
X92865529Y-103182135D01*
X92867200Y-103174452D01*
X92867200Y-103169884D01*
X93375200Y-103169884D01*
X93379675Y-103185123D01*
X93381065Y-103186328D01*
X93388748Y-103187999D01*
X93940869Y-103187999D01*
X93947690Y-103187629D01*
X93998552Y-103182105D01*
X94013804Y-103178479D01*
X94134254Y-103133324D01*
X94149849Y-103124786D01*
X94251924Y-103048285D01*
X94264485Y-103035724D01*
X94340986Y-102933649D01*
X94349524Y-102918054D01*
X94394678Y-102797606D01*
X94398305Y-102782351D01*
X94403831Y-102731486D01*
X94404200Y-102724672D01*
X94404200Y-102302115D01*
X94399725Y-102286876D01*
X94398335Y-102285671D01*
X94390652Y-102284000D01*
X93393315Y-102284000D01*
X93378076Y-102288475D01*
X93376871Y-102289865D01*
X93375200Y-102297548D01*
X93375200Y-103169884D01*
X92867200Y-103169884D01*
X92867200Y-102302115D01*
X92862725Y-102286876D01*
X92861335Y-102285671D01*
X92853652Y-102284000D01*
X91856316Y-102284000D01*
X91841077Y-102288475D01*
X91839872Y-102289865D01*
X91838201Y-102297548D01*
X91838201Y-102724669D01*
X86444200Y-102724669D01*
X86444200Y-102302115D01*
X86439725Y-102286876D01*
X86438335Y-102285671D01*
X86430652Y-102284000D01*
X85433315Y-102284000D01*
X85418076Y-102288475D01*
X85416871Y-102289865D01*
X85415200Y-102297548D01*
X85415200Y-103169884D01*
X84907200Y-103169884D01*
X84907200Y-102302115D01*
X84902725Y-102286876D01*
X84901335Y-102285671D01*
X84893652Y-102284000D01*
X83896316Y-102284000D01*
X83881077Y-102288475D01*
X83879872Y-102289865D01*
X83878201Y-102297548D01*
X83878201Y-102724669D01*
X81348500Y-102724669D01*
X81348500Y-101757885D01*
X83878200Y-101757885D01*
X83882675Y-101773124D01*
X83884065Y-101774329D01*
X83891748Y-101776000D01*
X84889085Y-101776000D01*
X84904324Y-101771525D01*
X84905529Y-101770135D01*
X84907200Y-101762452D01*
X84907200Y-101757885D01*
X85415200Y-101757885D01*
X85419675Y-101773124D01*
X85421065Y-101774329D01*
X85428748Y-101776000D01*
X86426084Y-101776000D01*
X86441323Y-101771525D01*
X86442528Y-101770135D01*
X86444199Y-101762452D01*
X86444199Y-101757885D01*
X91838200Y-101757885D01*
X91842675Y-101773124D01*
X91844065Y-101774329D01*
X91851748Y-101776000D01*
X92849085Y-101776000D01*
X92864324Y-101771525D01*
X92865529Y-101770135D01*
X92867200Y-101762452D01*
X92867200Y-101757885D01*
X93375200Y-101757885D01*
X93379675Y-101773124D01*
X93381065Y-101774329D01*
X93388748Y-101776000D01*
X94386084Y-101776000D01*
X94401323Y-101771525D01*
X94402528Y-101770135D01*
X94404199Y-101762452D01*
X94404199Y-101335331D01*
X94403829Y-101328510D01*
X94398305Y-101277648D01*
X94394679Y-101262396D01*
X94349524Y-101141946D01*
X94340986Y-101126351D01*
X94264485Y-101024276D01*
X94251924Y-101011715D01*
X94149849Y-100935214D01*
X94134254Y-100926676D01*
X94013806Y-100881522D01*
X93998551Y-100877895D01*
X93947686Y-100872369D01*
X93940872Y-100872000D01*
X93393315Y-100872000D01*
X93378076Y-100876475D01*
X93376871Y-100877865D01*
X93375200Y-100885548D01*
X93375200Y-101757885D01*
X92867200Y-101757885D01*
X92867200Y-100890116D01*
X92862725Y-100874877D01*
X92861335Y-100873672D01*
X92853652Y-100872001D01*
X92301531Y-100872001D01*
X92294710Y-100872371D01*
X92243848Y-100877895D01*
X92228596Y-100881521D01*
X92108146Y-100926676D01*
X92092551Y-100935214D01*
X91990476Y-101011715D01*
X91977915Y-101024276D01*
X91901414Y-101126351D01*
X91892876Y-101141946D01*
X91847722Y-101262394D01*
X91844095Y-101277649D01*
X91838569Y-101328514D01*
X91838200Y-101335328D01*
X91838200Y-101757885D01*
X86444199Y-101757885D01*
X86444199Y-101335331D01*
X86443829Y-101328510D01*
X86438305Y-101277648D01*
X86434679Y-101262396D01*
X86389524Y-101141946D01*
X86380986Y-101126351D01*
X86304485Y-101024276D01*
X86291924Y-101011715D01*
X86189849Y-100935214D01*
X86174254Y-100926676D01*
X86053806Y-100881522D01*
X86038551Y-100877895D01*
X85987686Y-100872369D01*
X85980872Y-100872000D01*
X85433315Y-100872000D01*
X85418076Y-100876475D01*
X85416871Y-100877865D01*
X85415200Y-100885548D01*
X85415200Y-101757885D01*
X84907200Y-101757885D01*
X84907200Y-100890116D01*
X84902725Y-100874877D01*
X84901335Y-100873672D01*
X84893652Y-100872001D01*
X84341531Y-100872001D01*
X84334710Y-100872371D01*
X84283848Y-100877895D01*
X84268596Y-100881521D01*
X84148146Y-100926676D01*
X84132551Y-100935214D01*
X84030476Y-101011715D01*
X84017915Y-101024276D01*
X83941414Y-101126351D01*
X83932876Y-101141946D01*
X83887722Y-101262394D01*
X83884095Y-101277649D01*
X83878569Y-101328514D01*
X83878200Y-101335328D01*
X83878200Y-101757885D01*
X81348500Y-101757885D01*
X81348500Y-99784134D01*
X114693500Y-99784134D01*
X114700255Y-99846316D01*
X114751385Y-99982705D01*
X114838739Y-100099261D01*
X114955295Y-100186615D01*
X115091684Y-100237745D01*
X115153866Y-100244500D01*
X117250134Y-100244500D01*
X117312316Y-100237745D01*
X117448705Y-100186615D01*
X117565261Y-100099261D01*
X117652615Y-99982705D01*
X117703745Y-99846316D01*
X117710500Y-99784134D01*
X117710500Y-99720500D01*
X117730502Y-99652379D01*
X117784158Y-99605886D01*
X117836500Y-99594500D01*
X122448956Y-99594500D01*
X122517077Y-99614502D01*
X122542592Y-99636190D01*
X122646747Y-99751866D01*
X122745843Y-99823864D01*
X122786930Y-99853715D01*
X122801248Y-99864118D01*
X122807276Y-99866802D01*
X122807278Y-99866803D01*
X122969681Y-99939109D01*
X122975712Y-99941794D01*
X123069113Y-99961647D01*
X123156056Y-99980128D01*
X123156061Y-99980128D01*
X123162513Y-99981500D01*
X123353487Y-99981500D01*
X123359939Y-99980128D01*
X123359944Y-99980128D01*
X123446887Y-99961647D01*
X123540288Y-99941794D01*
X123546319Y-99939109D01*
X123708722Y-99866803D01*
X123708724Y-99866802D01*
X123714752Y-99864118D01*
X123729071Y-99853715D01*
X123770157Y-99823864D01*
X123869253Y-99751866D01*
X123973408Y-99636190D01*
X124033854Y-99598950D01*
X124067044Y-99594500D01*
X128567500Y-99594500D01*
X128635621Y-99614502D01*
X128682114Y-99668158D01*
X128693500Y-99720500D01*
X128693500Y-99784134D01*
X128700255Y-99846316D01*
X128751385Y-99982705D01*
X128838739Y-100099261D01*
X128955295Y-100186615D01*
X129091684Y-100237745D01*
X129153866Y-100244500D01*
X131250134Y-100244500D01*
X131312316Y-100237745D01*
X131448705Y-100186615D01*
X131565261Y-100099261D01*
X131652615Y-99982705D01*
X131703745Y-99846316D01*
X131710500Y-99784134D01*
X134693500Y-99784134D01*
X134700255Y-99846316D01*
X134751385Y-99982705D01*
X134838739Y-100099261D01*
X134955295Y-100186615D01*
X135091684Y-100237745D01*
X135153866Y-100244500D01*
X137250134Y-100244500D01*
X137312316Y-100237745D01*
X137448705Y-100186615D01*
X137565261Y-100099261D01*
X137652615Y-99982705D01*
X137703745Y-99846316D01*
X137710500Y-99784134D01*
X137710500Y-99720500D01*
X137730502Y-99652379D01*
X137784158Y-99605886D01*
X137836500Y-99594500D01*
X142895956Y-99594500D01*
X142964077Y-99614502D01*
X142989592Y-99636190D01*
X143093747Y-99751866D01*
X143192843Y-99823864D01*
X143233930Y-99853715D01*
X143248248Y-99864118D01*
X143254276Y-99866802D01*
X143254278Y-99866803D01*
X143416681Y-99939109D01*
X143422712Y-99941794D01*
X143516113Y-99961647D01*
X143603056Y-99980128D01*
X143603061Y-99980128D01*
X143609513Y-99981500D01*
X143800487Y-99981500D01*
X143806939Y-99980128D01*
X143806944Y-99980128D01*
X143893887Y-99961647D01*
X143987288Y-99941794D01*
X143993319Y-99939109D01*
X144155722Y-99866803D01*
X144155724Y-99866802D01*
X144161752Y-99864118D01*
X144176071Y-99853715D01*
X144217157Y-99823864D01*
X144316253Y-99751866D01*
X144420408Y-99636190D01*
X144480854Y-99598950D01*
X144514044Y-99594500D01*
X148567500Y-99594500D01*
X148635621Y-99614502D01*
X148682114Y-99668158D01*
X148693500Y-99720500D01*
X148693500Y-99784134D01*
X148700255Y-99846316D01*
X148751385Y-99982705D01*
X148838739Y-100099261D01*
X148955295Y-100186615D01*
X149091684Y-100237745D01*
X149153866Y-100244500D01*
X151250134Y-100244500D01*
X151312316Y-100237745D01*
X151448705Y-100186615D01*
X151565261Y-100099261D01*
X151652615Y-99982705D01*
X151703745Y-99846316D01*
X151710500Y-99784134D01*
X154693500Y-99784134D01*
X154700255Y-99846316D01*
X154751385Y-99982705D01*
X154838739Y-100099261D01*
X154955295Y-100186615D01*
X155091684Y-100237745D01*
X155153866Y-100244500D01*
X157250134Y-100244500D01*
X157312316Y-100237745D01*
X157448705Y-100186615D01*
X157565261Y-100099261D01*
X157652615Y-99982705D01*
X157703745Y-99846316D01*
X157710500Y-99784134D01*
X157710500Y-99720500D01*
X157730502Y-99652379D01*
X157784158Y-99605886D01*
X157836500Y-99594500D01*
X162961956Y-99594500D01*
X163030077Y-99614502D01*
X163055592Y-99636190D01*
X163159747Y-99751866D01*
X163258843Y-99823864D01*
X163299930Y-99853715D01*
X163314248Y-99864118D01*
X163320276Y-99866802D01*
X163320278Y-99866803D01*
X163482681Y-99939109D01*
X163488712Y-99941794D01*
X163582113Y-99961647D01*
X163669056Y-99980128D01*
X163669061Y-99980128D01*
X163675513Y-99981500D01*
X163866487Y-99981500D01*
X163872939Y-99980128D01*
X163872944Y-99980128D01*
X163959887Y-99961647D01*
X164053288Y-99941794D01*
X164059319Y-99939109D01*
X164221722Y-99866803D01*
X164221724Y-99866802D01*
X164227752Y-99864118D01*
X164242071Y-99853715D01*
X164283157Y-99823864D01*
X164382253Y-99751866D01*
X164486408Y-99636190D01*
X164546854Y-99598950D01*
X164580044Y-99594500D01*
X168567500Y-99594500D01*
X168635621Y-99614502D01*
X168682114Y-99668158D01*
X168693500Y-99720500D01*
X168693500Y-99784134D01*
X168700255Y-99846316D01*
X168751385Y-99982705D01*
X168838739Y-100099261D01*
X168955295Y-100186615D01*
X169091684Y-100237745D01*
X169153866Y-100244500D01*
X171250134Y-100244500D01*
X171312316Y-100237745D01*
X171448705Y-100186615D01*
X171565261Y-100099261D01*
X171652615Y-99982705D01*
X171703745Y-99846316D01*
X171710500Y-99784134D01*
X174693500Y-99784134D01*
X174700255Y-99846316D01*
X174751385Y-99982705D01*
X174838739Y-100099261D01*
X174955295Y-100186615D01*
X175091684Y-100237745D01*
X175153866Y-100244500D01*
X177250134Y-100244500D01*
X177312316Y-100237745D01*
X177448705Y-100186615D01*
X177565261Y-100099261D01*
X177652615Y-99982705D01*
X177703745Y-99846316D01*
X177710500Y-99784134D01*
X177710500Y-99720500D01*
X177730502Y-99652379D01*
X177784158Y-99605886D01*
X177836500Y-99594500D01*
X182519956Y-99594500D01*
X182588077Y-99614502D01*
X182613592Y-99636190D01*
X182717747Y-99751866D01*
X182816843Y-99823864D01*
X182857930Y-99853715D01*
X182872248Y-99864118D01*
X182878276Y-99866802D01*
X182878278Y-99866803D01*
X183040681Y-99939109D01*
X183046712Y-99941794D01*
X183140113Y-99961647D01*
X183227056Y-99980128D01*
X183227061Y-99980128D01*
X183233513Y-99981500D01*
X183424487Y-99981500D01*
X183430939Y-99980128D01*
X183430944Y-99980128D01*
X183517887Y-99961647D01*
X183611288Y-99941794D01*
X183617319Y-99939109D01*
X183779722Y-99866803D01*
X183779724Y-99866802D01*
X183785752Y-99864118D01*
X183800071Y-99853715D01*
X183841157Y-99823864D01*
X183940253Y-99751866D01*
X184044408Y-99636190D01*
X184104854Y-99598950D01*
X184138044Y-99594500D01*
X188567500Y-99594500D01*
X188635621Y-99614502D01*
X188682114Y-99668158D01*
X188693500Y-99720500D01*
X188693500Y-99784134D01*
X188700255Y-99846316D01*
X188751385Y-99982705D01*
X188838739Y-100099261D01*
X188955295Y-100186615D01*
X189091684Y-100237745D01*
X189153866Y-100244500D01*
X191250134Y-100244500D01*
X191312316Y-100237745D01*
X191448705Y-100186615D01*
X191565261Y-100099261D01*
X191652615Y-99982705D01*
X191703745Y-99846316D01*
X191710500Y-99784134D01*
X191710500Y-98187866D01*
X191703745Y-98125684D01*
X191652615Y-97989295D01*
X191565261Y-97872739D01*
X191448705Y-97785385D01*
X191312316Y-97734255D01*
X191250134Y-97727500D01*
X189153866Y-97727500D01*
X189091684Y-97734255D01*
X188955295Y-97785385D01*
X188838739Y-97872739D01*
X188751385Y-97989295D01*
X188700255Y-98125684D01*
X188693500Y-98187866D01*
X188693500Y-98251500D01*
X188673498Y-98319621D01*
X188619842Y-98366114D01*
X188567500Y-98377500D01*
X183958298Y-98377500D01*
X183890177Y-98357498D01*
X183884237Y-98353436D01*
X183791094Y-98285763D01*
X183791093Y-98285762D01*
X183785752Y-98281882D01*
X183779724Y-98279198D01*
X183779722Y-98279197D01*
X183617319Y-98206891D01*
X183617318Y-98206891D01*
X183611288Y-98204206D01*
X183517887Y-98184353D01*
X183430944Y-98165872D01*
X183430939Y-98165872D01*
X183424487Y-98164500D01*
X183233513Y-98164500D01*
X183227061Y-98165872D01*
X183227056Y-98165872D01*
X183140113Y-98184353D01*
X183046712Y-98204206D01*
X183040682Y-98206891D01*
X183040681Y-98206891D01*
X182878278Y-98279197D01*
X182878276Y-98279198D01*
X182872248Y-98281882D01*
X182866907Y-98285762D01*
X182866906Y-98285763D01*
X182773763Y-98353436D01*
X182706896Y-98377294D01*
X182699702Y-98377500D01*
X177836500Y-98377500D01*
X177768379Y-98357498D01*
X177721886Y-98303842D01*
X177710500Y-98251500D01*
X177710500Y-98187866D01*
X177703745Y-98125684D01*
X177652615Y-97989295D01*
X177565261Y-97872739D01*
X177448705Y-97785385D01*
X177312316Y-97734255D01*
X177250134Y-97727500D01*
X175153866Y-97727500D01*
X175091684Y-97734255D01*
X174955295Y-97785385D01*
X174838739Y-97872739D01*
X174751385Y-97989295D01*
X174700255Y-98125684D01*
X174693500Y-98187866D01*
X174693500Y-99784134D01*
X171710500Y-99784134D01*
X171710500Y-98187866D01*
X171703745Y-98125684D01*
X171652615Y-97989295D01*
X171565261Y-97872739D01*
X171448705Y-97785385D01*
X171312316Y-97734255D01*
X171250134Y-97727500D01*
X169153866Y-97727500D01*
X169091684Y-97734255D01*
X168955295Y-97785385D01*
X168838739Y-97872739D01*
X168751385Y-97989295D01*
X168700255Y-98125684D01*
X168693500Y-98187866D01*
X168693500Y-98251500D01*
X168673498Y-98319621D01*
X168619842Y-98366114D01*
X168567500Y-98377500D01*
X164400298Y-98377500D01*
X164332177Y-98357498D01*
X164326237Y-98353436D01*
X164233094Y-98285763D01*
X164233093Y-98285762D01*
X164227752Y-98281882D01*
X164221724Y-98279198D01*
X164221722Y-98279197D01*
X164059319Y-98206891D01*
X164059318Y-98206891D01*
X164053288Y-98204206D01*
X163959887Y-98184353D01*
X163872944Y-98165872D01*
X163872939Y-98165872D01*
X163866487Y-98164500D01*
X163675513Y-98164500D01*
X163669061Y-98165872D01*
X163669056Y-98165872D01*
X163582113Y-98184353D01*
X163488712Y-98204206D01*
X163482682Y-98206891D01*
X163482681Y-98206891D01*
X163320278Y-98279197D01*
X163320276Y-98279198D01*
X163314248Y-98281882D01*
X163308907Y-98285762D01*
X163308906Y-98285763D01*
X163215763Y-98353436D01*
X163148896Y-98377294D01*
X163141702Y-98377500D01*
X157836500Y-98377500D01*
X157768379Y-98357498D01*
X157721886Y-98303842D01*
X157710500Y-98251500D01*
X157710500Y-98187866D01*
X157703745Y-98125684D01*
X157652615Y-97989295D01*
X157565261Y-97872739D01*
X157448705Y-97785385D01*
X157312316Y-97734255D01*
X157250134Y-97727500D01*
X155153866Y-97727500D01*
X155091684Y-97734255D01*
X154955295Y-97785385D01*
X154838739Y-97872739D01*
X154751385Y-97989295D01*
X154700255Y-98125684D01*
X154693500Y-98187866D01*
X154693500Y-99784134D01*
X151710500Y-99784134D01*
X151710500Y-98187866D01*
X151703745Y-98125684D01*
X151652615Y-97989295D01*
X151565261Y-97872739D01*
X151448705Y-97785385D01*
X151312316Y-97734255D01*
X151250134Y-97727500D01*
X149153866Y-97727500D01*
X149091684Y-97734255D01*
X148955295Y-97785385D01*
X148838739Y-97872739D01*
X148751385Y-97989295D01*
X148700255Y-98125684D01*
X148693500Y-98187866D01*
X148693500Y-98251500D01*
X148673498Y-98319621D01*
X148619842Y-98366114D01*
X148567500Y-98377500D01*
X144334298Y-98377500D01*
X144266177Y-98357498D01*
X144260237Y-98353436D01*
X144167094Y-98285763D01*
X144167093Y-98285762D01*
X144161752Y-98281882D01*
X144155724Y-98279198D01*
X144155722Y-98279197D01*
X143993319Y-98206891D01*
X143993318Y-98206891D01*
X143987288Y-98204206D01*
X143893887Y-98184353D01*
X143806944Y-98165872D01*
X143806939Y-98165872D01*
X143800487Y-98164500D01*
X143609513Y-98164500D01*
X143603061Y-98165872D01*
X143603056Y-98165872D01*
X143516113Y-98184353D01*
X143422712Y-98204206D01*
X143416682Y-98206891D01*
X143416681Y-98206891D01*
X143254278Y-98279197D01*
X143254276Y-98279198D01*
X143248248Y-98281882D01*
X143242907Y-98285762D01*
X143242906Y-98285763D01*
X143149763Y-98353436D01*
X143082896Y-98377294D01*
X143075702Y-98377500D01*
X137836500Y-98377500D01*
X137768379Y-98357498D01*
X137721886Y-98303842D01*
X137710500Y-98251500D01*
X137710500Y-98187866D01*
X137703745Y-98125684D01*
X137652615Y-97989295D01*
X137565261Y-97872739D01*
X137448705Y-97785385D01*
X137312316Y-97734255D01*
X137250134Y-97727500D01*
X135153866Y-97727500D01*
X135091684Y-97734255D01*
X134955295Y-97785385D01*
X134838739Y-97872739D01*
X134751385Y-97989295D01*
X134700255Y-98125684D01*
X134693500Y-98187866D01*
X134693500Y-99784134D01*
X131710500Y-99784134D01*
X131710500Y-98187866D01*
X131703745Y-98125684D01*
X131652615Y-97989295D01*
X131565261Y-97872739D01*
X131448705Y-97785385D01*
X131312316Y-97734255D01*
X131250134Y-97727500D01*
X129153866Y-97727500D01*
X129091684Y-97734255D01*
X128955295Y-97785385D01*
X128838739Y-97872739D01*
X128751385Y-97989295D01*
X128700255Y-98125684D01*
X128693500Y-98187866D01*
X128693500Y-98251500D01*
X128673498Y-98319621D01*
X128619842Y-98366114D01*
X128567500Y-98377500D01*
X123887298Y-98377500D01*
X123819177Y-98357498D01*
X123813237Y-98353436D01*
X123720094Y-98285763D01*
X123720093Y-98285762D01*
X123714752Y-98281882D01*
X123708724Y-98279198D01*
X123708722Y-98279197D01*
X123546319Y-98206891D01*
X123546318Y-98206891D01*
X123540288Y-98204206D01*
X123446887Y-98184353D01*
X123359944Y-98165872D01*
X123359939Y-98165872D01*
X123353487Y-98164500D01*
X123162513Y-98164500D01*
X123156061Y-98165872D01*
X123156056Y-98165872D01*
X123069113Y-98184353D01*
X122975712Y-98204206D01*
X122969682Y-98206891D01*
X122969681Y-98206891D01*
X122807278Y-98279197D01*
X122807276Y-98279198D01*
X122801248Y-98281882D01*
X122795907Y-98285762D01*
X122795906Y-98285763D01*
X122702763Y-98353436D01*
X122635896Y-98377294D01*
X122628702Y-98377500D01*
X117836500Y-98377500D01*
X117768379Y-98357498D01*
X117721886Y-98303842D01*
X117710500Y-98251500D01*
X117710500Y-98187866D01*
X117703745Y-98125684D01*
X117652615Y-97989295D01*
X117565261Y-97872739D01*
X117448705Y-97785385D01*
X117312316Y-97734255D01*
X117250134Y-97727500D01*
X115153866Y-97727500D01*
X115091684Y-97734255D01*
X114955295Y-97785385D01*
X114838739Y-97872739D01*
X114751385Y-97989295D01*
X114700255Y-98125684D01*
X114693500Y-98187866D01*
X114693500Y-99784134D01*
X81348500Y-99784134D01*
X81348500Y-97495547D01*
X81368502Y-97427426D01*
X81422158Y-97380933D01*
X81492432Y-97370829D01*
X81525748Y-97380440D01*
X81567677Y-97399108D01*
X81567685Y-97399111D01*
X81573712Y-97401794D01*
X81651352Y-97418297D01*
X81754056Y-97440128D01*
X81754061Y-97440128D01*
X81760513Y-97441500D01*
X81951487Y-97441500D01*
X81957939Y-97440128D01*
X81957944Y-97440128D01*
X82060648Y-97418297D01*
X82138288Y-97401794D01*
X82185143Y-97380933D01*
X82306722Y-97326803D01*
X82306724Y-97326802D01*
X82312752Y-97324118D01*
X82349093Y-97297715D01*
X82370089Y-97282460D01*
X82467253Y-97211866D01*
X82495776Y-97180188D01*
X82556219Y-97142950D01*
X82589410Y-97138500D01*
X83754909Y-97138500D01*
X83823030Y-97158502D01*
X83869523Y-97212158D01*
X83880172Y-97250892D01*
X83884455Y-97290316D01*
X83935585Y-97426705D01*
X84022939Y-97543261D01*
X84139495Y-97630615D01*
X84275884Y-97681745D01*
X84338066Y-97688500D01*
X85984334Y-97688500D01*
X86046516Y-97681745D01*
X86182905Y-97630615D01*
X86299461Y-97543261D01*
X86386815Y-97426705D01*
X86437945Y-97290316D01*
X86442228Y-97250892D01*
X86469470Y-97185330D01*
X86527834Y-97144904D01*
X86567491Y-97138500D01*
X91714909Y-97138500D01*
X91783030Y-97158502D01*
X91829523Y-97212158D01*
X91840172Y-97250892D01*
X91844455Y-97290316D01*
X91895585Y-97426705D01*
X91982939Y-97543261D01*
X92099495Y-97630615D01*
X92235884Y-97681745D01*
X92298066Y-97688500D01*
X93944334Y-97688500D01*
X94006516Y-97681745D01*
X94142905Y-97630615D01*
X94259461Y-97543261D01*
X94346815Y-97426705D01*
X94397945Y-97290316D01*
X94404700Y-97228134D01*
X94404700Y-95831866D01*
X94397945Y-95769684D01*
X94346815Y-95633295D01*
X94259461Y-95516739D01*
X94142905Y-95429385D01*
X94006516Y-95378255D01*
X93944334Y-95371500D01*
X92298066Y-95371500D01*
X92235884Y-95378255D01*
X92099495Y-95429385D01*
X91982939Y-95516739D01*
X91895585Y-95633295D01*
X91844455Y-95769684D01*
X91843602Y-95777540D01*
X91840172Y-95809108D01*
X91812930Y-95874670D01*
X91754566Y-95915096D01*
X91714909Y-95921500D01*
X90210500Y-95921500D01*
X90142379Y-95901498D01*
X90095886Y-95847842D01*
X90084500Y-95795500D01*
X90084500Y-94850290D01*
X90104502Y-94782169D01*
X90116864Y-94765980D01*
X90210621Y-94661852D01*
X90210622Y-94661851D01*
X90215040Y-94656944D01*
X90310527Y-94491556D01*
X90369542Y-94309928D01*
X90389504Y-94120000D01*
X90369542Y-93930072D01*
X90310527Y-93748444D01*
X90215040Y-93583056D01*
X90184941Y-93549627D01*
X90091675Y-93446045D01*
X90091674Y-93446044D01*
X90087253Y-93441134D01*
X89932752Y-93328882D01*
X89926724Y-93326198D01*
X89926722Y-93326197D01*
X89764319Y-93253891D01*
X89764318Y-93253891D01*
X89758288Y-93251206D01*
X89664887Y-93231353D01*
X89577944Y-93212872D01*
X89577939Y-93212872D01*
X89571487Y-93211500D01*
X89380513Y-93211500D01*
X89374061Y-93212872D01*
X89374056Y-93212872D01*
X89287113Y-93231353D01*
X89193712Y-93251206D01*
X89187682Y-93253891D01*
X89187681Y-93253891D01*
X89025278Y-93326197D01*
X89025276Y-93326198D01*
X89019248Y-93328882D01*
X88864747Y-93441134D01*
X88860326Y-93446044D01*
X88860325Y-93446045D01*
X88767060Y-93549627D01*
X88736960Y-93583056D01*
X88641473Y-93748444D01*
X88582458Y-93930072D01*
X88562496Y-94120000D01*
X88582458Y-94309928D01*
X88641473Y-94491556D01*
X88736960Y-94656944D01*
X88741378Y-94661851D01*
X88741379Y-94661852D01*
X88835136Y-94765980D01*
X88865854Y-94829987D01*
X88867500Y-94850290D01*
X88867500Y-95795500D01*
X88847498Y-95863621D01*
X88793842Y-95910114D01*
X88741500Y-95921500D01*
X86567491Y-95921500D01*
X86499370Y-95901498D01*
X86452877Y-95847842D01*
X86442228Y-95809108D01*
X86438798Y-95777540D01*
X86437945Y-95769684D01*
X86386815Y-95633295D01*
X86299461Y-95516739D01*
X86182905Y-95429385D01*
X86046516Y-95378255D01*
X85984334Y-95371500D01*
X84338066Y-95371500D01*
X84275884Y-95378255D01*
X84139495Y-95429385D01*
X84022939Y-95516739D01*
X83935585Y-95633295D01*
X83884455Y-95769684D01*
X83883602Y-95777540D01*
X83880172Y-95809108D01*
X83852930Y-95874670D01*
X83794566Y-95915096D01*
X83754909Y-95921500D01*
X82584009Y-95921500D01*
X82515888Y-95901498D01*
X82490373Y-95879811D01*
X82471668Y-95859037D01*
X82471666Y-95859036D01*
X82467253Y-95854134D01*
X82386551Y-95795500D01*
X82318094Y-95745763D01*
X82318093Y-95745762D01*
X82312752Y-95741882D01*
X82306724Y-95739198D01*
X82306722Y-95739197D01*
X82144319Y-95666891D01*
X82144318Y-95666891D01*
X82138288Y-95664206D01*
X82044887Y-95644353D01*
X81957944Y-95625872D01*
X81957939Y-95625872D01*
X81951487Y-95624500D01*
X81760513Y-95624500D01*
X81754061Y-95625872D01*
X81754056Y-95625872D01*
X81667113Y-95644353D01*
X81573712Y-95664206D01*
X81567685Y-95666889D01*
X81567677Y-95666892D01*
X81525748Y-95685560D01*
X81455381Y-95694994D01*
X81391084Y-95664887D01*
X81353271Y-95604798D01*
X81348500Y-95570453D01*
X81348500Y-92724669D01*
X83878201Y-92724669D01*
X83878571Y-92731490D01*
X83884095Y-92782352D01*
X83887721Y-92797604D01*
X83932876Y-92918054D01*
X83941414Y-92933649D01*
X84017915Y-93035724D01*
X84030476Y-93048285D01*
X84132551Y-93124786D01*
X84148146Y-93133324D01*
X84268594Y-93178478D01*
X84283849Y-93182105D01*
X84334714Y-93187631D01*
X84341528Y-93188000D01*
X84889085Y-93188000D01*
X84904324Y-93183525D01*
X84905529Y-93182135D01*
X84907200Y-93174452D01*
X84907200Y-93169884D01*
X85415200Y-93169884D01*
X85419675Y-93185123D01*
X85421065Y-93186328D01*
X85428748Y-93187999D01*
X85980869Y-93187999D01*
X85987690Y-93187629D01*
X86038552Y-93182105D01*
X86053804Y-93178479D01*
X86174254Y-93133324D01*
X86189849Y-93124786D01*
X86291924Y-93048285D01*
X86304485Y-93035724D01*
X86380986Y-92933649D01*
X86389524Y-92918054D01*
X86434678Y-92797606D01*
X86438305Y-92782351D01*
X86443831Y-92731486D01*
X86444200Y-92724672D01*
X86444200Y-92724669D01*
X91838201Y-92724669D01*
X91838571Y-92731490D01*
X91844095Y-92782352D01*
X91847721Y-92797604D01*
X91892876Y-92918054D01*
X91901414Y-92933649D01*
X91977915Y-93035724D01*
X91990476Y-93048285D01*
X92092551Y-93124786D01*
X92108146Y-93133324D01*
X92228594Y-93178478D01*
X92243849Y-93182105D01*
X92294714Y-93187631D01*
X92301528Y-93188000D01*
X92849085Y-93188000D01*
X92864324Y-93183525D01*
X92865529Y-93182135D01*
X92867200Y-93174452D01*
X92867200Y-93169884D01*
X93375200Y-93169884D01*
X93379675Y-93185123D01*
X93381065Y-93186328D01*
X93388748Y-93187999D01*
X93940869Y-93187999D01*
X93947690Y-93187629D01*
X93998552Y-93182105D01*
X94013804Y-93178479D01*
X94134254Y-93133324D01*
X94149849Y-93124786D01*
X94251924Y-93048285D01*
X94264485Y-93035724D01*
X94340986Y-92933649D01*
X94349524Y-92918054D01*
X94394678Y-92797606D01*
X94398305Y-92782351D01*
X94403831Y-92731486D01*
X94404200Y-92724672D01*
X94404200Y-92302115D01*
X94399725Y-92286876D01*
X94398335Y-92285671D01*
X94390652Y-92284000D01*
X93393315Y-92284000D01*
X93378076Y-92288475D01*
X93376871Y-92289865D01*
X93375200Y-92297548D01*
X93375200Y-93169884D01*
X92867200Y-93169884D01*
X92867200Y-92302115D01*
X92862725Y-92286876D01*
X92861335Y-92285671D01*
X92853652Y-92284000D01*
X91856316Y-92284000D01*
X91841077Y-92288475D01*
X91839872Y-92289865D01*
X91838201Y-92297548D01*
X91838201Y-92724669D01*
X86444200Y-92724669D01*
X86444200Y-92302115D01*
X86439725Y-92286876D01*
X86438335Y-92285671D01*
X86430652Y-92284000D01*
X85433315Y-92284000D01*
X85418076Y-92288475D01*
X85416871Y-92289865D01*
X85415200Y-92297548D01*
X85415200Y-93169884D01*
X84907200Y-93169884D01*
X84907200Y-92302115D01*
X84902725Y-92286876D01*
X84901335Y-92285671D01*
X84893652Y-92284000D01*
X83896316Y-92284000D01*
X83881077Y-92288475D01*
X83879872Y-92289865D01*
X83878201Y-92297548D01*
X83878201Y-92724669D01*
X81348500Y-92724669D01*
X81348500Y-91757885D01*
X83878200Y-91757885D01*
X83882675Y-91773124D01*
X83884065Y-91774329D01*
X83891748Y-91776000D01*
X84889085Y-91776000D01*
X84904324Y-91771525D01*
X84905529Y-91770135D01*
X84907200Y-91762452D01*
X84907200Y-91757885D01*
X85415200Y-91757885D01*
X85419675Y-91773124D01*
X85421065Y-91774329D01*
X85428748Y-91776000D01*
X86426084Y-91776000D01*
X86441323Y-91771525D01*
X86442528Y-91770135D01*
X86444199Y-91762452D01*
X86444199Y-91757885D01*
X91838200Y-91757885D01*
X91842675Y-91773124D01*
X91844065Y-91774329D01*
X91851748Y-91776000D01*
X92849085Y-91776000D01*
X92864324Y-91771525D01*
X92865529Y-91770135D01*
X92867200Y-91762452D01*
X92867200Y-91757885D01*
X93375200Y-91757885D01*
X93379675Y-91773124D01*
X93381065Y-91774329D01*
X93388748Y-91776000D01*
X94386084Y-91776000D01*
X94401323Y-91771525D01*
X94402528Y-91770135D01*
X94404199Y-91762452D01*
X94404199Y-91335331D01*
X94403829Y-91328510D01*
X94398305Y-91277648D01*
X94394679Y-91262396D01*
X94349524Y-91141946D01*
X94340986Y-91126351D01*
X94264485Y-91024276D01*
X94251924Y-91011715D01*
X94149849Y-90935214D01*
X94134254Y-90926676D01*
X94013806Y-90881522D01*
X93998551Y-90877895D01*
X93947686Y-90872369D01*
X93940872Y-90872000D01*
X93393315Y-90872000D01*
X93378076Y-90876475D01*
X93376871Y-90877865D01*
X93375200Y-90885548D01*
X93375200Y-91757885D01*
X92867200Y-91757885D01*
X92867200Y-90890116D01*
X92862725Y-90874877D01*
X92861335Y-90873672D01*
X92853652Y-90872001D01*
X92301531Y-90872001D01*
X92294710Y-90872371D01*
X92243848Y-90877895D01*
X92228596Y-90881521D01*
X92108146Y-90926676D01*
X92092551Y-90935214D01*
X91990476Y-91011715D01*
X91977915Y-91024276D01*
X91901414Y-91126351D01*
X91892876Y-91141946D01*
X91847722Y-91262394D01*
X91844095Y-91277649D01*
X91838569Y-91328514D01*
X91838200Y-91335328D01*
X91838200Y-91757885D01*
X86444199Y-91757885D01*
X86444199Y-91335331D01*
X86443829Y-91328510D01*
X86438305Y-91277648D01*
X86434679Y-91262396D01*
X86389524Y-91141946D01*
X86380986Y-91126351D01*
X86304485Y-91024276D01*
X86291924Y-91011715D01*
X86189849Y-90935214D01*
X86174254Y-90926676D01*
X86053806Y-90881522D01*
X86038551Y-90877895D01*
X85987686Y-90872369D01*
X85980872Y-90872000D01*
X85433315Y-90872000D01*
X85418076Y-90876475D01*
X85416871Y-90877865D01*
X85415200Y-90885548D01*
X85415200Y-91757885D01*
X84907200Y-91757885D01*
X84907200Y-90890116D01*
X84902725Y-90874877D01*
X84901335Y-90873672D01*
X84893652Y-90872001D01*
X84341531Y-90872001D01*
X84334710Y-90872371D01*
X84283848Y-90877895D01*
X84268596Y-90881521D01*
X84148146Y-90926676D01*
X84132551Y-90935214D01*
X84030476Y-91011715D01*
X84017915Y-91024276D01*
X83941414Y-91126351D01*
X83932876Y-91141946D01*
X83887722Y-91262394D01*
X83884095Y-91277649D01*
X83878569Y-91328514D01*
X83878200Y-91335328D01*
X83878200Y-91757885D01*
X81348500Y-91757885D01*
X81348500Y-88913000D01*
X208946478Y-88913000D01*
X208955513Y-89142960D01*
X208966557Y-89424045D01*
X208966846Y-89426488D01*
X208966847Y-89426499D01*
X209007269Y-89768019D01*
X209026670Y-89931939D01*
X209126447Y-90433552D01*
X209265272Y-90925789D01*
X209442290Y-91405617D01*
X209443320Y-91407852D01*
X209443322Y-91407856D01*
X209655372Y-91867829D01*
X209655379Y-91867842D01*
X209656409Y-91870077D01*
X209808035Y-92140823D01*
X209889154Y-92285671D01*
X209906310Y-92316306D01*
X210190450Y-92741552D01*
X210507079Y-93143194D01*
X210508756Y-93145009D01*
X210508761Y-93145014D01*
X210676245Y-93326197D01*
X210854244Y-93518756D01*
X210856043Y-93520419D01*
X211102720Y-93748444D01*
X211229806Y-93865921D01*
X211231749Y-93867453D01*
X211231754Y-93867457D01*
X211311181Y-93930072D01*
X211631448Y-94182550D01*
X212056694Y-94466690D01*
X212502923Y-94716591D01*
X212505158Y-94717621D01*
X212505171Y-94717628D01*
X212965144Y-94929678D01*
X212967383Y-94930710D01*
X213447211Y-95107728D01*
X213780897Y-95201837D01*
X213937068Y-95245882D01*
X213937073Y-95245883D01*
X213939448Y-95246553D01*
X214441061Y-95346330D01*
X214604981Y-95365731D01*
X214946501Y-95406153D01*
X214946512Y-95406154D01*
X214948955Y-95406443D01*
X215460000Y-95426522D01*
X215971045Y-95406443D01*
X215973488Y-95406154D01*
X215973499Y-95406153D01*
X216315019Y-95365731D01*
X216478939Y-95346330D01*
X216980552Y-95246553D01*
X216982927Y-95245883D01*
X216982932Y-95245882D01*
X217139103Y-95201837D01*
X217472789Y-95107728D01*
X217952617Y-94930710D01*
X217954856Y-94929678D01*
X218414829Y-94717628D01*
X218414842Y-94717621D01*
X218417077Y-94716591D01*
X218863306Y-94466690D01*
X219288552Y-94182550D01*
X219608819Y-93930072D01*
X219688246Y-93867457D01*
X219688251Y-93867453D01*
X219690194Y-93865921D01*
X219817281Y-93748444D01*
X220063957Y-93520419D01*
X220065756Y-93518756D01*
X220243755Y-93326197D01*
X220411239Y-93145014D01*
X220411244Y-93145009D01*
X220412921Y-93143194D01*
X220729550Y-92741552D01*
X221013690Y-92316306D01*
X221030847Y-92285671D01*
X221111965Y-92140823D01*
X221263591Y-91870077D01*
X221264621Y-91867842D01*
X221264628Y-91867829D01*
X221476678Y-91407856D01*
X221476680Y-91407852D01*
X221477710Y-91405617D01*
X221654728Y-90925789D01*
X221793553Y-90433552D01*
X221893330Y-89931939D01*
X221912731Y-89768019D01*
X221953153Y-89426499D01*
X221953154Y-89426488D01*
X221953443Y-89424045D01*
X221973522Y-88913000D01*
X221953443Y-88401955D01*
X221932468Y-88224733D01*
X221893620Y-87896513D01*
X221893330Y-87894061D01*
X221793553Y-87392448D01*
X221763881Y-87287237D01*
X221723109Y-87142673D01*
X221654728Y-86900211D01*
X221477710Y-86420383D01*
X221346022Y-86134729D01*
X221264628Y-85958171D01*
X221264621Y-85958158D01*
X221263591Y-85955923D01*
X221013690Y-85509694D01*
X220729550Y-85084448D01*
X220412921Y-84682806D01*
X220323025Y-84585556D01*
X220067419Y-84309043D01*
X220065756Y-84307244D01*
X219783590Y-84046413D01*
X219692014Y-83961761D01*
X219692009Y-83961756D01*
X219690194Y-83960079D01*
X219288552Y-83643450D01*
X218863306Y-83359310D01*
X218417077Y-83109409D01*
X218414842Y-83108379D01*
X218414829Y-83108372D01*
X217954856Y-82896322D01*
X217954852Y-82896320D01*
X217952617Y-82895290D01*
X217472789Y-82718272D01*
X217139103Y-82624163D01*
X216982932Y-82580118D01*
X216982927Y-82580117D01*
X216980552Y-82579447D01*
X216478939Y-82479670D01*
X216315019Y-82460269D01*
X215973499Y-82419847D01*
X215973488Y-82419846D01*
X215971045Y-82419557D01*
X215460000Y-82399478D01*
X214948955Y-82419557D01*
X214946512Y-82419846D01*
X214946501Y-82419847D01*
X214604981Y-82460269D01*
X214441061Y-82479670D01*
X213939448Y-82579447D01*
X213937073Y-82580117D01*
X213937068Y-82580118D01*
X213780897Y-82624163D01*
X213447211Y-82718272D01*
X212967383Y-82895290D01*
X212965148Y-82896320D01*
X212965144Y-82896322D01*
X212505171Y-83108372D01*
X212505158Y-83108379D01*
X212502923Y-83109409D01*
X212056694Y-83359310D01*
X211631448Y-83643450D01*
X211229806Y-83960079D01*
X211227991Y-83961756D01*
X211227986Y-83961761D01*
X211136410Y-84046413D01*
X210854244Y-84307244D01*
X210852581Y-84309043D01*
X210596976Y-84585556D01*
X210507079Y-84682806D01*
X210190450Y-85084448D01*
X209906310Y-85509694D01*
X209656409Y-85955923D01*
X209655379Y-85958158D01*
X209655372Y-85958171D01*
X209573978Y-86134729D01*
X209442290Y-86420383D01*
X209265272Y-86900211D01*
X209196891Y-87142673D01*
X209156120Y-87287237D01*
X209126447Y-87392448D01*
X209026670Y-87894061D01*
X209026380Y-87896513D01*
X208987533Y-88224733D01*
X208966557Y-88401955D01*
X208946478Y-88913000D01*
X81348500Y-88913000D01*
X81348500Y-86500000D01*
X81831496Y-86500000D01*
X81851458Y-86689928D01*
X81910473Y-86871556D01*
X82005960Y-87036944D01*
X82010378Y-87041851D01*
X82010379Y-87041852D01*
X82115411Y-87158502D01*
X82133747Y-87178866D01*
X82288248Y-87291118D01*
X82294276Y-87293802D01*
X82294278Y-87293803D01*
X82456681Y-87366109D01*
X82462712Y-87368794D01*
X82556112Y-87388647D01*
X82643056Y-87407128D01*
X82643061Y-87407128D01*
X82649513Y-87408500D01*
X82840487Y-87408500D01*
X82846939Y-87407128D01*
X82846944Y-87407128D01*
X82933888Y-87388647D01*
X83027288Y-87368794D01*
X83033319Y-87366109D01*
X83195722Y-87293803D01*
X83195724Y-87293802D01*
X83201752Y-87291118D01*
X83356253Y-87178866D01*
X83360667Y-87173964D01*
X83364112Y-87170862D01*
X83428120Y-87140146D01*
X83448420Y-87138500D01*
X83754909Y-87138500D01*
X83823030Y-87158502D01*
X83869523Y-87212158D01*
X83880172Y-87250892D01*
X83884455Y-87290316D01*
X83935585Y-87426705D01*
X84022939Y-87543261D01*
X84139495Y-87630615D01*
X84275884Y-87681745D01*
X84338066Y-87688500D01*
X85984334Y-87688500D01*
X86046516Y-87681745D01*
X86182905Y-87630615D01*
X86299461Y-87543261D01*
X86386815Y-87426705D01*
X86437945Y-87290316D01*
X86442228Y-87250892D01*
X86469470Y-87185330D01*
X86527834Y-87144904D01*
X86567491Y-87138500D01*
X89427857Y-87138500D01*
X89444303Y-87139578D01*
X89456058Y-87141126D01*
X89476000Y-87143751D01*
X89484188Y-87142673D01*
X89507697Y-87139578D01*
X89524143Y-87138500D01*
X91714909Y-87138500D01*
X91783030Y-87158502D01*
X91829523Y-87212158D01*
X91840172Y-87250892D01*
X91844455Y-87290316D01*
X91895585Y-87426705D01*
X91982939Y-87543261D01*
X92099495Y-87630615D01*
X92235884Y-87681745D01*
X92298066Y-87688500D01*
X93944334Y-87688500D01*
X94006516Y-87681745D01*
X94142905Y-87630615D01*
X94259461Y-87543261D01*
X94346815Y-87426705D01*
X94397945Y-87290316D01*
X94404700Y-87228134D01*
X94404700Y-85831866D01*
X94397945Y-85769684D01*
X94346815Y-85633295D01*
X94259461Y-85516739D01*
X94142905Y-85429385D01*
X94006516Y-85378255D01*
X93944334Y-85371500D01*
X92298066Y-85371500D01*
X92235884Y-85378255D01*
X92099495Y-85429385D01*
X91982939Y-85516739D01*
X91895585Y-85633295D01*
X91844455Y-85769684D01*
X91843602Y-85777540D01*
X91840172Y-85809108D01*
X91812930Y-85874670D01*
X91754566Y-85915096D01*
X91714909Y-85921500D01*
X90210500Y-85921500D01*
X90142379Y-85901498D01*
X90095886Y-85847842D01*
X90084500Y-85795500D01*
X90084500Y-84944290D01*
X90104502Y-84876169D01*
X90116864Y-84859980D01*
X90210621Y-84755852D01*
X90210622Y-84755851D01*
X90215040Y-84750944D01*
X90310527Y-84585556D01*
X90369542Y-84403928D01*
X90389504Y-84214000D01*
X90369542Y-84024072D01*
X90310527Y-83842444D01*
X90215040Y-83677056D01*
X90183539Y-83642070D01*
X90091675Y-83540045D01*
X90091674Y-83540044D01*
X90087253Y-83535134D01*
X89972255Y-83451583D01*
X89938094Y-83426763D01*
X89938093Y-83426762D01*
X89932752Y-83422882D01*
X89926724Y-83420198D01*
X89926722Y-83420197D01*
X89764319Y-83347891D01*
X89764318Y-83347891D01*
X89758288Y-83345206D01*
X89664887Y-83325353D01*
X89577944Y-83306872D01*
X89577939Y-83306872D01*
X89571487Y-83305500D01*
X89380513Y-83305500D01*
X89374061Y-83306872D01*
X89374056Y-83306872D01*
X89287113Y-83325353D01*
X89193712Y-83345206D01*
X89187682Y-83347891D01*
X89187681Y-83347891D01*
X89025278Y-83420197D01*
X89025276Y-83420198D01*
X89019248Y-83422882D01*
X89013907Y-83426762D01*
X89013906Y-83426763D01*
X88979745Y-83451583D01*
X88864747Y-83535134D01*
X88860326Y-83540044D01*
X88860325Y-83540045D01*
X88768462Y-83642070D01*
X88736960Y-83677056D01*
X88641473Y-83842444D01*
X88582458Y-84024072D01*
X88562496Y-84214000D01*
X88582458Y-84403928D01*
X88641473Y-84585556D01*
X88736960Y-84750944D01*
X88741378Y-84755851D01*
X88741379Y-84755852D01*
X88835136Y-84859980D01*
X88865854Y-84923987D01*
X88867500Y-84944290D01*
X88867500Y-85795500D01*
X88847498Y-85863621D01*
X88793842Y-85910114D01*
X88741500Y-85921500D01*
X86567491Y-85921500D01*
X86499370Y-85901498D01*
X86452877Y-85847842D01*
X86442228Y-85809108D01*
X86438798Y-85777540D01*
X86437945Y-85769684D01*
X86386815Y-85633295D01*
X86299461Y-85516739D01*
X86182905Y-85429385D01*
X86046516Y-85378255D01*
X85984334Y-85371500D01*
X84338066Y-85371500D01*
X84275884Y-85378255D01*
X84139495Y-85429385D01*
X84022939Y-85516739D01*
X83935585Y-85633295D01*
X83884455Y-85769684D01*
X83883602Y-85777540D01*
X83880172Y-85809108D01*
X83852930Y-85874670D01*
X83794566Y-85915096D01*
X83754909Y-85921500D01*
X83502721Y-85921500D01*
X83434600Y-85901498D01*
X83409085Y-85879810D01*
X83360675Y-85826045D01*
X83360674Y-85826044D01*
X83356253Y-85821134D01*
X83201752Y-85708882D01*
X83195724Y-85706198D01*
X83195722Y-85706197D01*
X83033319Y-85633891D01*
X83033318Y-85633891D01*
X83027288Y-85631206D01*
X82933887Y-85611353D01*
X82846944Y-85592872D01*
X82846939Y-85592872D01*
X82840487Y-85591500D01*
X82649513Y-85591500D01*
X82643061Y-85592872D01*
X82643056Y-85592872D01*
X82556113Y-85611353D01*
X82462712Y-85631206D01*
X82456682Y-85633891D01*
X82456681Y-85633891D01*
X82294278Y-85706197D01*
X82294276Y-85706198D01*
X82288248Y-85708882D01*
X82133747Y-85821134D01*
X82129326Y-85826044D01*
X82129325Y-85826045D01*
X82012383Y-85955923D01*
X82005960Y-85963056D01*
X81910473Y-86128444D01*
X81851458Y-86310072D01*
X81831496Y-86500000D01*
X81348500Y-86500000D01*
X81348500Y-82724669D01*
X83878201Y-82724669D01*
X83878571Y-82731490D01*
X83884095Y-82782352D01*
X83887721Y-82797604D01*
X83932876Y-82918054D01*
X83941414Y-82933649D01*
X84017915Y-83035724D01*
X84030476Y-83048285D01*
X84132551Y-83124786D01*
X84148146Y-83133324D01*
X84268594Y-83178478D01*
X84283849Y-83182105D01*
X84334714Y-83187631D01*
X84341528Y-83188000D01*
X84889085Y-83188000D01*
X84904324Y-83183525D01*
X84905529Y-83182135D01*
X84907200Y-83174452D01*
X84907200Y-83169884D01*
X85415200Y-83169884D01*
X85419675Y-83185123D01*
X85421065Y-83186328D01*
X85428748Y-83187999D01*
X85980869Y-83187999D01*
X85987690Y-83187629D01*
X86038552Y-83182105D01*
X86053804Y-83178479D01*
X86174254Y-83133324D01*
X86189849Y-83124786D01*
X86291924Y-83048285D01*
X86304485Y-83035724D01*
X86380986Y-82933649D01*
X86389524Y-82918054D01*
X86434678Y-82797606D01*
X86438305Y-82782351D01*
X86443831Y-82731486D01*
X86444200Y-82724672D01*
X86444200Y-82724669D01*
X91838201Y-82724669D01*
X91838571Y-82731490D01*
X91844095Y-82782352D01*
X91847721Y-82797604D01*
X91892876Y-82918054D01*
X91901414Y-82933649D01*
X91977915Y-83035724D01*
X91990476Y-83048285D01*
X92092551Y-83124786D01*
X92108146Y-83133324D01*
X92228594Y-83178478D01*
X92243849Y-83182105D01*
X92294714Y-83187631D01*
X92301528Y-83188000D01*
X92849085Y-83188000D01*
X92864324Y-83183525D01*
X92865529Y-83182135D01*
X92867200Y-83174452D01*
X92867200Y-83169884D01*
X93375200Y-83169884D01*
X93379675Y-83185123D01*
X93381065Y-83186328D01*
X93388748Y-83187999D01*
X93940869Y-83187999D01*
X93947690Y-83187629D01*
X93998552Y-83182105D01*
X94013804Y-83178479D01*
X94134254Y-83133324D01*
X94149849Y-83124786D01*
X94251924Y-83048285D01*
X94264485Y-83035724D01*
X94340986Y-82933649D01*
X94349524Y-82918054D01*
X94394678Y-82797606D01*
X94398305Y-82782351D01*
X94403831Y-82731486D01*
X94404200Y-82724672D01*
X94404200Y-82302115D01*
X94399725Y-82286876D01*
X94398335Y-82285671D01*
X94390652Y-82284000D01*
X93393315Y-82284000D01*
X93378076Y-82288475D01*
X93376871Y-82289865D01*
X93375200Y-82297548D01*
X93375200Y-83169884D01*
X92867200Y-83169884D01*
X92867200Y-82302115D01*
X92862725Y-82286876D01*
X92861335Y-82285671D01*
X92853652Y-82284000D01*
X91856316Y-82284000D01*
X91841077Y-82288475D01*
X91839872Y-82289865D01*
X91838201Y-82297548D01*
X91838201Y-82724669D01*
X86444200Y-82724669D01*
X86444200Y-82302115D01*
X86439725Y-82286876D01*
X86438335Y-82285671D01*
X86430652Y-82284000D01*
X85433315Y-82284000D01*
X85418076Y-82288475D01*
X85416871Y-82289865D01*
X85415200Y-82297548D01*
X85415200Y-83169884D01*
X84907200Y-83169884D01*
X84907200Y-82302115D01*
X84902725Y-82286876D01*
X84901335Y-82285671D01*
X84893652Y-82284000D01*
X83896316Y-82284000D01*
X83881077Y-82288475D01*
X83879872Y-82289865D01*
X83878201Y-82297548D01*
X83878201Y-82724669D01*
X81348500Y-82724669D01*
X81348500Y-81757885D01*
X83878200Y-81757885D01*
X83882675Y-81773124D01*
X83884065Y-81774329D01*
X83891748Y-81776000D01*
X84889085Y-81776000D01*
X84904324Y-81771525D01*
X84905529Y-81770135D01*
X84907200Y-81762452D01*
X84907200Y-81757885D01*
X85415200Y-81757885D01*
X85419675Y-81773124D01*
X85421065Y-81774329D01*
X85428748Y-81776000D01*
X86426084Y-81776000D01*
X86441323Y-81771525D01*
X86442528Y-81770135D01*
X86444199Y-81762452D01*
X86444199Y-81757885D01*
X91838200Y-81757885D01*
X91842675Y-81773124D01*
X91844065Y-81774329D01*
X91851748Y-81776000D01*
X92849085Y-81776000D01*
X92864324Y-81771525D01*
X92865529Y-81770135D01*
X92867200Y-81762452D01*
X92867200Y-81757885D01*
X93375200Y-81757885D01*
X93379675Y-81773124D01*
X93381065Y-81774329D01*
X93388748Y-81776000D01*
X94386084Y-81776000D01*
X94401323Y-81771525D01*
X94402528Y-81770135D01*
X94404199Y-81762452D01*
X94404199Y-81335331D01*
X94403829Y-81328510D01*
X94398305Y-81277648D01*
X94394679Y-81262396D01*
X94349524Y-81141946D01*
X94340986Y-81126351D01*
X94264485Y-81024276D01*
X94251924Y-81011715D01*
X94149849Y-80935214D01*
X94134254Y-80926676D01*
X94013806Y-80881522D01*
X93998551Y-80877895D01*
X93947686Y-80872369D01*
X93940872Y-80872000D01*
X93393315Y-80872000D01*
X93378076Y-80876475D01*
X93376871Y-80877865D01*
X93375200Y-80885548D01*
X93375200Y-81757885D01*
X92867200Y-81757885D01*
X92867200Y-80890116D01*
X92862725Y-80874877D01*
X92861335Y-80873672D01*
X92853652Y-80872001D01*
X92301531Y-80872001D01*
X92294710Y-80872371D01*
X92243848Y-80877895D01*
X92228596Y-80881521D01*
X92108146Y-80926676D01*
X92092551Y-80935214D01*
X91990476Y-81011715D01*
X91977915Y-81024276D01*
X91901414Y-81126351D01*
X91892876Y-81141946D01*
X91847722Y-81262394D01*
X91844095Y-81277649D01*
X91838569Y-81328514D01*
X91838200Y-81335328D01*
X91838200Y-81757885D01*
X86444199Y-81757885D01*
X86444199Y-81335331D01*
X86443829Y-81328510D01*
X86438305Y-81277648D01*
X86434679Y-81262396D01*
X86389524Y-81141946D01*
X86380986Y-81126351D01*
X86304485Y-81024276D01*
X86291924Y-81011715D01*
X86189849Y-80935214D01*
X86174254Y-80926676D01*
X86053806Y-80881522D01*
X86038551Y-80877895D01*
X85987686Y-80872369D01*
X85980872Y-80872000D01*
X85433315Y-80872000D01*
X85418076Y-80876475D01*
X85416871Y-80877865D01*
X85415200Y-80885548D01*
X85415200Y-81757885D01*
X84907200Y-81757885D01*
X84907200Y-80890116D01*
X84902725Y-80874877D01*
X84901335Y-80873672D01*
X84893652Y-80872001D01*
X84341531Y-80872001D01*
X84334710Y-80872371D01*
X84283848Y-80877895D01*
X84268596Y-80881521D01*
X84148146Y-80926676D01*
X84132551Y-80935214D01*
X84030476Y-81011715D01*
X84017915Y-81024276D01*
X83941414Y-81126351D01*
X83932876Y-81141946D01*
X83887722Y-81262394D01*
X83884095Y-81277649D01*
X83878569Y-81328514D01*
X83878200Y-81335328D01*
X83878200Y-81757885D01*
X81348500Y-81757885D01*
X81348500Y-57925000D01*
X81898996Y-57925000D01*
X81918958Y-58114928D01*
X81977973Y-58296556D01*
X82073460Y-58461944D01*
X82201247Y-58603866D01*
X82355748Y-58716118D01*
X82361776Y-58718802D01*
X82361778Y-58718803D01*
X82524181Y-58791109D01*
X82530212Y-58793794D01*
X82611743Y-58811124D01*
X82710556Y-58832128D01*
X82710561Y-58832128D01*
X82717013Y-58833500D01*
X82907987Y-58833500D01*
X82914439Y-58832128D01*
X82914444Y-58832128D01*
X83013257Y-58811124D01*
X83094788Y-58793794D01*
X83100819Y-58791109D01*
X83263222Y-58718803D01*
X83263224Y-58718802D01*
X83269252Y-58716118D01*
X83423753Y-58603866D01*
X83551540Y-58461944D01*
X83647027Y-58296556D01*
X83706042Y-58114928D01*
X83726004Y-57925000D01*
X83706042Y-57735072D01*
X83647027Y-57553444D01*
X83551540Y-57388056D01*
X83547121Y-57383148D01*
X83543239Y-57377805D01*
X83545392Y-57376241D01*
X83519793Y-57322926D01*
X83528542Y-57252471D01*
X83555047Y-57213502D01*
X86597144Y-54171405D01*
X86659456Y-54137379D01*
X86686239Y-54134500D01*
X86712987Y-54134500D01*
X86719439Y-54133128D01*
X86719444Y-54133128D01*
X86806387Y-54114647D01*
X86899788Y-54094794D01*
X86905819Y-54092109D01*
X87068222Y-54019803D01*
X87068224Y-54019802D01*
X87074252Y-54017118D01*
X87228753Y-53904866D01*
X87356540Y-53762944D01*
X87452027Y-53597556D01*
X87511042Y-53415928D01*
X87531004Y-53226000D01*
X87525115Y-53169965D01*
X87999057Y-53169965D01*
X88012741Y-53561827D01*
X88013147Y-53564871D01*
X88013148Y-53564881D01*
X88034639Y-53725948D01*
X88064599Y-53950484D01*
X88065299Y-53953468D01*
X88065300Y-53953474D01*
X88102511Y-54112122D01*
X88154136Y-54332225D01*
X88280496Y-54703407D01*
X88442475Y-55060487D01*
X88638525Y-55400056D01*
X88640314Y-55402554D01*
X88640316Y-55402558D01*
X88740047Y-55541860D01*
X88866776Y-55718874D01*
X89125049Y-56013896D01*
X89410878Y-56282308D01*
X89721536Y-56521546D01*
X89724139Y-56523173D01*
X89724144Y-56523176D01*
X89843576Y-56597805D01*
X90054056Y-56729328D01*
X90405266Y-56903670D01*
X90771812Y-57042907D01*
X91150195Y-57145712D01*
X91439889Y-57194710D01*
X91533783Y-57210591D01*
X91533786Y-57210591D01*
X91536805Y-57211102D01*
X91691444Y-57221916D01*
X91924885Y-57238240D01*
X91924893Y-57238240D01*
X91927951Y-57238454D01*
X92180037Y-57231413D01*
X92316825Y-57227592D01*
X92316828Y-57227592D01*
X92319899Y-57227506D01*
X92322952Y-57227120D01*
X92322956Y-57227120D01*
X92464576Y-57209229D01*
X92708908Y-57178362D01*
X92711912Y-57177680D01*
X92711915Y-57177679D01*
X93088269Y-57092174D01*
X93088275Y-57092172D01*
X93091265Y-57091493D01*
X93103837Y-57087311D01*
X93460396Y-56968700D01*
X93460402Y-56968698D01*
X93463320Y-56967727D01*
X93533120Y-56936650D01*
X93818722Y-56809492D01*
X93818728Y-56809489D01*
X93821522Y-56808245D01*
X93842630Y-56796254D01*
X94159784Y-56616086D01*
X94159790Y-56616083D01*
X94162452Y-56614570D01*
X94482855Y-56388550D01*
X94608390Y-56280192D01*
X94777347Y-56134353D01*
X94777351Y-56134349D01*
X94779674Y-56132344D01*
X94857040Y-56051102D01*
X95047957Y-55850618D01*
X95050074Y-55848395D01*
X95152197Y-55717684D01*
X95289565Y-55541860D01*
X95289567Y-55541857D01*
X95291475Y-55539415D01*
X95501574Y-55208354D01*
X95678363Y-54858370D01*
X95710437Y-54775678D01*
X95819041Y-54495681D01*
X95819044Y-54495672D01*
X95820156Y-54492805D01*
X95925600Y-54115148D01*
X95986838Y-53767852D01*
X95993156Y-53732022D01*
X95993156Y-53732019D01*
X95993688Y-53729004D01*
X96006788Y-53558747D01*
X96023619Y-53340013D01*
X96023619Y-53340002D01*
X96023769Y-53338059D01*
X96025334Y-53226000D01*
X96022594Y-53169965D01*
X96006330Y-52837440D01*
X96006180Y-52834367D01*
X95948901Y-52446473D01*
X95854043Y-52066019D01*
X95722512Y-51696637D01*
X95555564Y-51341854D01*
X95553997Y-51339225D01*
X95553992Y-51339216D01*
X95543133Y-51321000D01*
X191622100Y-51321000D01*
X191622100Y-58814000D01*
X218774700Y-58814000D01*
X218774700Y-51397200D01*
X218761244Y-51397162D01*
X218761243Y-51397162D01*
X202856154Y-51352527D01*
X191622100Y-51321000D01*
X95543133Y-51321000D01*
X95356361Y-51007689D01*
X95354791Y-51005055D01*
X95352977Y-51002595D01*
X95352972Y-51002587D01*
X95123933Y-50691926D01*
X95123931Y-50691923D01*
X95122111Y-50689455D01*
X94859744Y-50398068D01*
X94570195Y-50133673D01*
X94256228Y-49898795D01*
X94208015Y-49869596D01*
X93923467Y-49697267D01*
X93923458Y-49697262D01*
X93920839Y-49695676D01*
X93567229Y-49526255D01*
X93564339Y-49525203D01*
X93564334Y-49525201D01*
X93201674Y-49393204D01*
X93201671Y-49393203D01*
X93198775Y-49392149D01*
X92922563Y-49321229D01*
X92821977Y-49295403D01*
X92821974Y-49295402D01*
X92818993Y-49294637D01*
X92431508Y-49234651D01*
X92040018Y-49212764D01*
X92036939Y-49212893D01*
X92036936Y-49212893D01*
X91781188Y-49223612D01*
X91648261Y-49229183D01*
X91645217Y-49229611D01*
X91645215Y-49229611D01*
X91434778Y-49259186D01*
X91259976Y-49283753D01*
X90878869Y-49375953D01*
X90508579Y-49504902D01*
X90152638Y-49669369D01*
X89814446Y-49867785D01*
X89654444Y-49984033D01*
X89499711Y-50096453D01*
X89499705Y-50096458D01*
X89497230Y-50098256D01*
X89494944Y-50100285D01*
X89494941Y-50100288D01*
X89415123Y-50171154D01*
X89204017Y-50358583D01*
X89201938Y-50360828D01*
X89201931Y-50360835D01*
X89113569Y-50456258D01*
X88937608Y-50646279D01*
X88700544Y-50958599D01*
X88495089Y-51292562D01*
X88323203Y-51644980D01*
X88186527Y-52012489D01*
X88086367Y-52391581D01*
X88023677Y-52778638D01*
X88023483Y-52781718D01*
X88023483Y-52781720D01*
X88007068Y-53042635D01*
X88001443Y-53132035D01*
X87999057Y-53169965D01*
X87525115Y-53169965D01*
X87511042Y-53036072D01*
X87452027Y-52854444D01*
X87356540Y-52689056D01*
X87258364Y-52580020D01*
X87227646Y-52516013D01*
X87226000Y-52495710D01*
X87226000Y-48133739D01*
X87246002Y-48065618D01*
X87262905Y-48044644D01*
X88121144Y-47186405D01*
X88183456Y-47152379D01*
X88210239Y-47149500D01*
X88301487Y-47149500D01*
X88307939Y-47148128D01*
X88307944Y-47148128D01*
X88394888Y-47129647D01*
X88488288Y-47109794D01*
X88526561Y-47092754D01*
X88656722Y-47034803D01*
X88656724Y-47034802D01*
X88662752Y-47032118D01*
X88817253Y-46919866D01*
X88945040Y-46777944D01*
X89015260Y-46656320D01*
X89037223Y-46618279D01*
X89037224Y-46618278D01*
X89040527Y-46612556D01*
X89099542Y-46430928D01*
X89119504Y-46241000D01*
X89099542Y-46051072D01*
X89040527Y-45869444D01*
X88945040Y-45704056D01*
X88859007Y-45608506D01*
X88821675Y-45567045D01*
X88821674Y-45567044D01*
X88817253Y-45562134D01*
X88662752Y-45449882D01*
X88656724Y-45447198D01*
X88656722Y-45447197D01*
X88494319Y-45374891D01*
X88494318Y-45374891D01*
X88488288Y-45372206D01*
X88394888Y-45352353D01*
X88307944Y-45333872D01*
X88307939Y-45333872D01*
X88301487Y-45332500D01*
X88110513Y-45332500D01*
X88104061Y-45333872D01*
X88104056Y-45333872D01*
X88017112Y-45352353D01*
X87923712Y-45372206D01*
X87917682Y-45374891D01*
X87917681Y-45374891D01*
X87755278Y-45447197D01*
X87755276Y-45447198D01*
X87749248Y-45449882D01*
X87594747Y-45562134D01*
X87590326Y-45567044D01*
X87590325Y-45567045D01*
X87552994Y-45608506D01*
X87466960Y-45704056D01*
X87371473Y-45869444D01*
X87312458Y-46051072D01*
X87292496Y-46241000D01*
X87292684Y-46242786D01*
X87273184Y-46309196D01*
X87256281Y-46330170D01*
X86221266Y-47365185D01*
X86208875Y-47376052D01*
X86183513Y-47395513D01*
X86159026Y-47427425D01*
X86159023Y-47427428D01*
X86085976Y-47522624D01*
X86024662Y-47670649D01*
X86024662Y-47670650D01*
X86009000Y-47789615D01*
X86009000Y-47789620D01*
X86003750Y-47829500D01*
X86004828Y-47837688D01*
X86007922Y-47861190D01*
X86009000Y-47877636D01*
X86009000Y-52495710D01*
X85988998Y-52563831D01*
X85976636Y-52580020D01*
X85878460Y-52689056D01*
X85782973Y-52854444D01*
X85723958Y-53036072D01*
X85703996Y-53226000D01*
X85704686Y-53232565D01*
X85708885Y-53272515D01*
X85696113Y-53342354D01*
X85672670Y-53374781D01*
X82416266Y-56631185D01*
X82403875Y-56642052D01*
X82378513Y-56661513D01*
X82354026Y-56693425D01*
X82354023Y-56693428D01*
X82280976Y-56788624D01*
X82219662Y-56936649D01*
X82219662Y-56936650D01*
X82217914Y-56949926D01*
X82205818Y-57041809D01*
X82204000Y-57055615D01*
X82204000Y-57055620D01*
X82198750Y-57095500D01*
X82199828Y-57103688D01*
X82202922Y-57127190D01*
X82204000Y-57143636D01*
X82204000Y-57194710D01*
X82183998Y-57262831D01*
X82171636Y-57279020D01*
X82132103Y-57322926D01*
X82073460Y-57388056D01*
X81977973Y-57553444D01*
X81918958Y-57735072D01*
X81898996Y-57925000D01*
X81348500Y-57925000D01*
X81348500Y-44538500D01*
X81368502Y-44470379D01*
X81422158Y-44423886D01*
X81474500Y-44412500D01*
X82848530Y-44412500D01*
X82916651Y-44432502D01*
G37*
G04 #@! TD.AperFunction*
M02*
