M48
; DRILL file {KiCad 6.0.8} date Wed 19 Oct 2022 04:48:38 PM EEST
; FORMAT={-:-/ absolute / metric / decimal}
; #@! TF.CreationDate,2022-10-19T16:48:38+03:00
; #@! TF.GenerationSoftware,Kicad,Pcbnew,6.0.8
; #@! TF.FileFunction,Plated,1,2,PTH
FMAT,2
METRIC
; #@! TA.AperFunction,Plated,PTH,ViaDrill
T1C0.400
%
G90
G05
T1
X81.856Y-96.533
X82.745Y-86.5
X82.812Y-57.925
X82.96Y-106.566
X85.412Y-62.751
X86.617Y-53.226
X86.682Y-125.362
X88.206Y-46.241
X88.841Y-122.06
X89.476Y-84.214
X89.476Y-94.12
X89.476Y-104.534
X89.603Y-112.916
X91.0Y-135.776
X91.72Y-136.539
X91.762Y-123.457
X103.319Y-55.766
X105.097Y-48.654
X123.258Y-99.073
X123.258Y-130.823
X143.324Y-130.95
X143.705Y-99.073
X163.136Y-130.823
X163.771Y-99.073
X183.202Y-130.823
X183.329Y-99.073
T0
M30
