G04 #@! TF.GenerationSoftware,KiCad,Pcbnew,6.0.8*
G04 #@! TF.CreationDate,2022-10-19T16:45:40+03:00*
G04 #@! TF.ProjectId,keypad,6b657970-6164-42e6-9b69-6361645f7063,B*
G04 #@! TF.SameCoordinates,Original*
G04 #@! TF.FileFunction,Legend,Bot*
G04 #@! TF.FilePolarity,Positive*
%FSLAX46Y46*%
G04 Gerber Fmt 4.6, Leading zero omitted, Abs format (unit mm)*
G04 Created by KiCad (PCBNEW 6.0.8) date 2022-10-19 16:45:40*
%MOMM*%
%LPD*%
G01*
G04 APERTURE LIST*
G04 Aperture macros list*
%AMRoundRect*
0 Rectangle with rounded corners*
0 $1 Rounding radius*
0 $2 $3 $4 $5 $6 $7 $8 $9 X,Y pos of 4 corners*
0 Add a 4 corners polygon primitive as box body*
4,1,4,$2,$3,$4,$5,$6,$7,$8,$9,$2,$3,0*
0 Add four circle primitives for the rounded corners*
1,1,$1+$1,$2,$3*
1,1,$1+$1,$4,$5*
1,1,$1+$1,$6,$7*
1,1,$1+$1,$8,$9*
0 Add four rect primitives between the rounded corners*
20,1,$1+$1,$2,$3,$4,$5,0*
20,1,$1+$1,$4,$5,$6,$7,0*
20,1,$1+$1,$6,$7,$8,$9,0*
20,1,$1+$1,$8,$9,$2,$3,0*%
G04 Aperture macros list end*
%ADD10C,0.150000*%
%ADD11C,0.120000*%
%ADD12R,3.000000X3.000000*%
%ADD13R,4.000000X2.000000*%
%ADD14RoundRect,0.250000X-0.262500X-0.450000X0.262500X-0.450000X0.262500X0.450000X-0.262500X0.450000X0*%
%ADD15RoundRect,0.250000X0.262500X0.450000X-0.262500X0.450000X-0.262500X-0.450000X0.262500X-0.450000X0*%
%ADD16RoundRect,0.250000X-0.250000X-0.475000X0.250000X-0.475000X0.250000X0.475000X-0.250000X0.475000X0*%
%ADD17R,2.800000X2.200000*%
%ADD18R,2.200000X2.800000*%
%ADD19R,1.600000X3.200000*%
%ADD20RoundRect,0.250000X0.450000X-0.262500X0.450000X0.262500X-0.450000X0.262500X-0.450000X-0.262500X0*%
%ADD21RoundRect,0.250000X-0.450000X0.262500X-0.450000X-0.262500X0.450000X-0.262500X0.450000X0.262500X0*%
%ADD22RoundRect,0.250000X-0.475000X0.250000X-0.475000X-0.250000X0.475000X-0.250000X0.475000X0.250000X0*%
G04 APERTURE END LIST*
D10*
X171533809Y-76355761D02*
X171533809Y-74355761D01*
X170771904Y-74355761D01*
X170581428Y-74451000D01*
X170486190Y-74546238D01*
X170390952Y-74736714D01*
X170390952Y-75022428D01*
X170486190Y-75212904D01*
X170581428Y-75308142D01*
X170771904Y-75403380D01*
X171533809Y-75403380D01*
X130116000Y-59322000D02*
X175201000Y-59322000D01*
X175201000Y-59322000D02*
X175201000Y-90818000D01*
X175201000Y-90818000D02*
X130116000Y-90818000D01*
X130116000Y-90818000D02*
X130116000Y-59322000D01*
X170724285Y-70926761D02*
X170724285Y-72355333D01*
X170819523Y-72641047D01*
X171010000Y-72831523D01*
X171295714Y-72926761D01*
X171486190Y-72926761D01*
X171327476Y-67497761D02*
X170946523Y-67497761D01*
X170756047Y-67593000D01*
X170565571Y-67783476D01*
X170470333Y-68164428D01*
X170470333Y-68831095D01*
X170565571Y-69212047D01*
X170756047Y-69402523D01*
X170946523Y-69497761D01*
X171327476Y-69497761D01*
X171517952Y-69402523D01*
X171708428Y-69212047D01*
X171803666Y-68831095D01*
X171803666Y-68164428D01*
X171708428Y-67783476D01*
X171517952Y-67593000D01*
X171327476Y-67497761D01*
X152960190Y-80801000D02*
X153150666Y-80705761D01*
X153436380Y-80705761D01*
X153722095Y-80801000D01*
X153912571Y-80991476D01*
X154007809Y-81181952D01*
X154103047Y-81562904D01*
X154103047Y-81848619D01*
X154007809Y-82229571D01*
X153912571Y-82420047D01*
X153722095Y-82610523D01*
X153436380Y-82705761D01*
X153245904Y-82705761D01*
X152960190Y-82610523D01*
X152864952Y-82515285D01*
X152864952Y-81848619D01*
X153245904Y-81848619D01*
X168057142Y-63179761D02*
X167580952Y-65179761D01*
X167200000Y-63751190D01*
X166819047Y-65179761D01*
X166342857Y-63179761D01*
X218264509Y-52272561D02*
X218264509Y-50272561D01*
X217502604Y-50272561D01*
X217312128Y-50367800D01*
X217216890Y-50463038D01*
X217121652Y-50653514D01*
X217121652Y-50939228D01*
X217216890Y-51129704D01*
X217312128Y-51224942D01*
X217502604Y-51320180D01*
X218264509Y-51320180D01*
X216264509Y-52272561D02*
X216264509Y-50939228D01*
X216264509Y-51320180D02*
X216169271Y-51129704D01*
X216074033Y-51034466D01*
X215883557Y-50939228D01*
X215693080Y-50939228D01*
X214740700Y-52272561D02*
X214931176Y-52177323D01*
X215026414Y-52082085D01*
X215121652Y-51891609D01*
X215121652Y-51320180D01*
X215026414Y-51129704D01*
X214931176Y-51034466D01*
X214740700Y-50939228D01*
X214454985Y-50939228D01*
X214264509Y-51034466D01*
X214169271Y-51129704D01*
X214074033Y-51320180D01*
X214074033Y-51891609D01*
X214169271Y-52082085D01*
X214264509Y-52177323D01*
X214454985Y-52272561D01*
X214740700Y-52272561D01*
X212359747Y-50939228D02*
X212359747Y-52558276D01*
X212454985Y-52748752D01*
X212550223Y-52843990D01*
X212740700Y-52939228D01*
X213026414Y-52939228D01*
X213216890Y-52843990D01*
X212359747Y-52177323D02*
X212550223Y-52272561D01*
X212931176Y-52272561D01*
X213121652Y-52177323D01*
X213216890Y-52082085D01*
X213312128Y-51891609D01*
X213312128Y-51320180D01*
X213216890Y-51129704D01*
X213121652Y-51034466D01*
X212931176Y-50939228D01*
X212550223Y-50939228D01*
X212359747Y-51034466D01*
X211407366Y-52272561D02*
X211407366Y-50939228D01*
X211407366Y-51320180D02*
X211312128Y-51129704D01*
X211216890Y-51034466D01*
X211026414Y-50939228D01*
X210835938Y-50939228D01*
X209312128Y-52272561D02*
X209312128Y-51224942D01*
X209407366Y-51034466D01*
X209597842Y-50939228D01*
X209978795Y-50939228D01*
X210169271Y-51034466D01*
X209312128Y-52177323D02*
X209502604Y-52272561D01*
X209978795Y-52272561D01*
X210169271Y-52177323D01*
X210264509Y-51986847D01*
X210264509Y-51796371D01*
X210169271Y-51605895D01*
X209978795Y-51510657D01*
X209502604Y-51510657D01*
X209312128Y-51415419D01*
X208359747Y-52272561D02*
X208359747Y-50939228D01*
X208359747Y-51129704D02*
X208264509Y-51034466D01*
X208074033Y-50939228D01*
X207788319Y-50939228D01*
X207597842Y-51034466D01*
X207502604Y-51224942D01*
X207502604Y-52272561D01*
X207502604Y-51224942D02*
X207407366Y-51034466D01*
X207216890Y-50939228D01*
X206931176Y-50939228D01*
X206740700Y-51034466D01*
X206645461Y-51224942D01*
X206645461Y-52272561D01*
X205693080Y-52272561D02*
X205693080Y-50939228D01*
X205693080Y-51129704D02*
X205597842Y-51034466D01*
X205407366Y-50939228D01*
X205121652Y-50939228D01*
X204931176Y-51034466D01*
X204835938Y-51224942D01*
X204835938Y-52272561D01*
X204835938Y-51224942D02*
X204740700Y-51034466D01*
X204550223Y-50939228D01*
X204264509Y-50939228D01*
X204074033Y-51034466D01*
X203978795Y-51224942D01*
X203978795Y-52272561D01*
X202169271Y-52272561D02*
X202169271Y-51224942D01*
X202264509Y-51034466D01*
X202454985Y-50939228D01*
X202835938Y-50939228D01*
X203026414Y-51034466D01*
X202169271Y-52177323D02*
X202359747Y-52272561D01*
X202835938Y-52272561D01*
X203026414Y-52177323D01*
X203121652Y-51986847D01*
X203121652Y-51796371D01*
X203026414Y-51605895D01*
X202835938Y-51510657D01*
X202359747Y-51510657D01*
X202169271Y-51415419D01*
X201216890Y-52272561D02*
X201216890Y-50272561D01*
X201216890Y-51034466D02*
X201026414Y-50939228D01*
X200645461Y-50939228D01*
X200454985Y-51034466D01*
X200359747Y-51129704D01*
X200264509Y-51320180D01*
X200264509Y-51891609D01*
X200359747Y-52082085D01*
X200454985Y-52177323D01*
X200645461Y-52272561D01*
X201026414Y-52272561D01*
X201216890Y-52177323D01*
X199121652Y-52272561D02*
X199312128Y-52177323D01*
X199407366Y-51986847D01*
X199407366Y-50272561D01*
X197597842Y-52177323D02*
X197788319Y-52272561D01*
X198169271Y-52272561D01*
X198359747Y-52177323D01*
X198454985Y-51986847D01*
X198454985Y-51224942D01*
X198359747Y-51034466D01*
X198169271Y-50939228D01*
X197788319Y-50939228D01*
X197597842Y-51034466D01*
X197502604Y-51224942D01*
X197502604Y-51415419D01*
X198454985Y-51605895D01*
X195121652Y-52272561D02*
X195121652Y-50272561D01*
X193978795Y-52272561D02*
X194835938Y-51129704D01*
X193978795Y-50272561D02*
X195121652Y-51415419D01*
X192359747Y-52177323D02*
X192550223Y-52272561D01*
X192931176Y-52272561D01*
X193121652Y-52177323D01*
X193216890Y-51986847D01*
X193216890Y-51224942D01*
X193121652Y-51034466D01*
X192931176Y-50939228D01*
X192550223Y-50939228D01*
X192359747Y-51034466D01*
X192264509Y-51224942D01*
X192264509Y-51415419D01*
X193216890Y-51605895D01*
X191597842Y-50939228D02*
X191121652Y-52272561D01*
X190645461Y-50939228D02*
X191121652Y-52272561D01*
X191312128Y-52748752D01*
X191407366Y-52843990D01*
X191597842Y-52939228D01*
X189883557Y-50939228D02*
X189883557Y-52939228D01*
X189883557Y-51034466D02*
X189693080Y-50939228D01*
X189312128Y-50939228D01*
X189121652Y-51034466D01*
X189026414Y-51129704D01*
X188931176Y-51320180D01*
X188931176Y-51891609D01*
X189026414Y-52082085D01*
X189121652Y-52177323D01*
X189312128Y-52272561D01*
X189693080Y-52272561D01*
X189883557Y-52177323D01*
X187216890Y-52272561D02*
X187216890Y-51224942D01*
X187312128Y-51034466D01*
X187502604Y-50939228D01*
X187883557Y-50939228D01*
X188074033Y-51034466D01*
X187216890Y-52177323D02*
X187407366Y-52272561D01*
X187883557Y-52272561D01*
X188074033Y-52177323D01*
X188169271Y-51986847D01*
X188169271Y-51796371D01*
X188074033Y-51605895D01*
X187883557Y-51510657D01*
X187407366Y-51510657D01*
X187216890Y-51415419D01*
X185407366Y-52272561D02*
X185407366Y-50272561D01*
X185407366Y-52177323D02*
X185597842Y-52272561D01*
X185978795Y-52272561D01*
X186169271Y-52177323D01*
X186264509Y-52082085D01*
X186359747Y-51891609D01*
X186359747Y-51320180D01*
X186264509Y-51129704D01*
X186169271Y-51034466D01*
X185978795Y-50939228D01*
X185597842Y-50939228D01*
X185407366Y-51034466D01*
X217121652Y-55492561D02*
X217788319Y-54540180D01*
X218264509Y-55492561D02*
X218264509Y-53492561D01*
X217502604Y-53492561D01*
X217312128Y-53587800D01*
X217216890Y-53683038D01*
X217121652Y-53873514D01*
X217121652Y-54159228D01*
X217216890Y-54349704D01*
X217312128Y-54444942D01*
X217502604Y-54540180D01*
X218264509Y-54540180D01*
X215502604Y-55397323D02*
X215693080Y-55492561D01*
X216074033Y-55492561D01*
X216264509Y-55397323D01*
X216359747Y-55206847D01*
X216359747Y-54444942D01*
X216264509Y-54254466D01*
X216074033Y-54159228D01*
X215693080Y-54159228D01*
X215502604Y-54254466D01*
X215407366Y-54444942D01*
X215407366Y-54635419D01*
X216359747Y-54825895D01*
X214740700Y-54159228D02*
X214264509Y-55492561D01*
X213788319Y-54159228D01*
X210835938Y-54444942D02*
X210550223Y-54540180D01*
X210454985Y-54635419D01*
X210359747Y-54825895D01*
X210359747Y-55111609D01*
X210454985Y-55302085D01*
X210550223Y-55397323D01*
X210740700Y-55492561D01*
X211502604Y-55492561D01*
X211502604Y-53492561D01*
X210835938Y-53492561D01*
X210645461Y-53587800D01*
X210550223Y-53683038D01*
X210454985Y-53873514D01*
X210454985Y-54063990D01*
X210550223Y-54254466D01*
X210645461Y-54349704D01*
X210835938Y-54444942D01*
X211502604Y-54444942D01*
X218264509Y-58712561D02*
X218264509Y-56712561D01*
X217597842Y-58141133D01*
X216931176Y-56712561D01*
X216931176Y-58712561D01*
X215121652Y-58712561D02*
X215121652Y-57664942D01*
X215216890Y-57474466D01*
X215407366Y-57379228D01*
X215788319Y-57379228D01*
X215978795Y-57474466D01*
X215121652Y-58617323D02*
X215312128Y-58712561D01*
X215788319Y-58712561D01*
X215978795Y-58617323D01*
X216074033Y-58426847D01*
X216074033Y-58236371D01*
X215978795Y-58045895D01*
X215788319Y-57950657D01*
X215312128Y-57950657D01*
X215121652Y-57855419D01*
X214169271Y-58712561D02*
X214169271Y-57379228D01*
X214169271Y-57760180D02*
X214074033Y-57569704D01*
X213978795Y-57474466D01*
X213788319Y-57379228D01*
X213597842Y-57379228D01*
X213216890Y-57379228D02*
X212454985Y-57379228D01*
X212931176Y-56712561D02*
X212931176Y-58426847D01*
X212835938Y-58617323D01*
X212645461Y-58712561D01*
X212454985Y-58712561D01*
X211978795Y-57379228D02*
X211502604Y-58712561D01*
X211026414Y-57379228D02*
X211502604Y-58712561D01*
X211693080Y-59188752D01*
X211788319Y-59283990D01*
X211978795Y-59379228D01*
X210264509Y-57379228D02*
X210264509Y-58712561D01*
X210264509Y-57569704D02*
X210169271Y-57474466D01*
X209978795Y-57379228D01*
X209693080Y-57379228D01*
X209502604Y-57474466D01*
X209407366Y-57664942D01*
X209407366Y-58712561D01*
X207597842Y-58712561D02*
X207597842Y-57664942D01*
X207693080Y-57474466D01*
X207883557Y-57379228D01*
X208264509Y-57379228D01*
X208454985Y-57474466D01*
X207597842Y-58617323D02*
X207788319Y-58712561D01*
X208264509Y-58712561D01*
X208454985Y-58617323D01*
X208550223Y-58426847D01*
X208550223Y-58236371D01*
X208454985Y-58045895D01*
X208264509Y-57950657D01*
X207788319Y-57950657D01*
X207597842Y-57855419D01*
X206740700Y-58617323D02*
X206550223Y-58712561D01*
X206169271Y-58712561D01*
X205978795Y-58617323D01*
X205883557Y-58426847D01*
X205883557Y-58331609D01*
X205978795Y-58141133D01*
X206169271Y-58045895D01*
X206454985Y-58045895D01*
X206645461Y-57950657D01*
X206740700Y-57760180D01*
X206740700Y-57664942D01*
X206645461Y-57474466D01*
X206454985Y-57379228D01*
X206169271Y-57379228D01*
X205978795Y-57474466D01*
X202931176Y-56712561D02*
X202931176Y-58141133D01*
X203026414Y-58426847D01*
X203216890Y-58617323D01*
X203502604Y-58712561D01*
X203693080Y-58712561D01*
X201978795Y-58522085D02*
X201883557Y-58617323D01*
X201978795Y-58712561D01*
X202074033Y-58617323D01*
X201978795Y-58522085D01*
X201978795Y-58712561D01*
X218359747Y-60123038D02*
X218264509Y-60027800D01*
X218074033Y-59932561D01*
X217597842Y-59932561D01*
X217407366Y-60027800D01*
X217312128Y-60123038D01*
X217216890Y-60313514D01*
X217216890Y-60503990D01*
X217312128Y-60789704D01*
X218454985Y-61932561D01*
X217216890Y-61932561D01*
X215978795Y-59932561D02*
X215788319Y-59932561D01*
X215597842Y-60027800D01*
X215502604Y-60123038D01*
X215407366Y-60313514D01*
X215312128Y-60694466D01*
X215312128Y-61170657D01*
X215407366Y-61551609D01*
X215502604Y-61742085D01*
X215597842Y-61837323D01*
X215788319Y-61932561D01*
X215978795Y-61932561D01*
X216169271Y-61837323D01*
X216264509Y-61742085D01*
X216359747Y-61551609D01*
X216454985Y-61170657D01*
X216454985Y-60694466D01*
X216359747Y-60313514D01*
X216264509Y-60123038D01*
X216169271Y-60027800D01*
X215978795Y-59932561D01*
X214550223Y-60123038D02*
X214454985Y-60027800D01*
X214264509Y-59932561D01*
X213788319Y-59932561D01*
X213597842Y-60027800D01*
X213502604Y-60123038D01*
X213407366Y-60313514D01*
X213407366Y-60503990D01*
X213502604Y-60789704D01*
X214645461Y-61932561D01*
X213407366Y-61932561D01*
X212645461Y-60123038D02*
X212550223Y-60027800D01*
X212359747Y-59932561D01*
X211883557Y-59932561D01*
X211693080Y-60027800D01*
X211597842Y-60123038D01*
X211502604Y-60313514D01*
X211502604Y-60503990D01*
X211597842Y-60789704D01*
X212740700Y-61932561D01*
X211502604Y-61932561D01*
X210645461Y-61170657D02*
X209121652Y-61170657D01*
X207121652Y-61932561D02*
X208264509Y-61932561D01*
X207693080Y-61932561D02*
X207693080Y-59932561D01*
X207883557Y-60218276D01*
X208074033Y-60408752D01*
X208264509Y-60503990D01*
X205883557Y-59932561D02*
X205693080Y-59932561D01*
X205502604Y-60027800D01*
X205407366Y-60123038D01*
X205312128Y-60313514D01*
X205216890Y-60694466D01*
X205216890Y-61170657D01*
X205312128Y-61551609D01*
X205407366Y-61742085D01*
X205502604Y-61837323D01*
X205693080Y-61932561D01*
X205883557Y-61932561D01*
X206074033Y-61837323D01*
X206169271Y-61742085D01*
X206264509Y-61551609D01*
X206359747Y-61170657D01*
X206359747Y-60694466D01*
X206264509Y-60313514D01*
X206169271Y-60123038D01*
X206074033Y-60027800D01*
X205883557Y-59932561D01*
X204359747Y-61170657D02*
X202835938Y-61170657D01*
X200835938Y-61932561D02*
X201978795Y-61932561D01*
X201407366Y-61932561D02*
X201407366Y-59932561D01*
X201597842Y-60218276D01*
X201788319Y-60408752D01*
X201978795Y-60503990D01*
X199597842Y-59932561D02*
X199407366Y-59932561D01*
X199216890Y-60027800D01*
X199121652Y-60123038D01*
X199026414Y-60313514D01*
X198931176Y-60694466D01*
X198931176Y-61170657D01*
X199026414Y-61551609D01*
X199121652Y-61742085D01*
X199216890Y-61837323D01*
X199407366Y-61932561D01*
X199597842Y-61932561D01*
X199788319Y-61837323D01*
X199883557Y-61742085D01*
X199978795Y-61551609D01*
X200074033Y-61170657D01*
X200074033Y-60694466D01*
X199978795Y-60313514D01*
X199883557Y-60123038D01*
X199788319Y-60027800D01*
X199597842Y-59932561D01*
X158532285Y-81658142D02*
X159198952Y-81658142D01*
X159198952Y-82705761D02*
X159198952Y-80705761D01*
X158246571Y-80705761D01*
X171533809Y-87150761D02*
X171533809Y-85150761D01*
X170390952Y-87150761D02*
X171248095Y-86007904D01*
X170390952Y-85150761D02*
X171533809Y-86293619D01*
X159294190Y-76292333D02*
X158341809Y-76292333D01*
X159484666Y-76863761D02*
X158818000Y-74863761D01*
X158151333Y-76863761D01*
X144355809Y-76863761D02*
X144355809Y-74863761D01*
X143879619Y-74863761D01*
X143593904Y-74959000D01*
X143403428Y-75149476D01*
X143308190Y-75339952D01*
X143212952Y-75720904D01*
X143212952Y-76006619D01*
X143308190Y-76387571D01*
X143403428Y-76578047D01*
X143593904Y-76768523D01*
X143879619Y-76863761D01*
X144355809Y-76863761D01*
X143832000Y-82705761D02*
X143832000Y-80705761D01*
X170517952Y-80038761D02*
X171470333Y-80038761D01*
X171470333Y-78038761D01*
X171676666Y-83594761D02*
X171676666Y-81594761D01*
X171010000Y-83023333D01*
X170343333Y-81594761D01*
X170343333Y-83594761D01*
X153341142Y-75816142D02*
X153055428Y-75911380D01*
X152960190Y-76006619D01*
X152864952Y-76197095D01*
X152864952Y-76482809D01*
X152960190Y-76673285D01*
X153055428Y-76768523D01*
X153245904Y-76863761D01*
X154007809Y-76863761D01*
X154007809Y-74863761D01*
X153341142Y-74863761D01*
X153150666Y-74959000D01*
X153055428Y-75054238D01*
X152960190Y-75244714D01*
X152960190Y-75435190D01*
X153055428Y-75625666D01*
X153150666Y-75720904D01*
X153341142Y-75816142D01*
X154007809Y-75816142D01*
X159388357Y-63474523D02*
X159102642Y-63569761D01*
X158626452Y-63569761D01*
X158435976Y-63474523D01*
X158340738Y-63379285D01*
X158245500Y-63188809D01*
X158245500Y-62998333D01*
X158340738Y-62807857D01*
X158435976Y-62712619D01*
X158626452Y-62617380D01*
X159007404Y-62522142D01*
X159197880Y-62426904D01*
X159293119Y-62331666D01*
X159388357Y-62141190D01*
X159388357Y-61950714D01*
X159293119Y-61760238D01*
X159197880Y-61665000D01*
X159007404Y-61569761D01*
X158531214Y-61569761D01*
X158245500Y-61665000D01*
X157388357Y-63569761D02*
X157388357Y-61569761D01*
X156531214Y-63569761D02*
X156531214Y-62522142D01*
X156626452Y-62331666D01*
X156816928Y-62236428D01*
X157102642Y-62236428D01*
X157293119Y-62331666D01*
X157388357Y-62426904D01*
X155293119Y-63569761D02*
X155483595Y-63474523D01*
X155578833Y-63379285D01*
X155674071Y-63188809D01*
X155674071Y-62617380D01*
X155578833Y-62426904D01*
X155483595Y-62331666D01*
X155293119Y-62236428D01*
X155007404Y-62236428D01*
X154816928Y-62331666D01*
X154721690Y-62426904D01*
X154626452Y-62617380D01*
X154626452Y-63188809D01*
X154721690Y-63379285D01*
X154816928Y-63474523D01*
X155007404Y-63569761D01*
X155293119Y-63569761D01*
X153769309Y-63569761D02*
X153769309Y-62236428D01*
X153769309Y-62617380D02*
X153674071Y-62426904D01*
X153578833Y-62331666D01*
X153388357Y-62236428D01*
X153197880Y-62236428D01*
X152816928Y-62236428D02*
X152055023Y-62236428D01*
X152531214Y-61569761D02*
X152531214Y-63284047D01*
X152435976Y-63474523D01*
X152245500Y-63569761D01*
X152055023Y-63569761D01*
X150531214Y-63474523D02*
X150721690Y-63569761D01*
X151102642Y-63569761D01*
X151293119Y-63474523D01*
X151388357Y-63379285D01*
X151483595Y-63188809D01*
X151483595Y-62617380D01*
X151388357Y-62426904D01*
X151293119Y-62331666D01*
X151102642Y-62236428D01*
X150721690Y-62236428D01*
X150531214Y-62331666D01*
X148816928Y-62236428D02*
X148816928Y-63569761D01*
X149674071Y-62236428D02*
X149674071Y-63284047D01*
X149578833Y-63474523D01*
X149388357Y-63569761D01*
X149102642Y-63569761D01*
X148912166Y-63474523D01*
X148816928Y-63379285D01*
X148150261Y-62236428D02*
X147388357Y-62236428D01*
X147864547Y-61569761D02*
X147864547Y-63284047D01*
X147769309Y-63474523D01*
X147578833Y-63569761D01*
X147388357Y-63569761D01*
X144912166Y-63569761D02*
X145102642Y-63474523D01*
X145197880Y-63284047D01*
X145197880Y-61569761D01*
X143388357Y-63474523D02*
X143578833Y-63569761D01*
X143959785Y-63569761D01*
X144150261Y-63474523D01*
X144245500Y-63284047D01*
X144245500Y-62522142D01*
X144150261Y-62331666D01*
X143959785Y-62236428D01*
X143578833Y-62236428D01*
X143388357Y-62331666D01*
X143293119Y-62522142D01*
X143293119Y-62712619D01*
X144245500Y-62903095D01*
X141578833Y-62236428D02*
X141578833Y-63855476D01*
X141674071Y-64045952D01*
X141769309Y-64141190D01*
X141959785Y-64236428D01*
X142245500Y-64236428D01*
X142435976Y-64141190D01*
X141578833Y-63474523D02*
X141769309Y-63569761D01*
X142150261Y-63569761D01*
X142340738Y-63474523D01*
X142435976Y-63379285D01*
X142531214Y-63188809D01*
X142531214Y-62617380D01*
X142435976Y-62426904D01*
X142340738Y-62331666D01*
X142150261Y-62236428D01*
X141769309Y-62236428D01*
X141578833Y-62331666D01*
X139864547Y-63474523D02*
X140055023Y-63569761D01*
X140435976Y-63569761D01*
X140626452Y-63474523D01*
X140721690Y-63284047D01*
X140721690Y-62522142D01*
X140626452Y-62331666D01*
X140435976Y-62236428D01*
X140055023Y-62236428D01*
X139864547Y-62331666D01*
X139769309Y-62522142D01*
X139769309Y-62712619D01*
X140721690Y-62903095D01*
X138055023Y-62236428D02*
X138055023Y-63855476D01*
X138150261Y-64045952D01*
X138245500Y-64141190D01*
X138435976Y-64236428D01*
X138721690Y-64236428D01*
X138912166Y-64141190D01*
X138055023Y-63474523D02*
X138245500Y-63569761D01*
X138626452Y-63569761D01*
X138816928Y-63474523D01*
X138912166Y-63379285D01*
X139007404Y-63188809D01*
X139007404Y-62617380D01*
X138912166Y-62426904D01*
X138816928Y-62331666D01*
X138626452Y-62236428D01*
X138245500Y-62236428D01*
X138055023Y-62331666D01*
X136340738Y-63474523D02*
X136531214Y-63569761D01*
X136912166Y-63569761D01*
X137102642Y-63474523D01*
X137197880Y-63284047D01*
X137197880Y-62522142D01*
X137102642Y-62331666D01*
X136912166Y-62236428D01*
X136531214Y-62236428D01*
X136340738Y-62331666D01*
X136245500Y-62522142D01*
X136245500Y-62712619D01*
X137197880Y-62903095D01*
X135388357Y-62236428D02*
X135388357Y-63569761D01*
X135388357Y-62426904D02*
X135293119Y-62331666D01*
X135102642Y-62236428D01*
X134816928Y-62236428D01*
X134626452Y-62331666D01*
X134531214Y-62522142D01*
X134531214Y-63569761D01*
X132721690Y-63569761D02*
X132721690Y-61569761D01*
X132721690Y-63474523D02*
X132912166Y-63569761D01*
X133293119Y-63569761D01*
X133483595Y-63474523D01*
X133578833Y-63379285D01*
X133674071Y-63188809D01*
X133674071Y-62617380D01*
X133578833Y-62426904D01*
X133483595Y-62331666D01*
X133293119Y-62236428D01*
X132912166Y-62236428D01*
X132721690Y-62331666D01*
X147959785Y-66599285D02*
X148055023Y-66694523D01*
X148340738Y-66789761D01*
X148531214Y-66789761D01*
X148816928Y-66694523D01*
X149007404Y-66504047D01*
X149102642Y-66313571D01*
X149197880Y-65932619D01*
X149197880Y-65646904D01*
X149102642Y-65265952D01*
X149007404Y-65075476D01*
X148816928Y-64885000D01*
X148531214Y-64789761D01*
X148340738Y-64789761D01*
X148055023Y-64885000D01*
X147959785Y-64980238D01*
X147388357Y-65456428D02*
X146626452Y-65456428D01*
X147102642Y-64789761D02*
X147102642Y-66504047D01*
X147007404Y-66694523D01*
X146816928Y-66789761D01*
X146626452Y-66789761D01*
X145959785Y-66789761D02*
X145959785Y-65456428D01*
X145959785Y-65837380D02*
X145864547Y-65646904D01*
X145769309Y-65551666D01*
X145578833Y-65456428D01*
X145388357Y-65456428D01*
X144435976Y-66789761D02*
X144626452Y-66694523D01*
X144721690Y-66504047D01*
X144721690Y-64789761D01*
X143674071Y-66027857D02*
X142150261Y-66027857D01*
X142912166Y-66789761D02*
X142912166Y-65265952D01*
X141293119Y-66694523D02*
X141007404Y-66789761D01*
X140531214Y-66789761D01*
X140340738Y-66694523D01*
X140245500Y-66599285D01*
X140150261Y-66408809D01*
X140150261Y-66218333D01*
X140245500Y-66027857D01*
X140340738Y-65932619D01*
X140531214Y-65837380D01*
X140912166Y-65742142D01*
X141102642Y-65646904D01*
X141197880Y-65551666D01*
X141293119Y-65361190D01*
X141293119Y-65170714D01*
X141197880Y-64980238D01*
X141102642Y-64885000D01*
X140912166Y-64789761D01*
X140435976Y-64789761D01*
X140150261Y-64885000D01*
X139293119Y-66789761D02*
X139293119Y-64789761D01*
X138435976Y-66789761D02*
X138435976Y-65742142D01*
X138531214Y-65551666D01*
X138721690Y-65456428D01*
X139007404Y-65456428D01*
X139197880Y-65551666D01*
X139293119Y-65646904D01*
X137483595Y-66789761D02*
X137483595Y-65456428D01*
X137483595Y-64789761D02*
X137578833Y-64885000D01*
X137483595Y-64980238D01*
X137388357Y-64885000D01*
X137483595Y-64789761D01*
X137483595Y-64980238D01*
X136816928Y-65456428D02*
X136055023Y-65456428D01*
X136531214Y-66789761D02*
X136531214Y-65075476D01*
X136435976Y-64885000D01*
X136245500Y-64789761D01*
X136055023Y-64789761D01*
X135674071Y-65456428D02*
X134912166Y-65456428D01*
X135388357Y-64789761D02*
X135388357Y-66504047D01*
X135293119Y-66694523D01*
X135102642Y-66789761D01*
X134912166Y-66789761D01*
X134245500Y-66027857D02*
X132721690Y-66027857D01*
X133483595Y-66789761D02*
X133483595Y-65265952D01*
X147784952Y-76673285D02*
X147880190Y-76768523D01*
X148165904Y-76863761D01*
X148356380Y-76863761D01*
X148642095Y-76768523D01*
X148832571Y-76578047D01*
X148927809Y-76387571D01*
X149023047Y-76006619D01*
X149023047Y-75720904D01*
X148927809Y-75339952D01*
X148832571Y-75149476D01*
X148642095Y-74959000D01*
X148356380Y-74863761D01*
X148165904Y-74863761D01*
X147880190Y-74959000D01*
X147784952Y-75054238D01*
X148975428Y-82705761D02*
X148975428Y-80705761D01*
X148975428Y-81658142D02*
X147832571Y-81658142D01*
X147832571Y-82705761D02*
X147832571Y-80705761D01*
X207877933Y-112812761D02*
X207735076Y-112860380D01*
X207496980Y-112860380D01*
X207401742Y-112812761D01*
X207354123Y-112765142D01*
X207306504Y-112669904D01*
X207306504Y-112574666D01*
X207354123Y-112479428D01*
X207401742Y-112431809D01*
X207496980Y-112384190D01*
X207687457Y-112336571D01*
X207782695Y-112288952D01*
X207830314Y-112241333D01*
X207877933Y-112146095D01*
X207877933Y-112050857D01*
X207830314Y-111955619D01*
X207782695Y-111908000D01*
X207687457Y-111860380D01*
X207449361Y-111860380D01*
X207306504Y-111908000D01*
X206973171Y-111860380D02*
X206735076Y-112860380D01*
X206544600Y-112146095D01*
X206354123Y-112860380D01*
X206116028Y-111860380D01*
X205592219Y-112288952D02*
X205687457Y-112241333D01*
X205735076Y-112193714D01*
X205782695Y-112098476D01*
X205782695Y-112050857D01*
X205735076Y-111955619D01*
X205687457Y-111908000D01*
X205592219Y-111860380D01*
X205401742Y-111860380D01*
X205306504Y-111908000D01*
X205258885Y-111955619D01*
X205211266Y-112050857D01*
X205211266Y-112098476D01*
X205258885Y-112193714D01*
X205306504Y-112241333D01*
X205401742Y-112288952D01*
X205592219Y-112288952D01*
X205687457Y-112336571D01*
X205735076Y-112384190D01*
X205782695Y-112479428D01*
X205782695Y-112669904D01*
X205735076Y-112765142D01*
X205687457Y-112812761D01*
X205592219Y-112860380D01*
X205401742Y-112860380D01*
X205306504Y-112812761D01*
X205258885Y-112765142D01*
X205211266Y-112669904D01*
X205211266Y-112479428D01*
X205258885Y-112384190D01*
X205306504Y-112336571D01*
X205401742Y-112288952D01*
X207827133Y-89317761D02*
X207684276Y-89365380D01*
X207446180Y-89365380D01*
X207350942Y-89317761D01*
X207303323Y-89270142D01*
X207255704Y-89174904D01*
X207255704Y-89079666D01*
X207303323Y-88984428D01*
X207350942Y-88936809D01*
X207446180Y-88889190D01*
X207636657Y-88841571D01*
X207731895Y-88793952D01*
X207779514Y-88746333D01*
X207827133Y-88651095D01*
X207827133Y-88555857D01*
X207779514Y-88460619D01*
X207731895Y-88413000D01*
X207636657Y-88365380D01*
X207398561Y-88365380D01*
X207255704Y-88413000D01*
X206922371Y-88365380D02*
X206684276Y-89365380D01*
X206493800Y-88651095D01*
X206303323Y-89365380D01*
X206065228Y-88365380D01*
X205779514Y-88365380D02*
X205112847Y-88365380D01*
X205541419Y-89365380D01*
X97635523Y-46137761D02*
X97492666Y-46185380D01*
X97254571Y-46185380D01*
X97159333Y-46137761D01*
X97111714Y-46090142D01*
X97064095Y-45994904D01*
X97064095Y-45899666D01*
X97111714Y-45804428D01*
X97159333Y-45756809D01*
X97254571Y-45709190D01*
X97445047Y-45661571D01*
X97540285Y-45613952D01*
X97587904Y-45566333D01*
X97635523Y-45471095D01*
X97635523Y-45375857D01*
X97587904Y-45280619D01*
X97540285Y-45233000D01*
X97445047Y-45185380D01*
X97206952Y-45185380D01*
X97064095Y-45233000D01*
X96730761Y-45185380D02*
X96492666Y-46185380D01*
X96302190Y-45471095D01*
X96111714Y-46185380D01*
X95873619Y-45185380D01*
X94968857Y-46185380D02*
X95540285Y-46185380D01*
X95254571Y-46185380D02*
X95254571Y-45185380D01*
X95349809Y-45328238D01*
X95445047Y-45423476D01*
X95540285Y-45471095D01*
X94635523Y-45185380D02*
X93968857Y-45185380D01*
X94397428Y-46185380D01*
X116915857Y-47074380D02*
X117249190Y-46598190D01*
X117487285Y-47074380D02*
X117487285Y-46074380D01*
X117106333Y-46074380D01*
X117011095Y-46122000D01*
X116963476Y-46169619D01*
X116915857Y-46264857D01*
X116915857Y-46407714D01*
X116963476Y-46502952D01*
X117011095Y-46550571D01*
X117106333Y-46598190D01*
X117487285Y-46598190D01*
X115963476Y-47074380D02*
X116534904Y-47074380D01*
X116249190Y-47074380D02*
X116249190Y-46074380D01*
X116344428Y-46217238D01*
X116439666Y-46312476D01*
X116534904Y-46360095D01*
X115058714Y-46074380D02*
X115534904Y-46074380D01*
X115582523Y-46550571D01*
X115534904Y-46502952D01*
X115439666Y-46455333D01*
X115201571Y-46455333D01*
X115106333Y-46502952D01*
X115058714Y-46550571D01*
X115011095Y-46645809D01*
X115011095Y-46883904D01*
X115058714Y-46979142D01*
X115106333Y-47026761D01*
X115201571Y-47074380D01*
X115439666Y-47074380D01*
X115534904Y-47026761D01*
X115582523Y-46979142D01*
X101580666Y-80348380D02*
X101914000Y-79872190D01*
X102152095Y-80348380D02*
X102152095Y-79348380D01*
X101771142Y-79348380D01*
X101675904Y-79396000D01*
X101628285Y-79443619D01*
X101580666Y-79538857D01*
X101580666Y-79681714D01*
X101628285Y-79776952D01*
X101675904Y-79824571D01*
X101771142Y-79872190D01*
X102152095Y-79872190D01*
X101247333Y-79348380D02*
X100628285Y-79348380D01*
X100961619Y-79729333D01*
X100818761Y-79729333D01*
X100723523Y-79776952D01*
X100675904Y-79824571D01*
X100628285Y-79919809D01*
X100628285Y-80157904D01*
X100675904Y-80253142D01*
X100723523Y-80300761D01*
X100818761Y-80348380D01*
X101104476Y-80348380D01*
X101199714Y-80300761D01*
X101247333Y-80253142D01*
X123424666Y-127212380D02*
X123758000Y-126736190D01*
X123996095Y-127212380D02*
X123996095Y-126212380D01*
X123615142Y-126212380D01*
X123519904Y-126260000D01*
X123472285Y-126307619D01*
X123424666Y-126402857D01*
X123424666Y-126545714D01*
X123472285Y-126640952D01*
X123519904Y-126688571D01*
X123615142Y-126736190D01*
X123996095Y-126736190D01*
X122948476Y-127212380D02*
X122758000Y-127212380D01*
X122662761Y-127164761D01*
X122615142Y-127117142D01*
X122519904Y-126974285D01*
X122472285Y-126783809D01*
X122472285Y-126402857D01*
X122519904Y-126307619D01*
X122567523Y-126260000D01*
X122662761Y-126212380D01*
X122853238Y-126212380D01*
X122948476Y-126260000D01*
X122996095Y-126307619D01*
X123043714Y-126402857D01*
X123043714Y-126640952D01*
X122996095Y-126736190D01*
X122948476Y-126783809D01*
X122853238Y-126831428D01*
X122662761Y-126831428D01*
X122567523Y-126783809D01*
X122519904Y-126736190D01*
X122472285Y-126640952D01*
X115931666Y-50027142D02*
X115979285Y-50074761D01*
X116122142Y-50122380D01*
X116217380Y-50122380D01*
X116360238Y-50074761D01*
X116455476Y-49979523D01*
X116503095Y-49884285D01*
X116550714Y-49693809D01*
X116550714Y-49550952D01*
X116503095Y-49360476D01*
X116455476Y-49265238D01*
X116360238Y-49170000D01*
X116217380Y-49122380D01*
X116122142Y-49122380D01*
X115979285Y-49170000D01*
X115931666Y-49217619D01*
X114979285Y-50122380D02*
X115550714Y-50122380D01*
X115265000Y-50122380D02*
X115265000Y-49122380D01*
X115360238Y-49265238D01*
X115455476Y-49360476D01*
X115550714Y-49408095D01*
X101580666Y-100796380D02*
X101914000Y-100320190D01*
X102152095Y-100796380D02*
X102152095Y-99796380D01*
X101771142Y-99796380D01*
X101675904Y-99844000D01*
X101628285Y-99891619D01*
X101580666Y-99986857D01*
X101580666Y-100129714D01*
X101628285Y-100224952D01*
X101675904Y-100272571D01*
X101771142Y-100320190D01*
X102152095Y-100320190D01*
X100723523Y-99796380D02*
X100914000Y-99796380D01*
X101009238Y-99844000D01*
X101056857Y-99891619D01*
X101152095Y-100034476D01*
X101199714Y-100224952D01*
X101199714Y-100605904D01*
X101152095Y-100701142D01*
X101104476Y-100748761D01*
X101009238Y-100796380D01*
X100818761Y-100796380D01*
X100723523Y-100748761D01*
X100675904Y-100701142D01*
X100628285Y-100605904D01*
X100628285Y-100367809D01*
X100675904Y-100272571D01*
X100723523Y-100224952D01*
X100818761Y-100177333D01*
X101009238Y-100177333D01*
X101104476Y-100224952D01*
X101152095Y-100272571D01*
X101199714Y-100367809D01*
X83205333Y-100176380D02*
X83205333Y-100890666D01*
X83252952Y-101033523D01*
X83348190Y-101128761D01*
X83491047Y-101176380D01*
X83586285Y-101176380D01*
X82776761Y-100271619D02*
X82729142Y-100224000D01*
X82633904Y-100176380D01*
X82395809Y-100176380D01*
X82300571Y-100224000D01*
X82252952Y-100271619D01*
X82205333Y-100366857D01*
X82205333Y-100462095D01*
X82252952Y-100604952D01*
X82824380Y-101176380D01*
X82205333Y-101176380D01*
X83633904Y-136244380D02*
X83633904Y-137053904D01*
X83586285Y-137149142D01*
X83538666Y-137196761D01*
X83443428Y-137244380D01*
X83252952Y-137244380D01*
X83157714Y-137196761D01*
X83110095Y-137149142D01*
X83062476Y-137053904D01*
X83062476Y-136244380D01*
X82062476Y-137244380D02*
X82633904Y-137244380D01*
X82348190Y-137244380D02*
X82348190Y-136244380D01*
X82443428Y-136387238D01*
X82538666Y-136482476D01*
X82633904Y-136530095D01*
X84022857Y-64727380D02*
X84356190Y-64251190D01*
X84594285Y-64727380D02*
X84594285Y-63727380D01*
X84213333Y-63727380D01*
X84118095Y-63775000D01*
X84070476Y-63822619D01*
X84022857Y-63917857D01*
X84022857Y-64060714D01*
X84070476Y-64155952D01*
X84118095Y-64203571D01*
X84213333Y-64251190D01*
X84594285Y-64251190D01*
X83070476Y-64727380D02*
X83641904Y-64727380D01*
X83356190Y-64727380D02*
X83356190Y-63727380D01*
X83451428Y-63870238D01*
X83546666Y-63965476D01*
X83641904Y-64013095D01*
X82213333Y-63727380D02*
X82403809Y-63727380D01*
X82499047Y-63775000D01*
X82546666Y-63822619D01*
X82641904Y-63965476D01*
X82689523Y-64155952D01*
X82689523Y-64536904D01*
X82641904Y-64632142D01*
X82594285Y-64679761D01*
X82499047Y-64727380D01*
X82308571Y-64727380D01*
X82213333Y-64679761D01*
X82165714Y-64632142D01*
X82118095Y-64536904D01*
X82118095Y-64298809D01*
X82165714Y-64203571D01*
X82213333Y-64155952D01*
X82308571Y-64108333D01*
X82499047Y-64108333D01*
X82594285Y-64155952D01*
X82641904Y-64203571D01*
X82689523Y-64298809D01*
X143966857Y-127212380D02*
X144300190Y-126736190D01*
X144538285Y-127212380D02*
X144538285Y-126212380D01*
X144157333Y-126212380D01*
X144062095Y-126260000D01*
X144014476Y-126307619D01*
X143966857Y-126402857D01*
X143966857Y-126545714D01*
X144014476Y-126640952D01*
X144062095Y-126688571D01*
X144157333Y-126736190D01*
X144538285Y-126736190D01*
X143014476Y-127212380D02*
X143585904Y-127212380D01*
X143300190Y-127212380D02*
X143300190Y-126212380D01*
X143395428Y-126355238D01*
X143490666Y-126450476D01*
X143585904Y-126498095D01*
X142681142Y-126212380D02*
X142062095Y-126212380D01*
X142395428Y-126593333D01*
X142252571Y-126593333D01*
X142157333Y-126640952D01*
X142109714Y-126688571D01*
X142062095Y-126783809D01*
X142062095Y-127021904D01*
X142109714Y-127117142D01*
X142157333Y-127164761D01*
X142252571Y-127212380D01*
X142538285Y-127212380D01*
X142633523Y-127164761D01*
X142681142Y-127117142D01*
X83205333Y-86206380D02*
X83205333Y-86920666D01*
X83252952Y-87063523D01*
X83348190Y-87158761D01*
X83491047Y-87206380D01*
X83586285Y-87206380D01*
X82205333Y-87206380D02*
X82776761Y-87206380D01*
X82491047Y-87206380D02*
X82491047Y-86206380D01*
X82586285Y-86349238D01*
X82681523Y-86444476D01*
X82776761Y-86492095D01*
X163302666Y-100288380D02*
X163636000Y-99812190D01*
X163874095Y-100288380D02*
X163874095Y-99288380D01*
X163493142Y-99288380D01*
X163397904Y-99336000D01*
X163350285Y-99383619D01*
X163302666Y-99478857D01*
X163302666Y-99621714D01*
X163350285Y-99716952D01*
X163397904Y-99764571D01*
X163493142Y-99812190D01*
X163874095Y-99812190D01*
X162731238Y-99716952D02*
X162826476Y-99669333D01*
X162874095Y-99621714D01*
X162921714Y-99526476D01*
X162921714Y-99478857D01*
X162874095Y-99383619D01*
X162826476Y-99336000D01*
X162731238Y-99288380D01*
X162540761Y-99288380D01*
X162445523Y-99336000D01*
X162397904Y-99383619D01*
X162350285Y-99478857D01*
X162350285Y-99526476D01*
X162397904Y-99621714D01*
X162445523Y-99669333D01*
X162540761Y-99716952D01*
X162731238Y-99716952D01*
X162826476Y-99764571D01*
X162874095Y-99812190D01*
X162921714Y-99907428D01*
X162921714Y-100097904D01*
X162874095Y-100193142D01*
X162826476Y-100240761D01*
X162731238Y-100288380D01*
X162540761Y-100288380D01*
X162445523Y-100240761D01*
X162397904Y-100193142D01*
X162350285Y-100097904D01*
X162350285Y-99907428D01*
X162397904Y-99812190D01*
X162445523Y-99764571D01*
X162540761Y-99716952D01*
X101580666Y-90636380D02*
X101914000Y-90160190D01*
X102152095Y-90636380D02*
X102152095Y-89636380D01*
X101771142Y-89636380D01*
X101675904Y-89684000D01*
X101628285Y-89731619D01*
X101580666Y-89826857D01*
X101580666Y-89969714D01*
X101628285Y-90064952D01*
X101675904Y-90112571D01*
X101771142Y-90160190D01*
X102152095Y-90160190D01*
X100628285Y-90636380D02*
X101199714Y-90636380D01*
X100914000Y-90636380D02*
X100914000Y-89636380D01*
X101009238Y-89779238D01*
X101104476Y-89874476D01*
X101199714Y-89922095D01*
X183844857Y-127212380D02*
X184178190Y-126736190D01*
X184416285Y-127212380D02*
X184416285Y-126212380D01*
X184035333Y-126212380D01*
X183940095Y-126260000D01*
X183892476Y-126307619D01*
X183844857Y-126402857D01*
X183844857Y-126545714D01*
X183892476Y-126640952D01*
X183940095Y-126688571D01*
X184035333Y-126736190D01*
X184416285Y-126736190D01*
X182892476Y-127212380D02*
X183463904Y-127212380D01*
X183178190Y-127212380D02*
X183178190Y-126212380D01*
X183273428Y-126355238D01*
X183368666Y-126450476D01*
X183463904Y-126498095D01*
X182035333Y-126545714D02*
X182035333Y-127212380D01*
X182273428Y-126164761D02*
X182511523Y-126879047D01*
X181892476Y-126879047D01*
X100564666Y-109177380D02*
X100898000Y-108701190D01*
X101136095Y-109177380D02*
X101136095Y-108177380D01*
X100755142Y-108177380D01*
X100659904Y-108225000D01*
X100612285Y-108272619D01*
X100564666Y-108367857D01*
X100564666Y-108510714D01*
X100612285Y-108605952D01*
X100659904Y-108653571D01*
X100755142Y-108701190D01*
X101136095Y-108701190D01*
X100183714Y-108272619D02*
X100136095Y-108225000D01*
X100040857Y-108177380D01*
X99802761Y-108177380D01*
X99707523Y-108225000D01*
X99659904Y-108272619D01*
X99612285Y-108367857D01*
X99612285Y-108463095D01*
X99659904Y-108605952D01*
X100231333Y-109177380D01*
X99612285Y-109177380D01*
X102596666Y-137371380D02*
X102930000Y-136895190D01*
X103168095Y-137371380D02*
X103168095Y-136371380D01*
X102787142Y-136371380D01*
X102691904Y-136419000D01*
X102644285Y-136466619D01*
X102596666Y-136561857D01*
X102596666Y-136704714D01*
X102644285Y-136799952D01*
X102691904Y-136847571D01*
X102787142Y-136895190D01*
X103168095Y-136895190D01*
X101691904Y-136371380D02*
X102168095Y-136371380D01*
X102215714Y-136847571D01*
X102168095Y-136799952D01*
X102072857Y-136752333D01*
X101834761Y-136752333D01*
X101739523Y-136799952D01*
X101691904Y-136847571D01*
X101644285Y-136942809D01*
X101644285Y-137180904D01*
X101691904Y-137276142D01*
X101739523Y-137323761D01*
X101834761Y-137371380D01*
X102072857Y-137371380D01*
X102168095Y-137323761D01*
X102215714Y-137276142D01*
X143966857Y-100288380D02*
X144300190Y-99812190D01*
X144538285Y-100288380D02*
X144538285Y-99288380D01*
X144157333Y-99288380D01*
X144062095Y-99336000D01*
X144014476Y-99383619D01*
X143966857Y-99478857D01*
X143966857Y-99621714D01*
X144014476Y-99716952D01*
X144062095Y-99764571D01*
X144157333Y-99812190D01*
X144538285Y-99812190D01*
X143014476Y-100288380D02*
X143585904Y-100288380D01*
X143300190Y-100288380D02*
X143300190Y-99288380D01*
X143395428Y-99431238D01*
X143490666Y-99526476D01*
X143585904Y-99574095D01*
X142062095Y-100288380D02*
X142633523Y-100288380D01*
X142347809Y-100288380D02*
X142347809Y-99288380D01*
X142443047Y-99431238D01*
X142538285Y-99526476D01*
X142633523Y-99574095D01*
X183844857Y-100288380D02*
X184178190Y-99812190D01*
X184416285Y-100288380D02*
X184416285Y-99288380D01*
X184035333Y-99288380D01*
X183940095Y-99336000D01*
X183892476Y-99383619D01*
X183844857Y-99478857D01*
X183844857Y-99621714D01*
X183892476Y-99716952D01*
X183940095Y-99764571D01*
X184035333Y-99812190D01*
X184416285Y-99812190D01*
X182892476Y-100288380D02*
X183463904Y-100288380D01*
X183178190Y-100288380D02*
X183178190Y-99288380D01*
X183273428Y-99431238D01*
X183368666Y-99526476D01*
X183463904Y-99574095D01*
X182511523Y-99383619D02*
X182463904Y-99336000D01*
X182368666Y-99288380D01*
X182130571Y-99288380D01*
X182035333Y-99336000D01*
X181987714Y-99383619D01*
X181940095Y-99478857D01*
X181940095Y-99574095D01*
X181987714Y-99716952D01*
X182559142Y-100288380D01*
X181940095Y-100288380D01*
X107676666Y-137371380D02*
X108010000Y-136895190D01*
X108248095Y-137371380D02*
X108248095Y-136371380D01*
X107867142Y-136371380D01*
X107771904Y-136419000D01*
X107724285Y-136466619D01*
X107676666Y-136561857D01*
X107676666Y-136704714D01*
X107724285Y-136799952D01*
X107771904Y-136847571D01*
X107867142Y-136895190D01*
X108248095Y-136895190D01*
X106819523Y-136704714D02*
X106819523Y-137371380D01*
X107057619Y-136323761D02*
X107295714Y-137038047D01*
X106676666Y-137038047D01*
X116915857Y-53678380D02*
X117249190Y-53202190D01*
X117487285Y-53678380D02*
X117487285Y-52678380D01*
X117106333Y-52678380D01*
X117011095Y-52726000D01*
X116963476Y-52773619D01*
X116915857Y-52868857D01*
X116915857Y-53011714D01*
X116963476Y-53106952D01*
X117011095Y-53154571D01*
X117106333Y-53202190D01*
X117487285Y-53202190D01*
X115963476Y-53678380D02*
X116534904Y-53678380D01*
X116249190Y-53678380D02*
X116249190Y-52678380D01*
X116344428Y-52821238D01*
X116439666Y-52916476D01*
X116534904Y-52964095D01*
X115630142Y-52678380D02*
X114963476Y-52678380D01*
X115392047Y-53678380D01*
X123424666Y-100288380D02*
X123758000Y-99812190D01*
X123996095Y-100288380D02*
X123996095Y-99288380D01*
X123615142Y-99288380D01*
X123519904Y-99336000D01*
X123472285Y-99383619D01*
X123424666Y-99478857D01*
X123424666Y-99621714D01*
X123472285Y-99716952D01*
X123519904Y-99764571D01*
X123615142Y-99812190D01*
X123996095Y-99812190D01*
X123091333Y-99288380D02*
X122424666Y-99288380D01*
X122853238Y-100288380D01*
X86848666Y-64632142D02*
X86896285Y-64679761D01*
X87039142Y-64727380D01*
X87134380Y-64727380D01*
X87277238Y-64679761D01*
X87372476Y-64584523D01*
X87420095Y-64489285D01*
X87467714Y-64298809D01*
X87467714Y-64155952D01*
X87420095Y-63965476D01*
X87372476Y-63870238D01*
X87277238Y-63775000D01*
X87134380Y-63727380D01*
X87039142Y-63727380D01*
X86896285Y-63775000D01*
X86848666Y-63822619D01*
X86467714Y-63822619D02*
X86420095Y-63775000D01*
X86324857Y-63727380D01*
X86086761Y-63727380D01*
X85991523Y-63775000D01*
X85943904Y-63822619D01*
X85896285Y-63917857D01*
X85896285Y-64013095D01*
X85943904Y-64155952D01*
X86515333Y-64727380D01*
X85896285Y-64727380D01*
X163778857Y-127212380D02*
X164112190Y-126736190D01*
X164350285Y-127212380D02*
X164350285Y-126212380D01*
X163969333Y-126212380D01*
X163874095Y-126260000D01*
X163826476Y-126307619D01*
X163778857Y-126402857D01*
X163778857Y-126545714D01*
X163826476Y-126640952D01*
X163874095Y-126688571D01*
X163969333Y-126736190D01*
X164350285Y-126736190D01*
X162826476Y-127212380D02*
X163397904Y-127212380D01*
X163112190Y-127212380D02*
X163112190Y-126212380D01*
X163207428Y-126355238D01*
X163302666Y-126450476D01*
X163397904Y-126498095D01*
X162207428Y-126212380D02*
X162112190Y-126212380D01*
X162016952Y-126260000D01*
X161969333Y-126307619D01*
X161921714Y-126402857D01*
X161874095Y-126593333D01*
X161874095Y-126831428D01*
X161921714Y-127021904D01*
X161969333Y-127117142D01*
X162016952Y-127164761D01*
X162112190Y-127212380D01*
X162207428Y-127212380D01*
X162302666Y-127164761D01*
X162350285Y-127117142D01*
X162397904Y-127021904D01*
X162445523Y-126831428D01*
X162445523Y-126593333D01*
X162397904Y-126402857D01*
X162350285Y-126307619D01*
X162302666Y-126260000D01*
X162207428Y-126212380D01*
D11*
X97999400Y-47398600D02*
X86010600Y-47398600D01*
X86010600Y-47398600D02*
X86010600Y-59031800D01*
X86010600Y-59031800D02*
X97999400Y-59031800D01*
X97999400Y-59031800D02*
X97999400Y-47398600D01*
X112362936Y-47357000D02*
X112817064Y-47357000D01*
X112362936Y-45887000D02*
X112817064Y-45887000D01*
X101641064Y-81193000D02*
X101186936Y-81193000D01*
X101641064Y-82663000D02*
X101186936Y-82663000D01*
X123485064Y-129145000D02*
X123030936Y-129145000D01*
X123485064Y-127675000D02*
X123030936Y-127675000D01*
X112328748Y-48935000D02*
X112851252Y-48935000D01*
X112328748Y-50405000D02*
X112851252Y-50405000D01*
X101641064Y-101259000D02*
X101186936Y-101259000D01*
X101641064Y-102729000D02*
X101186936Y-102729000D01*
X79860000Y-102696000D02*
X79860000Y-107896000D01*
X87160000Y-102196000D02*
X87160000Y-100196000D01*
X92660000Y-108396000D02*
X92660000Y-110396000D01*
X82360000Y-102196000D02*
X82360000Y-102696000D01*
X92660000Y-102196000D02*
X87160000Y-102196000D01*
X84581600Y-108394800D02*
X82381600Y-108394800D01*
X82360000Y-102696000D02*
X79860000Y-102696000D01*
X84560000Y-102196000D02*
X84560000Y-100196000D01*
X84560000Y-102196000D02*
X82360000Y-102196000D01*
X82381600Y-107894800D02*
X79881600Y-107894800D01*
X95495800Y-106997800D02*
X95495800Y-110396000D01*
X82381600Y-108394800D02*
X82381600Y-107894800D01*
X92660000Y-102196000D02*
X92660000Y-100196000D01*
X84581600Y-108394800D02*
X84581600Y-110394800D01*
X87160000Y-108396000D02*
X87160000Y-110396000D01*
X95495800Y-103645000D02*
X95495800Y-100196000D01*
X92660000Y-108396000D02*
X87160000Y-108396000D01*
D10*
X80840000Y-121044000D02*
X80840000Y-128664000D01*
X83380000Y-128664000D02*
X83380000Y-133744000D01*
X80840000Y-128664000D02*
X83380000Y-128664000D01*
X83380000Y-115964000D02*
X83380000Y-121044000D01*
X83380000Y-121044000D02*
X80840000Y-121044000D01*
X83380000Y-133744000D02*
X113860000Y-133744000D01*
X113860000Y-133744000D02*
X113860000Y-115964000D01*
X83380000Y-115964000D02*
X113860000Y-115964000D01*
D11*
X84115000Y-67169064D02*
X84115000Y-66714936D01*
X82645000Y-67169064D02*
X82645000Y-66714936D01*
X143551064Y-129145000D02*
X143096936Y-129145000D01*
X143551064Y-127675000D02*
X143096936Y-127675000D01*
X95495800Y-89929000D02*
X95495800Y-86480000D01*
X84581600Y-94678800D02*
X84581600Y-96678800D01*
X84560000Y-88480000D02*
X82360000Y-88480000D01*
X87160000Y-94680000D02*
X87160000Y-96680000D01*
X84560000Y-88480000D02*
X84560000Y-86480000D01*
X79860000Y-88980000D02*
X79860000Y-94180000D01*
X84581600Y-94678800D02*
X82381600Y-94678800D01*
X92660000Y-94680000D02*
X87160000Y-94680000D01*
X95495800Y-93281800D02*
X95495800Y-96680000D01*
X92660000Y-88480000D02*
X87160000Y-88480000D01*
X82381600Y-94178800D02*
X79881600Y-94178800D01*
X82360000Y-88980000D02*
X79860000Y-88980000D01*
X92660000Y-88480000D02*
X92660000Y-86480000D01*
X92660000Y-94680000D02*
X92660000Y-96680000D01*
X87160000Y-88480000D02*
X87160000Y-86480000D01*
X82381600Y-94678800D02*
X82381600Y-94178800D01*
X82360000Y-88480000D02*
X82360000Y-88980000D01*
X163363064Y-102221000D02*
X162908936Y-102221000D01*
X163363064Y-100751000D02*
X162908936Y-100751000D01*
X101641064Y-91099000D02*
X101186936Y-91099000D01*
X101641064Y-92569000D02*
X101186936Y-92569000D01*
X183429064Y-129145000D02*
X182974936Y-129145000D01*
X183429064Y-127675000D02*
X182974936Y-127675000D01*
X101133000Y-110783936D02*
X101133000Y-111238064D01*
X99663000Y-110783936D02*
X99663000Y-111238064D01*
X101695000Y-139559064D02*
X101695000Y-139104936D01*
X103165000Y-139559064D02*
X103165000Y-139104936D01*
X143551064Y-102221000D02*
X143096936Y-102221000D01*
X143551064Y-100751000D02*
X143096936Y-100751000D01*
X183429064Y-102221000D02*
X182974936Y-102221000D01*
X183429064Y-100751000D02*
X182974936Y-100751000D01*
X108245000Y-139559064D02*
X108245000Y-139104936D01*
X106775000Y-139559064D02*
X106775000Y-139104936D01*
X112817064Y-53961000D02*
X112362936Y-53961000D01*
X112817064Y-52491000D02*
X112362936Y-52491000D01*
X123485064Y-100751000D02*
X123030936Y-100751000D01*
X123485064Y-102221000D02*
X123030936Y-102221000D01*
X85947000Y-66680748D02*
X85947000Y-67203252D01*
X87417000Y-66680748D02*
X87417000Y-67203252D01*
X163363064Y-127675000D02*
X162908936Y-127675000D01*
X163363064Y-129145000D02*
X162908936Y-129145000D01*
%LPC*%
D12*
X215510800Y-120408000D03*
X215510800Y-104408000D03*
X215460000Y-96913000D03*
X215460000Y-80913000D03*
D13*
X83512000Y-50726000D03*
X83512000Y-55726000D03*
X83512000Y-53226000D03*
X100012000Y-55726000D03*
X100012000Y-50726000D03*
D14*
X111677500Y-46622000D03*
X113502500Y-46622000D03*
D15*
X102326500Y-81928000D03*
X100501500Y-81928000D03*
X124170500Y-128410000D03*
X122345500Y-128410000D03*
D16*
X111640000Y-49670000D03*
X113540000Y-49670000D03*
D15*
X102326500Y-101994000D03*
X100501500Y-101994000D03*
D17*
X95960000Y-105296000D03*
D18*
X94060000Y-101596000D03*
X94060000Y-108996000D03*
X85860000Y-108996000D03*
X85860000Y-101596000D03*
D19*
X84650000Y-116345000D03*
X87190000Y-116345000D03*
X89730000Y-116345000D03*
X92270000Y-116345000D03*
X94810000Y-116345000D03*
X97350000Y-116345000D03*
X99890000Y-116345000D03*
X102430000Y-116345000D03*
X104970000Y-116345000D03*
X107510000Y-116345000D03*
X110050000Y-116345000D03*
X112590000Y-116345000D03*
X112590000Y-133363000D03*
X110050000Y-133363000D03*
X107510000Y-133363000D03*
X104970000Y-133363000D03*
X102430000Y-133363000D03*
X99890000Y-133363000D03*
X97350000Y-133363000D03*
X94810000Y-133363000D03*
X92270000Y-133363000D03*
X89730000Y-133363000D03*
X87190000Y-133363000D03*
X84650000Y-133363000D03*
D20*
X83380000Y-67854500D03*
X83380000Y-66029500D03*
D15*
X144236500Y-128410000D03*
X142411500Y-128410000D03*
D17*
X95960000Y-91580000D03*
D18*
X94060000Y-87880000D03*
X94060000Y-95280000D03*
X85860000Y-87880000D03*
X85860000Y-95280000D03*
D15*
X164048500Y-101486000D03*
X162223500Y-101486000D03*
X102326500Y-91834000D03*
X100501500Y-91834000D03*
X184114500Y-128410000D03*
X182289500Y-128410000D03*
D21*
X100398000Y-110098500D03*
X100398000Y-111923500D03*
D20*
X102430000Y-140244500D03*
X102430000Y-138419500D03*
D15*
X144236500Y-101486000D03*
X142411500Y-101486000D03*
X184114500Y-101486000D03*
X182289500Y-101486000D03*
D20*
X107510000Y-140244500D03*
X107510000Y-138419500D03*
D15*
X113502500Y-53226000D03*
X111677500Y-53226000D03*
X124170500Y-101486000D03*
X122345500Y-101486000D03*
D22*
X86682000Y-65992000D03*
X86682000Y-67892000D03*
D15*
X164048500Y-128410000D03*
X162223500Y-128410000D03*
M02*
